<?xml version="1.0" encoding="UTF-8" standalone="no"?>
<!-- Created with Inkscape (http://www.inkscape.org/) -->

<svg
   width="135.46666mm"
   height="135.46666mm"
   viewBox="0 0 135.46666 135.46666"
   version="1.1"
   id="svg1"
   inkscape:version="1.4 (e7c3feb100, 2024-10-09)"
   sodipodi:docname="Triggers.svg"
   xmlns:inkscape="http://www.inkscape.org/namespaces/inkscape"
   xmlns:sodipodi="http://sodipodi.sourceforge.net/DTD/sodipodi-0.dtd"
   xmlns="http://www.w3.org/2000/svg"
   xmlns:svg="http://www.w3.org/2000/svg">
  <sodipodi:namedview
     id="namedview1"
     pagecolor="#4d4d4d"
     bordercolor="#eeeeee"
     borderopacity="1"
     inkscape:showpageshadow="0"
     inkscape:pageopacity="0"
     inkscape:pagecheckerboard="false"
     inkscape:deskcolor="#181825"
     inkscape:document-units="px"
     inkscape:zoom="0.54690293"
     inkscape:cx="232.21671"
     inkscape:cy="396.77974"
     inkscape:window-width="1920"
     inkscape:window-height="1080"
     inkscape:window-x="0"
     inkscape:window-y="0"
     inkscape:window-maximized="1"
     inkscape:current-layer="g6" />
  <defs
     id="defs1">
    <inkscape:path-effect
       effect="bspline"
       id="path-effect13"
       is_visible="true"
       lpeversion="1.3"
       weight="33.333333"
       steps="2"
       helper_size="0"
       apply_no_weight="true"
       apply_with_weight="true"
       only_selected="false"
       uniform="false" />
    <inkscape:path-effect
       effect="offset"
       id="path-effect12"
       is_visible="true"
       lpeversion="1.3"
       linejoin_type="miter"
       unit="px"
       offset="-25"
       miter_limit="4"
       attempt_force_join="false"
       update_on_knot_move="true" />
    <inkscape:path-effect
       effect="offset"
       id="path-effect10"
       is_visible="true"
       lpeversion="1.3"
       linejoin_type="miter"
       unit="px"
       offset="-25"
       miter_limit="4"
       attempt_force_join="false"
       update_on_knot_move="true" />
    <inkscape:path-effect
       effect="mirror_symmetry"
       start_point="127.5075,135.46666"
       end_point="127.5075,175.3161"
       center_point="127.5075,155.39138"
       id="path-effect9"
       is_visible="true"
       lpeversion="1.2"
       lpesatellites=""
       mode="X"
       discard_orig_path="false"
       fuse_paths="false"
       oposite_fuse="false"
       split_items="false"
       split_open="false"
       link_styles="false" />
    <inkscape:path-effect
       effect="mirror_symmetry"
       start_point="127.50751,135.46666"
       end_point="127.50751,175.3161"
       center_point="127.50751,155.39138"
       id="path-effect6"
       is_visible="true"
       lpeversion="1.2"
       lpesatellites=""
       mode="X"
       discard_orig_path="false"
       fuse_paths="false"
       oposite_fuse="false"
       split_items="true"
       split_open="false"
       link_styles="false" />
    <inkscape:path-effect
       effect="offset"
       id="path-effect2"
       is_visible="true"
       lpeversion="1.3"
       linejoin_type="miter"
       unit="px"
       offset="-25"
       miter_limit="4"
       attempt_force_join="false"
       update_on_knot_move="true" />
  </defs>
  <g
     inkscape:label="Calque 1"
     inkscape:groupmode="layer"
     id="layer1"
     transform="translate(-67.73333,-67.73333)">
    <g
       id="g2"
       inkscape:label="template"
       style="display:none">
      <rect
         style="fill:#ff0000;stroke-width:3.96875;stroke-linecap:round;stroke-linejoin:round;paint-order:stroke fill markers"
         id="rect1"
         width="135.46666"
         height="135.46666"
         x="67.73333"
         y="67.73333" />
      <rect
         style="fill:#00ff00;stroke-width:2.80129;stroke-linecap:round;stroke-linejoin:round;paint-order:stroke fill markers"
         id="rect2"
         width="95.617188"
         height="95.61721"
         x="87.658058"
         y="107.58277" />
      <rect
         style="fill:#00ffff;stroke-width:1.02092;stroke-linecap:round;stroke-linejoin:round;paint-order:stroke fill markers"
         id="rect4"
         width="95.617188"
         height="12.7"
         x="87.658058"
         y="94.882774" />
      <rect
         style="fill:#00ffff;stroke-width:0.589428;stroke-linecap:round;stroke-linejoin:round;paint-order:stroke fill markers"
         id="rect5"
         width="95.617188"
         height="4.2333336"
         x="87.658058"
         y="63.5" />
    </g>
    <g
       id="g4"
       transform="matrix(1.4116711,0,0,1.4116711,-55.767719,-35.842996)"
       style="display:inline">
      <circle
         style="display:inline;fill:#000000;stroke:none;stroke-width:3.96875;stroke-linecap:round;stroke-linejoin:round;paint-order:stroke fill markers"
         id="path2"
         cx="135.46666"
         cy="135.46666"
         r="33.866669" />
      <path
         style="display:inline;fill:#ff00ff;stroke:none;stroke-width:3.96875;stroke-linecap:round;stroke-linejoin:round;paint-order:stroke fill markers"
         id="circle2"
         inkscape:path-effect="#path-effect2"
         sodipodi:type="arc"
         sodipodi:cx="135.46666"
         sodipodi:cy="135.46666"
         sodipodi:rx="33.866669"
         sodipodi:ry="33.866669"
         d="m 135.4668,106.29492 c 16.16624,0 29.17187,13.00563 29.17187,29.17188 0,16.16624 -13.00563,29.17187 -29.17187,29.17187 -16.16625,0 -29.17188,-13.00563 -29.17188,-29.17187 0,-16.16625 13.00563,-29.17188 29.17188,-29.17188 z" />
    </g>
    <g
       id="g6"
       inkscape:label="icon"
       style="display:none">
      <g
         id="g10">
        <rect
           style="fill:#000000;fill-opacity:1;stroke:none;stroke-width:10.5071;stroke-linecap:round;stroke-linejoin:round;paint-order:stroke fill markers"
           id="rect3"
           width="39.849457"
           height="39.849442"
           x="67.73333"
           y="135.46666"
           rx="3.5023937"
           ry="3.5023937"
           sodipodi:type="rect"
           transform="matrix(1.1331536,0,0,1.1331536,-9.0189367,-20.690926)" />
        <path
           style="fill:#ff00ff;fill-opacity:1;stroke:none;stroke-width:10.5071;stroke-linecap:round;stroke-linejoin:round;paint-order:stroke fill markers"
           id="path7"
           width="39.849457"
           height="39.849442"
           x="67.73333"
           y="135.46666"
           rx="3.5023937"
           ry="3.5023937"
           inkscape:path-effect="#path-effect10"
           sodipodi:type="rect"
           d="m 73.580078,141.31445 h 28.154302 v 28.1543 H 73.580078 Z"
           transform="matrix(1.1331536,0,0,1.1331536,-9.0189367,-20.690926)" />
      </g>
      <g
         id="g11"
         transform="translate(90.311104)">
        <rect
           style="fill:#000000;fill-opacity:1;stroke:none;stroke-width:10.5071;stroke-linecap:round;stroke-linejoin:round;paint-order:stroke fill markers"
           id="path10"
           width="39.849457"
           height="39.849442"
           x="67.73333"
           y="135.46666"
           rx="3.5023937"
           ry="3.5023937"
           sodipodi:type="rect"
           transform="matrix(1.1331536,0,0,1.1331536,-9.0189367,-20.690926)" />
        <path
           style="fill:#ff00ff;fill-opacity:1;stroke:none;stroke-width:10.5071;stroke-linecap:round;stroke-linejoin:round;paint-order:stroke fill markers"
           id="path11"
           width="39.849457"
           height="39.849442"
           x="67.73333"
           y="135.46666"
           rx="3.5023937"
           ry="3.5023937"
           inkscape:path-effect="#path-effect12"
           sodipodi:type="rect"
           d="m 73.580078,141.31445 h 28.154302 v 28.1543 H 73.580078 Z"
           transform="matrix(1.1331536,0,0,1.1331536,-9.0189367,-20.690926)" />
      </g>
      <path
         style="fill:#ff00ff;fill-opacity:1;stroke:#000000;stroke-width:6.61458;stroke-linecap:square;stroke-linejoin:miter;stroke-dasharray:none;stroke-opacity:1;paint-order:stroke fill markers"
         d="m 118.18055,155.39138 c 9.30137,-2e-5 18.60272,-5e-5 27.90409,-7e-5"
         id="path12"
         inkscape:path-effect="#path-effect13"
         inkscape:original-d="m 118.18055,155.39138 c 9.30137,-2e-5 18.60272,-5e-5 27.90409,-7e-5"
         sodipodi:nodetypes="cc" />
      <path
         sodipodi:type="star"
         style="fill:#000000;fill-opacity:1;stroke:none;stroke-width:0.232865;stroke-linecap:square;stroke-linejoin:miter;stroke-dasharray:none;stroke-opacity:1;paint-order:stroke fill markers"
         id="path13"
         inkscape:flatsided="true"
         sodipodi:sides="3"
         sodipodi:cx="122.51851"
         sodipodi:cy="132.81361"
         sodipodi:r1="0.24189241"
         sodipodi:r2="0.12094621"
         sodipodi:arg1="0"
         sodipodi:arg2="1.0471976"
         inkscape:rounded="0"
         inkscape:randomized="0"
         d="m 122.7604,132.81361 -0.36284,0.20949 v -0.41897 z"
         inkscape:transform-center-x="-1.4642092"
         transform="matrix(24.211045,0,0,33.326107,-2816.0976,-4270.7694)"
         inkscape:transform-center-y="2.0417379e-05" />
    </g>
    <path
       style="font-size:42.3333px;line-height:1;font-family:Pusab;-inkscape-font-specification:Pusab;text-align:center;letter-spacing:0px;text-orientation:upright;text-anchor:middle;fill:#ffffff;stroke-width:3.96875;stroke-linecap:round;stroke-linejoin:round;paint-order:stroke fill markers"
       d="m 83.333203,74.478123 c -1.015999,5.333996 -1.566332,10.752659 -1.693332,16.255988 -0.04233,1.481665 0.127,2.455331 0.423333,3.005664 0.423333,0.804333 1.312332,1.185333 2.666998,1.227666 1.312332,0.04233 2.243665,-0.127 2.793998,-0.465666 0.677332,-0.423333 1.058332,-1.227666 1.185332,-2.412999 0.127,-1.185332 0.211667,-2.074331 0.254,-2.666998 0.211666,-2.624664 0.465666,-3.936997 0.761999,-3.936997 0.08467,0 0.169334,0.08467 0.296333,0.211667 l 2.455332,3.174998 c 0.634999,0.804332 1.269999,1.227665 1.904999,1.227665 0.634999,0 1.269999,-0.423333 1.947331,-1.269999 1.312333,-1.650999 2.158999,-2.709331 2.539998,-3.217331 0.127,-0.211666 0.254,-0.338666 0.381,-0.338666 0.211667,0 0.508,1.904998 0.973666,5.714996 0.21167,1.566332 0.71967,2.624664 1.524,3.259664 0.71967,0.550333 1.905,0.804333 3.556,0.846666 l 2.70933,0.04233 c 1.48166,0.04233 2.58233,-0.169333 3.38666,-0.634999 0.97367,-0.550333 1.43933,-1.523999 1.35467,-2.878665 -0.381,-5.884329 -1.10067,-11.599324 -2.159,-17.144987 -0.889,-4.571997 -2.667,-6.857995 -5.37633,-6.857995 h -1.43933 c -1.82033,0 -3.38667,0.762 -4.614332,2.243665 -1.735666,2.158999 -2.709332,3.217331 -2.920998,3.217331 -0.211667,0.04233 -0.465667,-0.127 -0.719666,-0.423333 L 93.027529,69.48279 c -0.973666,-1.227665 -2.201332,-1.862665 -3.682997,-1.862665 h -0.931333 c -2.497665,0 -4.190997,2.285998 -5.079996,6.857995 z m 56.726597,8.59366 c 0,-1.439332 -0.254,-3.005664 -0.71967,-4.656663 -2.07433,-5.206996 -6.13832,-7.789327 -12.23432,-7.789327 -7.83166,0 -12.53066,4.614329 -12.53066,12.44599 0,7.789328 4.74133,12.403658 12.53066,12.403658 3.937,0 7.06966,-1.100666 9.39799,-3.301998 2.37067,-2.201332 3.556,-5.249329 3.556,-9.10166 z m -12.02266,5.503329 c -0.55033,0.127 -1.016,0 -1.48166,-0.465666 -1.22767,-1.227666 -1.86267,-3.132664 -1.86267,-5.714996 0,-0.380999 0,-0.804332 0.0423,-1.269999 0.16933,-2.539998 0.93133,-3.767663 2.24366,-3.682997 1.22767,0.08467 2.11667,1.100666 2.58233,3.047998 0.29633,1.312332 0.42333,2.751664 0.33867,4.317997 -0.127,2.243665 -0.762,3.47133 -1.86267,3.767663 z m 32.08864,-16.382987 c -0.71967,2.158998 -1.22767,3.767664 -1.60867,4.868329 -0.80433,2.328332 -1.48166,3.725331 -2.032,4.190997 -0.0847,0.04233 -0.16933,0.08467 -0.29633,0.08467 -0.381,0 -0.93133,-0.846666 -1.651,-2.497665 l -0.635,-1.523999 c -0.381,-1.015999 -0.67733,-1.693332 -0.80433,-2.074332 -0.84667,-2.031998 -1.651,-3.21733 -2.413,-3.59833 -0.889,-0.423333 -2.62466,-0.592666 -5.29166,-0.508 -3.175,0.127 -4.78366,1.015999 -4.78366,2.709331 0,1.481666 0.59266,3.513665 1.73566,6.095996 1.651,3.682997 3.25967,7.027328 4.91066,9.948326 1.10067,1.989665 1.94734,3.301997 2.58234,3.894664 0.97366,0.931332 2.11666,1.396998 3.51366,1.396998 2.159,0 3.97933,-1.015999 5.37633,-3.047997 0.59267,-0.846666 1.56633,-2.836331 2.87866,-5.968996 1.31234,-3.047997 2.37067,-5.884329 3.175,-8.508993 0.635,-2.074332 0.97367,-3.598331 0.97367,-4.61433 0,-1.058333 -0.889,-1.566332 -2.667,-1.608666 -1.778,-0.04233 -2.75167,0.211667 -2.96333,0.762 z m 27.51667,16.425321 c -1.524,0.211666 -2.70933,0.338666 -3.556,0.338666 -1.27,0.04233 -2.03199,-0.04233 -2.28599,-0.211666 -0.46567,-0.296333 -0.71967,-0.804333 -0.71967,-1.566333 0,-0.550332 0.127,-0.973665 0.381,-1.269999 0.508,-0.423333 1.43933,-0.634999 2.75166,-0.592666 1.35467,0.04233 2.159,-0.04233 2.45534,-0.254 0.46566,-0.296333 0.71966,-0.931332 0.71966,-1.904998 0,-1.439332 -0.42333,-2.158999 -1.27,-2.201332 -1.73566,-0.08467 -2.75166,-0.169333 -3.09033,-0.211666 -1.31233,-0.254 -1.94733,-0.846666 -1.94733,-1.735666 0,-0.804332 0.21167,-1.312332 0.67733,-1.566332 0.33867,-0.211666 1.10067,-0.296333 2.32833,-0.254 0.381,0 0.97367,0.08467 1.778,0.211667 0.80434,0.127 1.43933,0.211666 1.86267,0.211666 0.55033,0 0.97366,-0.380999 1.27,-1.100666 0.21166,-0.550332 0.33866,-1.185332 0.33866,-1.820331 0,-0.973666 -0.33866,-1.693333 -1.05833,-2.158999 -0.42333,-0.296333 -1.22767,-0.550333 -2.37066,-0.761999 -2.45534,-0.465667 -5.29167,-0.719666 -8.509,-0.719666 -5.46099,0 -8.50899,0.677332 -9.22866,2.031998 -0.46566,0.888999 -0.71966,4.275664 -0.71966,10.159992 v 2.963332 c 0,4.021663 0.33866,6.476995 1.016,7.323661 0.84666,1.058332 3.97933,1.566332 9.39799,1.566332 3.302,0 5.96899,-0.211667 8.04333,-0.592666 2.28599,-0.423333 3.42899,-1.396999 3.42899,-2.920998 0,-2.158999 -0.55033,-3.132664 -1.69333,-2.963331 z"
       id="text4"
       aria-label="Move" />
  </g>
</svg>
