<?xml version="1.0" encoding="UTF-8" standalone="no"?>
<!-- Created with Inkscape (http://www.inkscape.org/) -->

<svg
   width="149.22501mm"
   height="149.22501mm"
   viewBox="0 0 149.22502 149.22502"
   version="1.1"
   id="svg1"
   inkscape:version="1.4.1 (93de688d07, 2025-03-30)"
   sodipodi:docname="SwingNoGlow.svg"
   inkscape:export-filename="cube.png"
   inkscape:export-xdpi="96"
   inkscape:export-ydpi="96"
   xml:space="preserve"
   xmlns:inkscape="http://www.inkscape.org/namespaces/inkscape"
   xmlns:sodipodi="http://sodipodi.sourceforge.net/DTD/sodipodi-0.dtd"
   xmlns="http://www.w3.org/2000/svg"
   xmlns:svg="http://www.w3.org/2000/svg"><sodipodi:namedview
     id="namedview1"
     pagecolor="#404040"
     bordercolor="#eeeeee"
     borderopacity="1"
     inkscape:showpageshadow="0"
     inkscape:pageopacity="0"
     inkscape:pagecheckerboard="false"
     inkscape:deskcolor="#181825"
     inkscape:document-units="px"
     inkscape:zoom="0.70710678"
     inkscape:cx="302.6417"
     inkscape:cy="124.45079"
     inkscape:window-width="1920"
     inkscape:window-height="1080"
     inkscape:window-x="0"
     inkscape:window-y="0"
     inkscape:window-maximized="1"
     inkscape:current-layer="g20"
     showgrid="false"><inkscape:page
       x="0"
       y="0"
       width="149.22502"
       height="149.22502"
       id="page1"
       margin="0"
       bleed="0" /></sodipodi:namedview><defs
     id="defs1"><inkscape:path-effect
       effect="mirror_symmetry"
       start_point="150.76362,74.612511"
       end_point="-15.816899,74.61251"
       center_point="67.47336,74.61251"
       id="path-effect6"
       is_visible="true"
       lpeversion="1.2"
       lpesatellites=""
       mode="free"
       discard_orig_path="false"
       fuse_paths="false"
       oposite_fuse="false"
       split_items="false"
       split_open="false"
       link_styles="false" /><inkscape:path-effect
       effect="fillet_chamfer"
       id="path-effect16"
       is_visible="true"
       lpeversion="1"
       nodesatellites_param="F,0,0,1,0,3,0,1 @ F,0,0,1,0,3,0,1 @ F,0,0,1,0,3,0,1 @ F,0,0,1,0,3,0,1"
       radius="3"
       unit="px"
       method="auto"
       mode="F"
       chamfer_steps="1"
       flexible="false"
       use_knot_distance="true"
       apply_no_radius="true"
       apply_with_radius="true"
       only_selected="false"
       hide_knots="false" /><inkscape:path-effect
       effect="mirror_symmetry"
       start_point="67.73333,15.949046"
       end_point="67.73333,78.449112"
       center_point="67.73333,47.199079"
       id="path-effect15"
       is_visible="true"
       lpeversion="1.2"
       lpesatellites=""
       mode="free"
       discard_orig_path="false"
       fuse_paths="false"
       oposite_fuse="false"
       split_items="false"
       split_open="false"
       link_styles="false" /><inkscape:path-effect
       effect="mirror_symmetry"
       start_point="53.493657,16.004937"
       end_point="53.493657,88.608874"
       center_point="53.493657,52.306905"
       id="path-effect13"
       is_visible="true"
       lpeversion="1.2"
       lpesatellites=""
       mode="free"
       discard_orig_path="false"
       fuse_paths="false"
       oposite_fuse="false"
       split_items="false"
       split_open="false"
       link_styles="false" /><inkscape:path-effect
       effect="fillet_chamfer"
       id="path-effect5"
       is_visible="true"
       lpeversion="1"
       nodesatellites_param="F,0,0,1,0,0,0,1 @ F,0,0,1,0,16.938008,0,1 @ F,0,0,1,0,7.0382784,0,1 @ F,0,0,1,0,7.0382784,0,1 @ F,0,0,1,0,0,0,1"
       radius="0"
       unit="px"
       method="auto"
       mode="F"
       chamfer_steps="1"
       flexible="false"
       use_knot_distance="true"
       apply_no_radius="true"
       apply_with_radius="true"
       only_selected="false"
       hide_knots="false" /><inkscape:path-effect
       effect="mirror_symmetry"
       start_point="67.733331,0"
       end_point="67.733329,137.19875"
       center_point="67.73333,68.599375"
       id="path-effect4"
       is_visible="true"
       lpeversion="1.2"
       lpesatellites=""
       mode="free"
       discard_orig_path="false"
       fuse_paths="false"
       oposite_fuse="false"
       split_items="false"
       split_open="false"
       link_styles="false" /><clipPath
       clipPathUnits="userSpaceOnUse"
       id="clipPath49"><path
         id="path49"
         style="display:inline;fill:#6600ff;fill-opacity:1;stroke:#000000;stroke-width:0;stroke-linecap:round;stroke-linejoin:round;stroke-dasharray:none;paint-order:stroke fill markers"
         d="m 81.007985,19.624645 a 54.988023,54.988023 0 0 0 -25.21035,6.261634 L 51.807696,21.520136 A 54.98802,54.98802 0 0 0 30.33097,40.988718 l 4.09639,4.482932 A 54.988023,54.988023 0 0 0 28.030335,60.118818 H 22.2095 A 54.98802,54.98802 0 0 0 20.19877,74.61251 54.98802,54.98802 0 0 0 22.2095,89.106202 h 5.820835 a 54.988023,54.988023 0 0 0 6.397025,14.647168 l -4.09639,4.48293 a 54.98802,54.98802 0 0 0 21.476726,19.46858 l 3.989939,-4.36614 a 54.988023,54.988023 0 0 0 25.21035,6.26164 A 54.988023,54.988023 0 0 0 135.99585,74.61251 54.988023,54.988023 0 0 0 81.007985,19.624645 Z" /></clipPath></defs><g
     inkscape:label="Calque 1"
     inkscape:groupmode="layer"
     id="layer1"><path
       id="circle34"
       style="display:none;fill:#6600ff;fill-opacity:1;stroke:#000000;stroke-width:0;stroke-linecap:round;stroke-linejoin:round;stroke-dasharray:none;paint-order:stroke fill markers"
       d="M 81.007986,19.624645 A 54.988022,54.988022 0 0 0 55.797635,25.886279 L 51.807697,21.520136 A 54.988021,54.988021 0 0 0 30.330969,40.988718 l 4.096392,4.482931 a 54.988022,54.988022 0 0 0 -6.397027,14.64717 H 22.2095 A 54.988021,54.988021 0 0 0 20.19877,74.61251 54.988021,54.988021 0 0 0 22.2095,89.106201 h 5.820834 a 54.988022,54.988022 0 0 0 6.397027,14.647169 l -4.096392,4.48293 a 54.988021,54.988021 0 0 0 21.476728,19.46858 l 3.989938,-4.36614 A 54.988022,54.988022 0 0 0 81.007986,129.60038 54.988022,54.988022 0 0 0 135.99585,74.61251 54.988022,54.988022 0 0 0 81.007986,19.624645 Z" /><g
       id="g51"
       transform="matrix(1.059314,0,0,1.0598519,-8.117051,-4.4656997)"
       style="stroke-width:0.943768"><g
         id="g18"
         inkscape:label="glow"
         style="display:none;stroke-width:0.943768"><circle
           style="fill:#000000;fill-opacity:0;stroke:#00ff7d;stroke-width:24.9705;stroke-linecap:round;stroke-linejoin:round;stroke-dasharray:none;paint-order:stroke fill markers"
           id="path1"
           cx="81.007851"
           cy="74.612511"
           r="54.988022" /><g
           id="g17"
           style="stroke:#00ff7d;stroke-width:27.8747;stroke-dasharray:none;stroke-opacity:1"
           transform="matrix(0.89581312,0,0,0.89581312,14.168986,7.7736447)"><path
             d="M 8.9756601,90.791879 H 29.491333 V 58.433141 H 8.9756601 a 61.383362,61.383362 0 0 0 -2.244587,16.179369 61.383362,61.383362 0 0 0 2.244587,16.179369 z"
             style="fill:#6600ff;fill-opacity:1;stroke:#00ff7d;stroke-width:27.8747;stroke-linecap:round;stroke-linejoin:round;stroke-dasharray:none;stroke-opacity:1;paint-order:stroke fill markers"
             id="path15" /><path
             d="M 42.016253,133.87975 55.687985,118.91815 31.800528,97.090105 18.04169,112.14689 a 61.383362,61.383362 0 0 0 23.974563,21.73286 z"
             style="fill:#6600ff;fill-opacity:1;stroke:#00ff7d;stroke-width:27.8747;stroke-linecap:round;stroke-linejoin:round;stroke-dasharray:none;stroke-opacity:1;paint-order:stroke fill markers"
             id="path16" /><path
             d="M 42.016253,15.345267 A 61.383362,61.383362 0 0 0 18.04169,37.078127 L 31.800528,52.134915 55.687985,30.306871 Z"
             style="fill:#6600ff;fill-opacity:1;stroke:#00ff7d;stroke-width:27.8747;stroke-linecap:round;stroke-linejoin:round;stroke-dasharray:none;stroke-opacity:1;paint-order:stroke fill markers"
             id="path17" /></g></g><g
         id="g19"
         inkscape:label="outline"
         style="stroke-width:0.943768"><circle
           style="fill:none;fill-opacity:0;stroke:#280732;stroke-width:12.4853;stroke-linecap:round;stroke-linejoin:round;stroke-dasharray:none;paint-order:stroke fill markers;stroke-opacity:1"
           id="circle1"
           cx="81.007851"
           cy="74.612511"
           r="54.988022" /><g
           id="g14"
           style="stroke:#000000;stroke-width:13.9374;stroke-dasharray:none"
           transform="matrix(0.89581312,0,0,0.89581312,14.168986,7.7736447)"><path
             d="M 8.9756601,90.791879 H 29.491333 V 58.433141 H 8.9756601 a 61.383362,61.383362 0 0 0 -2.244587,16.179369 61.383362,61.383362 0 0 0 2.244587,16.179369 z"
             style="fill:#6600ff;fill-opacity:1;stroke:#280732;stroke-width:13.9374;stroke-linecap:round;stroke-linejoin:round;stroke-dasharray:none;paint-order:stroke fill markers;stroke-opacity:1"
             id="path12" /><path
             d="M 42.016253,133.87975 55.687985,118.91815 31.800528,97.090105 18.04169,112.14689 a 61.383362,61.383362 0 0 0 23.974563,21.73286 z"
             style="fill:#6600ff;fill-opacity:1;stroke:#280732;stroke-width:13.9374;stroke-linecap:round;stroke-linejoin:round;stroke-dasharray:none;paint-order:stroke fill markers;stroke-opacity:1"
             id="path13" /><path
             d="M 42.016253,15.345267 A 61.383362,61.383362 0 0 0 18.04169,37.078127 L 31.800528,52.134915 55.687985,30.306871 Z"
             style="fill:#6600ff;fill-opacity:1;stroke:#280732;stroke-width:13.9374;stroke-linecap:round;stroke-linejoin:round;stroke-dasharray:none;paint-order:stroke fill markers;stroke-opacity:1"
             id="path14" /></g></g><g
         id="g20"
         inkscape:label="fill"
         style="stroke-width:0.943768"><g
           id="g9"
           transform="matrix(0.89581312,0,0,0.89581312,14.168986,7.7736447)"
           style="display:inline;fill:#6600ff;fill-opacity:1;stroke-width:1.05353"><path
             d="M 8.9756601,90.791879 H 29.491333 V 58.433141 H 8.9756601 a 61.383362,61.383362 0 0 0 -2.244587,16.179369 61.383362,61.383362 0 0 0 2.244587,16.179369 z"
             style="fill:#7d00ff;fill-opacity:1;stroke:#000000;stroke-width:0;stroke-linecap:round;stroke-linejoin:round;paint-order:stroke fill markers"
             id="path8" /><path
             d="M 42.016253,133.87975 55.687985,118.91815 31.800528,97.090105 18.04169,112.14689 a 61.383362,61.383362 0 0 0 23.974563,21.73286 z"
             style="fill:#7d00ff;fill-opacity:1;stroke-width:5.57494;stroke-linecap:round;stroke-linejoin:round;paint-order:stroke fill markers"
             id="path9" /><path
             d="M 42.016253,15.345267 A 61.383362,61.383362 0 0 0 18.04169,37.078127 L 31.800528,52.134915 55.687985,30.306871 Z"
             style="fill:#7d00ff;fill-opacity:1;stroke-width:5.57494;stroke-linecap:round;stroke-linejoin:round;paint-order:stroke fill markers"
             id="path7" /></g><circle
           style="fill:#7d00ff;fill-opacity:1;stroke:#000000;stroke-width:0;stroke-linecap:round;stroke-linejoin:round;stroke-dasharray:none;paint-order:stroke fill markers"
           id="circle2"
           cx="81.007851"
           cy="74.612511"
           r="54.988022" /></g><circle
         style="fill:none;fill-opacity:1;stroke:#4900b2;stroke-width:18.72789034;stroke-linecap:round;stroke-linejoin:round;stroke-dasharray:none;stroke-opacity:1;paint-order:stroke fill markers"
         id="circle22"
         cx="99.221794"
         cy="60.118816"
         r="16.772837"
         inkscape:label="eye-shadow" /><g
         id="g42"
         style="display:inline;stroke-width:0.943768"
         clip-path="url(#clipPath49)"
         inkscape:label="creases"><path
           style="fill:none;fill-opacity:1;stroke:#4900b2;stroke-width:3.74558;stroke-linecap:round;stroke-linejoin:round;stroke-dasharray:none;stroke-opacity:1;paint-order:stroke fill markers"
           id="path40"
           sodipodi:type="arc"
           sodipodi:cx="100.71223"
           sodipodi:cy="182.99994"
           sodipodi:rx="128.17279"
           sodipodi:ry="128.17279"
           sodipodi:start="4.282616"
           sodipodi:end="4.9856421"
           sodipodi:open="true"
           sodipodi:arc-type="arc"
           d="M 47.307183,66.483135 A 128.17279,128.17279 0 0 1 135.30161,59.582604" /><path
           style="fill:none;fill-opacity:1;stroke:#4900b2;stroke-width:3.74558;stroke-linecap:round;stroke-linejoin:round;stroke-dasharray:none;stroke-opacity:1;paint-order:stroke fill markers"
           id="path41"
           sodipodi:type="arc"
           sodipodi:cx="102.29972"
           sodipodi:cy="193.05412"
           sodipodi:rx="128.17279"
           sodipodi:ry="128.17279"
           sodipodi:start="4.0287549"
           sodipodi:end="4.282339"
           sodipodi:open="true"
           sodipodi:arc-type="arc"
           d="M 21.343911,93.684001 A 128.17279,128.17279 0 0 1 48.862404,76.552117" /><path
           style="fill:none;fill-opacity:1;stroke:#4900b2;stroke-width:3.74558;stroke-linecap:round;stroke-linejoin:round;stroke-dasharray:none;stroke-opacity:1;paint-order:stroke fill markers"
           d="M 48.862405,76.552118 47.307184,66.483136"
           id="path42" /><path
           style="display:inline;fill:none;fill-opacity:1;stroke:#4900b2;stroke-width:3.74608;stroke-linecap:round;stroke-linejoin:round;stroke-dasharray:none;stroke-opacity:1;paint-order:stroke fill markers"
           id="path50"
           sodipodi:type="arc"
           sodipodi:cx="81.754707"
           sodipodi:cy="12.408834"
           sodipodi:rx="96.661697"
           sodipodi:ry="93.350273"
           sodipodi:start="4.2866909"
           sodipodi:end="5.5400125"
           sodipodi:open="true"
           sodipodi:arc-type="arc"
           d="M 41.837616,-72.60999 A 96.661697,93.350273 0 0 1 152.92918,-50.75453"
           transform="matrix(0.27731819,0.96077815,-0.95412271,0.2994159,0,0)" /></g><g
         id="g21"
         inkscape:label="eye"
         style="stroke-width:0.943768"><circle
           style="fill:none;fill-opacity:1;stroke:#280732;stroke-width:12.4853;stroke-linecap:round;stroke-linejoin:round;stroke-dasharray:none;paint-order:stroke fill markers;stroke-opacity:1"
           id="circle4"
           cx="99.221794"
           cy="60.118816"
           r="16.772837" /><circle
           style="fill:#00ffff;fill-opacity:1;stroke:#000000;stroke-width:0;stroke-linecap:round;stroke-linejoin:round;stroke-dasharray:none;paint-order:stroke fill markers"
           id="circle3"
           cx="99.221794"
           cy="60.118816"
           r="16.772837" /><circle
           style="fill:#ffffff;fill-opacity:1;stroke:#000000;stroke-width:0;stroke-linecap:round;stroke-linejoin:round;stroke-dasharray:none;paint-order:stroke fill markers"
           id="circle17"
           cx="93.930122"
           cy="54.827145"
           r="6.782114" /></g><circle
         style="fill:#4900b2;fill-opacity:1;stroke:none;stroke-width:0;stroke-linecap:round;stroke-linejoin:round;stroke-dasharray:none;stroke-opacity:1;paint-order:stroke fill markers"
         id="path51"
         cx="39.825516"
         cy="73.261154"
         r="2.1755791" /><circle
         style="fill:#4900b2;fill-opacity:1;stroke:none;stroke-width:0;stroke-linecap:round;stroke-linejoin:round;stroke-dasharray:none;stroke-opacity:1;paint-order:stroke fill markers"
         id="circle51"
         cx="56.521645"
         cy="70.615318"
         r="2.1755791" /></g></g></svg>
