<?xml version="1.0" encoding="UTF-8" standalone="no"?>
<!-- Created with Inkscape (http://www.inkscape.org/) -->

<svg
   width="33.866665mm"
   height="33.866665mm"
   viewBox="0 0 33.866665 33.866665"
   version="1.1"
   id="svg1"
   inkscape:version="1.3.2 (091e20ef0f, 2023-11-25, custom)"
   sodipodi:docname="ReboundPadOutline.svg"
   xml:space="preserve"
   xmlns:inkscape="http://www.inkscape.org/namespaces/inkscape"
   xmlns:sodipodi="http://sodipodi.sourceforge.net/DTD/sodipodi-0.dtd"
   xmlns="http://www.w3.org/2000/svg"
   xmlns:svg="http://www.w3.org/2000/svg"><sodipodi:namedview
     id="namedview1"
     pagecolor="#000000"
     bordercolor="#eeeeee"
     borderopacity="1"
     inkscape:showpageshadow="0"
     inkscape:pageopacity="0"
     inkscape:pagecheckerboard="false"
     inkscape:deskcolor="#181825"
     inkscape:document-units="px"
     inkscape:zoom="6.1875005"
     inkscape:cx="28.12121"
     inkscape:cy="116.84848"
     inkscape:window-width="944"
     inkscape:window-height="1019"
     inkscape:window-x="962"
     inkscape:window-y="47"
     inkscape:window-maximized="1"
     inkscape:current-layer="layer1" /><defs
     id="defs1"><inkscape:path-effect
       effect="mirror_symmetry"
       start_point="16.933333,15.443197"
       end_point="16.933333,24.621851"
       center_point="16.933333,20.032524"
       id="path-effect4"
       is_visible="true"
       lpeversion="1.2"
       lpesatellites=""
       mode="free"
       discard_orig_path="false"
       fuse_paths="true"
       oposite_fuse="false"
       split_items="false"
       split_open="false"
       link_styles="false" /><inkscape:path-effect
       effect="mirror_symmetry"
       start_point="16.933332,30.333893"
       end_point="16.933332,34.999671"
       center_point="16.933332,32.666782"
       id="path-effect3"
       is_visible="true"
       lpeversion="1.2"
       lpesatellites=""
       mode="free"
       discard_orig_path="false"
       fuse_paths="false"
       oposite_fuse="false"
       split_items="false"
       split_open="false"
       link_styles="false" /><inkscape:path-effect
       effect="bspline"
       id="path-effect2"
       is_visible="true"
       lpeversion="1.3"
       weight="33.333333"
       steps="2"
       helper_size="0"
       apply_no_weight="true"
       apply_with_weight="true"
       only_selected="false"
       uniform="false" /></defs><g
     inkscape:label="Calque 1"
     inkscape:groupmode="layer"
     id="layer1"><path
       id="path2"
       style="color:#000000;fill:#ffffff;stroke-linecap:round;stroke-linejoin:round;-inkscape-stroke:none;paint-order:stroke fill markers"
       d="M 16.929717 29.56624 C 15.031051 29.57104 13.102259 29.586545 11.322307 29.874748 C 9.4112929 30.18417 7.7853616 30.799308 6.4941781 31.550615 C 5.2029939 32.301921 4.2953646 33.16559 3.4824756 33.933415 A 1.322915 1.322915 0 0 0 3.073715 34.896147 L 4.3899137 34.896147 C 5.2028027 34.128323 6.0158009 33.360677 7.1602873 32.694731 C 8.3047735 32.028784 9.7809302 31.464572 11.534697 31.180612 C 13.168187 30.916124 15.04246 30.894483 16.933334 30.889673 C 18.824208 30.894473 20.698483 30.916128 22.331971 31.180612 C 24.085738 31.464572 25.561895 32.028784 26.706381 32.694731 C 27.850868 33.360677 28.663866 34.128323 29.476755 34.896147 L 30.797604 34.896147 A 1.322915 1.322915 0 0 0 30.38471 33.933415 C 29.571816 33.16559 28.662124 32.301921 27.37094 31.550615 C 26.079756 30.799308 24.453825 30.18417 22.542811 29.874748 C 20.762859 29.586547 18.836135 29.57107 16.937468 29.56624 A 1.3230472 1.3230472 0 0 0 16.929717 29.56624 z "
       transform="translate(-7.5e-7,-8.5639583e-5)" /></g></svg>
