<?xml version="1.0" encoding="UTF-8" standalone="no"?>
<!-- Created with Inkscape (http://www.inkscape.org/) -->

<svg
   width="291.04166mm"
   height="238.125mm"
   viewBox="0 0 291.04166 238.125"
   version="1.1"
   id="svg1"
   inkscape:version="1.3.2 (091e20ef0f, 2023-11-25, custom)"
   xml:space="preserve"
   sodipodi:docname="SpeedPortal4x.svg"
   xmlns:inkscape="http://www.inkscape.org/namespaces/inkscape"
   xmlns:sodipodi="http://sodipodi.sourceforge.net/DTD/sodipodi-0.dtd"
   xmlns:xlink="http://www.w3.org/1999/xlink"
   xmlns="http://www.w3.org/2000/svg"
   xmlns:svg="http://www.w3.org/2000/svg"><sodipodi:namedview
     id="namedview1"
     pagecolor="#4d4d4d"
     bordercolor="#eeeeee"
     borderopacity="1"
     inkscape:showpageshadow="0"
     inkscape:pageopacity="0"
     inkscape:pagecheckerboard="false"
     inkscape:deskcolor="#181825"
     inkscape:document-units="px"
     inkscape:zoom="0.45998769"
     inkscape:cx="605.45098"
     inkscape:cy="519.57912"
     inkscape:window-width="1900"
     inkscape:window-height="1019"
     inkscape:window-x="6"
     inkscape:window-y="47"
     inkscape:window-maximized="1"
     inkscape:current-layer="layer1"
     showgrid="false" /><defs
     id="defs1"><inkscape:path-effect
       effect="tiling"
       id="path-effect23"
       is_visible="true"
       lpeversion="1"
       unit="px"
       seed="1;1"
       lpesatellites=""
       num_rows="1"
       num_cols="4"
       gapx="-69.05"
       gapy="0"
       offset="0"
       offset_type="false"
       scale="0"
       rotate="0"
       mirrorrowsx="false"
       mirrorrowsy="false"
       mirrorcolsx="false"
       mirrorcolsy="false"
       mirrortrans="false"
       shrink_interp="false"
       split_items="false"
       link_styles="false"
       interpolate_scalex="false"
       interpolate_scaley="true"
       interpolate_rotatex="false"
       interpolate_rotatey="true"
       random_scale="false"
       random_rotate="false"
       random_gap_y="false"
       random_gap_x="false"
       transformorigin="translate(-76.694259,0.71668838)" /><linearGradient
       id="linearGradient4"><stop
         style="stop-color:#f92521;stop-opacity:1;"
         offset="0"
         id="stop20" /><stop
         style="stop-color:#f71e1e;stop-opacity:1;"
         offset="0.5"
         id="stop21" /><stop
         style="stop-color:#d90101;stop-opacity:1;"
         offset="0.5"
         id="stop22" /><stop
         style="stop-color:#b10000;stop-opacity:1;"
         offset="1"
         id="stop23" /></linearGradient><inkscape:path-effect
       effect="offset"
       id="path-effect20"
       is_visible="true"
       lpeversion="1.2"
       linejoin_type="miter"
       unit="mm"
       offset="-3.8"
       miter_limit="4"
       attempt_force_join="false"
       update_on_knot_move="true" /><inkscape:path-effect
       effect="mirror_symmetry"
       start_point="203.84863,142.875"
       end_point="293.83703,142.875"
       center_point="248.84283,142.875"
       id="path-effect18"
       is_visible="true"
       lpeversion="1.2"
       lpesatellites=""
       mode="Y"
       discard_orig_path="false"
       fuse_paths="false"
       oposite_fuse="false"
       split_items="false"
       split_open="false"
       link_styles="false" /><linearGradient
       id="linearGradient7"
       inkscape:collect="always"><stop
         style="stop-color:#642320;stop-opacity:1"
         offset="0.5"
         id="stop8" /><stop
         style="stop-color:#490101;stop-opacity:1;"
         offset="0.5"
         id="stop9" /></linearGradient><linearGradient
       id="linearGradient4-1"><stop
         style="stop-color:#f8623d;stop-opacity:1;"
         offset="0"
         id="stop6" /><stop
         style="stop-color:#fe5341;stop-opacity:1;"
         offset="0.5"
         id="stop4" /><stop
         style="stop-color:#fb2e20;stop-opacity:1;"
         offset="0.5"
         id="stop5" /><stop
         style="stop-color:#c52224;stop-opacity:1;"
         offset="1"
         id="stop7" /></linearGradient><inkscape:path-effect
       effect="mirror_symmetry"
       start_point="204.37854,118.44143"
       end_point="294.8972,118.44143"
       center_point="249.63787,118.44143"
       id="path-effect14"
       is_visible="true"
       lpeversion="1.2"
       lpesatellites=""
       mode="Y"
       discard_orig_path="false"
       fuse_paths="false"
       oposite_fuse="false"
       split_items="false"
       split_open="false"
       link_styles="false" /><inkscape:path-effect
       effect="offset"
       id="path-effect11"
       is_visible="true"
       lpeversion="1.2"
       linejoin_type="miter"
       unit="mm"
       offset="-5.2644606"
       miter_limit="4"
       attempt_force_join="false"
       update_on_knot_move="true" /><inkscape:path-effect
       effect="mirror_symmetry"
       start_point="213.22852,137.86719"
       end_point="286.15234,137.86719"
       center_point="249.69043,137.86719"
       id="path-effect4"
       is_visible="true"
       lpeversion="1.2"
       lpesatellites="#path3"
       mode="Y"
       discard_orig_path="false"
       fuse_paths="false"
       oposite_fuse="false"
       split_items="true"
       split_open="false"
       link_styles="false" /><inkscape:path-effect
       effect="fillet_chamfer"
       id="path-effect21"
       is_visible="true"
       lpeversion="1"
       nodesatellites_param="F,0,0,1,0,15,0,1 @ F,0,0,1,0,0,0,1 @ F,0,0,1,0,15,0,1 @ F,0,0,1,0,5,0,1 @ F,0,0,1,0,5,0,1 @ F,0,0,1,0,5,0,1"
       radius="5"
       unit="px"
       method="auto"
       mode="F"
       chamfer_steps="1"
       flexible="false"
       use_knot_distance="true"
       apply_no_radius="true"
       apply_with_radius="true"
       only_selected="false"
       hide_knots="false" /><inkscape:path-effect
       effect="offset"
       id="path-effect19"
       is_visible="true"
       lpeversion="1.2"
       linejoin_type="miter"
       unit="px"
       offset="54.913522"
       miter_limit="4"
       attempt_force_join="false"
       update_on_knot_move="true" /><inkscape:path-effect
       effect="fillet_chamfer"
       id="path-effect17"
       is_visible="true"
       lpeversion="1"
       nodesatellites_param="F,0,0,1,0,3.5,0,1 @ F,0,0,1,0,0,0,1 @ F,0,0,1,0,3.5,0,1 @ F,0,0,1,0,3.5,0,1 @ F,0,0,1,0,3.5,0,1 @ F,0,0,1,0,3.5,0,1"
       radius="3.5"
       unit="px"
       method="auto"
       mode="F"
       chamfer_steps="1"
       flexible="false"
       use_knot_distance="true"
       apply_no_radius="true"
       apply_with_radius="true"
       only_selected="false"
       hide_knots="false" /><inkscape:path-effect
       effect="offset"
       id="path-effect15"
       is_visible="true"
       lpeversion="1.2"
       linejoin_type="miter"
       unit="px"
       offset="29.95283"
       miter_limit="4"
       attempt_force_join="false"
       update_on_knot_move="true" /><inkscape:path-effect
       effect="fillet_chamfer"
       id="path-effect13"
       is_visible="true"
       lpeversion="1"
       nodesatellites_param="F,0,0,1,0,2.5,0,1 @ F,0,0,1,0,2.5,0,1 @ F,0,0,1,0,2.5,0,1 @ F,0,0,1,0,2.5,0,1"
       radius="2.5"
       unit="px"
       method="auto"
       mode="F"
       chamfer_steps="1"
       flexible="false"
       use_knot_distance="true"
       apply_no_radius="true"
       apply_with_radius="true"
       only_selected="false"
       hide_knots="false" /><inkscape:path-effect
       effect="offset"
       id="path-effect12"
       is_visible="true"
       lpeversion="1.2"
       linejoin_type="miter"
       unit="mm"
       offset="11.340491"
       miter_limit="4"
       attempt_force_join="false"
       update_on_knot_move="true" /><inkscape:path-effect
       effect="offset"
       id="path-effect10"
       is_visible="true"
       lpeversion="1.2"
       linejoin_type="miter"
       unit="mm"
       offset="0"
       miter_limit="4"
       attempt_force_join="false"
       update_on_knot_move="true" /><inkscape:path-effect
       effect="offset"
       id="path-effect8"
       is_visible="true"
       lpeversion="1.2"
       linejoin_type="miter"
       unit="px"
       offset="12.480346"
       miter_limit="4"
       attempt_force_join="false"
       update_on_knot_move="true" /><inkscape:path-effect
       effect="offset"
       id="path-effect7"
       is_visible="true"
       lpeversion="1.2"
       linejoin_type="miter"
       unit="mm"
       offset="4.7"
       miter_limit="4"
       attempt_force_join="false"
       update_on_knot_move="true" /><inkscape:path-effect
       effect="join_type"
       id="path-effect5"
       is_visible="true"
       lpeversion="1"
       linecap_type="butt"
       line_width="6.6145802"
       linejoin_type="bevel"
       miter_limit="100"
       attempt_force_join="true" /><inkscape:path-effect
       effect="mirror_symmetry"
       start_point="203.84863,142.875"
       end_point="307.08703,142.875"
       center_point="255.46783,142.875"
       id="path-effect9"
       is_visible="true"
       lpeversion="1.2"
       lpesatellites=""
       mode="Y"
       discard_orig_path="false"
       fuse_paths="false"
       oposite_fuse="false"
       split_items="false"
       split_open="false"
       link_styles="false" /><inkscape:path-effect
       effect="mirror_symmetry"
       start_point="204.37863,142.875"
       end_point="294.89703,142.875"
       center_point="249.63783,142.875"
       id="path-effect6"
       is_visible="true"
       lpeversion="1.2"
       lpesatellites="#path6"
       mode="Y"
       discard_orig_path="false"
       fuse_paths="false"
       oposite_fuse="false"
       split_items="true"
       split_open="false"
       link_styles="false" /><inkscape:path-effect
       effect="fillet_chamfer"
       id="path-effect21-6"
       is_visible="true"
       lpeversion="1"
       nodesatellites_param="F,0,0,1,0,15,0,1 @ F,0,0,1,0,0,0,1 @ F,0,0,1,0,15,0,1 @ F,0,0,1,0,5,0,1 @ F,0,0,1,0,5,0,1 @ F,0,0,1,0,5,0,1"
       radius="5"
       unit="px"
       method="auto"
       mode="F"
       chamfer_steps="1"
       flexible="false"
       use_knot_distance="true"
       apply_no_radius="true"
       apply_with_radius="true"
       only_selected="false"
       hide_knots="false" /><inkscape:path-effect
       effect="offset"
       id="path-effect19-2"
       is_visible="true"
       lpeversion="1.2"
       linejoin_type="miter"
       unit="px"
       offset="54.913522"
       miter_limit="4"
       attempt_force_join="false"
       update_on_knot_move="true" /><inkscape:path-effect
       effect="fillet_chamfer"
       id="path-effect17-9"
       is_visible="true"
       lpeversion="1"
       nodesatellites_param="F,0,0,1,0,3.5,0,1 @ F,0,0,1,0,0,0,1 @ F,0,0,1,0,3.5,0,1 @ F,0,0,1,0,3.5,0,1 @ F,0,0,1,0,3.5,0,1 @ F,0,0,1,0,3.5,0,1"
       radius="3.5"
       unit="px"
       method="auto"
       mode="F"
       chamfer_steps="1"
       flexible="false"
       use_knot_distance="true"
       apply_no_radius="true"
       apply_with_radius="true"
       only_selected="false"
       hide_knots="false" /><inkscape:path-effect
       effect="offset"
       id="path-effect15-1"
       is_visible="true"
       lpeversion="1.2"
       linejoin_type="miter"
       unit="px"
       offset="29.95283"
       miter_limit="4"
       attempt_force_join="false"
       update_on_knot_move="true" /><inkscape:path-effect
       effect="fillet_chamfer"
       id="path-effect13-2"
       is_visible="true"
       lpeversion="1"
       nodesatellites_param="F,0,0,1,0,2.5,0,1 @ F,0,0,1,0,0,0,1 @ F,0,0,1,0,2.5,0,1 @ F,0,0,1,0,2.5,0,1 @ F,0,0,1,0,2.5,0,1 @ F,0,0,1,0,2.5,0,1"
       radius="2.5"
       unit="px"
       method="auto"
       mode="F"
       chamfer_steps="1"
       flexible="false"
       use_knot_distance="true"
       apply_no_radius="true"
       apply_with_radius="true"
       only_selected="false"
       hide_knots="false" /><inkscape:path-effect
       effect="offset"
       id="path-effect12-7"
       is_visible="true"
       lpeversion="1.2"
       linejoin_type="miter"
       unit="mm"
       offset="11.340491"
       miter_limit="4"
       attempt_force_join="false"
       update_on_knot_move="true" /><inkscape:path-effect
       effect="offset"
       id="path-effect10-0"
       is_visible="true"
       lpeversion="1.2"
       linejoin_type="miter"
       unit="mm"
       offset="0"
       miter_limit="4"
       attempt_force_join="false"
       update_on_knot_move="true" /><inkscape:path-effect
       effect="offset"
       id="path-effect8-9"
       is_visible="true"
       lpeversion="1.2"
       linejoin_type="miter"
       unit="px"
       offset="12.480346"
       miter_limit="4"
       attempt_force_join="false"
       update_on_knot_move="true" /><inkscape:path-effect
       effect="offset"
       id="path-effect7-3"
       is_visible="true"
       lpeversion="1.2"
       linejoin_type="miter"
       unit="mm"
       offset="4.7"
       miter_limit="4"
       attempt_force_join="false"
       update_on_knot_move="true" /><inkscape:path-effect
       effect="join_type"
       id="path-effect5-6"
       is_visible="true"
       lpeversion="1"
       linecap_type="butt"
       line_width="6.6145802"
       linejoin_type="bevel"
       miter_limit="100"
       attempt_force_join="true" /><inkscape:path-effect
       effect="mirror_symmetry"
       start_point="203.84863,142.875"
       end_point="307.08703,142.875"
       center_point="255.46783,142.875"
       id="path-effect9-0"
       is_visible="true"
       lpeversion="1.2"
       lpesatellites=""
       mode="Y"
       discard_orig_path="false"
       fuse_paths="false"
       oposite_fuse="false"
       split_items="false"
       split_open="false"
       link_styles="false" /><inkscape:path-effect
       effect="mirror_symmetry"
       start_point="203.84863,142.875"
       end_point="293.83703,142.875"
       center_point="248.84283,142.875"
       id="path-effect6-6"
       is_visible="true"
       lpeversion="1.2"
       lpesatellites=""
       mode="Y"
       discard_orig_path="false"
       fuse_paths="false"
       oposite_fuse="false"
       split_items="false"
       split_open="false"
       link_styles="false" /><linearGradient
       inkscape:collect="always"
       xlink:href="#linearGradient4"
       id="linearGradient5"
       x1="218.12524"
       y1="38.178806"
       x2="218.12524"
       y2="247.5712"
       gradientUnits="userSpaceOnUse" /><linearGradient
       inkscape:collect="always"
       xlink:href="#linearGradient7"
       id="linearGradient9"
       x1="216.15039"
       y1="34.871094"
       x2="216.15039"
       y2="250.87891"
       gradientUnits="userSpaceOnUse" /><linearGradient
       inkscape:collect="always"
       xlink:href="#linearGradient4-1"
       id="linearGradient23"
       gradientUnits="userSpaceOnUse"
       x1="218.12524"
       y1="38.178806"
       x2="218.12524"
       y2="247.5712" /></defs><g
     inkscape:label="Calque 1"
     inkscape:groupmode="layer"
     id="layer1"><g
       id="g21"
       transform="translate(-184.56545,-23.624981)"
       style="opacity:1;mix-blend-mode:normal"
       inkscape:path-effect="#path-effect23"><path
         d="M 185.85604,36.483918 249.75586,142.875 185.85604,249.26608 c -3.39806,5.65766 0.67708,12.85892 7.27677,12.85892 h 42.60352 c 3.09737,0 5.9629,-1.64098 7.53046,-4.31239 l 64.91368,-110.62522 c 1.56241,-2.66265 1.56241,-5.96213 0,-8.62478 L 243.26679,27.937394 C 241.69923,25.265978 238.8337,23.625002 235.73633,23.625 h -42.60352 c -6.59969,2e-6 -10.67483,7.20126 -7.27677,12.858918 z m 55.54912,0 63.89982,106.391082 -63.89982,106.39108 c -3.39806,5.65766 0.67708,12.85892 7.27677,12.85892 h 42.60352 c 3.09737,0 5.9629,-1.64098 7.53046,-4.31239 l 64.91368,-110.62522 c 1.56242,-2.66265 1.56242,-5.96213 0,-8.62478 L 298.81591,27.937394 c -1.56755,-2.671416 -4.43309,-4.312392 -7.53046,-4.312394 h -42.60352 c -6.59969,2e-6 -10.67483,7.20126 -7.27677,12.858918 z m 55.54913,0 63.89982,106.391082 -63.89982,106.39108 c -3.39807,5.65766 0.67708,12.85892 7.27677,12.85892 h 42.60352 c 3.09737,0 5.9629,-1.64098 7.53046,-4.31239 l 64.91368,-110.62522 c 1.56241,-2.66265 1.56241,-5.96213 0,-8.62478 L 354.36504,27.937394 c -1.56756,-2.671416 -4.43309,-4.312392 -7.53046,-4.312394 h -42.60352 c -6.59969,2e-6 -10.67483,7.20126 -7.27677,12.858918 z m 55.54912,0 63.89982,106.391082 -63.89982,106.39108 c -3.39806,5.65766 0.67708,12.85892 7.27677,12.85892 h 42.60352 c 3.09737,0 5.9629,-1.64098 7.53046,-4.31239 l 64.91368,-110.62522 c 1.56241,-2.66265 1.56241,-5.96213 0,-8.62478 L 409.91416,27.937394 C 408.3466,25.265978 405.48107,23.625002 402.3837,23.625 h -42.60352 c -6.59969,2e-6 -10.67483,7.20126 -7.27677,12.858918 z"
         style="display:inline;fill:#000000;fill-opacity:1;stroke:none;stroke-width:6.61458;stroke-linecap:square;paint-order:stroke fill markers"
         id="path17"
         inkscape:path-effect="#path-effect19-2;#path-effect21-6"
         inkscape:original-d="M 203.84854,38.178548 266.73049,142.875 203.84854,247.57145 h 28.55313 L 293.8372,142.875 232.40167,38.178548 Z"
         transform="matrix(0.99842767,0,0,0.99842767,0.29016178,0.0371258)"
         sodipodi:nodetypes="ccccccc" /><path
         d="M 191.62241,33.240642 257.4707,142.875 191.62241,252.50936 c -0.79289,1.32011 0.15798,3.00041 1.6979,3.00041 h 40.12696 c 2.16816,0 4.17404,-1.14868 5.27134,-3.01867 l 62.55106,-106.59743 c 1.0937,-1.86385 1.0937,-4.17349 0,-6.03734 L 238.71861,33.2589 c -1.0973,-1.869987 -3.10318,-3.018664 -5.27134,-3.018666 h -40.12696 c -1.53992,2e-6 -2.49078,1.680294 -1.6979,3.000408 z m 55.54912,0 65.84829,109.634358 -65.84829,109.63436 c -0.79288,1.32011 0.15798,3.00041 1.6979,3.00041 h 40.12696 c 2.16817,0 4.17404,-1.14868 5.27134,-3.01867 l 62.55106,-106.59743 c 1.09371,-1.86385 1.09371,-4.17349 0,-6.03734 L 294.26773,33.2589 c -1.0973,-1.869987 -3.10318,-3.018664 -5.27134,-3.018666 h -40.12696 c -1.53992,2e-6 -2.49078,1.680294 -1.6979,3.000408 z m 55.54913,0 65.84829,109.634358 -65.84829,109.63436 c -0.79289,1.32011 0.15797,3.00041 1.6979,3.00041 h 40.12696 c 2.16816,0 4.17404,-1.14868 5.27134,-3.01867 l 62.55106,-106.59743 c 1.0937,-1.86385 1.0937,-4.17349 0,-6.03734 L 349.81686,33.2589 c -1.0973,-1.869987 -3.10318,-3.018664 -5.27134,-3.018666 h -40.12696 c -1.53993,2e-6 -2.49079,1.680294 -1.6979,3.000408 z m 55.54912,0 65.84829,109.634358 -65.84829,109.63436 c -0.79288,1.32011 0.15798,3.00041 1.6979,3.00041 h 40.12696 c 2.16816,0 4.17404,-1.14868 5.27134,-3.01867 l 62.55106,-106.59743 c 1.0937,-1.86385 1.0937,-4.17349 0,-6.03734 L 405.36598,33.2589 c -1.0973,-1.869987 -3.10318,-3.018664 -5.27134,-3.018666 h -40.12696 c -1.53992,2e-6 -2.49078,1.680294 -1.6979,3.000408 z"
         style="display:inline;fill:#ffffff;fill-opacity:1;stroke:none;stroke-width:6.61458;stroke-linecap:square;paint-order:stroke fill markers"
         id="path13"
         inkscape:path-effect="#path-effect15-1;#path-effect17-9"
         inkscape:original-d="M 203.84854,38.178548 266.73049,142.875 203.84854,247.57145 h 28.55313 L 293.8372,142.875 232.40167,38.178548 Z"
         transform="matrix(0.99842767,0,0,0.99842767,0.29016178,0.0371258)"
         sodipodi:nodetypes="ccccccc" /><path
         d="m 199.29109,37.014258 63.58,105.860742 -63.58,105.86074 c -0.56635,0.94296 0.11286,2.14318 1.21282,2.14317 h 31.29296 c 1.54869,0 2.98146,-0.82049 3.76523,-2.15621 l 60.84455,-103.6915 c 0.7812,-1.33133 0.7812,-2.98107 0,-4.3124 L 235.5621,37.027295 c -0.78378,-1.335712 -2.21654,-2.156203 -3.76523,-2.156201 h -31.29296 c -1.09996,-4e-6 -1.77916,1.200209 -1.21282,2.143164 z m 55.54912,0 63.58,105.860742 -63.58,105.86074 c -0.56634,0.94296 0.11286,2.14318 1.21282,2.14317 h 31.29296 c 1.54869,0 2.98146,-0.82049 3.76523,-2.15621 l 60.84455,-103.6915 c 0.78121,-1.33133 0.78121,-2.98107 0,-4.3124 L 291.11122,37.027295 c -0.78377,-1.335712 -2.21654,-2.156203 -3.76523,-2.156201 h -31.29296 c -1.09995,-4e-6 -1.77916,1.200209 -1.21282,2.143164 z m 55.54913,0 63.58,105.860742 -63.58,105.86074 c -0.56635,0.94296 0.11286,2.14318 1.21282,2.14317 h 31.29296 c 1.54869,0 2.98145,-0.82049 3.76523,-2.15621 L 407.5049,145.0312 c 0.7812,-1.33133 0.7812,-2.98107 0,-4.3124 L 346.66035,37.027295 c -0.78378,-1.335712 -2.21655,-2.156203 -3.76523,-2.156201 h -31.29296 c -1.09996,-4e-6 -1.77916,1.200209 -1.21282,2.143164 z m 55.54912,0 63.58,105.860742 -63.58,105.86074 c -0.56634,0.94296 0.11286,2.14318 1.21282,2.14317 h 31.29296 c 1.54869,0 2.98146,-0.82049 3.76523,-2.15621 l 60.84455,-103.6915 c 0.7812,-1.33133 0.7812,-2.98107 0,-4.3124 L 402.20947,37.027295 c -0.78377,-1.335712 -2.21654,-2.156203 -3.76523,-2.156201 h -31.29296 c -1.09996,-4e-6 -1.77916,1.200209 -1.21282,2.143164 z"
         style="display:inline;fill:url(#linearGradient9);fill-opacity:1;stroke:none;stroke-width:6.61458;stroke-linecap:square;paint-order:stroke fill markers"
         id="path5"
         inkscape:path-effect="#path-effect8-9;#path-effect13-2"
         inkscape:original-d="M 203.84854,38.178548 266.73049,142.875 203.84854,247.57145 h 28.55313 L 293.8372,142.875 232.40167,38.178548 Z"
         transform="matrix(0.99842767,0,0,0.99842767,0.29016178,0.0371258)"
         sodipodi:nodetypes="ccccccc" /><path
         style="fill:url(#linearGradient23);stroke-width:29.1042;stroke-linecap:round;stroke-linejoin:round;paint-order:stroke fill markers"
         d="m 266.73029,142.875 h 27.10674 L 232.40186,38.178806 h -28.55323 z m 0,0 h 27.10674 l -61.43517,104.69619 h -28.55323 z m 55.54912,0 h 27.10674 L 287.95098,38.178806 h -28.55323 z m 0,0 h 27.10674 l -61.43517,104.69619 h -28.55323 z m 55.54913,0 h 27.10674 L 343.50011,38.178806 h -28.55323 z m 0,0 h 27.10674 l -61.43517,104.69619 h -28.55323 z m 55.54912,0 H 460.4844 L 399.04923,38.178806 H 370.496 Z m 0,0 H 460.4844 L 399.04923,247.57119 H 370.496 Z"
         id="path1"
         sodipodi:nodetypes="ccccc"
         inkscape:path-effect="#path-effect6-6"
         inkscape:original-d="m 266.73029,142.875 h 27.10674 L 232.40186,38.178806 h -28.55323 z"
         transform="matrix(0.99842767,0,0,0.99842767,0.29016178,0.0371258)" /><path
         style="fill:url(#linearGradient5);fill-opacity:1;stroke-width:29.1042;stroke-linecap:round;stroke-linejoin:round;paint-order:stroke fill markers"
         d="m 210.57422,41.986328 h 19.64844 L 289.42383,142.875 230.22266,243.76367 H 210.57422 L 271.16992,142.875 Z m 55.54912,0 h 19.64844 L 344.97295,142.875 285.77178,243.76367 H 266.12334 L 326.71904,142.875 Z m 55.54913,0 h 19.64844 L 400.52208,142.875 341.32091,243.76367 H 321.67247 L 382.26817,142.875 Z m 55.54912,0 h 19.64844 L 456.0712,142.875 396.87003,243.76367 H 377.22159 L 437.81729,142.875 Z"
         id="path9"
         sodipodi:nodetypes="ccccc"
         inkscape:path-effect="#path-effect18;#path-effect20"
         inkscape:original-d="m 266.73029,142.875 h 27.10674 L 232.40186,38.178806 h -28.55323 z"
         transform="matrix(0.99842767,0,0,0.99842767,0.29016178,0.0371258)" /></g></g></svg>
