<?xml version="1.0" encoding="UTF-8" standalone="no"?>
<!-- Created with Inkscape (http://www.inkscape.org/) -->

<svg
   width="275.16666mm"
   height="238.125mm"
   viewBox="0 0 275.16666 238.125"
   version="1.1"
   id="svg1"
   inkscape:version="1.3.2 (091e20ef0f, 2023-11-25, custom)"
   xml:space="preserve"
   sodipodi:docname="SpeedPortal3x.svg"
   xmlns:inkscape="http://www.inkscape.org/namespaces/inkscape"
   xmlns:sodipodi="http://sodipodi.sourceforge.net/DTD/sodipodi-0.dtd"
   xmlns="http://www.w3.org/2000/svg"
   xmlns:svg="http://www.w3.org/2000/svg"><sodipodi:namedview
     id="namedview1"
     pagecolor="#4d4d4d"
     bordercolor="#eeeeee"
     borderopacity="1"
     inkscape:showpageshadow="0"
     inkscape:pageopacity="0"
     inkscape:pagecheckerboard="false"
     inkscape:deskcolor="#181825"
     inkscape:document-units="px"
     inkscape:zoom="0.75645694"
     inkscape:cx="776.64698"
     inkscape:cy="518.20531"
     inkscape:window-width="944"
     inkscape:window-height="1019"
     inkscape:window-x="962"
     inkscape:window-y="47"
     inkscape:window-maximized="1"
     inkscape:current-layer="layer1" /><defs
     id="defs1"><inkscape:path-effect
       effect="tiling"
       id="path-effect2"
       is_visible="true"
       lpeversion="1"
       unit="px"
       seed="1;1"
       lpesatellites=""
       num_rows="1"
       num_cols="3"
       gapx="-50"
       gapy="0"
       offset="0"
       offset_type="false"
       scale="0"
       rotate="0"
       mirrorrowsx="false"
       mirrorrowsy="false"
       mirrorcolsx="false"
       mirrorcolsy="false"
       mirrortrans="false"
       shrink_interp="false"
       split_items="false"
       link_styles="false"
       interpolate_scalex="false"
       interpolate_scaley="true"
       interpolate_rotatex="false"
       interpolate_rotatey="true"
       random_scale="false"
       random_rotate="false"
       random_gap_y="false"
       random_gap_x="false"
       transformorigin="translate(-68.227584,0.18752085)" /><inkscape:path-effect
       effect="tiling"
       id="path-effect1"
       is_visible="true"
       lpeversion="1"
       unit="px"
       seed="1;1"
       lpesatellites=""
       num_rows="1"
       num_cols="3"
       gapx="2"
       gapy="0"
       offset="0"
       offset_type="false"
       scale="0"
       rotate="0"
       mirrorrowsx="false"
       mirrorrowsy="false"
       mirrorcolsx="false"
       mirrorcolsy="false"
       mirrortrans="false"
       shrink_interp="false"
       split_items="false"
       link_styles="false"
       interpolate_scalex="false"
       interpolate_scaley="true"
       interpolate_rotatex="false"
       interpolate_rotatey="true"
       random_scale="false"
       random_rotate="false"
       random_gap_y="false"
       random_gap_x="false"
       transformorigin="" /><inkscape:path-effect
       effect="fillet_chamfer"
       id="path-effect21"
       is_visible="true"
       lpeversion="1"
       nodesatellites_param="F,0,0,1,0,15,0,1 @ F,0,0,1,0,0,0,1 @ F,0,0,1,0,15,0,1 @ F,0,0,1,0,5,0,1 @ F,0,0,1,0,5,0,1 @ F,0,0,1,0,5,0,1"
       radius="5"
       unit="px"
       method="auto"
       mode="F"
       chamfer_steps="1"
       flexible="false"
       use_knot_distance="true"
       apply_no_radius="true"
       apply_with_radius="true"
       only_selected="false"
       hide_knots="false" /><inkscape:path-effect
       effect="offset"
       id="path-effect19"
       is_visible="true"
       lpeversion="1.2"
       linejoin_type="miter"
       unit="px"
       offset="54.913522"
       miter_limit="4"
       attempt_force_join="false"
       update_on_knot_move="true" /><inkscape:path-effect
       effect="fillet_chamfer"
       id="path-effect17"
       is_visible="true"
       lpeversion="1"
       nodesatellites_param="F,0,0,1,0,3.5,0,1 @ F,0,0,1,0,0,0,1 @ F,0,0,1,0,3.5,0,1 @ F,0,0,1,0,3.5,0,1 @ F,0,0,1,0,3.5,0,1 @ F,0,0,1,0,3.5,0,1"
       radius="3.5"
       unit="px"
       method="auto"
       mode="F"
       chamfer_steps="1"
       flexible="false"
       use_knot_distance="true"
       apply_no_radius="true"
       apply_with_radius="true"
       only_selected="false"
       hide_knots="false" /><inkscape:path-effect
       effect="offset"
       id="path-effect15"
       is_visible="true"
       lpeversion="1.2"
       linejoin_type="miter"
       unit="px"
       offset="29.95283"
       miter_limit="4"
       attempt_force_join="false"
       update_on_knot_move="true" /><inkscape:path-effect
       effect="fillet_chamfer"
       id="path-effect13"
       is_visible="true"
       lpeversion="1"
       nodesatellites_param="F,0,0,1,0,2.5,0,1 @ F,0,0,1,0,0,0,1 @ F,0,0,1,0,2.5,0,1 @ F,0,0,1,0,2.5,0,1 @ F,0,0,1,0,2.5,0,1 @ F,0,0,1,0,2.5,0,1"
       radius="2.5"
       unit="px"
       method="auto"
       mode="F"
       chamfer_steps="1"
       flexible="false"
       use_knot_distance="true"
       apply_no_radius="true"
       apply_with_radius="true"
       only_selected="false"
       hide_knots="false" /><inkscape:path-effect
       effect="offset"
       id="path-effect12"
       is_visible="true"
       lpeversion="1.2"
       linejoin_type="miter"
       unit="mm"
       offset="11.340491"
       miter_limit="4"
       attempt_force_join="false"
       update_on_knot_move="true" /><inkscape:path-effect
       effect="offset"
       id="path-effect10"
       is_visible="true"
       lpeversion="1.2"
       linejoin_type="miter"
       unit="mm"
       offset="0"
       miter_limit="4"
       attempt_force_join="false"
       update_on_knot_move="true" /><inkscape:path-effect
       effect="offset"
       id="path-effect8"
       is_visible="true"
       lpeversion="1.2"
       linejoin_type="miter"
       unit="px"
       offset="12.480346"
       miter_limit="4"
       attempt_force_join="false"
       update_on_knot_move="true" /><inkscape:path-effect
       effect="offset"
       id="path-effect7"
       is_visible="true"
       lpeversion="1.2"
       linejoin_type="miter"
       unit="mm"
       offset="4.7"
       miter_limit="4"
       attempt_force_join="false"
       update_on_knot_move="true" /><inkscape:path-effect
       effect="join_type"
       id="path-effect5"
       is_visible="true"
       lpeversion="1"
       linecap_type="butt"
       line_width="6.6145802"
       linejoin_type="bevel"
       miter_limit="100"
       attempt_force_join="true" /><inkscape:path-effect
       effect="mirror_symmetry"
       start_point="203.84863,142.875"
       end_point="307.08703,142.875"
       center_point="255.46783,142.875"
       id="path-effect9"
       is_visible="true"
       lpeversion="1.2"
       lpesatellites=""
       mode="Y"
       discard_orig_path="false"
       fuse_paths="false"
       oposite_fuse="false"
       split_items="false"
       split_open="false"
       link_styles="false" /><inkscape:path-effect
       effect="mirror_symmetry"
       start_point="203.84863,142.875"
       end_point="294.36703,142.875"
       center_point="249.10783,142.875"
       id="path-effect6"
       is_visible="true"
       lpeversion="1.2"
       lpesatellites="#path6"
       mode="Y"
       discard_orig_path="false"
       fuse_paths="false"
       oposite_fuse="false"
       split_items="true"
       split_open="false"
       link_styles="false" /></defs><g
     inkscape:label="Calque 1"
     inkscape:groupmode="layer"
     id="layer1"><g
       id="g21"
       transform="translate(-184.61475,-23.624981)"
       inkscape:path-effect="#path-effect2"><path
         d="M 185.85604,36.483918 249.75586,142.875 185.85604,249.26608 c -3.39806,5.65766 0.67708,12.85892 7.27677,12.85892 h 43.13281 c 3.09737,0 5.96291,-1.64097 7.53047,-4.31239 l 64.91368,-110.62522 c 1.56241,-2.66265 1.56241,-5.96213 0,-8.62478 L 243.79609,27.937394 c -1.56756,-2.671419 -4.4331,-4.312395 -7.53047,-4.312394 h -43.13281 c -6.59969,2e-6 -10.67483,7.20126 -7.27677,12.858918 z m 75.15842,0 63.89982,106.391082 -63.89982,106.39108 c -3.39806,5.65766 0.67708,12.85892 7.27677,12.85892 h 43.13281 c 3.09738,0 5.96291,-1.64097 7.53047,-4.31239 l 64.91368,-110.62522 c 1.56242,-2.66265 1.56242,-5.96213 0,-8.62478 L 318.95451,27.937394 c -1.56756,-2.671419 -4.43309,-4.312395 -7.53047,-4.312394 h -43.13281 c -6.59969,2e-6 -10.67483,7.20126 -7.27677,12.858918 z m 75.15843,0 63.89982,106.391082 -63.89982,106.39108 c -3.39807,5.65766 0.67708,12.85892 7.27677,12.85892 h 43.13281 c 3.09737,0 5.96291,-1.64097 7.53047,-4.31239 l 64.91368,-110.62522 c 1.56241,-2.66265 1.56241,-5.96213 0,-8.62478 L 394.11294,27.937394 c -1.56756,-2.671419 -4.4331,-4.312395 -7.53047,-4.312394 h -43.13281 c -6.59969,2e-6 -10.67483,7.20126 -7.27677,12.858918 z"
         style="display:inline;fill:#000000;fill-opacity:1;stroke:none;stroke-width:6.61458;stroke-linecap:square;paint-order:stroke fill markers"
         id="path17"
         inkscape:path-effect="#path-effect19;#path-effect21"
         inkscape:original-d="M 203.84854,38.178548 266.73049,142.875 203.84854,247.57145 h 29.08313 L 294.3672,142.875 232.93167,38.178548 Z"
         transform="matrix(0.99842767,0,0,0.99842767,0.29016178,0.0371258)"
         sodipodi:nodetypes="ccccccc" /><path
         d="M 191.62241,33.240642 257.4707,142.875 191.62241,252.50936 c -0.79289,1.32011 0.15798,3.00041 1.6979,3.00041 h 40.65625 c 2.16817,0 4.17405,-1.14868 5.27135,-3.01867 l 62.55106,-106.59743 c 1.0937,-1.86385 1.0937,-4.17349 0,-6.03734 L 239.24791,33.2589 c -1.0973,-1.86999 -3.10319,-3.018668 -5.27135,-3.018666 h -40.65625 c -1.53992,2e-6 -2.49078,1.680294 -1.6979,3.000408 z m 75.15842,0 65.84829,109.634358 -65.84829,109.63436 c -0.79288,1.32011 0.15798,3.00041 1.6979,3.00041 h 40.65625 c 2.16817,0 4.17405,-1.14868 5.27135,-3.01867 l 62.55106,-106.59743 c 1.09371,-1.86385 1.09371,-4.17349 0,-6.03734 L 314.40633,33.2589 c -1.0973,-1.86999 -3.10318,-3.018668 -5.27135,-3.018666 h -40.65625 c -1.53992,2e-6 -2.49078,1.680294 -1.6979,3.000408 z m 75.15843,0 65.84829,109.634358 -65.84829,109.63436 c -0.79289,1.32011 0.15797,3.00041 1.6979,3.00041 h 40.65625 c 2.16816,0 4.17404,-1.14868 5.27135,-3.01867 l 62.55106,-106.59743 c 1.0937,-1.86385 1.0937,-4.17349 0,-6.03734 L 389.56476,33.2589 c -1.09731,-1.86999 -3.10319,-3.018668 -5.27135,-3.018666 h -40.65625 c -1.53993,2e-6 -2.49079,1.680294 -1.6979,3.000408 z"
         style="display:inline;fill:#ffffff;fill-opacity:1;stroke:none;stroke-width:6.61458;stroke-linecap:square;paint-order:stroke fill markers"
         id="path13"
         inkscape:path-effect="#path-effect15;#path-effect17"
         inkscape:original-d="M 203.84854,38.178548 266.73049,142.875 203.84854,247.57145 h 29.08313 L 294.3672,142.875 232.93167,38.178548 Z"
         transform="matrix(0.99842767,0,0,0.99842767,0.29016178,0.0371258)"
         sodipodi:nodetypes="ccccccc" /><path
         d="m 199.29109,37.014258 63.58,105.860742 -63.58,105.86074 c -0.56635,0.94296 0.11286,2.14318 1.21282,2.14317 h 31.82226 c 1.54869,0 2.98146,-0.82049 3.76523,-2.15621 l 60.84455,-103.6915 c 0.7812,-1.33133 0.7812,-2.98107 0,-4.3124 L 236.0914,37.027295 c -0.78378,-1.335712 -2.21654,-2.156203 -3.76523,-2.156201 h -31.82226 c -1.09996,-4e-6 -1.77916,1.200209 -1.21282,2.143164 z m 75.15842,0 63.58,105.860742 -63.58,105.86074 c -0.56634,0.94296 0.11286,2.14318 1.21282,2.14317 h 31.82226 c 1.54869,0 2.98146,-0.82049 3.76523,-2.15621 l 60.84455,-103.6915 c 0.78121,-1.33133 0.78121,-2.98107 0,-4.3124 L 311.24982,37.027295 c -0.78377,-1.335712 -2.21654,-2.156203 -3.76523,-2.156201 h -31.82226 c -1.09995,-4e-6 -1.77916,1.200209 -1.21282,2.143164 z m 75.15843,0 63.58,105.860742 -63.58,105.86074 c -0.56635,0.94296 0.11286,2.14318 1.21282,2.14317 h 31.82226 c 1.54869,0 2.98145,-0.82049 3.76523,-2.15621 L 447.2528,145.0312 c 0.7812,-1.33133 0.7812,-2.98107 0,-4.3124 L 386.40825,37.027295 c -0.78378,-1.335712 -2.21655,-2.156203 -3.76523,-2.156201 h -31.82226 c -1.09996,-4e-6 -1.77916,1.200209 -1.21282,2.143164 z"
         style="display:inline;fill:#671b68;fill-opacity:1;stroke:none;stroke-width:6.61458;stroke-linecap:square;paint-order:stroke fill markers"
         id="path5"
         inkscape:path-effect="#path-effect8;#path-effect13"
         inkscape:original-d="M 203.84854,38.178548 266.73049,142.875 203.84854,247.57145 h 29.08313 L 294.3672,142.875 232.93167,38.178548 Z"
         transform="matrix(0.99842767,0,0,0.99842767,0.29016178,0.0371258)"
         sodipodi:nodetypes="ccccccc" /><path
         style="fill:#ff88ff;fill-opacity:1;stroke-width:29.1042;stroke-linecap:round;stroke-linejoin:round;paint-order:stroke fill markers"
         d="m 266.73029,142.875 h 27.63674 L 232.93186,38.178806 h -29.08323 z m 75.15842,0 h 27.63674 L 308.09028,38.178806 h -29.08323 z m 75.15843,0 h 27.63674 L 383.24871,38.178806 h -29.08323 z"
         id="path1"
         sodipodi:nodetypes="ccccc"
         inkscape:path-effect="#path-effect6"
         inkscape:original-d="m 266.73029,142.875 h 27.63674 L 232.93186,38.178806 h -29.08323 z"
         transform="matrix(0.99842767,0,0,0.99842767,0.29016178,0.0371258)" /><path
         id="path6"
         d="m 266.73029,142.875 h 27.63674 L 232.93186,38.178806 h -29.08323 z m 75.15842,0 h 27.63674 L 308.09028,38.178806 h -29.08323 z m 75.15843,0 h 27.63674 L 383.24871,38.178806 h -29.08323 z"
         style="display:inline;fill:#fa58fa;fill-opacity:1;stroke-width:29.1042;stroke-linecap:round;stroke-linejoin:round;paint-order:stroke fill markers"
         transform="matrix(0.99842767,0,0,-0.99842767,0.29016178,285.33783)"
         sodipodi:nodetypes="ccccc"
         inkscape:original-d="m 266.73029,142.875 h 27.63674 L 232.93186,38.178806 h -29.08323 z" /></g></g></svg>
