<?xml version="1.0" encoding="UTF-8" standalone="no"?>
<!-- Created with Inkscape (http://www.inkscape.org/) -->

<svg
   width="149.22501mm"
   height="149.22501mm"
   viewBox="0 0 149.22502 149.22502"
   version="1.1"
   id="svg1"
   inkscape:version="1.3.2 (091e20ef0f, 2023-11-25, custom)"
   sodipodi:docname="Spider.svg"
   inkscape:export-filename="cube.png"
   inkscape:export-xdpi="96"
   inkscape:export-ydpi="96"
   xml:space="preserve"
   xmlns:inkscape="http://www.inkscape.org/namespaces/inkscape"
   xmlns:sodipodi="http://sodipodi.sourceforge.net/DTD/sodipodi-0.dtd"
   xmlns="http://www.w3.org/2000/svg"
   xmlns:svg="http://www.w3.org/2000/svg"><sodipodi:namedview
     id="namedview1"
     pagecolor="#4c4c4c"
     bordercolor="#eeeeee"
     borderopacity="1"
     inkscape:showpageshadow="0"
     inkscape:pageopacity="0"
     inkscape:pagecheckerboard="false"
     inkscape:deskcolor="#181825"
     inkscape:document-units="px"
     inkscape:zoom="0.49647922"
     inkscape:cx="1599.2613"
     inkscape:cy="449.1628"
     inkscape:window-width="944"
     inkscape:window-height="1019"
     inkscape:window-x="6"
     inkscape:window-y="47"
     inkscape:window-maximized="1"
     inkscape:current-layer="layer1"
     showgrid="false"><inkscape:page
       x="0"
       y="0"
       width="149.22502"
       height="149.22502"
       id="page38"
       margin="0"
       bleed="0"
       inkscape:label="Head-glow" /></sodipodi:namedview><defs
     id="defs1"><inkscape:path-effect
       effect="offset"
       id="path-effect17-4"
       is_visible="true"
       lpeversion="1.2"
       linejoin_type="round"
       unit="px"
       offset="50"
       miter_limit="4"
       attempt_force_join="false"
       update_on_knot_move="true" /><inkscape:path-effect
       effect="offset"
       id="path-effect29-7"
       is_visible="true"
       lpeversion="1.2"
       linejoin_type="round"
       unit="px"
       offset="50"
       miter_limit="4"
       attempt_force_join="false"
       update_on_knot_move="true" /><inkscape:path-effect
       effect="offset"
       id="path-effect31-9"
       is_visible="true"
       lpeversion="1.2"
       linejoin_type="round"
       unit="px"
       offset="50"
       miter_limit="4"
       attempt_force_join="false"
       update_on_knot_move="true" /></defs><g
     inkscape:groupmode="layer"
     id="layer4"
     inkscape:label="head glow"
     transform="translate(-156.2587,5.2494493)"><g
       id="g28"
       inkscape:label="floating thing glow"
       style="display:inline;fill:#00ff7d;fill-opacity:1"
       transform="translate(148.31652,7.6447537)"><path
         d="m 30.224609,82.810547 a 13.229168,13.229168 0 0 0 -9.353515,22.582033 l 3.955078,3.95508 a 13.229168,13.229168 0 0 0 9.353515,3.875 h 57.03125 20.935543 a 13.229168,13.229168 0 0 0 9.35352,-3.875 l 3.95508,-3.95508 A 13.229168,13.229168 0 0 0 116.10156,82.810547 H 87.255859 Z"
         style="display:inline;fill:#00ff7d;fill-opacity:1;stroke-width:0;stroke-linecap:square;stroke-dasharray:none;paint-order:stroke fill markers"
         id="path27"
         inkscape:path-effect="#path-effect29-7"
         inkscape:original-d="m 30.225033,96.038595 3.955314,3.955315 h 57.031152 l 20.935131,5.9e-5 3.95532,-3.955315 -28.845766,-5.9e-5 z"
         inkscape:label="glow-bottom"
         transform="translate(10.52739,7.6970175)"
         sodipodi:nodetypes="ccccccc" /><path
         d="m 30.224609,82.810547 a 13.229168,13.229168 0 0 0 -9.353515,22.582033 l 3.955078,3.95508 a 13.229168,13.229168 0 0 0 9.353515,3.875 h 57.03125 39.718753 a 13.229168,13.229168 0 0 0 9.35351,-3.875 l 3.95508,-3.95508 A 13.229168,13.229168 0 0 0 134.88477,82.810547 H 87.255859 Z"
         style="display:inline;fill:#00ff7d;fill-opacity:1;stroke-width:0;stroke-linecap:square;stroke-dasharray:none;paint-order:stroke fill markers"
         id="path28"
         inkscape:path-effect="#path-effect31-9"
         inkscape:original-d="m 30.225033,96.038595 3.955314,3.955315 h 57.031152 39.717991 l 3.95532,-3.955315 H 87.256184 Z"
         inkscape:label="glow-top" /></g><path
       style="display:inline;fill:#00ff7d;fill-opacity:1;stroke:none;stroke-width:5.60255;paint-order:stroke fill markers"
       d="M 84.083984,2.5175781 A 13.229168,13.229168 0 0 0 73.800781,7.265625 l -49.96875,59.818359 a 13.229168,13.229168 0 0 0 1.029297,18.060547 l 5.966797,5.681641 a 13.229168,13.229168 0 0 0 9.123047,3.648437 h 88.255858 a 13.229168,13.229168 0 0 0 9.35156,-3.873047 l 4.60743,-4.605468 a 13.229168,13.229168 0 0 0 0.96679,-17.634766 L 94.271484,7.4667969 a 13.229168,13.229168 0 0 0 -10.1875,-4.9492188 z"
       id="path14"
       inkscape:label="head-glow"
       inkscape:path-effect="#path-effect17-4"
       inkscape:original-d="m 83.954014,15.746456 -49.969026,59.817536 5.967122,5.682417 88.25568,2.4e-5 4.60672,-4.606722 z"
       sodipodi:nodetypes="cccccc"
       transform="translate(148.31652,7.6447537)" /></g></svg>
