<?xml version="1.0" encoding="UTF-8" standalone="no"?>
<!-- Created with Inkscape (http://www.inkscape.org/) -->

<svg
   width="149.22501mm"
   height="149.22501mm"
   viewBox="0 0 149.22502 149.22502"
   version="1.1"
   id="svg1"
   inkscape:version="1.4 (e7c3feb100, 2024-10-09)"
   sodipodi:docname="Spider_Head.svg"
   inkscape:export-filename="cube.png"
   inkscape:export-xdpi="96"
   inkscape:export-ydpi="96"
   xml:space="preserve"
   xmlns:inkscape="http://www.inkscape.org/namespaces/inkscape"
   xmlns:sodipodi="http://sodipodi.sourceforge.net/DTD/sodipodi-0.dtd"
   xmlns="http://www.w3.org/2000/svg"
   xmlns:svg="http://www.w3.org/2000/svg"><sodipodi:namedview
     id="namedview1"
     pagecolor="#4c4c4c"
     bordercolor="#eeeeee"
     borderopacity="1"
     inkscape:showpageshadow="0"
     inkscape:pageopacity="0"
     inkscape:pagecheckerboard="false"
     inkscape:deskcolor="#181825"
     inkscape:document-units="px"
     inkscape:zoom="1.464539"
     inkscape:cx="281.6586"
     inkscape:cy="282"
     inkscape:window-width="1920"
     inkscape:window-height="1080"
     inkscape:window-x="0"
     inkscape:window-y="0"
     inkscape:window-maximized="1"
     inkscape:current-layer="layer1"
     showgrid="false"><inkscape:page
       x="0"
       y="0"
       width="149.22502"
       height="149.22502"
       id="page1"
       margin="0"
       bleed="0"
       inkscape:label="Head" /></sodipodi:namedview><defs
     id="defs1"><inkscape:path-effect
       effect="offset"
       id="path-effect24"
       is_visible="true"
       lpeversion="1.3"
       linejoin_type="round"
       unit="px"
       offset="25"
       miter_limit="4"
       attempt_force_join="false"
       update_on_knot_move="true" /><inkscape:path-effect
       effect="offset"
       id="path-effect20"
       is_visible="true"
       lpeversion="1.3"
       linejoin_type="round"
       unit="px"
       offset="25"
       miter_limit="4"
       attempt_force_join="false"
       update_on_knot_move="true" /><inkscape:path-effect
       effect="offset"
       id="path-effect19"
       is_visible="true"
       lpeversion="1.3"
       linejoin_type="miter"
       unit="px"
       offset="10"
       miter_limit="4"
       attempt_force_join="false"
       update_on_knot_move="true" /><inkscape:path-effect
       effect="offset"
       id="path-effect12"
       is_visible="true"
       lpeversion="1.3"
       linejoin_type="round"
       unit="px"
       offset="25"
       miter_limit="4"
       attempt_force_join="false"
       update_on_knot_move="true" /></defs><g
     inkscape:label="head"
     inkscape:groupmode="layer"
     id="layer1"
     transform="translate(-7.9421768,12.89383)"><g
       id="g27"
       inkscape:label="floating thing"
       style="display:inline"><g
         id="g26"
         inkscape:label="outline"><path
           d="M 30.224609,89.423828 A 6.6145842,6.6145842 0 0 0 25.546875,100.7168 l 3.955078,3.95508 a 6.6145842,6.6145842 0 0 0 4.677734,1.9375 h 57.03125 20.935543 a 6.6145842,6.6145842 0 0 0 4.67774,-1.9375 l 3.95508,-3.95508 A 6.6145842,6.6145842 0 0 0 116.10156,89.423828 H 87.255859 Z"
           style="display:inline;fill:#280732;fill-opacity:1;stroke-width:0;stroke-linecap:square;stroke-dasharray:none;paint-order:stroke fill markers"
           id="path20"
           inkscape:path-effect="#path-effect24"
           inkscape:original-d="m 30.225033,96.038595 3.955314,3.955315 h 57.031152 l 20.935131,5.9e-5 3.95532,-3.955315 -28.845766,-5.9e-5 z"
           inkscape:label="outline"
           transform="translate(10.52739,7.6970175)"
           sodipodi:nodetypes="ccccccc" /><path
           d="M 30.224609,89.423828 A 6.6145842,6.6145842 0 0 0 25.546875,100.7168 l 3.955078,3.95508 a 6.6145842,6.6145842 0 0 0 4.677734,1.9375 h 57.03125 39.718753 a 6.6145842,6.6145842 0 0 0 4.67773,-1.9375 l 3.95508,-3.95508 A 6.6145842,6.6145842 0 0 0 134.88477,89.423828 H 87.255859 Z"
           style="display:inline;fill:#280732;fill-opacity:1;stroke-width:0;stroke-linecap:square;stroke-dasharray:none;paint-order:stroke fill markers"
           id="path15"
           inkscape:path-effect="#path-effect20"
           inkscape:original-d="m 30.225033,96.038595 3.955314,3.955315 h 57.031152 39.717991 l 3.95532,-3.955315 H 87.256184 Z"
           inkscape:label="outline" /></g><g
         id="g23"
         style="display:inline"
         transform="translate(10.52739,7.6970176)"
         inkscape:label="bottom"><path
           style="fill:#5a00b8;fill-opacity:1;stroke-width:2.64583;stroke-linecap:square;paint-order:stroke fill markers"
           d="m 30.225131,96.03872 h 57.031147 l 3.955248,3.955249 H 34.180383 Z"
           id="path21" /><path
           style="fill:#7d00ff;fill-opacity:1;stroke-width:2.64583;stroke-linecap:square;paint-order:stroke fill markers"
           d="m 87.256278,96.03872 h 28.845602 l -3.95525,3.955249 H 91.211526 Z"
           id="path22"
           sodipodi:nodetypes="ccccc" /><path
           style="display:inline;fill:none;fill-opacity:1;stroke:#280732;stroke-width:2.64583;stroke-linecap:square;paint-order:stroke fill markers;stroke-opacity:1"
           d="M 91.211526,99.993969 87.256278,96.03872"
           id="path23" /></g><g
         id="g20"
         style="display:inline"
         inkscape:label="top"><path
           style="fill:#5a00b8;fill-opacity:1;stroke-width:2.64583;stroke-linecap:square;paint-order:stroke fill markers"
           d="m 30.225131,96.03872 h 57.031147 l 3.955248,3.955249 H 34.180383 Z"
           id="path5" /><path
           style="fill:#7d00ff;fill-opacity:1;stroke-width:2.64583;stroke-linecap:square;paint-order:stroke fill markers"
           d="m 87.256278,96.03872 h 47.628632 l -3.95525,3.955249 H 91.211526 Z"
           id="path8" /><path
           style="display:inline;fill:none;fill-opacity:1;stroke:#280732;stroke-width:2.64583;stroke-linecap:square;paint-order:stroke fill markers;stroke-opacity:1"
           d="M 91.211526,99.993969 87.256278,96.03872"
           id="path9" /></g></g><g
       id="g17"
       inkscape:label="head"
       style="display:inline"><path
         style="display:inline;fill:#280732;fill-opacity:1;stroke:none;stroke-width:5.60255;paint-order:stroke fill markers"
         d="m 82.853516,9.2226563 a 6.6145842,6.6145842 0 0 0 -3.976563,2.2832027 l -49.96875,59.81836 a 6.6145842,6.6145842 0 0 0 0.515625,9.03125 l 5.966797,5.68164 a 6.6145842,6.6145842 0 0 0 4.560547,1.824219 h 88.255858 a 6.6145842,6.6145842 0 0 0 4.67578,-1.9375 l 4.60742,-4.605469 a 6.6145842,6.6145842 0 0 0 0.48243,-8.816406 L 89.111328,11.607422 A 6.6145842,6.6145842 0 0 0 82.853516,9.2226563 Z"
         id="path10"
         inkscape:label="head-outline"
         inkscape:path-effect="#path-effect12"
         inkscape:original-d="m 83.954014,15.746456 -49.969026,59.817536 5.967122,5.682417 88.25568,2.4e-5 4.60672,-4.606722 z"
         sodipodi:nodetypes="cccccc" /><g
         id="g10"
         inkscape:label="back"
         style="display:inline"><path
           style="display:inline;fill:#5d00bf;fill-opacity:1;stroke:none;stroke-width:5.60255;paint-order:stroke fill markers"
           d="m 83.954014,15.746456 -49.969026,59.817536 5.967122,5.682417 45.060114,1.2e-5 z"
           id="path3"
           inkscape:label="head_back"
           sodipodi:nodetypes="ccccc" /><path
           style="fill:#46008f;fill-opacity:1;stroke:none;stroke-width:5.60255;paint-order:stroke fill markers"
           d="m 84.982294,76.509111 0.02993,4.73731 -45.060113,-1.2e-5 -4.891337,-4.606632 z"
           id="path12"
           clip-path="none"
           sodipodi:nodetypes="ccccc" /></g><g
         id="g8"
         style="display:inline"
         inkscape:label="front"><path
           style="display:inline;mix-blend-mode:normal;fill:#7d00ff;fill-opacity:1;stroke:none;stroke-width:5.60255;paint-order:stroke fill markers"
           d="m 83.953994,15.746431 -19.653943,57.706577 7.793425,7.793425 h 56.114314 l 4.60672,-4.606722 z"
           id="path2"
           sodipodi:nodetypes="cccccc" /><path
           d="M 82.383613,20.122289 130.01017,79.44374 132.81465,76.639777 83.95406,15.746328 Z"
           style="display:inline;mix-blend-mode:normal;fill:#a856fd;fill-opacity:1;stroke-width:5.60255;paint-order:stroke fill markers"
           id="path6"
           sodipodi:nodetypes="ccccc" /><path
           style="display:inline;fill:#5e00c0;fill-opacity:1;stroke:none;stroke-width:5.60255;paint-order:stroke fill markers"
           d="M 132.81465,76.639777 H 67.48682 l 4.606656,4.606656 h 56.114314 z"
           id="path7"
           sodipodi:nodetypes="ccccc" /></g><g
         id="g18"
         inkscape:label="eye"><path
           style="display:inline;mix-blend-mode:normal;fill:#280732;fill-opacity:1;stroke:none;stroke-width:2.74954;stroke-linecap:square;stroke-dasharray:none;paint-order:stroke fill markers"
           id="circle19"
           transform="matrix(0.9147067,0,0.13018253,1.012329,1.5198422,-0.62229781)"
           inkscape:label="outline"
           inkscape:path-effect="#path-effect19"
           sodipodi:type="arc"
           sodipodi:cx="94.857422"
           sodipodi:cy="50.474216"
           sodipodi:rx="14.935545"
           sodipodi:ry="14.935545"
           d="m 94.857422,32.789062 c -9.772664,0 -17.685547,7.912883 -17.685547,17.685547 0,9.772665 7.912883,17.685547 17.685547,17.685547 9.772668,0 17.685548,-7.912882 17.685548,-17.685547 0,-9.772664 -7.91288,-17.685547 -17.685548,-17.685547 z" /><circle
           style="mix-blend-mode:normal;fill:#00ffff;fill-opacity:1;stroke:none;stroke-width:2.74954;stroke-linecap:square;stroke-dasharray:none;paint-order:stroke fill markers"
           id="path18"
           cx="94.857422"
           cy="50.474216"
           r="14.935545"
           transform="matrix(0.9147067,0,0.13018253,1.012329,1.5198422,-0.62229781)"
           inkscape:label="fill" /><ellipse
           style="mix-blend-mode:normal;fill:#280732;fill-opacity:1;stroke:none;stroke-width:2.74954;stroke-linecap:square;stroke-dasharray:none;paint-order:stroke fill markers"
           id="circle18"
           cx="96.592941"
           cy="49.452343"
           rx="2.4450963"
           ry="10.729794"
           transform="matrix(0.9147067,0,0.13018253,1.012329,1.5198422,-0.62229781)" /></g><path
         style="display:inline;fill:none;fill-opacity:1;stroke:#280732;stroke-width:2.64583;stroke-linecap:square;stroke-dasharray:none;paint-order:stroke fill markers;stroke-opacity:1"
         d="m 83.954015,15.746456 -19.653964,57.706552 7.793425,7.793425"
         id="path17"
         inkscape:label="separator" /></g></g></svg>
