<?xml version="1.0" encoding="UTF-8" standalone="no"?>
<!-- Created with Inkscape (http://www.inkscape.org/) -->

<svg
   width="128"
   height="128"
   viewBox="0 0 33.866666 33.866667"
   version="1.1"
   id="svg5"
   inkscape:version="1.4 (e7c3feb100, 2024-10-09)"
   sodipodi:docname="SettingsButton.svg"
   inkscape:export-filename="editor_play_player.png"
   inkscape:export-xdpi="96"
   inkscape:export-ydpi="96"
   xml:space="preserve"
   xmlns:inkscape="http://www.inkscape.org/namespaces/inkscape"
   xmlns:sodipodi="http://sodipodi.sourceforge.net/DTD/sodipodi-0.dtd"
   xmlns:xlink="http://www.w3.org/1999/xlink"
   xmlns="http://www.w3.org/2000/svg"
   xmlns:svg="http://www.w3.org/2000/svg"><sodipodi:namedview
     id="namedview7"
     pagecolor="#303030"
     bordercolor="#000000"
     borderopacity="0.25"
     inkscape:showpageshadow="2"
     inkscape:pageopacity="0.0"
     inkscape:pagecheckerboard="false"
     inkscape:deskcolor="#1e1e2e"
     inkscape:document-units="px"
     showgrid="false"
     showguides="false"
     inkscape:zoom="4.5630484"
     inkscape:cx="54.89751"
     inkscape:cy="65.197642"
     inkscape:window-width="1894"
     inkscape:window-height="1011"
     inkscape:window-x="0"
     inkscape:window-y="0"
     inkscape:window-maximized="1"
     inkscape:current-layer="layer1"
     showborder="true"><inkscape:grid
       type="xygrid"
       id="grid9"
       originx="0"
       originy="0"
       spacingy="1"
       spacingx="1"
       units="mm"
       visible="false" /></sodipodi:namedview><defs
     id="defs2"><linearGradient
       id="linearGradient2262-1"><stop
         style="stop-color:#eee500;stop-opacity:1"
         offset="0"
         id="stop45" /><stop
         style="stop-color:#be9100;stop-opacity:1;"
         offset="1"
         id="stop46" /></linearGradient><linearGradient
       id="linearGradient43"><stop
         style="stop-color:#eeea77;stop-opacity:1;"
         offset="0"
         id="stop42" /><stop
         style="stop-color:#bea85f;stop-opacity:1;"
         offset="1"
         id="stop43" /></linearGradient><inkscape:path-effect
       effect="copy_rotate"
       starting_point="18.398875,16.933332"
       origin="16.933332,16.933332"
       id="path-effect7"
       is_visible="true"
       lpeversion="1.2"
       lpesatellites=""
       method="normal"
       num_copies="8"
       starting_angle="0"
       rotation_angle="45"
       gap="-0.01"
       copies_to_360="true"
       mirror_copies="false"
       split_items="false"
       link_styles="false" /><linearGradient
       id="linearGradient2262"><stop
         style="stop-color:#abe242;stop-opacity:1;"
         offset="0"
         id="stop5" /><stop
         style="stop-color:#23c81d;stop-opacity:1;"
         offset="1"
         id="stop6" /></linearGradient><linearGradient
       id="linearGradient2262-2"><stop
         style="stop-color:#baa400;stop-opacity:1;"
         offset="0"
         id="stop2258" /><stop
         style="stop-color:#8c6000;stop-opacity:1;"
         offset="1"
         id="stop2260" /></linearGradient><clipPath
       clipPathUnits="userSpaceOnUse"
       id="clipPath1"><ellipse
         style="display:inline;fill:url(#linearGradient2);fill-opacity:1;stroke:none;stroke-width:0.246611;stroke-dasharray:none;stroke-opacity:1"
         id="ellipse2"
         cx="16.933332"
         cy="16.933332"
         rx="13.229168"
         ry="13.229169" /></clipPath><linearGradient
       inkscape:collect="always"
       xlink:href="#linearGradient2262"
       id="linearGradient2"
       gradientUnits="userSpaceOnUse"
       x1="3.7041667"
       y1="17.197916"
       x2="30.1625"
       y2="3.7041667" /><linearGradient
       inkscape:collect="always"
       xlink:href="#linearGradient43"
       id="linearGradient9"
       x1="6.7045002"
       y1="6.7045002"
       x2="27.162167"
       y2="27.162167"
       gradientUnits="userSpaceOnUse" /><linearGradient
       inkscape:collect="always"
       xlink:href="#linearGradient2262-2"
       id="linearGradient45"
       gradientUnits="userSpaceOnUse"
       x1="6.7045002"
       y1="6.7045002"
       x2="27.162167"
       y2="27.162167" /><linearGradient
       inkscape:collect="always"
       xlink:href="#linearGradient2262-1"
       id="linearGradient46"
       gradientUnits="userSpaceOnUse"
       x1="6.7045002"
       y1="6.7045002"
       x2="27.162167"
       y2="27.162167" /><filter
       style="color-interpolation-filters:sRGB"
       id="filter54"
       inkscape:label="filter1" /></defs><g
     inkscape:label="Layer 1"
     inkscape:groupmode="layer"
     id="layer1"><g
       id="g47"><path
         id="path8"
         style="display:inline;opacity:1;fill:url(#linearGradient46);stroke:#000000;stroke-width:1.98438;stroke-linecap:round;stroke-linejoin:round;stroke-opacity:1;paint-order:stroke fill markers"
         d="m 16.933333,6.7045003 c -0.490422,1.342e-4 -0.9802,0.035538 -1.465543,0.1059367 V 8.4253255 A 8.6467905,8.6467905 0 0 0 11.956893,9.8841512 L 10.81226,8.7395182 C 10.419177,9.0327971 10.047706,9.3541258 9.7006999,9.7006999 9.3540139,10.047576 9.0324113,10.418774 8.7390015,10.811743 l 1.1451497,1.14515 A 8.6467905,8.6467905 0 0 0 8.4253255,15.46779 H 6.8109538 c -0.070572,0.485331 -0.1061482,0.975108 -0.1064535,1.465543 1.342e-4,0.490423 0.035538,0.980201 0.1059367,1.465544 h 1.6148885 a 8.6467905,8.6467905 0 0 0 1.4588257,3.510897 l -1.144633,1.144633 c 0.2932789,0.393082 0.6146076,0.764554 0.9611817,1.11156 0.3468761,0.346686 0.7180741,0.668288 1.1110431,0.961698 l 1.14515,-1.14515 a 8.6467905,8.6467905 0 0 0 3.510897,1.458826 v 1.614372 c 0.485331,0.07057 0.975108,0.106148 1.465543,0.106453 0.490423,-1.34e-4 0.980201,-0.03554 1.465544,-0.105936 v -1.60352 a 8.6467905,8.6467905 0 0 0 3.522266,-1.458826 l 1.133264,1.133264 c 0.393082,-0.293278 0.764554,-0.614607 1.11156,-0.961181 0.346686,-0.346876 0.668288,-0.718074 0.961698,-1.111043 l -1.133781,-1.133781 a 8.6467905,8.6467905 0 0 0 1.458826,-3.522266 h 1.603003 c 0.07057,-0.485331 0.106148,-0.975109 0.106453,-1.465544 -1.34e-4,-0.490422 -0.03554,-0.9802 -0.105936,-1.465543 H 25.45271 A 8.6467905,8.6467905 0 0 0 23.993884,11.945524 L 25.127148,10.81226 C 24.83387,10.419177 24.512541,10.047706 24.165967,9.7006999 23.819091,9.3540139 23.447893,9.0324113 23.054924,8.7390015 L 21.921143,9.8727824 A 8.6467905,8.6467905 0 0 0 18.398877,8.4139567 V 6.8109538 C 17.913546,6.7403818 17.423768,6.7048056 16.933333,6.7045003 Z m 0,4.2333337 a 5.9956121,5.9956121 0 0 1 5.9955,5.995499 5.9956121,5.9956121 0 0 1 -5.9955,5.9955 5.9956121,5.9956121 0 0 1 -5.995499,-5.9955 5.9956121,5.9956121 0 0 1 5.995499,-5.995499 z" /><path
         id="path40"
         style="display:inline;opacity:1;fill:url(#linearGradient9);stroke:none;stroke-width:1.98438;stroke-linecap:round;stroke-linejoin:round;stroke-opacity:1;paint-order:stroke fill markers"
         d="m 16.933333,6.7045003 c -0.490422,1.342e-4 -0.9802,0.035538 -1.465543,0.1059367 v 1.6148885 a 8.6467905,8.6467905 0 0 0 -3.510897,1.4588257 l 0.264583,0.2645828 A 8.6467905,8.6467905 0 0 1 15.732373,8.6899088 V 7.0750203 c 0.485343,-0.070399 0.975122,-0.1058025 1.465544,-0.1059367 0.401639,2.5e-4 0.802284,0.030105 1.20096,0.077515 V 6.8109537 C 17.913546,6.7403817 17.423768,6.7048056 16.933333,6.7045003 Z M 18.66346,8.4801025 V 8.67854 a 8.6467905,8.6467905 0 0 1 3.522266,1.458826 L 23.319507,9.0035848 C 23.662131,9.2594045 23.984741,9.540503 24.292574,9.8371256 24.249526,9.792431 24.209829,9.7446165 24.165967,9.7006998 23.819091,9.3540138 23.447892,9.0324112 23.054923,8.7390014 L 21.921142,9.8727823 A 8.6467905,8.6467905 0 0 0 18.66346,8.4801025 Z m -7.8512,0.2594157 C 10.419177,9.0327971 10.047706,9.3541257 9.7006998,9.7006998 9.3540138,10.047576 9.0324112,10.418774 8.7390014,10.811743 l 0.2645834,0.264583 C 9.2969946,10.683357 9.6185971,10.312159 9.9652832,9.9652832 10.312289,9.6187087 10.68376,9.2973804 11.076843,9.0041015 Z M 9.8841512,11.956893 A 8.6467905,8.6467905 0 0 0 8.4253255,15.46779 H 6.8109537 c -0.070572,0.485331 -0.1061481,0.975108 -0.1064534,1.465543 1.342e-4,0.490423 0.035538,0.980201 0.1059367,1.465544 h 0.2361613 c -0.04727,-0.398694 -0.077405,-0.799319 -0.077515,-1.20096 3.053e-4,-0.490435 0.035881,-0.980213 0.1064535,-1.465544 h 1.614372 A 8.6467905,8.6467905 0 0 1 10.148734,12.221476 Z M 21.29224,12.83901 a 5.9956121,5.9956121 0 0 1 1.636593,4.094323 5.9956121,5.9956121 0 0 1 -5.9955,5.9955 5.9956121,5.9956121 0 0 1 -4.094323,-1.636593 5.9956121,5.9956121 0 0 0 4.358907,1.901176 5.9956121,5.9956121 0 0 0 5.995499,-5.995499 5.9956121,5.9956121 0 0 0 -1.901176,-4.358907 z m 4.358907,2.62878 a 8.6467905,8.6467905 0 0 1 0.06615,0.264583 h 1.367359 c -0.01045,-0.08813 -0.01568,-0.176721 -0.02842,-0.264583 z M 8.4919881,18.66346 a 8.6467905,8.6467905 0 0 0 1.3921631,3.246314 l -1.144633,1.144633 c 0.2932789,0.393082 0.6146075,0.764554 0.9611816,1.11156 0.044155,0.04413 0.092004,0.08433 0.1369426,0.12764 C 9.5408339,23.985378 9.2600476,23.662035 9.0041015,23.31899 L 10.148734,22.174357 A 8.6467905,8.6467905 0 0 1 8.6899088,18.66346 Z m 6.9758019,6.975802 v 1.416451 c 0.08787,0.01278 0.176442,0.01846 0.264583,0.02894 v -1.378728 a 8.6467905,8.6467905 0 0 1 -0.264583,-0.06666 z" /><path
         id="path44"
         style="display:inline;opacity:1;fill:url(#linearGradient45);stroke:none;stroke-width:1.98438;stroke-linecap:round;stroke-linejoin:round;stroke-opacity:1;paint-order:stroke fill markers"
         d="m 18.134294,6.7820149 v 1.3673584 a 8.6467905,8.6467905 0 0 1 0.264583,0.066146 V 6.8109537 c -0.08787,-0.012777 -0.176442,-0.018457 -0.264583,-0.028939 z m 5.89473,2.7910441 c 0.296808,0.3082293 0.577596,0.631572 0.833541,0.974618 l -1.133264,1.133264 a 8.6467905,8.6467905 0 0 1 1.458826,3.522265 h 0.198437 a 8.6467905,8.6467905 0 0 0 -1.39268,-3.257682 L 25.127148,10.81226 C 24.83387,10.419177 24.512541,10.047706 24.165967,9.7006998 24.121811,9.6565686 24.073963,9.616371 24.029024,9.573059 Z M 16.66875,10.67325 a 5.9956121,5.9956121 0 0 0 -5.9955,5.9955 5.9956121,5.9956121 0 0 0 1.901176,4.358907 5.9956121,5.9956121 0 0 1 -1.636592,-4.094324 5.9956121,5.9956121 0 0 1 5.995499,-5.995499 5.9956121,5.9956121 0 0 1 4.094324,1.636592 5.9956121,5.9956121 0 0 0 -4.358907,-1.901176 z m 10.151835,4.79454 c 0.04727,0.398682 0.07689,0.799332 0.077,1.20096 -3.05e-4,0.490435 -0.03588,0.980213 -0.106454,1.465544 h -1.603002 a 8.6467905,8.6467905 0 0 1 -1.458826,3.522265 l 0.264583,0.264583 a 8.6467905,8.6467905 0 0 0 1.458826,-3.522265 h 1.603003 c 0.07057,-0.485331 0.106148,-0.975109 0.106453,-1.465544 -1.34e-4,-0.490422 -0.03554,-0.9802 -0.105936,-1.465543 z M 6.7820149,18.134294 c 0.010449,0.08813 0.015678,0.17672 0.028422,0.264583 H 8.2274047 A 8.6467905,8.6467905 0 0 1 8.1607421,18.134294 Z M 24.863082,22.79034 c -0.29341,0.392969 -0.615013,0.764167 -0.961699,1.111043 -0.347006,0.346574 -0.718478,0.667904 -1.11156,0.961182 l 0.264584,0.264583 c 0.393082,-0.293278 0.764554,-0.614607 1.11156,-0.961181 0.346686,-0.346876 0.668288,-0.718075 0.961698,-1.111044 z m -13.170772,0.927592 -1.14515,1.14515 c -0.342946,-0.256061 -0.6660124,-0.53712 -0.974101,-0.834058 0.043293,0.04496 0.083524,0.09277 0.1276408,0.136943 0.3468762,0.346686 0.7180742,0.668288 1.1110432,0.961698 l 1.14515,-1.14515 a 8.6467905,8.6467905 0 0 0 3.246313,1.392163 v -0.19792 A 8.6467905,8.6467905 0 0 1 11.69231,23.717932 Z m 9.964249,0.01137 a 8.6467905,8.6467905 0 0 1 -3.522265,1.458826 v 1.603519 c -0.485343,0.0704 -0.975121,0.105803 -1.465544,0.105937 -0.401639,-2.5e-4 -0.802285,-0.03011 -1.20096,-0.07752 v 0.235645 c 0.485331,0.07057 0.975108,0.106148 1.465543,0.106453 0.490423,-1.34e-4 0.980201,-0.03554 1.465544,-0.105936 v -1.60352 a 8.6467905,8.6467905 0 0 0 3.522265,-1.458826 z" /></g></g></svg>
