<?xml version="1.0" encoding="UTF-8" standalone="no"?>
<!-- Created with Inkscape (http://www.inkscape.org/) -->

<svg
   width="137.58333mm"
   height="137.58333mm"
   viewBox="0 0 137.58333 137.58333"
   version="1.1"
   id="svg1"
   inkscape:version="1.3.2 (091e20ef0f, 2023-11-25, custom)"
   sodipodi:docname="GreenOrb.svg"
   xml:space="preserve"
   xmlns:inkscape="http://www.inkscape.org/namespaces/inkscape"
   xmlns:sodipodi="http://sodipodi.sourceforge.net/DTD/sodipodi-0.dtd"
   xmlns:xlink="http://www.w3.org/1999/xlink"
   xmlns="http://www.w3.org/2000/svg"
   xmlns:svg="http://www.w3.org/2000/svg"><sodipodi:namedview
     id="namedview1"
     pagecolor="#000000"
     bordercolor="#eeeeee"
     borderopacity="1"
     inkscape:showpageshadow="0"
     inkscape:pageopacity="0"
     inkscape:pagecheckerboard="false"
     inkscape:deskcolor="#181825"
     inkscape:document-units="px"
     inkscape:zoom="0.9199754"
     inkscape:cx="20.652726"
     inkscape:cy="290.22515"
     inkscape:window-width="1900"
     inkscape:window-height="1019"
     inkscape:window-x="6"
     inkscape:window-y="47"
     inkscape:window-maximized="1"
     inkscape:current-layer="layer1" /><defs
     id="defs1"><inkscape:path-effect
       effect="dashed_stroke"
       id="path-effect1"
       is_visible="true"
       lpeversion="1"
       numberdashes="2"
       holefactor="0.61"
       splitsegments="true"
       halfextreme="true"
       unifysegment="true"
       message="Add &lt;b&gt;&quot;Fill Between Many LPE&quot;&lt;/b&gt; to add fill." /><linearGradient
       id="linearGradient1"
       inkscape:collect="always"><stop
         style="stop-color:#6fff74;stop-opacity:1;"
         offset="0"
         id="stop2" /><stop
         style="stop-color:#5dff2c;stop-opacity:1;"
         offset="1"
         id="stop1" /></linearGradient><radialGradient
       inkscape:collect="always"
       xlink:href="#linearGradient1"
       id="radialGradient2"
       cx="66.570976"
       cy="115.37405"
       fx="66.570976"
       fy="115.37405"
       r="38.476772"
       gradientUnits="userSpaceOnUse"
       gradientTransform="matrix(0.96383071,0,1.0033192e-5,0.93556815,2.4815658,-40.206949)" /></defs><g
     inkscape:label="Calque 1"
     inkscape:groupmode="layer"
     id="layer1"><g
       id="g1"
       style="display:inline;mix-blend-mode:normal"
       transform="translate(1.0583327,1.0583327)"><g
         id="g7"><path
           d="M 59.161763,130.22254 V 119.57719 C 48.710367,117.85105 38.673662,112.9606 30.589347,104.87628 22.505204,96.79214 17.61444,86.755823 15.888436,76.304902 H 5.2436081 c 1.7936871,13.198234 7.7411099,25.934318 17.8619579,36.055158 10.121122,10.12113 22.857331,16.06872 36.056197,17.86248 z"
           style="fill:#ffffff;paint-order:stroke fill markers"
           id="path7" /><path
           d="m 130.22306,76.304902 h -10.64483 c -1.72601,10.450921 -6.61677,20.487238 -14.70091,28.571378 -8.084317,8.08432 -18.121023,12.97477 -28.572418,14.70091 v 10.64535 c 13.198865,-1.79376 25.935078,-7.74135 36.056198,-17.86248 10.12085,-10.12084 16.06827,-22.856924 17.86196,-36.055158 z"
           style="fill:#ffffff;paint-order:stroke fill markers"
           id="path6" /><path
           d="M 76.304902,5.2430913 V 15.888436 c 10.450741,1.726217 20.487197,6.616726 28.571378,14.700911 8.08439,8.08439 12.9751,18.121151 14.70143,28.572416 h 10.64535 C 128.42905,45.963148 122.48119,33.226688 112.36006,23.105566 102.23907,12.984575 89.503085,7.0369361 76.304902,5.2430913 Z"
           style="fill:#ffffff;paint-order:stroke fill markers"
           id="path5" /><path
           d="M 5.2436081,59.161763 H 15.888953 C 17.615289,48.710498 22.505991,38.673737 30.590381,30.589347 38.674566,22.505162 48.711021,17.614653 59.161763,15.888436 V 5.2430913 C 45.963579,7.0369361 33.227591,12.984575 23.1066,23.105566 12.985478,33.226688 7.0376191,45.963148 5.2436081,59.161763 Z"
           style="fill:#ffffff;paint-order:stroke fill markers"
           id="path4" /></g><circle
         style="display:inline;mix-blend-mode:normal;fill:url(#radialGradient2);fill-opacity:1;stroke:#ffffff;stroke-width:13.2292;stroke-linecap:round;stroke-linejoin:round;stroke-dasharray:none;stroke-opacity:1;paint-order:stroke fill markers"
         id="path1"
         cx="67.73333"
         cy="67.73333"
         r="35.997639" /><circle
         style="fill:none;fill-opacity:1;stroke:#ffffff;stroke-width:13.2292;stroke-linecap:round;stroke-linejoin:round;stroke-dasharray:none;stroke-opacity:1;paint-order:stroke fill markers"
         id="circle1"
         cx="67.73333"
         cy="67.73333"
         r="19.080454" /></g></g></svg>
