<?xml version="1.0" encoding="UTF-8" standalone="no"?>
<!-- Created with Inkscape (http://www.inkscape.org/) -->

<svg
   width="154.51666mm"
   height="154.51666mm"
   viewBox="0 0 154.51666 154.51666"
   version="1.1"
   id="svg1"
   inkscape:version="1.3.2 (091e20ef0f, 2023-11-25, custom)"
   sodipodi:docname="TeleportationOrbFill.svg"
   xml:space="preserve"
   xmlns:inkscape="http://www.inkscape.org/namespaces/inkscape"
   xmlns:sodipodi="http://sodipodi.sourceforge.net/DTD/sodipodi-0.dtd"
   xmlns="http://www.w3.org/2000/svg"
   xmlns:svg="http://www.w3.org/2000/svg"><sodipodi:namedview
     id="namedview1"
     pagecolor="#000000"
     bordercolor="#eeeeee"
     borderopacity="1"
     inkscape:showpageshadow="0"
     inkscape:pageopacity="0"
     inkscape:pagecheckerboard="false"
     inkscape:deskcolor="#181825"
     inkscape:document-units="px"
     inkscape:zoom="0.32526043"
     inkscape:cx="216.74939"
     inkscape:cy="421.20095"
     inkscape:window-width="944"
     inkscape:window-height="1019"
     inkscape:window-x="962"
     inkscape:window-y="47"
     inkscape:window-maximized="1"
     inkscape:current-layer="g1" /><defs
     id="defs1"><inkscape:path-effect
       effect="copy_rotate"
       starting_point="92.47236,77.258331"
       origin="77.258328,77.258328"
       id="path-effect4"
       is_visible="true"
       lpeversion="1.2"
       lpesatellites=""
       method="normal"
       num_copies="4"
       starting_angle="0"
       rotation_angle="90"
       gap="-0.01"
       copies_to_360="true"
       mirror_copies="false"
       split_items="false"
       link_styles="false" /><inkscape:path-effect
       effect="copy_rotate"
       starting_point="86.464093,77.258331"
       origin="77.258328,77.258328"
       id="path-effect3"
       is_visible="true"
       lpeversion="1.2"
       lpesatellites=""
       method="normal"
       num_copies="4"
       starting_angle="0"
       rotation_angle="90"
       gap="-0.01"
       copies_to_360="true"
       mirror_copies="false"
       split_items="false"
       link_styles="false" /><inkscape:path-effect
       effect="dashed_stroke"
       id="path-effect1"
       is_visible="true"
       lpeversion="1"
       numberdashes="2"
       holefactor="0.15"
       splitsegments="true"
       halfextreme="true"
       unifysegment="true"
       message="Add &lt;b&gt;&quot;Fill Between Many LPE&quot;&lt;/b&gt; to add fill." /></defs><g
     inkscape:label="Calque 1"
     inkscape:groupmode="layer"
     id="layer1"><g
       id="g1"
       style="mix-blend-mode:normal"><path
         style="display:none;fill:none;fill-opacity:1;stroke:#ffffff;stroke-width:7.9375;stroke-linecap:square;stroke-linejoin:miter;stroke-dasharray:none;stroke-opacity:1;paint-order:stroke fill markers"
         id="circle2"
         inkscape:path-effect="#path-effect1"
         sodipodi:type="arc"
         sodipodi:cx="77.258331"
         sodipodi:cy="77.258331"
         sodipodi:rx="62.0443"
         sodipodi:ry="62.0443"
         d="m 133.09575,50.176367 c 3.97645,8.18344 6.20688,17.37223 6.20688,27.081964 0,9.709735 -2.23043,18.898524 -6.20688,27.081969 m -28.75545,28.75545 c -8.183445,3.97645 -17.372234,6.20688 -27.081969,6.20688 -9.709734,0 -18.898524,-2.23043 -27.081965,-6.20688 M 21.420917,104.3403 c -3.976456,-8.183445 -6.206886,-17.372234 -6.206886,-27.081969 0,-9.709734 2.23043,-18.898524 6.206886,-27.081965 m 28.75545,-28.755449 c 8.18344,-3.976456 17.37223,-6.206886 27.081964,-6.206886 9.709735,0 18.898524,2.23043 27.081969,6.206886 m 28.75545,28.75545 c 3.97645,8.18344 6.20688,17.37223 6.20688,27.081964" /><path
         style="display:none;fill:#ffffff;stroke:none;stroke-width:10.5833;stroke-linecap:square;stroke-linejoin:miter;stroke-dasharray:none;stroke-opacity:1;paint-order:stroke fill markers"
         id="path3"
         inkscape:path-effect="#path-effect3"
         sodipodi:type="arc"
         sodipodi:cx="127.39637"
         sodipodi:cy="27.120279"
         sodipodi:rx="9.2057648"
         sodipodi:ry="9.2057648"
         d="m 136.60213,27.120279 c 0,5.084204 -4.12156,9.205765 -9.20576,9.205765 -5.0842,0 -9.20576,-4.121561 -9.20576,-9.205765 0,-5.084203 4.12156,-9.205764 9.20576,-9.205764 5.0842,0 9.20576,4.121561 9.20576,9.205764 z M 27.120279,17.914521 c 5.084204,0 9.205765,4.121562 9.205765,9.205765 0,5.084204 -4.121561,9.205765 -9.205765,9.205765 -5.084203,0 -9.205764,-4.121561 -9.205764,-9.205765 0,-5.084203 4.121561,-9.205765 9.205764,-9.205765 z M 17.914521,127.39638 c 0,-5.08421 4.121562,-9.20577 9.205765,-9.20577 5.084204,0 9.205765,4.12156 9.205765,9.20577 0,5.0842 -4.121561,9.20576 -9.205765,9.20576 -5.084203,0 -9.205765,-4.12156 -9.205765,-9.20576 z m 109.481859,9.20575 c -5.08421,0 -9.20577,-4.12156 -9.20577,-9.20576 0,-5.0842 4.12156,-9.20576 9.20577,-9.20576 5.0842,0 9.20576,4.12156 9.20576,9.20576 0,5.0842 -4.12156,9.20576 -9.20576,9.20576 z" /><path
         style="display:none;fill:#ffffff;stroke:none;stroke-width:10.5833;stroke-linecap:square;stroke-linejoin:miter;stroke-dasharray:none;stroke-opacity:1;paint-order:stroke fill markers"
         id="path4"
         sodipodi:type="arc"
         sodipodi:cx="77.258331"
         sodipodi:cy="15.214031"
         sodipodi:rx="15.214031"
         sodipodi:ry="15.214031"
         sodipodi:start="3.1415927"
         sodipodi:end="0"
         sodipodi:open="true"
         sodipodi:arc-type="arc"
         d="M 62.0443,15.214031 C 62.0443,6.8115538 68.855854,0 77.258331,0 85.660809,0 92.472363,6.8115538 92.472363,15.214031 M 15.214031,92.472356 C 6.8115538,92.472356 0,85.660802 0,77.258325 0,68.855847 6.8115538,62.044293 15.214031,62.044293 m 77.258325,77.258327 c 0,8.40248 -6.811554,15.21404 -15.214031,15.21404 -8.402478,0 -15.214032,-6.81156 -15.214032,-15.21404 M 139.30262,62.0443 c 8.40248,0 15.21404,6.811554 15.21404,15.214031 0,8.402478 -6.81156,15.214032 -15.21404,15.214032"
         inkscape:path-effect="#path-effect4" /><path
         id="path2"
         style="mix-blend-mode:normal;fill:#ffffff;fill-opacity:1;stroke:none;stroke-width:10.5834;stroke-linecap:square;stroke-linejoin:miter;stroke-dasharray:none;stroke-opacity:1;paint-order:stroke fill markers"
         inkscape:transform-center-y="-8.981488"
         d="M 77.258328,36.442071 40.629041,89.732699 77.258329,120.50528 113.88762,89.732699 Z"
         sodipodi:nodetypes="ccccc" /></g></g></svg>
