<?xml version="1.0" encoding="UTF-8"?>
<svg width="16" height="16" version="1.1" viewBox="0 0 16 16" xml:space="preserve" xmlns="http://www.w3.org/2000/svg"><title>© 2024 NinStar</title><g transform="translate(.00781)" fill="#8da5f3"><rect x=".99219" y="1" width="14" height="14" ry="2" fill-opacity=".3" stroke-opacity="0"/><path d="m5.9922 11v4h4v-4z" fill-opacity=".6"/><path d="m0.99219 11v2.6992c0 0.554 0.74678 1.3008 1.3008 1.3008h2.6992v-4z"/><g fill-opacity=".6"><path d="m10.992 6v4h4v-4z"/><path d="m5.9922 6v4h4v-4z"/><path d="m0.99219 6v4h4v-4z"/></g><path d="m10.992 1v4h4v-2.6992c0-0.554-0.74483-1.3008-1.2988-1.3008z"/><path d="m5.9922 1v4h4v-4z" fill-opacity=".6"/><path d="m2.293 1c-0.554 0-1.3008 0.74678-1.3008 1.3008v2.6992h4v-4z"/><path d="m13.692 15h-2.7002v-4h4v2.7c0 0.554-0.7458 1.3-1.2998 1.3z" stroke-opacity="0"/></g></svg>
