<?xml version="1.0" encoding="UTF-8" standalone="no"?>
<!-- Created with Inkscape (http://www.inkscape.org/) -->

<svg
   width="270.93332mm"
   height="270.93332mm"
   viewBox="0 0 270.93332 270.93332"
   version="1.1"
   id="svg1"
   inkscape:version="1.3.2 (091e20ef0f, 2023-11-25, custom)"
   sodipodi:docname="Alpha.svg"
   xmlns:inkscape="http://www.inkscape.org/namespaces/inkscape"
   xmlns:sodipodi="http://sodipodi.sourceforge.net/DTD/sodipodi-0.dtd"
   xmlns="http://www.w3.org/2000/svg"
   xmlns:svg="http://www.w3.org/2000/svg">
  <sodipodi:namedview
     id="namedview1"
     pagecolor="#4d4d4d"
     bordercolor="#eeeeee"
     borderopacity="1"
     inkscape:showpageshadow="0"
     inkscape:pageopacity="0"
     inkscape:pagecheckerboard="false"
     inkscape:deskcolor="#181825"
     inkscape:document-units="px"
     inkscape:zoom="0.34375002"
     inkscape:cx="95.999995"
     inkscape:cy="189.0909"
     inkscape:window-width="944"
     inkscape:window-height="1019"
     inkscape:window-x="962"
     inkscape:window-y="47"
     inkscape:window-maximized="1"
     inkscape:current-layer="g4" />
  <defs
     id="defs1">
    <inkscape:path-effect
       effect="offset"
       id="path-effect2"
       is_visible="true"
       lpeversion="1.2"
       linejoin_type="miter"
       unit="px"
       offset="-25"
       miter_limit="4"
       attempt_force_join="false"
       update_on_knot_move="true" />
  </defs>
  <g
     inkscape:label="Calque 1"
     inkscape:groupmode="layer"
     id="layer1">
    <g
       id="g2"
       inkscape:label="template"
       style="display:none">
      <rect
         style="fill:#ff0000;stroke-width:3.96875;stroke-linecap:round;stroke-linejoin:round;paint-order:stroke fill markers"
         id="rect1"
         width="135.46666"
         height="135.46666"
         x="67.73333"
         y="67.73333" />
      <rect
         style="fill:#00ff00;stroke-width:2.80129;stroke-linecap:round;stroke-linejoin:round;paint-order:stroke fill markers"
         id="rect2"
         width="95.617188"
         height="95.61721"
         x="87.658058"
         y="107.58277" />
      <rect
         style="fill:#00ffff;stroke-width:1.02092;stroke-linecap:round;stroke-linejoin:round;paint-order:stroke fill markers"
         id="rect4"
         width="95.617188"
         height="12.7"
         x="87.658058"
         y="94.882774" />
      <rect
         style="fill:#00ffff;stroke-width:0.589428;stroke-linecap:round;stroke-linejoin:round;paint-order:stroke fill markers"
         id="rect5"
         width="95.617188"
         height="4.2333336"
         x="87.658058"
         y="63.5" />
    </g>
    <g
       id="g4"
       transform="matrix(1.4116711,0,0,1.4116711,-55.767719,-35.842996)"
       style="display:inline">
      <circle
         style="display:inline;fill:#000000;stroke:none;stroke-width:3.96875;stroke-linecap:round;stroke-linejoin:round;paint-order:stroke fill markers"
         id="path2"
         cx="135.46666"
         cy="135.46666"
         r="33.866669" />
      <path
         style="display:inline;fill:#00ffff;fill-opacity:1;stroke:none;stroke-width:3.96875;stroke-linecap:round;stroke-linejoin:round;paint-order:stroke fill markers"
         id="circle2"
         inkscape:path-effect="#path-effect2"
         sodipodi:type="arc"
         sodipodi:cx="135.46666"
         sodipodi:cy="135.46666"
         sodipodi:rx="33.866669"
         sodipodi:ry="33.866669"
         d="m 135.4668,106.28516 c 16.09245,0 29.18164,13.08918 29.18164,29.18164 0,16.09245 -13.08919,29.18164 -29.18164,29.18164 -16.09246,0 -29.18164,-13.08919 -29.18164,-29.18164 0,-16.09246 13.08918,-29.18164 29.18164,-29.18164 z" />
    </g>
    <path
       d="m 82.486512,67.323795 c -1.312333,0.04233 -2.497665,0.635 -3.555998,1.693332 -0.719666,0.719666 -1.608665,2.116665 -2.751664,4.23333 -1.693332,3.174998 -3.301998,6.773329 -4.86833,10.879659 -1.650999,4.275663 -2.455332,7.238994 -2.412998,8.889993 0.04233,1.354666 1.481665,1.947332 4.402663,1.820332 1.820332,-0.127 2.370665,-0.719666 2.836331,-2.539998 0.338667,-1.269999 0.889,-1.904999 1.608666,-1.947332 1.058332,-0.04233 1.820332,-0.04233 2.243665,0 h 2.793998 c 0.634999,0 1.142999,0.338667 1.481665,1.015999 0.296333,0.804333 0.508,1.439333 0.635,1.862666 0.465666,1.312332 2.751664,1.904998 6.900328,1.862665 2.116665,-0.04233 3.682997,-0.211667 4.656663,-0.550333 1.693332,-0.550333 2.074332,-1.100666 1.904999,-2.836331 -0.296333,-3.217331 -2.074332,-8.085661 -5.333996,-14.647323 -2.158999,-4.36033 -3.767664,-7.027328 -4.783663,-8.043327 -1.227666,-1.227666 -2.751665,-1.777999 -4.48733,-1.735665 z m -2.666998,13.885323 c 0.296333,0 0.973666,1.312332 1.947331,3.936997 0.211667,0.592666 -0.380999,0.888999 -1.862665,0.888999 -1.481665,0 -2.116665,-0.253999 -1.947332,-0.804332 0.846666,-2.666998 1.481666,-4.021664 1.862666,-4.021664 z m 39.581626,7.450661 c -0.33867,0 -0.93133,0.04233 -1.82033,0.08467 -0.889,0.04233 -1.43933,0.08467 -1.73567,0.08467 -1.22766,0.04233 -1.98966,-0.127 -2.28599,-0.507999 -0.16934,-1.354666 -0.254,-2.201332 -0.254,-2.582332 v -1.354665 c 0,-2.201332 0,-4.36033 0.0423,-6.434662 v -2.666998 c -0.0423,-2.793998 -1.016,-4.190997 -3.00567,-4.190997 -3.97933,0 -6.39232,0.169333 -7.28132,0.550333 -1.05834,0.465666 -1.82034,1.396999 -2.286,2.878664 -0.381,1.269999 -0.55033,2.709332 -0.508,4.317997 0.0847,3.090331 0.127,4.402663 0.127,4.021664 0,6.476995 0.33866,10.032992 1.05833,10.752658 0.889,0.762 2.286,1.227666 4.14866,1.396999 0.55034,0.04233 2.032,0.08467 4.48733,0.08467 2.96334,0 5.50333,-0.254 7.57767,-0.762 1.14299,-0.296333 1.86266,-0.550332 2.24366,-0.761999 0.71967,-0.465666 1.10067,-1.142999 1.10067,-1.989665 0,-1.947332 -0.55034,-2.920998 -1.60867,-2.920998 z m 22.0133,-9.778993 c 0,1.227666 -0.84667,1.904999 -2.58233,2.031999 -1.905,0.127 -2.83633,-0.550333 -2.83633,-2.031999 -0.0847,-0.888999 0.254,-1.439332 0.97366,-1.735665 0.508,-0.211667 1.22767,-0.296333 2.20133,-0.211667 l 0.55034,0.04233 c 1.143,0.08467 1.69333,0.719666 1.69333,1.904998 z m -5.41866,9.313327 c 0,-0.635 0.16933,-1.100666 0.46566,-1.439333 0.127,-0.169333 0.46567,-0.296333 0.97367,-0.423333 0.16933,-0.04233 0.508,-0.08467 1.05833,-0.169333 l 1.56633,-0.211666 c 2.413,-0.338667 4.14867,-1.016 5.24933,-1.989665 1.22767,-1.100666 1.86267,-2.793998 1.86267,-5.037663 0,-5.24933 -3.85233,-7.873994 -11.55699,-7.873994 h -3.302 c -5.207,0 -8.17033,0.677332 -8.88999,2.031998 -0.46567,0.888999 -0.71967,4.275664 -0.71967,10.159992 0,6.095996 0.33867,9.567327 1.016,10.371659 0.508,0.635 1.27,1.058333 2.32833,1.269999 1.18533,0.127 2.07433,0.211667 2.70933,0.211667 1.22767,0.04233 2.032,0.04233 2.413,0 2.37066,-0.169333 3.85233,-0.804333 4.40266,-1.904999 0.29634,-0.550333 0.42334,-1.481665 0.42334,-2.793998 z m 37.97297,-14.604989 c -0.127,-0.889 -0.508,-1.523999 -1.22766,-1.904999 -0.59267,-0.423333 -2.413,-0.634999 -5.50333,-0.634999 -1.651,0 -2.45533,0.804332 -2.45533,2.412998 l 0.21166,4.61433 c 0.0423,1.100665 0,1.777998 -0.127,1.989665 -0.21166,0.338666 -0.84666,0.507999 -1.94733,0.550333 -1.98966,0.04233 -2.32833,-0.465667 -2.32833,-2.539998 0,-0.211667 0,-0.508 0.0423,-0.931333 0.0847,-1.354666 0.127,-2.328332 0.127,-2.878664 -0.0423,-1.439333 -0.59266,-2.412999 -1.65099,-2.878665 -0.508,-0.211667 -1.69334,-0.338666 -3.556,-0.338666 -2.667,0 -4.445,0.465666 -5.41866,1.396999 -0.80434,0.804332 -1.22767,2.158998 -1.27,4.063996 0.0423,1.947332 0.127,4.106331 0.21166,6.476996 0,6.815661 0.29634,10.413992 0.84667,10.794992 0.762,0.719666 2.286,1.185332 4.61433,1.312332 1.05833,0.04233 2.032,0 3.00566,-0.211667 1.31234,-0.296333 2.159,-0.804332 2.54,-1.481665 0.21167,-0.508 0.33867,-1.354666 0.33867,-2.497665 v -2.074332 c 0,-0.465666 0,-0.846666 0.0423,-1.142999 0.0847,-0.804333 0.33867,-1.312332 0.762,-1.566332 0.29633,-0.169333 0.84667,-0.296333 1.73567,-0.338666 1.31233,-0.08467 1.98966,0.296333 2.03199,1.142999 0.0423,0.296333 0.0423,0.761999 0,1.396999 l -0.127,3.513664 c 0,0.253999 0.0423,0.761999 0.0847,1.481665 0.127,1.185333 1.016,1.777999 2.667,1.777999 3.38666,0 5.37633,-0.254 6.01133,-0.804333 0.46566,-0.423333 0.762,-1.693332 0.84666,-3.85233 v -4.23333 c 0,-2.328332 -0.0847,-5.291663 -0.29633,-8.97466 -0.127,-2.285999 -0.16933,-3.513664 -0.21167,-3.640664 z m 14.09701,-2.751665 c -1.143,0.04233 -2.159,0.550333 -3.09033,1.481666 -0.635,0.634999 -1.43934,1.862665 -2.413,3.682997 -1.43933,2.666998 -2.83633,5.841995 -4.23333,9.482659 -1.43933,3.725331 -2.159,6.307662 -2.11667,7.746995 0.0423,1.227665 1.31234,1.735665 3.85233,1.608665 0.84667,-0.04233 1.43934,-0.254 1.73567,-0.634999 0.254,-0.211667 0.508,-0.762 0.71966,-1.566333 0.29634,-1.100665 0.762,-1.650998 1.43934,-1.693332 0.93133,-0.04233 1.56633,-0.04233 1.94733,0 h 2.45533 c 0.635,0 1.016,0.254 1.22767,0.804333 l 0.59266,1.693332 c 0.381,1.142999 2.413,1.693332 6.01133,1.650999 1.82033,-0.04233 3.175,-0.169333 4.064,-0.465666 1.524,-0.508 1.86266,-0.973666 1.69333,-2.497665 -0.29633,-2.836331 -1.86267,-7.111995 -4.699,-12.826991 -1.905,-3.809997 -3.25966,-6.138328 -4.14866,-6.984994 -1.10067,-1.058333 -2.413,-1.566333 -3.937,-1.523999 z m -2.286,12.107324 c 0.254,0 0.80433,1.142999 1.651,3.428998 0.127,0.296333 -0.127,0.550333 -0.71967,0.677333 -0.33866,0.08467 -0.635,0.126999 -0.889,0.126999 -0.71966,0 -1.18533,-0.08467 -1.48166,-0.296333 -0.21167,-0.127 -0.254,-0.253999 -0.21167,-0.423333 0.71967,-2.328331 1.27,-3.513664 1.651,-3.513664 z"
       id="text2"
       style="font-size:42.3333px;line-height:1;font-family:Pusab;-inkscape-font-specification:Pusab;font-variant-ligatures:no-common-ligatures;text-align:center;letter-spacing:0px;text-orientation:upright;text-anchor:middle;fill:#ffffff;stroke-width:5.29167;stroke-linecap:round;stroke-linejoin:round;paint-order:stroke fill markers"
       aria-label="Alpha" />
  </g>
</svg>
