<?xml version="1.0" encoding="UTF-8" standalone="no"?>
<!-- Created with Inkscape (http://www.inkscape.org/) -->

<svg
   width="270.93332mm"
   height="270.93332mm"
   viewBox="0 0 270.93332 270.93332"
   version="1.1"
   id="svg1"
   inkscape:version="1.3.2 (091e20ef0f, 2023-11-25, custom)"
   sodipodi:docname="CameraZoom.svg"
   xmlns:inkscape="http://www.inkscape.org/namespaces/inkscape"
   xmlns:sodipodi="http://sodipodi.sourceforge.net/DTD/sodipodi-0.dtd"
   xmlns="http://www.w3.org/2000/svg"
   xmlns:svg="http://www.w3.org/2000/svg">
  <sodipodi:namedview
     id="namedview1"
     pagecolor="#4d4d4d"
     bordercolor="#eeeeee"
     borderopacity="1"
     inkscape:showpageshadow="0"
     inkscape:pageopacity="0"
     inkscape:pagecheckerboard="false"
     inkscape:deskcolor="#181825"
     inkscape:document-units="px"
     inkscape:zoom="1.0938058"
     inkscape:cx="348.32509"
     inkscape:cy="604.76915"
     inkscape:window-width="1920"
     inkscape:window-height="1080"
     inkscape:window-x="0"
     inkscape:window-y="0"
     inkscape:window-maximized="1"
     inkscape:current-layer="layer1"
     showguides="false" />
  <defs
     id="defs1">
    <inkscape:path-effect
       effect="offset"
       id="path-effect10"
       is_visible="true"
       lpeversion="1.2"
       linejoin_type="miter"
       unit="px"
       offset="-19.785912"
       miter_limit="4"
       attempt_force_join="false"
       update_on_knot_move="true" />
    <inkscape:path-effect
       effect="fillet_chamfer"
       id="path-effect9"
       is_visible="true"
       lpeversion="1"
       nodesatellites_param="F,0,0,1,0,5,0,1 @ F,0,0,1,0,5,0,1 @ F,0,0,1,0,5,0,1 @ F,0,0,1,0,5,0,1 @ F,0,0,1,0,5,0,1 @ F,0,0,1,0,5,0,1 @ F,0,0,1,0,5,0,1 @ F,0,0,1,0,5,0,1 @ F,0,0,1,0,5,0,1"
       radius="5"
       unit="px"
       method="auto"
       mode="F"
       chamfer_steps="1"
       flexible="false"
       use_knot_distance="true"
       apply_no_radius="true"
       apply_with_radius="true"
       only_selected="false"
       hide_knots="false" />
    <inkscape:path-effect
       effect="fillet_chamfer"
       id="path-effect7"
       is_visible="true"
       lpeversion="1"
       nodesatellites_param="F,0,0,1,0,12.5,0,1 @ F,0,0,1,0,12.5,0,1 @ F,0,0,1,0,12.5,0,1 @ F,0,0,1,0,0,0,1 @ F,0,0,1,0,12.5,0,1 @ F,0,0,1,0,12.5,0,1 @ F,0,0,1,0,0,0,1 @ F,0,0,1,0,12.5,0,1"
       radius="12.5"
       unit="px"
       method="auto"
       mode="F"
       chamfer_steps="1"
       flexible="false"
       use_knot_distance="true"
       apply_no_radius="true"
       apply_with_radius="true"
       only_selected="false"
       hide_knots="false" />
    <inkscape:path-effect
       effect="mirror_symmetry"
       start_point="87.694907,155.3909"
       end_point="208.49167,155.3909"
       center_point="148.09329,155.3909"
       id="path-effect3"
       is_visible="true"
       lpeversion="1.2"
       lpesatellites=""
       mode="Y"
       discard_orig_path="false"
       fuse_paths="false"
       oposite_fuse="true"
       split_items="false"
       split_open="false"
       link_styles="false" />
    <inkscape:path-effect
       effect="fillet_chamfer"
       id="path-effect6"
       is_visible="false"
       lpeversion="1"
       nodesatellites_param="F,0,0,1,0,4,0,1 @ F,0,0,1,0,4,0,1 @ F,0,0,1,0,4,0,1 @ F,0,0,1,0,4,0,1 @ F,0,0,1,0,4,0,1 @ F,0,0,1,0,4,0,1 @ F,0,0,1,0,4,0,1 | F,0,0,1,0,4,0,1 @ F,0,0,1,0,4,0,1 @ F,0,0,1,0,4,0,1 @ F,0,0,1,0,4,0,1 @ F,0,0,1,0,4,0,1 @ F,0,0,1,0,4,0,1 @ F,0,0,1,0,4,0,1"
       radius="4"
       unit="px"
       method="auto"
       mode="F"
       chamfer_steps="1"
       flexible="false"
       use_knot_distance="true"
       apply_no_radius="true"
       apply_with_radius="true"
       only_selected="false"
       hide_knots="false" />
    <inkscape:path-effect
       effect="mirror_symmetry"
       start_point="87.694907,155.3909"
       end_point="208.49167,155.3909"
       center_point="148.09329,155.3909"
       id="path-effect5"
       is_visible="true"
       lpeversion="1.2"
       lpesatellites=""
       mode="Y"
       discard_orig_path="false"
       fuse_paths="false"
       oposite_fuse="true"
       split_items="false"
       split_open="false"
       link_styles="false" />
    <inkscape:path-effect
       effect="gears"
       id="path-effect1"
       is_visible="true"
       lpeversion="1"
       teeth="10"
       phi="5"
       min_radius="5" />
    <inkscape:path-effect
       effect="offset"
       id="path-effect2"
       is_visible="true"
       lpeversion="1.2"
       linejoin_type="miter"
       unit="px"
       offset="-25"
       miter_limit="4"
       attempt_force_join="false"
       update_on_knot_move="true" />
  </defs>
  <g
     inkscape:label="Calque 1"
     inkscape:groupmode="layer"
     id="layer1">
    <g
       id="g2"
       inkscape:label="template"
       style="display:none">
      <rect
         style="fill:#ff0000;stroke-width:3.96875;stroke-linecap:round;stroke-linejoin:round;paint-order:stroke fill markers"
         id="rect1"
         width="135.46666"
         height="135.46666"
         x="67.73333"
         y="67.73333" />
      <rect
         style="fill:#00ff00;stroke-width:2.80129;stroke-linecap:round;stroke-linejoin:round;paint-order:stroke fill markers"
         id="rect2"
         width="95.617188"
         height="95.61721"
         x="87.658058"
         y="107.58277" />
      <rect
         style="fill:#00ffff;stroke-width:1.02092;stroke-linecap:round;stroke-linejoin:round;paint-order:stroke fill markers"
         id="rect4"
         width="95.617188"
         height="12.7"
         x="87.658058"
         y="94.882774" />
      <rect
         style="fill:#00ffff;stroke-width:0.589428;stroke-linecap:round;stroke-linejoin:round;paint-order:stroke fill markers"
         id="rect5"
         width="95.617188"
         height="4.2333336"
         x="87.658058"
         y="63.5" />
    </g>
    <path
       d="m 86.882812,114.39844 31.871098,0 h 40.08007 a 5,5 45 0 1 5,5 v 12.83203 a 3.6927681,3.6927681 36.447856 0 0 4.77886,3.52944 l 15.65909,-4.81865 a 3.6927681,3.6927681 36.447856 0 1 4.77885,3.52944 v 41.83985 a 3.6927681,3.6927681 143.55214 0 1 -4.77885,3.52944 l -15.65909,-4.81865 a 3.6927681,3.6927681 143.55214 0 0 -4.77886,3.52944 v 12.83203 a 5,5 135 0 1 -5,5 l -71.951168,0 a 5,5 45 0 1 -5,-5 v -71.98437 a 5,5 135 0 1 5,-5 z"
       style="fill:#7f7fff;fill-opacity:1;stroke:#000000;stroke-width:17.2202;stroke-linecap:round;stroke-linejoin:round;stroke-dasharray:none;stroke-opacity:1;paint-order:stroke fill markers"
       id="path7"
       sodipodi:nodetypes="cccccccccc"
       inkscape:path-effect="#path-effect10;#path-effect9"
       inkscape:original-d="m 75.068287,107.5831 v 95.61484 H 170.6485 v -20.42009 l 25.21655,7.76025 v -70.29516 l -25.21655,7.76025 V 107.5831 h -46.8948 z"
       transform="matrix(0.76870041,0,0,0.76776935,31.33327,36.087217)" />
    <path
       d="m 93.683674,95.094441 c 4.995329,0.04233 8.254996,-0.169333 9.736656,-0.592666 1.73567,-0.508 2.62467,-1.608666 2.667,-3.259665 0,-1.142999 -0.127,-1.989665 -0.381,-2.539998 -0.381,-0.761999 -1.05833,-1.100666 -2.11666,-1.058332 -0.46567,0.04233 -1.22767,0.127 -2.286,0.296333 -0.97367,0.169333 -1.735667,0.254 -2.286,0.254 -0.381,0 -0.762,-0.04233 -1.100666,-0.127 -0.127,-0.04233 -0.211667,-0.169333 -0.211667,-0.296333 0,-0.211667 1.439333,-2.455332 4.275663,-6.815662 2.83633,-4.36033 4.27566,-7.238994 4.27566,-8.59366 v -2.370665 c 0,-1.269999 -1.86266,-2.031998 -5.54566,-2.328332 l -6.94266,-0.04233 c -4.995329,-0.04233 -8.254993,0.169333 -9.736659,0.592666 -1.735665,0.508 -2.624665,1.608666 -2.666998,3.259665 0,1.142999 0.127,1.989665 0.381,2.539998 0.380999,0.761999 1.058332,1.100666 2.116665,1.058332 0.465666,-0.04233 1.227666,-0.127 2.285998,-0.296333 0.973666,-0.169333 1.735665,-0.254 2.285998,-0.254 0.381,0 0.762,0.04233 1.100666,0.127 0.127,0.04233 0.211667,0.169333 0.211667,0.296333 0,0.211667 -1.439333,2.497665 -4.275664,6.857995 -2.836331,4.36033 -4.275663,7.196661 -4.275663,8.551327 v 2.370665 c 0,1.269999 1.862665,2.031998 5.545662,2.328332 z M 133.43464,83.071783 c 0,-1.439332 -0.254,-3.005664 -0.71966,-4.656663 -2.07434,-5.206996 -6.13833,-7.789327 -12.23433,-7.789327 -7.83166,0 -12.53066,4.614329 -12.53066,12.44599 0,7.789328 4.74133,12.403658 12.53066,12.403658 3.937,0 7.06966,-1.100666 9.39799,-3.301998 2.37067,-2.201332 3.556,-5.249329 3.556,-9.10166 z m -12.02266,5.503329 c -0.55033,0.127 -1.016,0 -1.48166,-0.465666 -1.22767,-1.227666 -1.86267,-3.132664 -1.86267,-5.714996 0,-0.380999 0,-0.804332 0.0423,-1.269999 0.16933,-2.539998 0.93133,-3.767663 2.24366,-3.682997 1.22767,0.08467 2.11667,1.100666 2.58233,3.047998 0.29634,1.312332 0.42334,2.751664 0.33867,4.317997 -0.127,2.243665 -0.762,3.47133 -1.86267,3.767663 z m 39.20065,-5.503329 c 0,-1.439332 -0.254,-3.005664 -0.71967,-4.656663 -2.07433,-5.206996 -6.13833,-7.789327 -12.23432,-7.789327 -7.83166,0 -12.53066,4.614329 -12.53066,12.44599 0,7.789328 4.74133,12.403658 12.53066,12.403658 3.937,0 7.06966,-1.100666 9.39799,-3.301998 2.37067,-2.201332 3.556,-5.249329 3.556,-9.10166 z m -12.02266,5.503329 c -0.55033,0.127 -1.016,0 -1.48166,-0.465666 -1.22767,-1.227666 -1.86267,-3.132664 -1.86267,-5.714996 0,-0.380999 0,-0.804332 0.0423,-1.269999 0.16934,-2.539998 0.93134,-3.767663 2.24367,-3.682997 1.22767,0.08467 2.11666,1.100666 2.58233,3.047998 0.29633,1.312332 0.42333,2.751664 0.33867,4.317997 -0.127,2.243665 -0.762,3.47133 -1.86267,3.767663 z m 15.19766,-11.514658 c -0.84666,4.48733 -1.31233,9.22866 -1.43933,14.22399 -0.0423,1.227665 0.0847,2.116665 0.381,2.624664 0.381,0.677333 1.143,1.016 2.32833,1.058333 2.20133,0.04233 3.34433,-0.761999 3.47133,-2.455332 0.29634,-3.894663 0.59267,-5.841995 0.889,-5.841995 0.0847,0 0.16934,0.04233 0.254,0.169333 l 2.159,2.793998 c 0.55033,0.719666 1.05833,1.058333 1.60867,1.058333 0.55033,0 1.143,-0.381 1.73566,-1.100666 1.651,-2.074332 2.49767,-3.090331 2.54,-3.090331 0.21167,0 0.381,0.507999 0.46567,1.566332 0.127,1.862665 0.254,3.005664 0.33866,3.386664 0.508,2.709331 1.69333,3.640664 4.445,3.640664 h 2.413 c 2.921,0 4.27566,-1.015999 4.14866,-3.047998 -0.33867,-4.952996 -0.97366,-9.948326 -1.905,-14.985989 -0.71966,-4.021663 -2.286,-6.011328 -4.65666,-6.011328 h -1.31233 c -1.60867,0 -2.96333,0.677332 -4.02167,1.989665 -0.33866,0.550333 -0.67733,1.142999 -1.05833,1.735665 -0.55033,0.719666 -1.016,1.100666 -1.48166,1.100666 -0.254,0 -1.18534,-1.058333 -2.83634,-3.174998 -0.84666,-1.100665 -1.90499,-1.650998 -3.17499,-1.650998 h -0.84667 c -2.20133,0 -3.683,1.989665 -4.445,6.011328 z"
       id="text1"
       style="font-size:42.3333px;line-height:1;font-family:Pusab;-inkscape-font-specification:Pusab;text-align:center;letter-spacing:0px;text-orientation:upright;text-anchor:middle;fill:#ffffff;stroke-width:1.32292;stroke-linecap:round;stroke-linejoin:round;paint-order:stroke fill markers"
       aria-label="Zoom" />
  </g>
</svg>
