<?xml version="1.0" encoding="UTF-8" standalone="no"?>
<!-- Created with Inkscape (http://www.inkscape.org/) -->

<svg
   width="270.93332mm"
   height="270.93332mm"
   viewBox="0 0 270.93332 270.93332"
   version="1.1"
   id="svg1"
   inkscape:version="1.3.2 (091e20ef0f, 2023-11-25, custom)"
   sodipodi:docname="CameraStatic.svg"
   xmlns:inkscape="http://www.inkscape.org/namespaces/inkscape"
   xmlns:sodipodi="http://sodipodi.sourceforge.net/DTD/sodipodi-0.dtd"
   xmlns="http://www.w3.org/2000/svg"
   xmlns:svg="http://www.w3.org/2000/svg">
  <sodipodi:namedview
     id="namedview1"
     pagecolor="#4d4d4d"
     bordercolor="#eeeeee"
     borderopacity="1"
     inkscape:showpageshadow="0"
     inkscape:pageopacity="0"
     inkscape:pagecheckerboard="false"
     inkscape:deskcolor="#181825"
     inkscape:document-units="px"
     inkscape:zoom="1.0938058"
     inkscape:cx="418.7215"
     inkscape:cy="372.55242"
     inkscape:window-width="1920"
     inkscape:window-height="1080"
     inkscape:window-x="0"
     inkscape:window-y="0"
     inkscape:window-maximized="1"
     inkscape:current-layer="layer1"
     showguides="false" />
  <defs
     id="defs1">
    <inkscape:path-effect
       effect="offset"
       id="path-effect10"
       is_visible="true"
       lpeversion="1.2"
       linejoin_type="miter"
       unit="px"
       offset="-19.785912"
       miter_limit="4"
       attempt_force_join="false"
       update_on_knot_move="true" />
    <inkscape:path-effect
       effect="fillet_chamfer"
       id="path-effect9"
       is_visible="true"
       lpeversion="1"
       nodesatellites_param="F,0,0,1,0,5,0,1 @ F,0,0,1,0,5,0,1 @ F,0,0,1,0,5,0,1 @ F,0,0,1,0,5,0,1 @ F,0,0,1,0,5,0,1 @ F,0,0,1,0,5,0,1 @ F,0,0,1,0,5,0,1 @ F,0,0,1,0,5,0,1 @ F,0,0,1,0,5,0,1"
       radius="5"
       unit="px"
       method="auto"
       mode="F"
       chamfer_steps="1"
       flexible="false"
       use_knot_distance="true"
       apply_no_radius="true"
       apply_with_radius="true"
       only_selected="false"
       hide_knots="false" />
    <inkscape:path-effect
       effect="fillet_chamfer"
       id="path-effect7"
       is_visible="true"
       lpeversion="1"
       nodesatellites_param="F,0,0,1,0,12.5,0,1 @ F,0,0,1,0,12.5,0,1 @ F,0,0,1,0,12.5,0,1 @ F,0,0,1,0,0,0,1 @ F,0,0,1,0,12.5,0,1 @ F,0,0,1,0,12.5,0,1 @ F,0,0,1,0,0,0,1 @ F,0,0,1,0,12.5,0,1"
       radius="12.5"
       unit="px"
       method="auto"
       mode="F"
       chamfer_steps="1"
       flexible="false"
       use_knot_distance="true"
       apply_no_radius="true"
       apply_with_radius="true"
       only_selected="false"
       hide_knots="false" />
    <inkscape:path-effect
       effect="mirror_symmetry"
       start_point="87.694907,155.3909"
       end_point="208.49167,155.3909"
       center_point="148.09329,155.3909"
       id="path-effect3"
       is_visible="true"
       lpeversion="1.2"
       lpesatellites=""
       mode="Y"
       discard_orig_path="false"
       fuse_paths="false"
       oposite_fuse="true"
       split_items="false"
       split_open="false"
       link_styles="false" />
    <inkscape:path-effect
       effect="fillet_chamfer"
       id="path-effect6"
       is_visible="false"
       lpeversion="1"
       nodesatellites_param="F,0,0,1,0,4,0,1 @ F,0,0,1,0,4,0,1 @ F,0,0,1,0,4,0,1 @ F,0,0,1,0,4,0,1 @ F,0,0,1,0,4,0,1 @ F,0,0,1,0,4,0,1 @ F,0,0,1,0,4,0,1 | F,0,0,1,0,4,0,1 @ F,0,0,1,0,4,0,1 @ F,0,0,1,0,4,0,1 @ F,0,0,1,0,4,0,1 @ F,0,0,1,0,4,0,1 @ F,0,0,1,0,4,0,1 @ F,0,0,1,0,4,0,1"
       radius="4"
       unit="px"
       method="auto"
       mode="F"
       chamfer_steps="1"
       flexible="false"
       use_knot_distance="true"
       apply_no_radius="true"
       apply_with_radius="true"
       only_selected="false"
       hide_knots="false" />
    <inkscape:path-effect
       effect="mirror_symmetry"
       start_point="87.694907,155.3909"
       end_point="208.49167,155.3909"
       center_point="148.09329,155.3909"
       id="path-effect5"
       is_visible="true"
       lpeversion="1.2"
       lpesatellites=""
       mode="Y"
       discard_orig_path="false"
       fuse_paths="false"
       oposite_fuse="true"
       split_items="false"
       split_open="false"
       link_styles="false" />
    <inkscape:path-effect
       effect="gears"
       id="path-effect1"
       is_visible="true"
       lpeversion="1"
       teeth="10"
       phi="5"
       min_radius="5" />
    <inkscape:path-effect
       effect="offset"
       id="path-effect2"
       is_visible="true"
       lpeversion="1.2"
       linejoin_type="miter"
       unit="px"
       offset="-25"
       miter_limit="4"
       attempt_force_join="false"
       update_on_knot_move="true" />
  </defs>
  <g
     inkscape:label="Calque 1"
     inkscape:groupmode="layer"
     id="layer1">
    <g
       id="g2"
       inkscape:label="template"
       style="display:none">
      <rect
         style="fill:#ff0000;stroke-width:3.96875;stroke-linecap:round;stroke-linejoin:round;paint-order:stroke fill markers"
         id="rect1"
         width="135.46666"
         height="135.46666"
         x="67.73333"
         y="67.73333" />
      <rect
         style="fill:#00ff00;stroke-width:2.80129;stroke-linecap:round;stroke-linejoin:round;paint-order:stroke fill markers"
         id="rect2"
         width="95.617188"
         height="95.61721"
         x="87.658058"
         y="107.58277" />
      <rect
         style="fill:#00ffff;stroke-width:1.02092;stroke-linecap:round;stroke-linejoin:round;paint-order:stroke fill markers"
         id="rect4"
         width="95.617188"
         height="12.7"
         x="87.658058"
         y="94.882774" />
      <rect
         style="fill:#00ffff;stroke-width:0.589428;stroke-linecap:round;stroke-linejoin:round;paint-order:stroke fill markers"
         id="rect5"
         width="95.617188"
         height="4.2333336"
         x="87.658058"
         y="63.5" />
    </g>
    <path
       d="m 86.882812,114.39844 31.871098,0 h 40.08007 a 5,5 45 0 1 5,5 v 12.83203 a 3.6927681,3.6927681 36.447856 0 0 4.77886,3.52944 l 15.65909,-4.81865 a 3.6927681,3.6927681 36.447856 0 1 4.77885,3.52944 v 41.83985 a 3.6927681,3.6927681 143.55214 0 1 -4.77885,3.52944 l -15.65909,-4.81865 a 3.6927681,3.6927681 143.55214 0 0 -4.77886,3.52944 v 12.83203 a 5,5 135 0 1 -5,5 l -71.951168,0 a 5,5 45 0 1 -5,-5 v -71.98437 a 5,5 135 0 1 5,-5 z"
       style="fill:#ff7f7f;fill-opacity:1;stroke:#000000;stroke-width:17.2202;stroke-linecap:round;stroke-linejoin:round;stroke-dasharray:none;stroke-opacity:1;paint-order:stroke fill markers"
       id="path7"
       sodipodi:nodetypes="cccccccccc"
       inkscape:path-effect="#path-effect10;#path-effect9"
       inkscape:original-d="m 75.068287,107.5831 v 95.61484 H 170.6485 v -20.42009 l 25.21655,7.76025 v -70.29516 l -25.21655,7.76025 V 107.5831 h -46.8948 z"
       transform="matrix(0.76870041,0,0,0.76776935,31.33327,36.087217)" />
    <path
       style="font-size:42.3333px;line-height:1;font-family:Pusab;-inkscape-font-specification:Pusab;text-align:center;letter-spacing:0px;text-orientation:upright;text-anchor:middle;fill:#ffffff;stroke-width:13.2292;stroke-linecap:round;stroke-linejoin:round;paint-order:stroke fill markers"
       d="m 81.428166,95.517774 c 8.59366,-0.296333 12.742324,-3.640664 12.488324,-10.117659 -0.127,-3.090331 -2.116665,-5.630329 -6.053662,-7.704661 -1.312333,-0.677333 -1.947332,-1.396999 -1.947332,-2.158998 0,-0.762 0.380999,-1.143 1.185332,-1.143 0.677333,0 1.608666,0.423333 2.836331,1.312333 0.719667,0.507999 1.439333,0.761999 2.074332,0.761999 0.804333,-0.04233 1.566332,-0.931332 2.201332,-2.666998 0.127,-0.465666 0.169333,-0.888999 0.169333,-1.269999 0,-0.719666 -0.211666,-1.312332 -0.677333,-1.693332 -1.185332,-1.058332 -2.582331,-1.862665 -4.190997,-2.455331 -2.666998,-1.016 -5.545662,-1.481666 -8.635993,-1.354666 -8.59366,0.296333 -12.742324,3.640664 -12.488324,10.117659 0.127,3.090331 2.116665,5.630329 6.053662,7.704661 1.312332,0.677333 1.947332,1.396999 1.947332,2.158998 0,0.762 -0.381,1.142999 -1.185333,1.142999 -0.677332,0 -1.608665,-0.423333 -2.836331,-1.312332 -0.719666,-0.508 -1.439332,-0.761999 -2.074331,-0.761999 -0.804333,0.04233 -1.566333,0.931332 -2.201332,2.666998 -0.127,0.465666 -0.169333,0.888999 -0.169333,1.269999 0,0.719666 0.211666,1.312332 0.677332,1.693332 1.185333,1.058332 2.582332,1.862665 4.190997,2.455331 2.666998,1.015999 5.545663,1.481666 8.635994,1.354666 z M 101.53652,78.626787 c -0.254,6.519328 -0.33866,10.625658 -0.21166,12.361324 0.0847,1.396999 0.29633,2.285998 0.635,2.624664 0.97366,0.973666 2.66699,1.439333 5.07999,1.481666 h 1.05833 c 1.73567,-0.08467 2.96334,-0.338667 3.64067,-0.804333 0.889,-0.592666 1.31233,-1.735665 1.31233,-3.428997 l 0.0847,-11.514658 c 0,-1.227666 0.59266,-1.862666 1.778,-1.820332 0.33866,0 1.31233,0.08467 1.77799,0.08467 0.80434,0 1.35467,-0.08467 1.69334,-0.253999 0.889,-0.465667 1.31233,-1.608666 1.31233,-3.428998 0,-0.973666 -0.42333,-1.650999 -1.22767,-1.947332 -1.397,-0.550333 -3.59833,-0.846666 -6.56166,-0.888999 -4.23333,-0.08467 -8.29733,0.04233 -12.149656,0.338666 -2.455332,0.211667 -3.682998,1.142999 -3.682998,2.878665 0,2.243665 0.719667,3.301997 2.201332,3.174997 l 1.862662,-0.126999 c 0.97367,-0.04233 1.43934,0.380999 1.397,1.269999 z m 26.24666,-7.789328 c -1.14299,0.04233 -2.15899,0.550333 -3.09033,1.481666 -0.635,0.634999 -1.43933,1.862665 -2.41299,3.682997 -1.43934,2.666998 -2.83634,5.841995 -4.23333,9.482659 -1.43934,3.725331 -2.159,6.307662 -2.11667,7.746995 0.0423,1.227665 1.31233,1.735665 3.85233,1.608665 0.84667,-0.04233 1.43933,-0.254 1.73567,-0.634999 0.254,-0.211667 0.508,-0.762 0.71966,-1.566333 0.29634,-1.100665 0.762,-1.650998 1.43933,-1.693332 0.93134,-0.04233 1.56634,-0.04233 1.94734,0 h 2.45533 c 0.635,0 1.016,0.254 1.22766,0.804333 l 0.59267,1.693332 c 0.381,1.142999 2.413,1.693332 6.01133,1.650999 1.82033,-0.04233 3.175,-0.169333 4.064,-0.465666 1.52399,-0.508 1.86266,-0.973666 1.69333,-2.497665 -0.29634,-2.836331 -1.86267,-7.111995 -4.699,-12.826991 -1.905,-3.809997 -3.25966,-6.138328 -4.14866,-6.984994 -1.10067,-1.058333 -2.413,-1.566333 -3.937,-1.523999 z m -2.28599,12.107324 c 0.254,0 0.80433,1.142999 1.65099,3.428998 0.127,0.296333 -0.12699,0.550333 -0.71966,0.677333 -0.33867,0.08467 -0.635,0.126999 -0.889,0.126999 -0.71967,0 -1.18533,-0.08467 -1.48167,-0.296333 -0.21166,-0.127 -0.254,-0.253999 -0.21166,-0.423333 0.71966,-2.328331 1.27,-3.513664 1.651,-3.513664 z m 18.83836,-4.317996 c -0.254,6.519328 -0.33866,10.625658 -0.21166,12.361324 0.0847,1.396999 0.29633,2.285998 0.635,2.624664 0.97366,0.973666 2.66699,1.439333 5.07999,1.481666 h 1.05833 c 1.73567,-0.08467 2.96334,-0.338667 3.64067,-0.804333 0.889,-0.592666 1.31233,-1.735665 1.31233,-3.428997 l 0.0847,-11.514658 c 0,-1.227666 0.59266,-1.862666 1.778,-1.820332 0.33866,0 1.31233,0.08467 1.77799,0.08467 0.80434,0 1.35467,-0.08467 1.69334,-0.253999 0.889,-0.465667 1.31233,-1.608666 1.31233,-3.428998 0,-0.973666 -0.42333,-1.650999 -1.22767,-1.947332 -1.397,-0.550333 -3.59833,-0.846666 -6.56166,-0.888999 -4.23333,-0.08467 -8.29733,0.04233 -12.14966,0.338666 -2.45533,0.211667 -3.68299,1.142999 -3.68299,2.878665 0,2.243665 0.71966,3.301997 2.20133,3.174997 l 1.86266,-0.126999 c 0.97367,-0.04233 1.43934,0.380999 1.397,1.269999 z m 32.00396,-4.36033 c 0.0423,-2.074332 -1.14299,-3.132665 -3.51366,-3.174998 -1.143,-0.04233 -1.82033,-0.04233 -2.032,-0.04233 -2.54,0 -4.31799,0.465666 -5.29166,1.396999 -0.80433,0.804332 -1.27,2.116665 -1.31233,3.97933 0.0847,1.947332 0.127,3.97933 0.127,6.095995 v 5.630329 c 0.0847,3.259665 0.33866,5.079997 0.762,5.460996 1.05833,0.973666 2.75166,1.439333 5.07999,1.481666 h 1.10067 c 1.778,-0.08467 3.00566,-0.338667 3.64066,-0.804333 0.80433,-0.634999 1.22767,-1.777999 1.27,-3.428997 z m 26.11961,11.175991 c -0.55033,-0.550333 -1.778,-0.804333 -3.59833,-0.846666 -0.84666,-0.04233 -1.43933,0.296333 -1.73566,1.015999 -0.29634,0.719666 -0.55034,1.396999 -0.84667,2.074332 -0.46567,0.719666 -1.22766,1.100666 -2.32833,1.100666 -1.73567,0 -2.58233,-1.947332 -2.58233,-5.799662 0,-0.296333 0.0423,-0.846666 0.0847,-1.566333 0.21167,-2.582331 0.93134,-3.936997 2.24367,-4.10633 1.778,-0.254 2.87866,0.719666 3.25966,2.963331 0.127,0.846666 0.635,1.269999 1.48167,1.269999 0.0423,0 0.21167,0 0.508,-0.04233 1.31233,-0.127 2.159,-0.254 2.62466,-0.423333 0.97367,-0.338666 1.397,-0.973666 1.27,-1.904999 -0.33866,-2.836331 -1.86266,-5.037662 -4.61433,-6.646328 -2.20133,-1.312332 -4.74133,-1.947332 -7.61999,-1.947332 -7.78933,0 -12.53066,4.61433 -12.53066,12.403658 0,8.08566 4.91066,12.488324 13.03866,12.488324 5.79966,0 9.69432,-2.582332 11.68399,-7.789328 0.0423,-0.296333 0.0847,-0.592666 0.0847,-0.888999 0,-0.550333 -0.127,-1.015999 -0.42334,-1.354666 z"
       id="text1"
       aria-label="Static" />
  </g>
</svg>
