<?xml version="1.0" encoding="UTF-8" standalone="no"?>
<!-- Created with Inkscape (http://www.inkscape.org/) -->

<svg
   width="270.93332mm"
   height="270.93332mm"
   viewBox="0 0 270.93332 270.93332"
   version="1.1"
   id="svg1"
   inkscape:version="1.3.2 (091e20ef0f, 2023-11-25, custom)"
   sodipodi:docname="CameraOffset.svg"
   xmlns:inkscape="http://www.inkscape.org/namespaces/inkscape"
   xmlns:sodipodi="http://sodipodi.sourceforge.net/DTD/sodipodi-0.dtd"
   xmlns="http://www.w3.org/2000/svg"
   xmlns:svg="http://www.w3.org/2000/svg">
  <sodipodi:namedview
     id="namedview1"
     pagecolor="#4d4d4d"
     bordercolor="#eeeeee"
     borderopacity="1"
     inkscape:showpageshadow="0"
     inkscape:pageopacity="0"
     inkscape:pagecheckerboard="false"
     inkscape:deskcolor="#181825"
     inkscape:document-units="px"
     inkscape:zoom="1.0938058"
     inkscape:cx="418.7215"
     inkscape:cy="373.00954"
     inkscape:window-width="944"
     inkscape:window-height="1019"
     inkscape:window-x="962"
     inkscape:window-y="47"
     inkscape:window-maximized="1"
     inkscape:current-layer="layer1"
     showguides="false" />
  <defs
     id="defs1">
    <inkscape:path-effect
       effect="offset"
       id="path-effect10"
       is_visible="true"
       lpeversion="1.2"
       linejoin_type="miter"
       unit="px"
       offset="-19.785912"
       miter_limit="4"
       attempt_force_join="false"
       update_on_knot_move="true" />
    <inkscape:path-effect
       effect="fillet_chamfer"
       id="path-effect9"
       is_visible="true"
       lpeversion="1"
       nodesatellites_param="F,0,0,1,0,5,0,1 @ F,0,0,1,0,5,0,1 @ F,0,0,1,0,5,0,1 @ F,0,0,1,0,5,0,1 @ F,0,0,1,0,5,0,1 @ F,0,0,1,0,5,0,1 @ F,0,0,1,0,5,0,1 @ F,0,0,1,0,5,0,1 @ F,0,0,1,0,5,0,1"
       radius="5"
       unit="px"
       method="auto"
       mode="F"
       chamfer_steps="1"
       flexible="false"
       use_knot_distance="true"
       apply_no_radius="true"
       apply_with_radius="true"
       only_selected="false"
       hide_knots="false" />
    <inkscape:path-effect
       effect="fillet_chamfer"
       id="path-effect7"
       is_visible="true"
       lpeversion="1"
       nodesatellites_param="F,0,0,1,0,12.5,0,1 @ F,0,0,1,0,12.5,0,1 @ F,0,0,1,0,12.5,0,1 @ F,0,0,1,0,0,0,1 @ F,0,0,1,0,12.5,0,1 @ F,0,0,1,0,12.5,0,1 @ F,0,0,1,0,0,0,1 @ F,0,0,1,0,12.5,0,1"
       radius="12.5"
       unit="px"
       method="auto"
       mode="F"
       chamfer_steps="1"
       flexible="false"
       use_knot_distance="true"
       apply_no_radius="true"
       apply_with_radius="true"
       only_selected="false"
       hide_knots="false" />
    <inkscape:path-effect
       effect="mirror_symmetry"
       start_point="87.694907,155.3909"
       end_point="208.49167,155.3909"
       center_point="148.09329,155.3909"
       id="path-effect3"
       is_visible="true"
       lpeversion="1.2"
       lpesatellites=""
       mode="Y"
       discard_orig_path="false"
       fuse_paths="false"
       oposite_fuse="true"
       split_items="false"
       split_open="false"
       link_styles="false" />
    <inkscape:path-effect
       effect="fillet_chamfer"
       id="path-effect6"
       is_visible="false"
       lpeversion="1"
       nodesatellites_param="F,0,0,1,0,4,0,1 @ F,0,0,1,0,4,0,1 @ F,0,0,1,0,4,0,1 @ F,0,0,1,0,4,0,1 @ F,0,0,1,0,4,0,1 @ F,0,0,1,0,4,0,1 @ F,0,0,1,0,4,0,1 | F,0,0,1,0,4,0,1 @ F,0,0,1,0,4,0,1 @ F,0,0,1,0,4,0,1 @ F,0,0,1,0,4,0,1 @ F,0,0,1,0,4,0,1 @ F,0,0,1,0,4,0,1 @ F,0,0,1,0,4,0,1"
       radius="4"
       unit="px"
       method="auto"
       mode="F"
       chamfer_steps="1"
       flexible="false"
       use_knot_distance="true"
       apply_no_radius="true"
       apply_with_radius="true"
       only_selected="false"
       hide_knots="false" />
    <inkscape:path-effect
       effect="mirror_symmetry"
       start_point="87.694907,155.3909"
       end_point="208.49167,155.3909"
       center_point="148.09329,155.3909"
       id="path-effect5"
       is_visible="true"
       lpeversion="1.2"
       lpesatellites=""
       mode="Y"
       discard_orig_path="false"
       fuse_paths="false"
       oposite_fuse="true"
       split_items="false"
       split_open="false"
       link_styles="false" />
    <inkscape:path-effect
       effect="gears"
       id="path-effect1"
       is_visible="true"
       lpeversion="1"
       teeth="10"
       phi="5"
       min_radius="5" />
    <inkscape:path-effect
       effect="offset"
       id="path-effect2"
       is_visible="true"
       lpeversion="1.2"
       linejoin_type="miter"
       unit="px"
       offset="-25"
       miter_limit="4"
       attempt_force_join="false"
       update_on_knot_move="true" />
  </defs>
  <g
     inkscape:label="Calque 1"
     inkscape:groupmode="layer"
     id="layer1">
    <g
       id="g2"
       inkscape:label="template"
       style="display:none">
      <rect
         style="fill:#ff0000;stroke-width:3.96875;stroke-linecap:round;stroke-linejoin:round;paint-order:stroke fill markers"
         id="rect1"
         width="135.46666"
         height="135.46666"
         x="67.73333"
         y="67.73333" />
      <rect
         style="fill:#00ff00;stroke-width:2.80129;stroke-linecap:round;stroke-linejoin:round;paint-order:stroke fill markers"
         id="rect2"
         width="95.617188"
         height="95.61721"
         x="87.658058"
         y="107.58277" />
      <rect
         style="fill:#00ffff;stroke-width:1.02092;stroke-linecap:round;stroke-linejoin:round;paint-order:stroke fill markers"
         id="rect4"
         width="95.617188"
         height="12.7"
         x="87.658058"
         y="94.882774" />
      <rect
         style="fill:#00ffff;stroke-width:0.589428;stroke-linecap:round;stroke-linejoin:round;paint-order:stroke fill markers"
         id="rect5"
         width="95.617188"
         height="4.2333336"
         x="87.658058"
         y="63.5" />
    </g>
    <path
       d="m 86.882812,114.39844 31.871098,0 h 40.08007 a 5,5 45 0 1 5,5 v 12.83203 a 3.6927681,3.6927681 36.447856 0 0 4.77886,3.52944 l 15.65909,-4.81865 a 3.6927681,3.6927681 36.447856 0 1 4.77885,3.52944 v 41.83985 a 3.6927681,3.6927681 143.55214 0 1 -4.77885,3.52944 l -15.65909,-4.81865 a 3.6927681,3.6927681 143.55214 0 0 -4.77886,3.52944 v 12.83203 a 5,5 135 0 1 -5,5 l -71.951168,0 a 5,5 45 0 1 -5,-5 v -71.98437 a 5,5 135 0 1 5,-5 z"
       style="fill:#7fff7f;fill-opacity:1;stroke:#000000;stroke-width:17.2202;stroke-linecap:round;stroke-linejoin:round;stroke-dasharray:none;stroke-opacity:1;paint-order:stroke fill markers"
       id="path7"
       sodipodi:nodetypes="cccccccccc"
       inkscape:path-effect="#path-effect10;#path-effect9"
       inkscape:original-d="m 75.068287,107.5831 v 95.61484 H 170.6485 v -20.42009 l 25.21655,7.76025 v -70.29516 l -25.21655,7.76025 V 107.5831 h -46.8948 z"
       transform="matrix(0.76870041,0,0,0.76776935,31.33327,36.087217)" />
    <path
       d="m 89.958392,81.336118 c 0,-1.650999 -0.254,-3.259664 -0.719666,-4.783663 -1.989665,-6.307662 -6.688662,-9.48266 -14.09699,-9.48266 -4.529663,0 -8.043327,1.269999 -10.583325,3.767664 -2.539998,2.497665 -3.809997,6.011329 -3.809997,10.498659 0,4.48733 1.269999,7.958661 3.809997,10.456325 2.582331,2.497665 6.095995,3.725331 10.583325,3.725331 4.48733,0 8.085661,-1.269999 10.752659,-3.767664 2.709331,-2.497665 4.063997,-5.968995 4.063997,-10.413992 z M 76.157736,87.64378 c -0.592667,0.127 -1.142999,-0.04233 -1.650999,-0.508 -1.650999,-1.481665 -2.328332,-4.148663 -2.116665,-8.000994 0.169333,-2.878664 1.015999,-4.275663 2.539998,-4.23333 1.396999,0.04233 2.412998,1.227666 2.963331,3.471331 0.381,1.566332 0.550333,3.217331 0.423333,4.995329 -0.127,2.539998 -0.846666,3.979331 -2.158998,4.275664 z m 28.786624,0.550333 c 0,-0.719666 0.16934,-1.269999 0.46567,-1.608666 0.33867,-0.380999 1.27,-0.550333 2.75166,-0.550333 1.31234,0 2.07433,-0.08467 2.37067,-0.211666 0.46566,-0.338667 0.67733,-1.142999 0.67733,-2.455332 0,-1.481665 -0.42333,-2.201331 -1.22766,-2.243665 -1.31234,-0.04233 -2.37067,-0.127 -3.175,-0.211666 -1.22767,-0.127 -1.86267,-0.719666 -1.86267,-1.735666 0,-0.888999 0.21167,-1.481665 0.67734,-1.735665 0.33866,-0.211666 1.14299,-0.296333 2.37066,-0.254 0.381,0 0.97367,0.08467 1.778,0.211667 0.80433,0.127 1.397,0.211666 1.82033,0.211666 0.55033,0 0.97367,-0.380999 1.27,-1.100666 0.21167,-0.550332 0.33867,-1.185332 0.33867,-1.820331 0,-0.931333 -0.33867,-1.650999 -1.016,-2.158999 -0.508,-0.296333 -1.31234,-0.550333 -2.413,-0.761999 -2.49767,-0.465667 -5.334,-0.719666 -8.50899,-0.719666 -5.207001,0 -8.170332,0.677332 -8.889998,2.031998 -0.465667,0.888999 -0.719666,4.275664 -0.719666,10.159992 0,6.095996 0.338666,9.567327 1.015999,10.371659 0.507999,0.635 1.269999,1.058333 2.328331,1.269999 1.185333,0.127 2.074332,0.211667 2.709332,0.211667 1.227665,0.04233 2.031998,0.04233 2.413002,0 2.37066,-0.169333 3.85233,-0.804333 4.40266,-1.904999 0.29633,-0.550333 0.42333,-1.481665 0.42333,-2.793998 z m 23.24097,0 c 0,-0.719666 0.16934,-1.269999 0.46567,-1.608666 0.33867,-0.380999 1.27,-0.550333 2.75167,-0.550333 1.31233,0 2.07433,-0.08467 2.37066,-0.211666 0.46567,-0.338667 0.67733,-1.142999 0.67733,-2.455332 0,-1.481665 -0.42333,-2.201331 -1.22766,-2.243665 -1.31233,-0.04233 -2.37067,-0.127 -3.175,-0.211666 -1.22767,-0.127 -1.86267,-0.719666 -1.86267,-1.735666 0,-0.888999 0.21167,-1.481665 0.67734,-1.735665 0.33866,-0.211666 1.143,-0.296333 2.37066,-0.254 0.381,0 0.97367,0.08467 1.778,0.211667 0.80433,0.127 1.397,0.211666 1.82033,0.211666 0.55034,0 0.97367,-0.380999 1.27,-1.100666 0.21167,-0.550332 0.33867,-1.185332 0.33867,-1.820331 0,-0.931333 -0.33867,-1.650999 -1.016,-2.158999 -0.508,-0.296333 -1.31233,-0.550333 -2.413,-0.761999 -2.49766,-0.465667 -5.33399,-0.719666 -8.50899,-0.719666 -5.207,0 -8.17033,0.677332 -8.89,2.031998 -0.46566,0.888999 -0.71966,4.275664 -0.71966,10.159992 0,6.095996 0.33866,9.567327 1.016,10.371659 0.508,0.635 1.27,1.058333 2.32833,1.269999 1.18533,0.127 2.07433,0.211667 2.70933,0.211667 1.22767,0.04233 2.032,0.04233 2.413,0 2.37066,-0.169333 3.85233,-0.804333 4.40266,-1.904999 0.29633,-0.550333 0.42333,-1.481665 0.42333,-2.793998 z m 21.80165,7.281328 c 7.45066,-0.211667 11.09132,-3.174998 10.87966,-8.889994 -0.0847,-2.666998 -1.86267,-4.910663 -5.29167,-6.688661 -1.143,-0.592667 -1.69333,-1.227666 -1.69333,-1.862666 0,-0.719666 0.33867,-1.058332 1.05833,-1.058332 0.59267,0 1.397,0.381 2.45533,1.142999 0.67734,0.465666 1.27,0.719666 1.82034,0.719666 0.71966,-0.04233 1.35466,-0.804333 1.905,-2.370665 0.127,-0.423333 0.16933,-0.804333 0.16933,-1.100666 0,-0.634999 -0.21167,-1.142999 -0.59267,-1.481665 -1.016,-0.889 -2.24366,-1.566332 -3.64066,-2.116665 -2.37067,-0.889 -4.91066,-1.269999 -7.57766,-1.185333 -7.493,0.254 -11.13366,3.174998 -10.92199,8.805327 0.127,2.709331 1.86266,4.952996 5.29166,6.730995 1.143,0.592666 1.73566,1.227666 1.73566,1.862665 0,0.677333 -0.33866,1.015999 -1.016,1.015999 -0.59266,0 -1.43933,-0.380999 -2.49766,-1.142999 -0.635,-0.423333 -1.22767,-0.634999 -1.82033,-0.634999 -0.71967,0.04233 -1.35467,0.804333 -1.94733,2.328331 -0.127,0.381 -0.16934,0.762 -0.16934,1.100666 0,0.635 0.21167,1.142999 0.635,1.481666 2.921,2.370665 6.64633,3.47133 11.21833,3.344331 z m 33.1893,-6.857995 c -1.52399,0.211666 -2.70933,0.338666 -3.55599,0.338666 -1.27,0.04233 -2.032,-0.04233 -2.286,-0.211666 -0.46567,-0.296333 -0.71967,-0.804333 -0.71967,-1.566333 0,-0.550332 0.127,-0.973665 0.381,-1.269999 0.508,-0.423333 1.43934,-0.634999 2.75167,-0.592666 1.35466,0.04233 2.159,-0.04233 2.45533,-0.254 0.46567,-0.296333 0.71967,-0.931332 0.71967,-1.904998 0,-1.439332 -0.42334,-2.158999 -1.27,-2.201332 -1.73567,-0.08467 -2.75167,-0.169333 -3.09033,-0.211666 -1.31234,-0.254 -1.94734,-0.846666 -1.94734,-1.735666 0,-0.804332 0.21167,-1.312332 0.67734,-1.566332 0.33866,-0.211666 1.10066,-0.296333 2.32833,-0.254 0.381,0 0.97366,0.08467 1.778,0.211667 0.80433,0.127 1.43933,0.211666 1.86266,0.211666 0.55033,0 0.97367,-0.380999 1.27,-1.100666 0.21167,-0.550332 0.33867,-1.185332 0.33867,-1.820331 0,-0.973666 -0.33867,-1.693333 -1.05834,-2.158999 -0.42333,-0.296333 -1.22766,-0.550333 -2.37066,-0.761999 -2.45533,-0.465667 -5.29166,-0.719666 -8.50899,-0.719666 -5.461,0 -8.509,0.677332 -9.22866,2.031998 -0.46567,0.888999 -0.71967,4.275664 -0.71967,10.159992 v 2.963332 c 0,4.021663 0.33867,6.476995 1.016,7.323661 0.84667,1.058332 3.97933,1.566332 9.39799,1.566332 3.302,0 5.969,-0.211667 8.04333,-0.592666 2.286,-0.423333 3.429,-1.396999 3.429,-2.920998 0,-2.158999 -0.55034,-3.132664 -1.69334,-2.963331 z m 8.84763,-9.990659 c -0.254,6.519328 -0.33867,10.625658 -0.21167,12.361324 0.0847,1.396999 0.29634,2.285998 0.635,2.624664 0.97367,0.973666 2.667,1.439333 5.08,1.481666 h 1.05833 c 1.73567,-0.08467 2.96333,-0.338667 3.64066,-0.804333 0.889,-0.592666 1.31234,-1.735665 1.31234,-3.428997 l 0.0847,-11.514658 c 0,-1.227666 0.59267,-1.862666 1.778,-1.820332 0.33867,0 1.31233,0.08467 1.778,0.08467 0.80433,0 1.35467,-0.08467 1.69333,-0.253999 0.889,-0.465667 1.31234,-1.608666 1.31234,-3.428998 0,-0.973666 -0.42334,-1.650999 -1.22767,-1.947332 -1.397,-0.550333 -3.59833,-0.846666 -6.56166,-0.888999 -4.23333,-0.08467 -8.29733,0.04233 -12.14966,0.338666 -2.45533,0.211667 -3.683,1.142999 -3.683,2.878665 0,2.243665 0.71967,3.301997 2.20133,3.174997 l 1.86267,-0.126999 c 0.97367,-0.04233 1.43933,0.380999 1.397,1.269999 z"
       id="text1"
       style="font-size:42.3333px;line-height:1;font-family:Pusab;-inkscape-font-specification:Pusab;text-align:center;letter-spacing:0px;text-orientation:upright;text-anchor:middle;fill:#ffffff;stroke-width:13.2292;stroke-linecap:round;stroke-linejoin:round;paint-order:stroke fill markers"
       aria-label="Offset" />
  </g>
</svg>
