<?xml version="1.0" encoding="UTF-8" standalone="no"?>
<!-- Created with Inkscape (http://www.inkscape.org/) -->

<svg
   width="270.93332mm"
   height="270.93332mm"
   viewBox="0 0 270.93332 270.93332"
   version="1.1"
   id="svg1"
   inkscape:version="1.3.2 (091e20ef0f, 2023-11-25, custom)"
   sodipodi:docname="CameraRotate.svg"
   xmlns:inkscape="http://www.inkscape.org/namespaces/inkscape"
   xmlns:sodipodi="http://sodipodi.sourceforge.net/DTD/sodipodi-0.dtd"
   xmlns="http://www.w3.org/2000/svg"
   xmlns:svg="http://www.w3.org/2000/svg">
  <sodipodi:namedview
     id="namedview1"
     pagecolor="#4d4d4d"
     bordercolor="#eeeeee"
     borderopacity="1"
     inkscape:showpageshadow="0"
     inkscape:pageopacity="0"
     inkscape:pagecheckerboard="false"
     inkscape:deskcolor="#181825"
     inkscape:document-units="px"
     inkscape:zoom="1.0938058"
     inkscape:cx="418.7215"
     inkscape:cy="372.55242"
     inkscape:window-width="1920"
     inkscape:window-height="1080"
     inkscape:window-x="0"
     inkscape:window-y="0"
     inkscape:window-maximized="1"
     inkscape:current-layer="layer1"
     showguides="false" />
  <defs
     id="defs1">
    <inkscape:path-effect
       effect="offset"
       id="path-effect10"
       is_visible="true"
       lpeversion="1.2"
       linejoin_type="miter"
       unit="px"
       offset="-19.785912"
       miter_limit="4"
       attempt_force_join="false"
       update_on_knot_move="true" />
    <inkscape:path-effect
       effect="fillet_chamfer"
       id="path-effect9"
       is_visible="true"
       lpeversion="1"
       nodesatellites_param="F,0,0,1,0,5,0,1 @ F,0,0,1,0,5,0,1 @ F,0,0,1,0,5,0,1 @ F,0,0,1,0,5,0,1 @ F,0,0,1,0,5,0,1 @ F,0,0,1,0,5,0,1 @ F,0,0,1,0,5,0,1 @ F,0,0,1,0,5,0,1 @ F,0,0,1,0,5,0,1"
       radius="5"
       unit="px"
       method="auto"
       mode="F"
       chamfer_steps="1"
       flexible="false"
       use_knot_distance="true"
       apply_no_radius="true"
       apply_with_radius="true"
       only_selected="false"
       hide_knots="false" />
    <inkscape:path-effect
       effect="fillet_chamfer"
       id="path-effect7"
       is_visible="true"
       lpeversion="1"
       nodesatellites_param="F,0,0,1,0,12.5,0,1 @ F,0,0,1,0,12.5,0,1 @ F,0,0,1,0,12.5,0,1 @ F,0,0,1,0,0,0,1 @ F,0,0,1,0,12.5,0,1 @ F,0,0,1,0,12.5,0,1 @ F,0,0,1,0,0,0,1 @ F,0,0,1,0,12.5,0,1"
       radius="12.5"
       unit="px"
       method="auto"
       mode="F"
       chamfer_steps="1"
       flexible="false"
       use_knot_distance="true"
       apply_no_radius="true"
       apply_with_radius="true"
       only_selected="false"
       hide_knots="false" />
    <inkscape:path-effect
       effect="mirror_symmetry"
       start_point="87.694907,155.3909"
       end_point="208.49167,155.3909"
       center_point="148.09329,155.3909"
       id="path-effect3"
       is_visible="true"
       lpeversion="1.2"
       lpesatellites=""
       mode="Y"
       discard_orig_path="false"
       fuse_paths="false"
       oposite_fuse="true"
       split_items="false"
       split_open="false"
       link_styles="false" />
    <inkscape:path-effect
       effect="fillet_chamfer"
       id="path-effect6"
       is_visible="false"
       lpeversion="1"
       nodesatellites_param="F,0,0,1,0,4,0,1 @ F,0,0,1,0,4,0,1 @ F,0,0,1,0,4,0,1 @ F,0,0,1,0,4,0,1 @ F,0,0,1,0,4,0,1 @ F,0,0,1,0,4,0,1 @ F,0,0,1,0,4,0,1 | F,0,0,1,0,4,0,1 @ F,0,0,1,0,4,0,1 @ F,0,0,1,0,4,0,1 @ F,0,0,1,0,4,0,1 @ F,0,0,1,0,4,0,1 @ F,0,0,1,0,4,0,1 @ F,0,0,1,0,4,0,1"
       radius="4"
       unit="px"
       method="auto"
       mode="F"
       chamfer_steps="1"
       flexible="false"
       use_knot_distance="true"
       apply_no_radius="true"
       apply_with_radius="true"
       only_selected="false"
       hide_knots="false" />
    <inkscape:path-effect
       effect="mirror_symmetry"
       start_point="87.694907,155.3909"
       end_point="208.49167,155.3909"
       center_point="148.09329,155.3909"
       id="path-effect5"
       is_visible="true"
       lpeversion="1.2"
       lpesatellites=""
       mode="Y"
       discard_orig_path="false"
       fuse_paths="false"
       oposite_fuse="true"
       split_items="false"
       split_open="false"
       link_styles="false" />
    <inkscape:path-effect
       effect="gears"
       id="path-effect1"
       is_visible="true"
       lpeversion="1"
       teeth="10"
       phi="5"
       min_radius="5" />
    <inkscape:path-effect
       effect="offset"
       id="path-effect2"
       is_visible="true"
       lpeversion="1.2"
       linejoin_type="miter"
       unit="px"
       offset="-25"
       miter_limit="4"
       attempt_force_join="false"
       update_on_knot_move="true" />
  </defs>
  <g
     inkscape:label="Calque 1"
     inkscape:groupmode="layer"
     id="layer1">
    <g
       id="g2"
       inkscape:label="template"
       style="display:none">
      <rect
         style="fill:#ff0000;stroke-width:3.96875;stroke-linecap:round;stroke-linejoin:round;paint-order:stroke fill markers"
         id="rect1"
         width="135.46666"
         height="135.46666"
         x="67.73333"
         y="67.73333" />
      <rect
         style="fill:#00ff00;stroke-width:2.80129;stroke-linecap:round;stroke-linejoin:round;paint-order:stroke fill markers"
         id="rect2"
         width="95.617188"
         height="95.61721"
         x="87.658058"
         y="107.58277" />
      <rect
         style="fill:#00ffff;stroke-width:1.02092;stroke-linecap:round;stroke-linejoin:round;paint-order:stroke fill markers"
         id="rect4"
         width="95.617188"
         height="12.7"
         x="87.658058"
         y="94.882774" />
      <rect
         style="fill:#00ffff;stroke-width:0.589428;stroke-linecap:round;stroke-linejoin:round;paint-order:stroke fill markers"
         id="rect5"
         width="95.617188"
         height="4.2333336"
         x="87.658058"
         y="63.5" />
    </g>
    <path
       d="m 86.882812,114.39844 31.871098,0 h 40.08007 a 5,5 45 0 1 5,5 v 12.83203 a 3.6927681,3.6927681 36.447856 0 0 4.77886,3.52944 l 15.65909,-4.81865 a 3.6927681,3.6927681 36.447856 0 1 4.77885,3.52944 v 41.83985 a 3.6927681,3.6927681 143.55214 0 1 -4.77885,3.52944 l -15.65909,-4.81865 a 3.6927681,3.6927681 143.55214 0 0 -4.77886,3.52944 v 12.83203 a 5,5 135 0 1 -5,5 l -71.951168,0 a 5,5 45 0 1 -5,-5 v -71.98437 a 5,5 135 0 1 5,-5 z"
       style="fill:#fff500;fill-opacity:1;stroke:#000000;stroke-width:17.2202;stroke-linecap:round;stroke-linejoin:round;stroke-dasharray:none;stroke-opacity:1;paint-order:stroke fill markers"
       id="path7"
       sodipodi:nodetypes="cccccccccc"
       inkscape:path-effect="#path-effect10;#path-effect9"
       inkscape:original-d="m 75.068287,107.5831 v 95.61484 H 170.6485 v -20.42009 l 25.21655,7.76025 v -70.29516 l -25.21655,7.76025 V 107.5831 h -46.8948 z"
       transform="matrix(0.76870041,0,0,0.76776935,31.33327,36.087217)" />
    <path
       style="font-size:42.3333px;line-height:1;font-family:Pusab;-inkscape-font-specification:Pusab;text-align:center;letter-spacing:0px;text-orientation:upright;text-anchor:middle;fill:#ffffff;stroke-width:13.2292;stroke-linecap:round;stroke-linejoin:round;paint-order:stroke fill markers"
       d="m 76.940853,89.760445 c 0,-0.973666 0,-1.608666 -0.04233,-1.904999 -0.04233,-0.634999 0.04233,-0.973666 0.211666,-0.973666 0.296333,0 0.846666,0.973666 1.650999,2.920998 l 1.142999,2.920998 c 0.635,1.650999 2.116665,2.455331 4.529663,2.370665 1.693332,-0.04233 2.920998,-0.127 3.640664,-0.211667 1.735666,-0.169333 2.624665,-1.058332 2.624665,-2.624664 0,-0.338667 -0.04233,-0.762 -0.169333,-1.269999 -0.592666,-2.666998 -1.947332,-5.206996 -4.10633,-7.619995 2.412998,-1.312332 3.640663,-3.555997 3.640663,-6.773328 0,-5.968995 -4.402663,-8.97466 -13.20799,-8.97466 h -3.809997 c -2.370665,0 -4.698996,0.211667 -6.942661,0.635 -1.312333,0.253999 -2.158999,0.804332 -2.624665,1.650998 -0.550333,1.016 -0.804333,4.910663 -0.804333,11.641658 0,6.984995 0.381,10.964325 1.142999,11.895658 0.550333,0.719666 1.439333,1.185333 2.666998,1.396999 0.635,0.127 1.693333,0.211667 3.132665,0.254 1.142999,0.04233 1.735665,0.04233 1.777998,0 2.709332,-0.211667 4.402664,-0.931333 5.037663,-2.158999 0.381,-0.677332 0.550333,-1.735665 0.508,-3.174997 z m 6.519328,-13.20799 c 0,1.439332 -0.973666,2.201331 -2.963331,2.328331 -2.074331,0.127 -3.174997,-0.677332 -3.259664,-2.328331 -0.04233,-0.973666 0.296333,-1.650999 1.100666,-1.989665 0.550333,-0.254 1.396999,-0.338667 2.539998,-0.254 l 0.677333,0.04233 c 1.269999,0.08467 1.904998,0.804333 1.904998,2.201332 z m 34.416959,6.519328 c 0,-1.439332 -0.254,-3.005664 -0.71966,-4.656663 -2.07434,-5.206996 -6.13833,-7.789327 -12.23433,-7.789327 -7.831659,0 -12.530655,4.614329 -12.530655,12.44599 0,7.789328 4.741329,12.403658 12.530655,12.403658 3.937,0 7.06966,-1.100666 9.39799,-3.301998 2.37067,-2.201332 3.556,-5.249329 3.556,-9.10166 z m -12.02266,5.503329 c -0.55033,0.127 -1.01599,0 -1.48166,-0.465666 -1.22767,-1.227666 -1.86267,-3.132664 -1.86267,-5.714996 0,-0.380999 0,-0.804332 0.0423,-1.269999 0.16933,-2.539998 0.93133,-3.767663 2.24366,-3.682997 1.22767,0.08467 2.11667,1.100666 2.58233,3.047998 0.29634,1.312332 0.42334,2.751664 0.33867,4.317997 -0.127,2.243665 -0.762,3.47133 -1.86267,3.767663 z m 17.86466,-9.948325 c -0.254,6.519328 -0.33867,10.625658 -0.21167,12.361324 0.0847,1.396999 0.29634,2.285998 0.635,2.624664 0.97367,0.973666 2.667,1.439333 5.08,1.481666 h 1.05833 c 1.73567,-0.08467 2.96333,-0.338667 3.64067,-0.804333 0.889,-0.592666 1.31233,-1.735665 1.31233,-3.428997 l 0.0847,-11.514658 c 0,-1.227666 0.59266,-1.862666 1.77799,-1.820332 0.33867,0 1.31234,0.08467 1.778,0.08467 0.80434,0 1.35467,-0.08467 1.69333,-0.253999 0.889,-0.465667 1.31234,-1.608666 1.31234,-3.428998 0,-0.973666 -0.42334,-1.650999 -1.22767,-1.947332 -1.397,-0.550333 -3.59833,-0.846666 -6.56166,-0.888999 -4.23333,-0.08467 -8.29733,0.04233 -12.14966,0.338666 -2.45533,0.211667 -3.683,1.142999 -3.683,2.878665 0,2.243665 0.71967,3.301997 2.20134,3.174997 l 1.86266,-0.126999 c 0.97367,-0.04233 1.43933,0.380999 1.397,1.269999 z m 26.24666,-7.789328 c -1.143,0.04233 -2.159,0.550333 -3.09033,1.481666 -0.635,0.634999 -1.43933,1.862665 -2.413,3.682997 -1.43933,2.666998 -2.83633,5.841995 -4.23333,9.482659 -1.43933,3.725331 -2.159,6.307662 -2.11666,7.746995 0.0423,1.227665 1.31233,1.735665 3.85233,1.608665 0.84666,-0.04233 1.43933,-0.254 1.73566,-0.634999 0.254,-0.211667 0.508,-0.762 0.71967,-1.566333 0.29633,-1.100665 0.762,-1.650998 1.43933,-1.693332 0.93134,-0.04233 1.56633,-0.04233 1.94733,0 h 2.45534 c 0.635,0 1.016,0.254 1.22766,0.804333 l 0.59267,1.693332 c 0.381,1.142999 2.413,1.693332 6.01133,1.650999 1.82033,-0.04233 3.17499,-0.169333 4.06399,-0.465666 1.524,-0.508 1.86267,-0.973666 1.69334,-2.497665 -0.29634,-2.836331 -1.86267,-7.111995 -4.699,-12.826991 -1.905,-3.809997 -3.25967,-6.138328 -4.14866,-6.984994 -1.10067,-1.058333 -2.413,-1.566333 -3.937,-1.523999 z m -2.286,12.107324 c 0.254,0 0.80434,1.142999 1.651,3.428998 0.127,0.296333 -0.127,0.550333 -0.71966,0.677333 -0.33867,0.08467 -0.635,0.126999 -0.889,0.126999 -0.71967,0 -1.18533,-0.08467 -1.48167,-0.296333 -0.21166,-0.127 -0.254,-0.253999 -0.21166,-0.423333 0.71966,-2.328331 1.26999,-3.513664 1.65099,-3.513664 z m 18.83837,-4.317996 c -0.254,6.519328 -0.33867,10.625658 -0.21167,12.361324 0.0847,1.396999 0.29634,2.285998 0.635,2.624664 0.97367,0.973666 2.667,1.439333 5.08,1.481666 h 1.05833 c 1.73567,-0.08467 2.96333,-0.338667 3.64067,-0.804333 0.889,-0.592666 1.31233,-1.735665 1.31233,-3.428997 l 0.0847,-11.514658 c 0,-1.227666 0.59266,-1.862666 1.77799,-1.820332 0.33867,0 1.31234,0.08467 1.778,0.08467 0.80434,0 1.35467,-0.08467 1.69333,-0.253999 0.889,-0.465667 1.31234,-1.608666 1.31234,-3.428998 0,-0.973666 -0.42334,-1.650999 -1.22767,-1.947332 -1.397,-0.550333 -3.59833,-0.846666 -6.56166,-0.888999 -4.23333,-0.08467 -8.29733,0.04233 -12.14966,0.338666 -2.45533,0.211667 -3.683,1.142999 -3.683,2.878665 0,2.243665 0.71967,3.301997 2.20134,3.174997 l 1.86266,-0.126999 c 0.97367,-0.04233 1.43933,0.380999 1.397,1.269999 z m 40.04729,9.990659 c -1.524,0.211666 -2.70933,0.338666 -3.556,0.338666 -1.27,0.04233 -2.032,-0.04233 -2.286,-0.211666 -0.46566,-0.296333 -0.71966,-0.804333 -0.71966,-1.566333 0,-0.550332 0.127,-0.973665 0.381,-1.269999 0.508,-0.423333 1.43933,-0.634999 2.75166,-0.592666 1.35467,0.04233 2.159,-0.04233 2.45533,-0.254 0.46567,-0.296333 0.71967,-0.931332 0.71967,-1.904998 0,-1.439332 -0.42333,-2.158999 -1.27,-2.201332 -1.73566,-0.08467 -2.75166,-0.169333 -3.09033,-0.211666 -1.31233,-0.254 -1.94733,-0.846666 -1.94733,-1.735666 0,-0.804332 0.21166,-1.312332 0.67733,-1.566332 0.33867,-0.211666 1.10067,-0.296333 2.32833,-0.254 0.381,0 0.97367,0.08467 1.778,0.211667 0.80433,0.127 1.43933,0.211666 1.86267,0.211666 0.55033,0 0.97366,-0.380999 1.27,-1.100666 0.21166,-0.550332 0.33866,-1.185332 0.33866,-1.820331 0,-0.973666 -0.33866,-1.693333 -1.05833,-2.158999 -0.42333,-0.296333 -1.22767,-0.550333 -2.37067,-0.761999 -2.45533,-0.465667 -5.29166,-0.719666 -8.50899,-0.719666 -5.461,0 -8.50899,0.677332 -9.22866,2.031998 -0.46567,0.888999 -0.71967,4.275664 -0.71967,10.159992 v 2.963332 c 0,4.021663 0.33867,6.476995 1.016,7.323661 0.84667,1.058332 3.97933,1.566332 9.398,1.566332 3.30199,0 5.96899,-0.211667 8.04332,-0.592666 2.286,-0.423333 3.429,-1.396999 3.429,-2.920998 0,-2.158999 -0.55033,-3.132664 -1.69333,-2.963331 z"
       id="text1"
       aria-label="Rotate" />
  </g>
</svg>
