<?xml version="1.0" encoding="UTF-8" standalone="no"?>
<!-- Created with Inkscape (http://www.inkscape.org/) -->

<svg
   width="270.93332mm"
   height="270.93332mm"
   viewBox="0 0 270.93332 270.93332"
   version="1.1"
   id="svg1"
   inkscape:version="1.3.2 (091e20ef0f, 2023-11-25, custom)"
   sodipodi:docname="FollowPosition.svg"
   xmlns:inkscape="http://www.inkscape.org/namespaces/inkscape"
   xmlns:sodipodi="http://sodipodi.sourceforge.net/DTD/sodipodi-0.dtd"
   xmlns="http://www.w3.org/2000/svg"
   xmlns:svg="http://www.w3.org/2000/svg">
  <sodipodi:namedview
     id="namedview1"
     pagecolor="#4d4d4d"
     bordercolor="#eeeeee"
     borderopacity="1"
     inkscape:showpageshadow="0"
     inkscape:pageopacity="0"
     inkscape:pagecheckerboard="false"
     inkscape:deskcolor="#181825"
     inkscape:document-units="px"
     inkscape:zoom="1.0938059"
     inkscape:cx="435.17777"
     inkscape:cy="378.49495"
     inkscape:window-width="1900"
     inkscape:window-height="1019"
     inkscape:window-x="6"
     inkscape:window-y="47"
     inkscape:window-maximized="1"
     inkscape:current-layer="layer1" />
  <defs
     id="defs1">
    <inkscape:path-effect
       effect="offset"
       id="path-effect2"
       is_visible="true"
       lpeversion="1.2"
       linejoin_type="miter"
       unit="px"
       offset="-25"
       miter_limit="4"
       attempt_force_join="false"
       update_on_knot_move="true" />
  </defs>
  <g
     inkscape:label="Calque 1"
     inkscape:groupmode="layer"
     id="layer1">
    <g
       id="g2"
       inkscape:label="template"
       style="display:none">
      <rect
         style="fill:#ff0000;stroke-width:3.96875;stroke-linecap:round;stroke-linejoin:round;paint-order:stroke fill markers"
         id="rect1"
         width="135.46666"
         height="135.46666"
         x="67.73333"
         y="67.73333" />
      <rect
         style="fill:#00ff00;stroke-width:2.80129;stroke-linecap:round;stroke-linejoin:round;paint-order:stroke fill markers"
         id="rect2"
         width="95.617188"
         height="95.61721"
         x="87.658058"
         y="107.58277" />
      <rect
         style="fill:#00ffff;stroke-width:1.02092;stroke-linecap:round;stroke-linejoin:round;paint-order:stroke fill markers"
         id="rect4"
         width="95.617188"
         height="12.7"
         x="87.658058"
         y="94.882774" />
      <rect
         style="fill:#00ffff;stroke-width:0.589428;stroke-linecap:round;stroke-linejoin:round;paint-order:stroke fill markers"
         id="rect5"
         width="95.617188"
         height="4.2333336"
         x="87.658058"
         y="63.5" />
    </g>
    <g
       id="g4"
       transform="matrix(1.4116711,0,0,1.4116711,-55.767719,-35.842996)"
       style="display:inline">
      <circle
         style="display:inline;fill:#000000;stroke:none;stroke-width:3.96875;stroke-linecap:round;stroke-linejoin:round;paint-order:stroke fill markers"
         id="path2"
         cx="135.46666"
         cy="135.46666"
         r="33.866669" />
      <path
         style="display:inline;fill:#ff7f7f;fill-opacity:1;stroke:none;stroke-width:3.96875;stroke-linecap:round;stroke-linejoin:round;paint-order:stroke fill markers"
         id="circle2"
         inkscape:path-effect="#path-effect2"
         sodipodi:type="arc"
         sodipodi:cx="135.46666"
         sodipodi:cy="135.46666"
         sodipodi:rx="33.866669"
         sodipodi:ry="33.866669"
         d="m 135.4668,106.28516 c 16.09245,0 29.18164,13.08918 29.18164,29.18164 0,16.09245 -13.08919,29.18164 -29.18164,29.18164 -16.09246,0 -29.18164,-13.08919 -29.18164,-29.18164 0,-16.09246 13.08918,-29.18164 29.18164,-29.18164 z" />
    </g>
    <path
       style="font-size:42.3333px;line-height:1;font-family:Pusab;-inkscape-font-specification:Pusab;font-variant-ligatures:no-common-ligatures;text-align:center;letter-spacing:0px;text-orientation:upright;text-anchor:middle;fill:#ffffff;stroke-width:5.29167;stroke-linecap:round;stroke-linejoin:round;paint-order:stroke fill markers"
       d="m 75.83624,55.245006 c 0,-0.846666 0.169333,-1.439332 0.550333,-1.820332 0.380999,-0.381 1.396999,-0.592666 3.047997,-0.635 1.650999,-0.04233 2.624665,-0.127 2.836331,-0.296333 0.550333,-0.381 0.804333,-1.269999 0.804333,-2.751664 0,-1.693332 -0.465666,-2.539998 -1.439332,-2.582332 -1.354666,-0.04233 -2.582331,-0.127 -3.640664,-0.254 -1.439332,-0.169333 -2.158998,-0.846666 -2.158998,-1.989665 0,-1.015999 0.253999,-1.693332 0.804332,-1.989665 0.381,-0.211666 1.269999,-0.338666 2.709332,-0.296333 0.465666,0 1.142999,0.08467 2.031998,0.254 0.888999,0.127 1.608666,0.211666 2.074332,0.211666 1.227666,0 1.862665,-1.100666 1.862665,-3.344331 0,-1.735665 -1.312332,-2.878664 -3.894664,-3.34433 -2.751664,-0.508 -6.011328,-0.762 -9.778992,-0.762 -2.709331,0 -4.86833,0.127 -6.476995,0.423333 -0.973666,0.169333 -1.693332,0.338667 -2.116665,0.508 -0.762,0.296333 -1.312333,0.719666 -1.608666,1.354665 -0.550333,1.058333 -0.804333,4.910663 -0.804333,11.641658 0,6.984995 0.381,10.964325 1.143,11.895658 0.592666,0.719666 1.481665,1.227666 2.666998,1.439332 0.550332,0.127 1.608665,0.169334 3.132664,0.211667 1.439332,0.04233 2.370665,0.04233 2.751664,0 2.709332,-0.211667 4.402664,-0.931333 5.037663,-2.158998 0.381,-0.677333 0.550333,-1.735666 0.508,-3.174998 -0.04233,-0.973666 -0.04233,-1.820332 -0.04233,-2.539998 z m 34.50158,-4.148664 c 0,-1.439332 -0.254,-3.005664 -0.71967,-4.656663 -2.07433,-5.206996 -6.13832,-7.789327 -12.23432,-7.789327 -7.831661,0 -12.530657,4.614329 -12.530657,12.44599 0,7.789328 4.741329,12.403658 12.530657,12.403658 3.937,0 7.06966,-1.100666 9.39799,-3.301998 2.37067,-2.201332 3.556,-5.249329 3.556,-9.10166 z m -12.022658,5.503329 c -0.550332,0.127 -1.015999,0 -1.481665,-0.465666 -1.227666,-1.227666 -1.862665,-3.132664 -1.862665,-5.714996 0,-0.380999 0,-0.804332 0.04233,-1.269999 0.169333,-2.539998 0.931333,-3.767663 2.243665,-3.682997 1.227666,0.08467 2.116665,1.100666 2.582331,3.047998 0.296329,1.312332 0.423329,2.751664 0.338669,4.317997 -0.127,2.243665 -0.762002,3.47133 -1.862668,3.767663 z m 32.935318,0.08467 c -0.33866,0 -0.93133,0.04233 -1.82033,0.08467 -0.889,0.04233 -1.43933,0.08467 -1.73567,0.08467 -1.22766,0.04233 -1.98966,-0.127 -2.28599,-0.507999 -0.16934,-1.354666 -0.254,-2.201332 -0.254,-2.582332 v -1.354665 c 0,-2.201332 0,-4.36033 0.0423,-6.434662 v -2.666998 c -0.0423,-2.793998 -1.016,-4.190997 -3.00567,-4.190997 -3.97933,0 -6.39232,0.169333 -7.28132,0.550333 -1.05834,0.465666 -1.82033,1.396999 -2.286,2.878664 -0.381,1.269999 -0.55033,2.709332 -0.508,4.317997 0.0847,3.090331 0.127,4.402663 0.127,4.021664 0,6.476995 0.33867,10.032992 1.05833,10.752658 0.889,0.762 2.286,1.227666 4.14867,1.396999 0.55033,0.04233 2.03199,0.08467 4.48733,0.08467 2.96333,0 5.50332,-0.254 7.57766,-0.762 1.143,-0.296333 1.86266,-0.550332 2.24366,-0.761999 0.71967,-0.465666 1.10067,-1.142999 1.10067,-1.989665 0,-1.947332 -0.55034,-2.920998 -1.60867,-2.920998 z m 22.5213,0 c -0.33866,0 -0.93133,0.04233 -1.82033,0.08467 -0.889,0.04233 -1.43933,0.08467 -1.73566,0.08467 -1.22767,0.04233 -1.98967,-0.127 -2.286,-0.507999 -0.16934,-1.354666 -0.254,-2.201332 -0.254,-2.582332 v -1.354665 c 0,-2.201332 0,-4.36033 0.0423,-6.434662 v -2.666998 c -0.0423,-2.793998 -1.016,-4.190997 -3.00566,-4.190997 -3.97933,0 -6.39233,0.169333 -7.28133,0.550333 -1.05833,0.465666 -1.82033,1.396999 -2.286,2.878664 -0.381,1.269999 -0.55033,2.709332 -0.508,4.317997 0.0847,3.090331 0.127,4.402663 0.127,4.021664 0,6.476995 0.33867,10.032992 1.05833,10.752658 0.889,0.762 2.286,1.227666 4.14867,1.396999 0.55033,0.04233 2.03199,0.08467 4.48733,0.08467 2.96333,0 5.50333,-0.254 7.57766,-0.762 1.143,-0.296333 1.86266,-0.550332 2.24366,-0.761999 0.71967,-0.465666 1.10067,-1.142999 1.10067,-1.989665 0,-1.947332 -0.55033,-2.920998 -1.60867,-2.920998 z m 27.34728,-5.587996 c 0,-1.439332 -0.254,-3.005664 -0.71967,-4.656663 -2.07433,-5.206996 -6.13833,-7.789327 -12.23432,-7.789327 -7.83166,0 -12.53066,4.614329 -12.53066,12.44599 0,7.789328 4.74133,12.403658 12.53066,12.403658 3.937,0 7.06966,-1.100666 9.39799,-3.301998 2.37067,-2.201332 3.556,-5.249329 3.556,-9.10166 z m -12.02266,5.503329 c -0.55033,0.127 -1.016,0 -1.48166,-0.465666 -1.22767,-1.227666 -1.86267,-3.132664 -1.86267,-5.714996 0,-0.380999 0,-0.804332 0.0423,-1.269999 0.16934,-2.539998 0.93134,-3.767663 2.24367,-3.682997 1.22766,0.08467 2.11666,1.100666 2.58233,3.047998 0.29633,1.312332 0.42333,2.751664 0.33867,4.317997 -0.127,2.243665 -0.762,3.47133 -1.86267,3.767663 z m 39.36998,0.592667 c 1.05833,-5.164663 1.69333,-9.86366 1.82033,-14.139323 0.0423,-1.269999 -0.0847,-2.158998 -0.33867,-2.666998 -0.381,-0.677333 -1.143,-1.015999 -2.32833,-1.058333 -1.143,-0.04233 -1.94733,0.127 -2.45533,0.423333 -0.635,0.381 -0.97367,1.058333 -1.10067,2.116666 -0.0847,1.015999 -0.127,1.777998 -0.16933,2.285998 -0.21167,2.285998 -0.42333,3.428997 -0.67733,3.471331 -0.0847,0 -0.16933,-0.08467 -0.254,-0.211667 l -2.159,-2.793998 c -0.55033,-0.719666 -1.05833,-1.058332 -1.60867,-1.058332 -0.55033,0 -1.14299,0.380999 -1.73566,1.100665 -1.651,2.074332 -2.49767,3.132665 -2.54,3.132665 -0.21166,0 -0.381,-0.550333 -0.46566,-1.608666 -0.29634,-3.682997 -0.889,-5.884329 -1.82034,-6.519328 -0.80433,-0.550333 -1.82033,-0.762 -3.04799,-0.719666 l -2.32834,0.127 c -2.96333,0.169333 -4.36033,1.227665 -4.14866,3.174997 0.381,4.021664 1.143,8.97466 2.286,14.943656 0.762,4.021663 2.32833,6.011328 4.65666,6.011328 h 0.93133 c 1.60867,0 2.96334,-0.634999 4.02167,-1.947331 1.56633,-1.904999 2.413,-2.836332 2.58233,-2.878665 0.16933,0 0.381,0.127 0.59267,0.423333 l 2.15899,2.793998 c 0.80434,1.058333 1.905,1.608665 3.21734,1.608665 h 0.46566 c 2.11667,0 3.59833,-1.989665 4.445,-6.011328 z"
       id="text1"
       aria-label="Follow" />
    <path
       d="m 64.473735,76.552455 c 0,1.439332 -0.973666,2.201331 -2.963331,2.328331 -2.074332,0.127 -3.174998,-0.677332 -3.259664,-2.328331 -0.04233,-0.973666 0.296333,-1.650999 1.100666,-1.989665 0.550332,-0.254 1.396999,-0.338667 2.539998,-0.254 l 0.677332,0.04233 c 1.27,0.08467 1.904999,0.804333 1.904999,2.201332 z M 58.25074,87.220447 c 0,-0.719666 0.169333,-1.269999 0.550333,-1.650999 0.169333,-0.169333 0.550333,-0.338666 1.100665,-0.465666 0.254,-0.04233 0.677333,-0.127 1.227666,-0.211667 l 1.777999,-0.254 c 3.598331,-0.507999 5.968995,-1.650998 7.111995,-3.47133 0.719666,-1.100666 1.058332,-2.624665 1.058332,-4.571997 0,-5.968995 -4.402663,-8.97466 -13.20799,-8.97466 h -3.809997 c -2.709331,0 -4.86833,0.127 -6.476995,0.423333 -0.973666,0.169333 -1.693332,0.338667 -2.116665,0.508 -0.762,0.296333 -1.312333,0.719666 -1.608666,1.354665 -0.550333,1.058333 -0.804333,4.910663 -0.804333,11.641658 0,6.984995 0.381,10.964325 1.143,11.895658 0.592666,0.719666 1.481665,1.227666 2.666998,1.439332 0.550333,0.127 1.608665,0.169334 3.132664,0.211667 1.439332,0.04233 2.370665,0.04233 2.751665,0 2.709331,-0.211667 4.402663,-0.931333 5.037662,-2.158999 0.381,-0.677332 0.550333,-1.735665 0.508,-3.174997 -0.04233,-0.973666 -0.04233,-1.820332 -0.04233,-2.539998 z m 40.004956,-4.148664 c 0,-1.439332 -0.254,-3.005664 -0.719666,-4.656663 -2.074332,-5.206996 -6.138329,-7.789327 -12.234324,-7.789327 -7.831661,0 -12.530657,4.614329 -12.530657,12.44599 0,7.789328 4.741329,12.403658 12.530657,12.403658 3.936997,0 7.069661,-1.100666 9.397993,-3.301998 2.370665,-2.201332 3.555997,-5.249329 3.555997,-9.10166 z m -12.022657,5.503329 c -0.550333,0.127 -1.016,0 -1.481666,-0.465666 -1.227666,-1.227666 -1.862665,-3.132664 -1.862665,-5.714996 0,-0.380999 0,-0.804332 0.04233,-1.269999 0.169333,-2.539998 0.931333,-3.767663 2.243665,-3.682997 1.227666,0.08467 2.116665,1.100666 2.582331,3.047998 0.296334,1.312332 0.423333,2.751664 0.338667,4.317997 -0.127,2.243665 -0.762,3.47133 -1.862665,3.767663 z m 25.569321,6.900329 c 7.45066,-0.211667 11.09132,-3.174998 10.87966,-8.889994 -0.0847,-2.666998 -1.86267,-4.910663 -5.29166,-6.688661 -1.143,-0.592667 -1.69334,-1.227666 -1.69334,-1.862666 0,-0.719666 0.33867,-1.058332 1.05834,-1.058332 0.59266,0 1.39699,0.381 2.45533,1.142999 0.67733,0.465666 1.27,0.719666 1.82033,0.719666 0.71967,-0.04233 1.35466,-0.804333 1.905,-2.370665 0.127,-0.423333 0.16933,-0.804333 0.16933,-1.100666 0,-0.634999 -0.21167,-1.142999 -0.59267,-1.481665 -1.01599,-0.889 -2.24366,-1.566332 -3.64066,-2.116665 -2.37066,-0.889 -4.91066,-1.269999 -7.57766,-1.185333 -7.49299,0.254 -11.13366,3.174998 -10.92199,8.805327 0.127,2.709331 1.86266,4.952996 5.29166,6.730995 1.143,0.592666 1.73567,1.227666 1.73567,1.862665 0,0.677333 -0.33867,1.015999 -1.016,1.015999 -0.59267,0 -1.43934,-0.380999 -2.49767,-1.142999 -0.635,-0.423333 -1.22766,-0.634999 -1.82033,-0.634999 -0.71967,0.04233 -1.35467,0.804333 -1.94733,2.328331 -0.127002,0.381 -0.169335,0.762 -0.169335,1.100666 0,0.635 0.211665,1.142999 0.634995,1.481666 2.921,2.370665 6.64633,3.47133 11.21833,3.344331 z m 25.14598,-21.208984 c 0.0423,-2.074332 -1.143,-3.132665 -3.51366,-3.174998 -1.143,-0.04233 -1.82034,-0.04233 -2.032,-0.04233 -2.54,0 -4.318,0.465666 -5.29167,1.396999 -0.80433,0.804332 -1.26999,2.116665 -1.31233,3.97933 0.0847,1.947332 0.127,3.97933 0.127,6.095995 v 5.630329 c 0.0847,3.259665 0.33867,5.079997 0.762,5.460996 1.05833,0.973666 2.75167,1.439333 5.08,1.481666 h 1.10066 c 1.778,-0.08467 3.00567,-0.338667 3.64067,-0.804333 0.80433,-0.634999 1.22766,-1.777999 1.27,-3.428997 z m 7.19662,4.36033 c -0.254,6.519328 -0.33866,10.625658 -0.21166,12.361324 0.0847,1.396999 0.29633,2.285998 0.635,2.624664 0.97366,0.973666 2.66699,1.439333 5.07999,1.481666 h 1.05833 c 1.73567,-0.08467 2.96334,-0.338667 3.64067,-0.804333 0.889,-0.592666 1.31233,-1.735665 1.31233,-3.428997 l 0.0847,-11.514658 c 0,-1.227666 0.59266,-1.862666 1.778,-1.820332 0.33866,0 1.31233,0.08467 1.77799,0.08467 0.80434,0 1.35467,-0.08467 1.69334,-0.253999 0.889,-0.465667 1.31233,-1.608666 1.31233,-3.428998 0,-0.973666 -0.42333,-1.650999 -1.22767,-1.947332 -1.397,-0.550333 -3.59833,-0.846666 -6.56166,-0.888999 -4.23333,-0.08467 -8.29733,0.04233 -12.14966,0.338666 -2.45533,0.211667 -3.68299,1.142999 -3.68299,2.878665 0,2.243665 0.71966,3.301997 2.20133,3.174997 l 1.86266,-0.126999 c 0.97367,-0.04233 1.43934,0.380999 1.397,1.269999 z m 32.00396,-4.36033 c 0.0423,-2.074332 -1.143,-3.132665 -3.51367,-3.174998 -1.143,-0.04233 -1.82033,-0.04233 -2.032,-0.04233 -2.53999,0 -4.31799,0.465666 -5.29166,1.396999 -0.80433,0.804332 -1.27,2.116665 -1.31233,3.97933 0.0847,1.947332 0.127,3.97933 0.127,6.095995 v 5.630329 c 0.0847,3.259665 0.33867,5.079997 0.762,5.460996 1.05833,0.973666 2.75166,1.439333 5.07999,1.481666 h 1.10067 c 1.778,-0.08467 3.00566,-0.338667 3.64066,-0.804333 0.80434,-0.634999 1.22767,-1.777999 1.27,-3.428997 z m 27.22028,8.805326 c 0,-1.439332 -0.254,-3.005664 -0.71967,-4.656663 -2.07433,-5.206996 -6.13833,-7.789327 -12.23432,-7.789327 -7.83166,0 -12.53066,4.614329 -12.53066,12.44599 0,7.789328 4.74133,12.403658 12.53066,12.403658 3.937,0 7.06966,-1.100666 9.39799,-3.301998 2.37067,-2.201332 3.556,-5.249329 3.556,-9.10166 z m -12.02266,5.503329 c -0.55033,0.127 -1.016,0 -1.48166,-0.465666 -1.22767,-1.227666 -1.86267,-3.132664 -1.86267,-5.714996 0,-0.380999 0,-0.804332 0.0423,-1.269999 0.16934,-2.539998 0.93134,-3.767663 2.24367,-3.682997 1.22766,0.08467 2.11666,1.100666 2.58233,3.047998 0.29633,1.312332 0.42333,2.751664 0.33867,4.317997 -0.127,2.243665 -0.762,3.47133 -1.86267,3.767663 z M 227.62618,73.67379 c -0.127,-1.735665 -0.84667,-2.582331 -2.20133,-2.582331 h -1.31233 c -1.778,0 -2.62467,0.804333 -2.58234,2.370665 0.127,2.836331 0.16934,4.36033 0.16934,4.529663 -0.0423,0.211667 -0.0847,0.338666 -0.21167,0.338666 -0.0847,0 -0.254,-0.126999 -0.508,-0.380999 -0.93133,-0.973666 -2.37066,-2.539998 -4.36033,-4.783663 -1.22766,-1.354666 -2.49766,-2.031999 -3.89466,-2.074332 l -2.70933,-0.04233 c -1.60867,-0.04233 -2.794,0.338666 -3.556,1.142999 -0.84667,0.888999 -1.31233,4.36033 -1.35467,10.498659 -0.0423,2.751664 0.0423,5.926662 0.254,9.440326 0.127,1.904998 0.80434,2.878664 2.11667,2.920998 l 1.43933,0.04233 c 1.73567,0.04233 2.75166,-0.719666 2.58233,-2.455332 -0.0847,-0.804332 -0.127,-1.439332 -0.127,-1.862665 v -1.566332 c 0,-0.973666 0.127,-1.439332 0.381,-1.439332 0.0847,0 0.16933,0.04233 0.29633,0.127 1.05834,0.846666 3.048,2.666998 5.969,5.503329 1.143,1.100666 2.58233,1.650999 4.23333,1.650999 h 2.54 c 0.84666,0 1.56633,-0.296334 2.20133,-0.846666 0.29633,-0.254 0.46567,-0.635 0.59267,-1.185333 0.21166,-0.888999 0.29633,-3.174998 0.29633,-6.815661 0,-5.50333 -0.0847,-9.694327 -0.254,-12.530658 z"
       id="text3"
       style="font-size:42.3333px;line-height:1;font-family:Pusab;-inkscape-font-specification:Pusab;font-variant-ligatures:no-common-ligatures;text-align:center;letter-spacing:0px;text-orientation:upright;text-anchor:middle;fill:#ffffff;stroke-width:5.29167;stroke-linecap:round;stroke-linejoin:round;paint-order:stroke fill markers"
       aria-label="Position" />
  </g>
</svg>
