<?xml version="1.0" encoding="UTF-8" standalone="no"?>
<!-- Created with Inkscape (http://www.inkscape.org/) -->

<svg
   width="270.93332mm"
   height="270.93332mm"
   viewBox="0 0 270.93332 270.93332"
   version="1.1"
   id="svg1"
   inkscape:version="1.3.2 (091e20ef0f, 2023-11-25, custom)"
   sodipodi:docname="GameplayRotation.svg"
   xml:space="preserve"
   xmlns:inkscape="http://www.inkscape.org/namespaces/inkscape"
   xmlns:sodipodi="http://sodipodi.sourceforge.net/DTD/sodipodi-0.dtd"
   xmlns="http://www.w3.org/2000/svg"
   xmlns:svg="http://www.w3.org/2000/svg"><sodipodi:namedview
     id="namedview1"
     pagecolor="#4d4d4d"
     bordercolor="#eeeeee"
     borderopacity="1"
     inkscape:showpageshadow="0"
     inkscape:pageopacity="0"
     inkscape:pagecheckerboard="false"
     inkscape:deskcolor="#181825"
     inkscape:document-units="px"
     inkscape:zoom="1.0938059"
     inkscape:cx="471.74733"
     inkscape:cy="510.14537"
     inkscape:window-width="1900"
     inkscape:window-height="1019"
     inkscape:window-x="6"
     inkscape:window-y="47"
     inkscape:window-maximized="1"
     inkscape:current-layer="layer1" /><defs
     id="defs1"><inkscape:path-effect
       effect="offset"
       id="path-effect10"
       is_visible="true"
       lpeversion="1.2"
       linejoin_type="round"
       unit="px"
       offset="25"
       miter_limit="4"
       attempt_force_join="false"
       update_on_knot_move="true" /><inkscape:path-effect
       effect="offset"
       id="path-effect2"
       is_visible="true"
       lpeversion="1.2"
       linejoin_type="miter"
       unit="px"
       offset="-25"
       miter_limit="4"
       attempt_force_join="false"
       update_on_knot_move="true" /><clipPath
       clipPathUnits="userSpaceOnUse"
       id="clipPath17"><path
         d="M 147.56722,99.937042 V 122.83849 H 87.013811 v 25.25582 h 60.553409 v 22.90197 l 35.52962,-35.52962 z M 87.013811,158.53967 v 12.45661 h 50.107019 v -12.45661 z"
         style="display:inline;fill:#ffffff;stroke:none;stroke-width:5.29167;stroke-linecap:round;stroke-linejoin:round;paint-order:stroke fill markers"
         id="path17" /></clipPath></defs><g
     inkscape:label="Calque 1"
     inkscape:groupmode="layer"
     id="layer1"><g
       id="g2"
       inkscape:label="template"
       style="display:none"><rect
         style="fill:#ff0000;stroke-width:3.96875;stroke-linecap:round;stroke-linejoin:round;paint-order:stroke fill markers"
         id="rect1"
         width="135.46666"
         height="135.46666"
         x="67.73333"
         y="67.73333" /></g><g
       id="g10"
       style="display:inline;opacity:1"
       transform="translate(0.41080477)"><path
         d="m 147.56641,93.25 a 6.6145834,6.6145834 0 0 0 -6.61524,6.615234 V 116.15039 H 87.013672 a 6.6145834,6.6145834 0 0 0 -6.615235,6.61524 v 25.25585 a 6.6145834,6.6145834 0 0 0 2.753907,5.22266 6.6145834,6.6145834 0 0 0 -2.753907,5.22266 v 12.45703 a 6.6145834,6.6145834 0 0 0 6.615235,6.61523 h 50.107418 a 6.6145834,6.6145834 0 0 0 5.22266,-2.7539 6.6145834,6.6145834 0 0 0 9.90039,0.8164 l 35.53125,-35.52929 a 6.6145834,6.6145834 0 0 0 0,-9.35547 L 152.24414,95.1875 A 6.6145834,6.6145834 0 0 0 147.56641,93.25 Z"
         style="display:inline;fill:#000000;stroke:none;stroke-width:5.29167;stroke-linecap:round;stroke-linejoin:round;paint-order:stroke fill markers"
         id="path10"
         inkscape:original-d="M 147.56722,99.864706 V 122.76615 H 87.013811 v 25.25582 h 60.553409 v 22.90197 l 35.52962,-35.52962 z M 87.013811,158.46733 v 12.45661 h 50.107019 v -12.45661 z"
         inkscape:path-effect="#path-effect10"
         transform="translate(0,0.0721297)" /><path
         d="M 147.56722,99.937042 V 122.83849 H 87.013811 v 25.25582 h 60.553409 v 22.90197 l 35.52962,-35.52962 z M 87.013811,158.53967 v 12.45661 h 50.107019 v -12.45661 z"
         style="display:inline;fill:#ffffff;stroke:none;stroke-width:5.29167;stroke-linecap:round;stroke-linejoin:round;paint-order:stroke fill markers"
         id="path9" /><g
         id="g13"
         clip-path="url(#clipPath17)"><path
           style="fill:#000000;stroke:#cccccc;stroke-width:5.29167;stroke-linecap:round;stroke-linejoin:round;paint-order:stroke fill markers"
           d="m 87.013816,135.26583 96.083024,2.6e-4"
           id="path11" /><path
           style="fill:#000000;stroke:#cccccc;stroke-width:5.29167;stroke-linecap:round;stroke-linejoin:round;paint-order:stroke fill markers"
           d="m 135.05533,123.03911 v 24.4537"
           id="path12" /></g></g></g></svg>
