<?xml version="1.0" encoding="UTF-8" standalone="no"?>
<!-- Created with Inkscape (http://www.inkscape.org/) -->

<svg
   width="270.93332mm"
   height="270.93332mm"
   viewBox="0 0 270.93332 270.93332"
   version="1.1"
   id="svg1"
   inkscape:version="1.3.2 (091e20ef0f, 2023-11-25, custom)"
   sodipodi:docname="Gravity.svg"
   xml:space="preserve"
   xmlns:inkscape="http://www.inkscape.org/namespaces/inkscape"
   xmlns:sodipodi="http://sodipodi.sourceforge.net/DTD/sodipodi-0.dtd"
   xmlns="http://www.w3.org/2000/svg"
   xmlns:svg="http://www.w3.org/2000/svg"><sodipodi:namedview
     id="namedview1"
     pagecolor="#4d4d4d"
     bordercolor="#eeeeee"
     borderopacity="1"
     inkscape:showpageshadow="0"
     inkscape:pageopacity="0"
     inkscape:pagecheckerboard="false"
     inkscape:deskcolor="#181825"
     inkscape:document-units="px"
     inkscape:zoom="0.54690295"
     inkscape:cx="131.65041"
     inkscape:cy="282.49985"
     inkscape:window-width="1920"
     inkscape:window-height="1080"
     inkscape:window-x="0"
     inkscape:window-y="0"
     inkscape:window-maximized="1"
     inkscape:current-layer="layer1" /><defs
     id="defs1"><inkscape:path-effect
       effect="offset"
       id="path-effect5"
       is_visible="true"
       lpeversion="1.2"
       linejoin_type="round"
       unit="px"
       offset="25"
       miter_limit="4"
       attempt_force_join="false"
       update_on_knot_move="true" /><inkscape:path-effect
       effect="mirror_symmetry"
       start_point="135.46666,117.64548"
       end_point="135.46666,196.4949"
       center_point="135.46666,157.07019"
       id="path-effect4"
       is_visible="true"
       lpeversion="1.2"
       lpesatellites=""
       mode="X"
       discard_orig_path="false"
       fuse_paths="false"
       oposite_fuse="false"
       split_items="false"
       split_open="false"
       link_styles="false" /><inkscape:path-effect
       effect="mirror_symmetry"
       start_point="135.46666,117.64548"
       end_point="135.46666,196.4949"
       center_point="135.46666,157.07019"
       id="path-effect1"
       is_visible="true"
       lpeversion="1.2"
       lpesatellites=""
       mode="X"
       discard_orig_path="false"
       fuse_paths="false"
       oposite_fuse="false"
       split_items="false"
       split_open="false"
       link_styles="false" /><inkscape:path-effect
       effect="offset"
       id="path-effect2"
       is_visible="true"
       lpeversion="1.2"
       linejoin_type="miter"
       unit="px"
       offset="-25"
       miter_limit="4"
       attempt_force_join="false"
       update_on_knot_move="true" /></defs><g
     inkscape:label="Calque 1"
     inkscape:groupmode="layer"
     id="layer1"><g
       id="g2"
       inkscape:label="template"
       style="display:none"><rect
         style="fill:#ff0000;stroke-width:3.96875;stroke-linecap:round;stroke-linejoin:round;paint-order:stroke fill markers"
         id="rect1"
         width="135.46666"
         height="135.46666"
         x="67.73333"
         y="67.73333" /><rect
         style="fill:#00ff00;stroke-width:2.80129;stroke-linecap:round;stroke-linejoin:round;paint-order:stroke fill markers"
         id="rect2"
         width="95.617188"
         height="95.61721"
         x="87.658058"
         y="107.58277" /><rect
         style="fill:#00ffff;stroke-width:1.02092;stroke-linecap:round;stroke-linejoin:round;paint-order:stroke fill markers"
         id="rect4"
         width="95.617188"
         height="12.7"
         x="87.658058"
         y="94.882774" /><rect
         style="fill:#00ffff;stroke-width:0.589428;stroke-linecap:round;stroke-linejoin:round;paint-order:stroke fill markers"
         id="rect5"
         width="95.617188"
         height="4.2333336"
         x="87.658058"
         y="63.5" /></g><g
       id="g5"
       style="display:inline"><path
         style="fill:#000000;stroke-width:5.29167;stroke-linecap:round;stroke-linejoin:round;paint-order:stroke fill markers"
         d="m 123.60156,111.0293 a 6.6145834,6.6145834 0 0 0 -6.61523,6.61523 v 38.19141 h -8.54102 a 6.6145834,6.6145834 0 0 0 -5.18164,10.72851 l 27.02149,34.04297 a 6.6145834,6.6145834 0 0 0 10.36328,0 l 27.02148,-34.04297 a 6.6145834,6.6145834 0 0 0 -5.18164,-10.72851 h -8.54297 v -38.19141 a 6.6145834,6.6145834 0 0 0 -6.61523,-6.61523 H 135.4668 Z"
         id="path1"
         inkscape:path-effect="#path-effect1;#path-effect5"
         inkscape:original-d="m 135.46666,117.64548 h -11.86427 v 44.80602 h -15.15696 l 27.02122,34.0434 z"
         transform="translate(-1.6898193e-5,-1.6788135)" /><path
         style="fill:#00ffff;stroke-width:5.29167;stroke-linecap:round;stroke-linejoin:round;paint-order:stroke fill markers"
         d="m 135.46666,117.64548 h -11.86427 v 44.80602 h -15.15696 l 27.02122,34.0434 z m 0,0 h 11.86427 v 44.80602 h 15.15696 l -27.02122,34.0434 z"
         id="path3"
         inkscape:path-effect="#path-effect4"
         inkscape:original-d="m 135.46666,117.64548 h -11.86427 v 44.80602 h -15.15696 l 27.02122,34.0434 z"
         transform="translate(-1.6898193e-5,-1.6788135)" /></g><path
       d="m 76.581038,82.14045 c -1.650999,-0.04233 -2.666998,0.04233 -3.132664,0.169333 -0.973666,0.296334 -1.481666,1.058333 -1.523999,2.285999 -0.08467,1.735665 -0.846666,2.666998 -2.328332,2.793998 -2.497665,0.211666 -3.72533,-2.031999 -3.72533,-6.730995 0,-0.508 0.04233,-1.143 0.127,-1.862666 0.338666,-2.920997 1.185332,-4.444996 2.539998,-4.656663 1.777998,-0.254 2.963331,0.846666 3.59833,3.344331 0.296333,1.142999 1.058333,1.650999 2.285999,1.523999 1.481665,-0.127 2.455331,-0.296333 3.005664,-0.508 0.973666,-0.380999 1.439332,-1.058332 1.439332,-2.074332 0,-0.380999 -0.04233,-0.719666 -0.169333,-1.100665 -1.820332,-5.926663 -6.434662,-8.889994 -13.758323,-8.889994 -4.444997,0 -7.958661,1.269999 -10.540992,3.767664 -2.539998,2.497665 -3.809997,6.011329 -3.809997,10.456326 0,4.275663 1.227666,7.746994 3.640664,10.329325 2.455331,2.582332 5.799662,3.894664 10.075326,3.894664 3.72533,0 6.392328,-0.931333 8.043327,-2.793998 l 0.169333,0.719666 c 0.296333,1.227666 1.481666,1.820332 3.598331,1.820332 1.735665,0 2.666998,-0.719666 2.793998,-2.158998 l 0.08467,-1.185333 c 0.04233,-0.550333 0.04233,-1.566332 0.04233,-3.005664 -0.04233,-1.608666 -0.04233,-2.751665 -0.08467,-3.471331 -0.127,-1.735665 -0.888999,-2.624665 -2.370665,-2.666998 z m 16.594649,6.011329 c 0,-0.550333 0.04233,-0.846666 0.127,-0.846666 0.254,0 0.719666,0.846666 1.439333,2.539998 0.634999,1.481666 0.973666,2.328332 1.058332,2.539998 0.550333,1.481666 1.862665,2.201332 3.936997,2.116665 1.608661,-0.08467 2.667001,-0.169333 3.132661,-0.211666 1.56634,-0.169333 2.32834,-0.931333 2.32834,-2.328332 0,-0.338666 -0.0423,-0.719666 -0.127,-1.100666 -0.508,-2.285998 -1.73567,-4.48733 -3.64067,-6.646328 1.22767,-0.635 2.07433,-1.396999 2.54,-2.370665 0.46567,-0.888999 0.67733,-2.031998 0.67733,-3.513664 0,-5.249329 -3.85233,-7.873994 -11.514656,-7.873994 h -3.344331 c -1.904998,0 -3.936997,0.211666 -6.095995,0.592666 -1.100666,0.211667 -1.862665,0.677333 -2.243665,1.439332 -0.465666,0.889 -0.719666,4.275664 -0.719666,10.159993 0,6.095995 0.338666,9.567326 1.015999,10.371659 0.508,0.634999 1.269999,1.058332 2.328332,1.269999 0.465666,0.127 1.396999,0.169333 2.709331,0.211666 0.761999,0.04233 1.269999,0.04233 1.566332,0 2.370665,-0.211666 3.85233,-0.846666 4.402663,-1.904998 0.296334,-0.550333 0.423333,-1.481666 0.423333,-2.793998 z M 98.84835,78.28812 c 0,1.227665 -0.846666,1.904998 -2.582332,2.031998 -1.820332,0.127 -2.751664,-0.550333 -2.836331,-2.031998 -0.04233,-0.889 0.296333,-1.439333 1.015999,-1.735666 0.465667,-0.211666 1.185333,-0.253999 2.158999,-0.211666 l 0.634999,0.04233 c 1.058333,0.08467 1.608666,0.719666 1.608666,1.904999 z m 19.93899,-8.043328 c -1.143,0.04233 -2.159,0.550333 -3.09033,1.481666 -0.635,0.635 -1.43934,1.862665 -2.413,3.682997 -1.43934,2.666998 -2.83633,5.841996 -4.23333,9.48266 -1.43934,3.72533 -2.159,6.307662 -2.11667,7.746994 0.0423,1.227666 1.31233,1.735665 3.85233,1.608665 0.84667,-0.04233 1.43933,-0.253999 1.73567,-0.634999 0.254,-0.211667 0.508,-0.762 0.71966,-1.566332 0.29634,-1.100666 0.762,-1.650999 1.43934,-1.693332 0.93133,-0.04233 1.56633,-0.04233 1.94733,0 h 2.45533 c 0.635,0 1.016,0.253999 1.22766,0.804332 l 0.59267,1.693332 c 0.381,1.143 2.413,1.693333 6.01133,1.650999 1.82033,-0.04233 3.175,-0.169333 4.064,-0.465666 1.524,-0.508 1.86266,-0.973666 1.69333,-2.497665 -0.29633,-2.836331 -1.86267,-7.111995 -4.699,-12.82699 -1.905,-3.809997 -3.25966,-6.138329 -4.14866,-6.984995 -1.10067,-1.058333 -2.413,-1.566332 -3.937,-1.523999 z m -2.286,12.107325 c 0.254,0 0.80433,1.142999 1.651,3.428997 0.127,0.296333 -0.127,0.550333 -0.71967,0.677333 -0.33867,0.08467 -0.635,0.127 -0.889,0.127 -0.71967,0 -1.18533,-0.08467 -1.48166,-0.296333 -0.21167,-0.127 -0.254,-0.254 -0.21167,-0.423333 0.71967,-2.328332 1.27,-3.513664 1.651,-3.513664 z m 32.5543,-10.752659 c -0.71966,2.158998 -1.22766,3.767664 -1.60866,4.86833 -0.80434,2.328331 -1.48167,3.72533 -2.032,4.190997 -0.0847,0.04233 -0.16934,0.08467 -0.29634,0.08467 -0.38099,0 -0.93133,-0.846666 -1.65099,-2.497665 l -0.635,-1.523998 c -0.381,-1.016 -0.67734,-1.693332 -0.80434,-2.074332 -0.84666,-2.031999 -1.65099,-3.217331 -2.41299,-3.598331 -0.889,-0.423333 -2.62467,-0.592666 -5.29167,-0.507999 -3.17499,0.126999 -4.78366,1.015999 -4.78366,2.709331 0,1.481665 0.59267,3.513664 1.73567,6.095995 1.65099,3.682998 3.25966,7.027328 4.91066,9.948326 1.10066,1.989665 1.94733,3.301998 2.58233,3.894664 0.97367,0.931333 2.11666,1.396999 3.51366,1.396999 2.159,0 3.97933,-1.015999 5.37633,-3.047998 0.59267,-0.846666 1.56634,-2.836331 2.87867,-5.968995 1.31233,-3.047998 2.37066,-5.884329 3.175,-8.508994 0.63499,-2.074332 0.97366,-3.598331 0.97366,-4.61433 0,-1.058332 -0.889,-1.566332 -2.667,-1.608665 -1.778,-0.04233 -2.75166,0.211666 -2.96333,0.761999 z m 19.47335,2.074332 c 0.0423,-2.074332 -1.143,-3.132664 -3.51367,-3.174998 -1.143,-0.04233 -1.82033,-0.04233 -2.03199,-0.04233 -2.54,0 -4.318,0.465666 -5.29167,1.396999 -0.80433,0.804333 -1.27,2.116665 -1.31233,3.97933 0.0847,1.947332 0.127,3.979331 0.127,6.095996 v 5.630329 c 0.0847,3.259664 0.33867,5.079996 0.762,5.460996 1.05833,0.973666 2.75166,1.439332 5.08,1.481665 h 1.10066 c 1.778,-0.08467 3.00567,-0.338666 3.64067,-0.804332 0.80433,-0.635 1.22766,-1.777999 1.26999,-3.428998 z m 7.19663,4.36033 c -0.254,6.519328 -0.33867,10.625659 -0.21167,12.361324 0.0847,1.396999 0.29633,2.285998 0.635,2.624665 0.97367,0.973666 2.667,1.439332 5.08,1.481665 h 1.05833 c 1.73567,-0.08467 2.96333,-0.338666 3.64066,-0.804332 0.889,-0.592667 1.31234,-1.735666 1.31234,-3.428998 l 0.0847,-11.514658 c 0,-1.227666 0.59267,-1.862665 1.778,-1.820332 0.33867,0 1.31233,0.08467 1.778,0.08467 0.80433,0 1.35467,-0.08467 1.69333,-0.254 0.889,-0.465666 1.31233,-1.608666 1.31233,-3.428998 0,-0.973665 -0.42333,-1.650998 -1.22766,-1.947331 -1.397,-0.550333 -3.59833,-0.846666 -6.56166,-0.889 -4.23333,-0.08467 -8.29733,0.04233 -12.14966,0.338667 -2.45533,0.211666 -3.683,1.142999 -3.683,2.878664 0,2.243665 0.71967,3.301998 2.20133,3.174998 l 1.86267,-0.127 c 0.97367,-0.04233 1.43933,0.381 1.397,1.269999 z m 26.79696,12.361324 c 0.0423,1.015999 0.127,1.693332 0.254,2.031998 0.21167,0.465667 0.635,0.931333 1.35467,1.312333 1.22766,0.465666 2.54,0.719666 4.02166,0.761999 h 1.10067 c 1.778,-0.08467 3.00566,-0.338666 3.683,-0.804332 0.889,-0.635 1.31233,-1.777999 1.26999,-3.428998 l -0.127,-3.471331 c -0.0423,-1.312332 0.0423,-2.158998 0.254,-2.539998 2.921,-4.952996 4.61433,-8.000994 5.08,-9.143993 0.635,-1.481665 0.93133,-2.582331 0.93133,-3.301997 0,-0.889 -1.397,-1.269999 -4.19099,-1.143 -0.71967,0.04233 -1.22767,0.169334 -1.524,0.465667 -0.127,0.08467 -0.762,1.142999 -1.82033,3.217331 -0.59267,1.100666 -1.18534,1.989665 -1.82034,2.709331 -0.127,0.08467 -0.29633,0.127 -0.42333,0.127 -0.16933,0 -0.381,-0.08467 -0.59267,-0.254 -0.80433,-1.100666 -1.56633,-2.201332 -2.32833,-3.259664 -1.18533,-1.566332 -2.11666,-2.455332 -2.75166,-2.751665 -0.55033,-0.211666 -1.397,-0.380999 -2.58233,-0.423333 -0.55034,-0.04233 -1.22767,-0.04233 -1.94733,0 -3.175,0.127 -4.78367,0.719666 -4.78367,1.820332 0,0.889 0.59267,2.370665 1.778,4.444997 1.82033,3.174998 3.302,5.672662 4.445,7.408328 0.33866,0.550333 0.55033,1.523999 0.59266,3.005664 0.0847,1.439332 0.127,2.497665 0.127,3.217331 z"
       id="text1"
       style="font-size:42.3333px;line-height:1;font-family:Pusab;-inkscape-font-specification:Pusab;font-variant-ligatures:no-common-ligatures;text-align:center;letter-spacing:0px;text-orientation:upright;text-anchor:middle;fill:#ffffff;stroke-width:5.29167;stroke-linecap:round;stroke-linejoin:round;paint-order:stroke fill markers"
       aria-label="Gravity" /></g></svg>
