<?xml version="1.0" encoding="UTF-8" standalone="no"?>
<!-- Created with Inkscape (http://www.inkscape.org/) -->

<svg
   width="270.93332mm"
   height="270.93332mm"
   viewBox="0 0 270.93332 270.93332"
   version="1.1"
   id="svg1"
   inkscape:version="1.3.2 (091e20ef0f, 2023-11-25, custom)"
   sodipodi:docname="LensCircle.svg"
   xml:space="preserve"
   xmlns:inkscape="http://www.inkscape.org/namespaces/inkscape"
   xmlns:sodipodi="http://sodipodi.sourceforge.net/DTD/sodipodi-0.dtd"
   xmlns="http://www.w3.org/2000/svg"
   xmlns:svg="http://www.w3.org/2000/svg"><sodipodi:namedview
     id="namedview1"
     pagecolor="#4d4d4d"
     bordercolor="#eeeeee"
     borderopacity="1"
     inkscape:showpageshadow="0"
     inkscape:pageopacity="0"
     inkscape:pagecheckerboard="false"
     inkscape:deskcolor="#181825"
     inkscape:document-units="px"
     inkscape:zoom="0.48613594"
     inkscape:cx="-28.798529"
     inkscape:cy="428.89238"
     inkscape:window-width="1920"
     inkscape:window-height="1080"
     inkscape:window-x="0"
     inkscape:window-y="0"
     inkscape:window-maximized="1"
     inkscape:current-layer="g4" /><defs
     id="defs1"><inkscape:path-effect
       effect="offset"
       id="path-effect32"
       is_visible="true"
       lpeversion="1.2"
       linejoin_type="miter"
       unit="px"
       offset="-25"
       miter_limit="4"
       attempt_force_join="false"
       update_on_knot_move="true" /><inkscape:path-effect
       effect="fillet_chamfer"
       id="path-effect31"
       is_visible="true"
       lpeversion="1"
       nodesatellites_param="F,0,0,1,0,5,0,1 @ F,0,0,1,0,5,0,1 @ F,0,0,1,0,5,0,1 @ F,0,0,1,0,5,0,1"
       radius="5"
       unit="px"
       method="auto"
       mode="F"
       chamfer_steps="1"
       flexible="false"
       use_knot_distance="true"
       apply_no_radius="true"
       apply_with_radius="true"
       only_selected="false"
       hide_knots="false" /><inkscape:path-effect
       effect="offset"
       id="path-effect29"
       is_visible="true"
       lpeversion="1.2"
       linejoin_type="miter"
       unit="px"
       offset="-8.3333368"
       miter_limit="4"
       attempt_force_join="false"
       update_on_knot_move="true" /><inkscape:path-effect
       effect="fillet_chamfer"
       id="path-effect27"
       is_visible="true"
       lpeversion="1"
       nodesatellites_param="F,0,0,1,0,5,0,1 @ F,0,0,1,0,5,0,1 @ F,0,0,1,0,5,0,1 @ F,0,0,1,0,5,0,1"
       radius="5"
       unit="px"
       method="auto"
       mode="F"
       chamfer_steps="1"
       flexible="false"
       use_knot_distance="true"
       apply_no_radius="true"
       apply_with_radius="true"
       only_selected="false"
       hide_knots="false" /><inkscape:path-effect
       effect="offset"
       id="path-effect25"
       is_visible="true"
       lpeversion="1.2"
       linejoin_type="miter"
       unit="px"
       offset="-8.3333368"
       miter_limit="4"
       attempt_force_join="false"
       update_on_knot_move="true" /><inkscape:path-effect
       effect="fillet_chamfer"
       id="path-effect23"
       is_visible="true"
       lpeversion="1"
       nodesatellites_param="F,0,0,1,0,5,0,1 @ F,0,0,1,0,5,0,1 @ F,0,0,1,0,5,0,1 @ F,0,0,1,0,5,0,1"
       radius="5"
       unit="px"
       method="auto"
       mode="F"
       chamfer_steps="1"
       flexible="false"
       use_knot_distance="true"
       apply_no_radius="true"
       apply_with_radius="true"
       only_selected="false"
       hide_knots="false" /><inkscape:path-effect
       effect="offset"
       id="path-effect21"
       is_visible="true"
       lpeversion="1.2"
       linejoin_type="miter"
       unit="px"
       offset="-8.3333368"
       miter_limit="4"
       attempt_force_join="false"
       update_on_knot_move="true" /><inkscape:path-effect
       effect="fillet_chamfer"
       id="path-effect19"
       is_visible="true"
       lpeversion="1"
       nodesatellites_param="F,0,0,1,0,5,0,1 @ F,0,0,1,0,5,0,1 @ F,0,0,1,0,5,0,1 @ F,0,0,1,0,5,0,1"
       radius="5"
       unit="px"
       method="auto"
       mode="F"
       chamfer_steps="1"
       flexible="false"
       use_knot_distance="true"
       apply_no_radius="true"
       apply_with_radius="true"
       only_selected="false"
       hide_knots="false" /><inkscape:path-effect
       effect="offset"
       id="path-effect17"
       is_visible="true"
       lpeversion="1.2"
       linejoin_type="miter"
       unit="px"
       offset="-8.3333368"
       miter_limit="4"
       attempt_force_join="false"
       update_on_knot_move="true" /><inkscape:path-effect
       effect="fillet_chamfer"
       id="path-effect15"
       is_visible="true"
       lpeversion="1"
       nodesatellites_param="F,0,0,1,0,5,0,1 @ F,0,0,1,0,5,0,1 @ F,0,0,1,0,5,0,1 @ F,0,0,1,0,5,0,1"
       radius="5"
       unit="px"
       method="auto"
       mode="F"
       chamfer_steps="1"
       flexible="false"
       use_knot_distance="true"
       apply_no_radius="true"
       apply_with_radius="true"
       only_selected="false"
       hide_knots="false" /><linearGradient
       id="swatch13"
       inkscape:swatch="solid"><stop
         style="stop-color:#ffffff;stop-opacity:1;"
         offset="0"
         id="stop13" /></linearGradient><inkscape:path-effect
       effect="offset"
       id="path-effect13"
       is_visible="true"
       lpeversion="1.2"
       linejoin_type="miter"
       unit="px"
       offset="-8.3333368"
       miter_limit="4"
       attempt_force_join="false"
       update_on_knot_move="true" /><inkscape:path-effect
       effect="fillet_chamfer"
       id="path-effect11"
       is_visible="true"
       lpeversion="1"
       nodesatellites_param="F,0,0,1,0,5,0,1 @ F,0,0,1,0,5,0,1 @ F,0,0,1,0,5,0,1 @ F,0,0,1,0,5,0,1"
       radius="5"
       unit="px"
       method="auto"
       mode="F"
       chamfer_steps="1"
       flexible="false"
       use_knot_distance="true"
       apply_no_radius="true"
       apply_with_radius="true"
       only_selected="false"
       hide_knots="false" /><inkscape:path-effect
       effect="offset"
       id="path-effect6"
       is_visible="true"
       lpeversion="1.2"
       linejoin_type="miter"
       unit="px"
       offset="-25"
       miter_limit="4"
       attempt_force_join="false"
       update_on_knot_move="true" /><inkscape:path-effect
       effect="fillet_chamfer"
       id="path-effect5"
       is_visible="true"
       lpeversion="1"
       nodesatellites_param="F,0,0,1,0,5,0,1 @ F,0,0,1,0,5,0,1 @ F,0,0,1,0,5,0,1 @ F,0,0,1,0,5,0,1"
       radius="5"
       unit="px"
       method="auto"
       mode="F"
       chamfer_steps="1"
       flexible="false"
       use_knot_distance="true"
       apply_no_radius="true"
       apply_with_radius="true"
       only_selected="false"
       hide_knots="false" /><inkscape:path-effect
       effect="fillet_chamfer"
       id="path-effect3"
       is_visible="true"
       lpeversion="1"
       nodesatellites_param="F,0,0,1,0,5,0,1 @ F,0,0,1,0,5,0,1 @ F,0,0,1,0,5,0,1 @ F,0,0,1,0,5,0,1"
       radius="5"
       unit="px"
       method="auto"
       mode="F"
       chamfer_steps="1"
       flexible="false"
       use_knot_distance="true"
       apply_no_radius="true"
       apply_with_radius="true"
       only_selected="false"
       hide_knots="false" /><inkscape:path-effect
       effect="offset"
       id="path-effect2"
       is_visible="true"
       lpeversion="1.2"
       linejoin_type="miter"
       unit="px"
       offset="-25"
       miter_limit="4"
       attempt_force_join="false"
       update_on_knot_move="true" /></defs><g
     inkscape:label="Calque 1"
     inkscape:groupmode="layer"
     id="layer1"><g
       id="g2"
       inkscape:label="template"
       style="display:none"><rect
         style="fill:#ff0000;stroke-width:3.96875;stroke-linecap:round;stroke-linejoin:round;paint-order:stroke fill markers"
         id="rect1"
         width="135.46666"
         height="135.46666"
         x="67.73333"
         y="67.73333" /><rect
         style="fill:#00ff00;stroke-width:2.80129;stroke-linecap:round;stroke-linejoin:round;paint-order:stroke fill markers"
         id="rect2"
         width="95.617188"
         height="95.61721"
         x="87.658058"
         y="107.58277" /><rect
         style="fill:#00ffff;stroke-width:1.02092;stroke-linecap:round;stroke-linejoin:round;paint-order:stroke fill markers"
         id="rect4"
         width="95.617188"
         height="12.7"
         x="87.658058"
         y="94.882774" /><rect
         style="fill:#00ffff;stroke-width:0.589428;stroke-linecap:round;stroke-linejoin:round;paint-order:stroke fill markers"
         id="rect5"
         width="95.617188"
         height="4.2333336"
         x="87.658058"
         y="63.5" /></g><g
       id="g4"
       transform="matrix(1.4116711,0,0,1.4116711,-55.767719,-35.842996)"
       style="display:inline"><path
         style="display:inline;fill:#000000;stroke-width:2.80129;stroke-linecap:round;stroke-linejoin:round;paint-order:stroke fill markers"
         id="rect3"
         width="95.617188"
         height="95.61721"
         x="87.658058"
         y="107.58277"
         transform="matrix(0.7083803,0,0,0.7083803,39.504754,25.390472)"
         inkscape:path-effect="#path-effect3"
         sodipodi:type="rect"
         d="m 92.658058,107.58277 h 85.617192 a 5,5 45 0 1 5,5 v 85.61721 a 5,5 135 0 1 -5,5 H 92.658058 a 5,5 45 0 1 -5,-5 v -85.61721 a 5,5 135 0 1 5,-5 z" /><path
         style="display:inline;fill:#323232;stroke-width:2.80129;stroke-linecap:round;stroke-linejoin:round;paint-order:stroke fill markers;fill-opacity:1"
         id="path29"
         width="95.617188"
         height="95.61721"
         x="87.658058"
         y="107.58277"
         transform="matrix(0.7083803,0,0,0.7083803,39.504754,25.390472)"
         inkscape:path-effect="#path-effect31;#path-effect32"
         sodipodi:type="rect"
         d="m 94.273437,114.19727 h 82.386723 v 82.38671 H 94.273437 Z" /><path
         style="display:inline;fill:#ffffff;fill-opacity:1;stroke-width:2.80129;stroke-linecap:round;stroke-linejoin:round;paint-order:stroke fill markers"
         id="path10"
         width="95.617188"
         height="95.61721"
         x="87.658058"
         y="107.58277"
         transform="matrix(0.23612687,0,0,0.23612687,84.025709,79.320523)"
         inkscape:path-effect="#path-effect11;#path-effect13"
         sodipodi:type="rect"
         d="m 94.273437,114.19727 h 82.386723 v 82.38671 H 94.273437 Z" /><path
         style="display:inline;fill:#ffffff;fill-opacity:1;stroke-width:2.80129;stroke-linecap:round;stroke-linejoin:round;paint-order:stroke fill markers"
         id="path14"
         width="95.617188"
         height="95.61721"
         x="87.658058"
         y="107.58277"
         transform="matrix(0.23612687,0,0,0.23612687,103.47931,98.774761)"
         inkscape:path-effect="#path-effect15;#path-effect17"
         sodipodi:type="rect"
         d="m 94.273437,114.19727 h 82.386723 v 82.38671 H 94.273437 Z" /><path
         style="display:inline;fill:#ffffff;fill-opacity:1;stroke-width:2.80129;stroke-linecap:round;stroke-linejoin:round;paint-order:stroke fill markers"
         id="path17"
         width="95.617188"
         height="95.61721"
         x="87.658058"
         y="107.58277"
         transform="matrix(0.23612687,0,0,0.23612687,122.93303,118.22848)"
         inkscape:path-effect="#path-effect19;#path-effect21"
         sodipodi:type="rect"
         d="m 94.273437,114.19727 h 82.386723 v 82.38671 H 94.273437 Z" /><path
         style="display:inline;fill:#ffffff;fill-opacity:1;stroke-width:2.80129;stroke-linecap:round;stroke-linejoin:round;paint-order:stroke fill markers"
         id="path21"
         width="95.617188"
         height="95.61721"
         x="87.658058"
         y="107.58277"
         transform="matrix(0.23612687,0,0,0.23612687,84.025592,118.22848)"
         inkscape:path-effect="#path-effect23;#path-effect25"
         sodipodi:type="rect"
         d="m 94.273437,114.19727 h 82.386723 v 82.38671 H 94.273437 Z" /><path
         style="display:inline;fill:#ffffff;fill-opacity:1;stroke-width:2.80129;stroke-linecap:round;stroke-linejoin:round;paint-order:stroke fill markers"
         id="path25"
         width="95.617188"
         height="95.61721"
         x="87.658058"
         y="107.58277"
         transform="matrix(0.23612687,0,0,0.23612687,122.93303,79.321043)"
         inkscape:path-effect="#path-effect27;#path-effect29"
         sodipodi:type="rect"
         d="m 94.273437,114.19727 h 82.386723 v 82.38671 H 94.273437 Z" /></g><path
       style="font-size:42.3333px;line-height:1;font-family:Pusab;-inkscape-font-specification:Pusab;font-variant-ligatures:no-common-ligatures;text-align:center;letter-spacing:0px;text-orientation:upright;text-anchor:middle;fill:#ffffff;stroke-width:13.2292;stroke-linecap:round;stroke-linejoin:round;paint-order:stroke fill markers"
       d="m 108.96599,56.345672 c -0.55034,0 -1.22767,0.04233 -2.032,0.127 -0.97367,0.08467 -1.651,0.127 -1.98967,0.127 -1.43933,0.04233 -2.32833,-0.169333 -2.66699,-0.635 -0.16934,-1.523999 -0.254,-2.497664 -0.254,-2.920997 v -1.608666 c 0.0423,-4.783663 0.0423,-8.254994 0.0423,-10.371659 -0.0423,-1.481665 -0.21167,-2.582331 -0.59267,-3.301997 -0.55033,-1.016 -1.481663,-1.523999 -2.836329,-1.481666 -4.61433,-0.04233 -7.408327,0.169333 -8.381993,0.592666 -1.820332,0.762 -2.751665,2.285999 -2.878665,4.571997 -0.127,2.582331 -0.169333,5.333996 -0.169333,8.254994 -0.04233,7.408327 0.381,11.514658 1.227666,12.31899 1.015999,0.889 2.455331,1.396999 4.36033,1.566333 2.751664,0.127 4.571996,0.169333 5.545662,0.169333 3.513662,0 6.392332,-0.296333 8.635992,-0.846666 1.22767,-0.296333 2.11667,-0.592666 2.58233,-0.931333 0.80434,-0.507999 1.22767,-1.269999 1.27,-2.243665 0,-0.973666 -0.127,-1.735665 -0.42333,-2.285998 -0.33867,-0.719666 -0.80433,-1.100666 -1.43933,-1.100666 z m 23.74902,0.888999 c -1.524,0.211667 -2.70933,0.338667 -3.556,0.338667 -1.27,0.04233 -2.032,-0.04233 -2.286,-0.211667 -0.46566,-0.296333 -0.71966,-0.804332 -0.71966,-1.566332 0,-0.550333 0.127,-0.973666 0.381,-1.269999 0.508,-0.423333 1.43933,-0.634999 2.75166,-0.592666 1.35467,0.04233 2.159,-0.04233 2.45533,-0.254 0.46567,-0.296333 0.71967,-0.931333 0.71967,-1.904999 0,-1.439332 -0.42333,-2.158998 -1.27,-2.201331 -1.73567,-0.08467 -2.75167,-0.169333 -3.09033,-0.211667 -1.31233,-0.254 -1.94733,-0.846666 -1.94733,-1.735665 0,-0.804333 0.21166,-1.312332 0.67733,-1.566332 0.33867,-0.211667 1.10067,-0.296333 2.32833,-0.254 0.381,0 0.97367,0.08467 1.778,0.211666 0.80433,0.127 1.43933,0.211667 1.86267,0.211667 0.55033,0 0.97366,-0.381 1.26999,-1.100666 0.21167,-0.550333 0.33867,-1.185332 0.33867,-1.820332 0,-0.973666 -0.33867,-1.693332 -1.05833,-2.158998 -0.42334,-0.296333 -1.22767,-0.550333 -2.37067,-0.762 -2.45533,-0.465666 -5.29166,-0.719666 -8.50899,-0.719666 -5.461,0 -8.50899,0.677333 -9.22866,2.031999 -0.46567,0.888999 -0.71967,4.275663 -0.71967,10.159992 v 2.963331 c 0,4.021664 0.33867,6.476995 1.016,7.323661 0.84667,1.058333 3.97933,1.566333 9.398,1.566333 3.30199,0 5.96899,-0.211667 8.04332,-0.592667 2.286,-0.423333 3.429,-1.396999 3.429,-2.920998 0,-2.158998 -0.55033,-3.132664 -1.69333,-2.963331 z m 25.95028,-14.943655 c -0.127,-1.735665 -0.84667,-2.582331 -2.20133,-2.582331 h -1.31234 c -1.77799,0 -2.62466,0.804332 -2.58233,2.370664 0.127,2.836332 0.16934,4.36033 0.16934,4.529664 -0.0423,0.211666 -0.0847,0.338666 -0.21167,0.338666 -0.0847,0 -0.254,-0.127 -0.508,-0.381 -0.93133,-0.973666 -2.37067,-2.539998 -4.36033,-4.783663 -1.22767,-1.354665 -2.49767,-2.031998 -3.89466,-2.074331 l -2.70934,-0.04233 c -1.60866,-0.04233 -2.79399,0.338667 -3.55599,1.142999 -0.84667,0.889 -1.31234,4.36033 -1.35467,10.498659 -0.0423,2.751665 0.0423,5.926662 0.254,9.440326 0.127,1.904999 0.80433,2.878665 2.11667,2.920998 l 1.43933,0.04233 c 1.73566,0.04233 2.75166,-0.719667 2.58233,-2.455332 -0.0847,-0.804333 -0.127,-1.439332 -0.127,-1.862665 v -1.566332 c 0,-0.973666 0.127,-1.439333 0.381,-1.439333 0.0847,0 0.16933,0.04233 0.29633,0.127 1.05834,0.846666 3.048,2.666998 5.969,5.503329 1.143,1.100666 2.58233,1.650999 4.23333,1.650999 h 2.54 c 0.84666,0 1.56633,-0.296333 2.20133,-0.846666 0.29633,-0.254 0.46566,-0.634999 0.59266,-1.185332 0.21167,-0.889 0.29634,-3.174998 0.29634,-6.815662 0,-5.503329 -0.0847,-9.694326 -0.254,-12.530657 z m 13.80067,21.80165 c 7.45067,-0.211666 11.09133,-3.174997 10.87966,-8.889993 -0.0847,-2.666998 -1.86266,-4.910663 -5.29166,-6.688662 -1.143,-0.592666 -1.69333,-1.227665 -1.69333,-1.862665 0,-0.719666 0.33866,-1.058333 1.05833,-1.058333 0.59267,0 1.397,0.381 2.45533,1.143 0.67733,0.465666 1.27,0.719666 1.82033,0.719666 0.71967,-0.04233 1.35467,-0.804333 1.905,-2.370665 0.127,-0.423333 0.16934,-0.804333 0.16934,-1.100666 0,-0.635 -0.21167,-1.142999 -0.59267,-1.481666 -1.016,-0.888999 -2.24367,-1.566332 -3.64066,-2.116665 -2.37067,-0.888999 -4.91067,-1.269999 -7.57767,-1.185332 -7.49299,0.254 -11.13365,3.174998 -10.92199,8.805327 0.127,2.709331 1.86267,4.952996 5.29167,6.730995 1.14299,0.592666 1.73566,1.227665 1.73566,1.862665 0,0.677333 -0.33867,1.015999 -1.016,1.015999 -0.59266,0 -1.43933,-0.381 -2.49766,-1.142999 -0.635,-0.423333 -1.22767,-0.635 -1.82034,-0.635 -0.71966,0.04233 -1.35466,0.804333 -1.94733,2.328332 -0.127,0.381 -0.16933,0.761999 -0.16933,1.100666 0,0.634999 0.21167,1.142999 0.635,1.481665 2.921,2.370665 6.64633,3.471331 11.21832,3.344331 z"
       id="text3"
       aria-label="Lens" /><path
       style="font-size:42.3333px;line-height:1;font-family:Pusab;-inkscape-font-specification:Pusab;font-variant-ligatures:no-common-ligatures;text-align:center;letter-spacing:0px;text-orientation:upright;text-anchor:middle;fill:#ffffff;stroke-width:13.2292;stroke-linecap:round;stroke-linejoin:round;paint-order:stroke fill markers"
       d="m 92.604237,86.627781 c 0.08467,-0.381 0.126999,-0.719667 0.126999,-1.016 0,-1.100666 -0.550332,-1.820332 -1.608665,-2.201331 -0.550333,-0.211667 -1.566332,-0.296333 -2.963331,-0.338667 -1.312332,-0.04233 -2.158998,0.719666 -2.455332,2.285999 -0.380999,1.693332 -1.439332,2.539998 -3.174997,2.539998 -1.989665,0 -2.963331,-2.201332 -2.963331,-6.646329 0,-0.380999 0.04233,-0.973666 0.08467,-1.820332 0.211667,-2.920998 1.058333,-4.48733 2.582332,-4.698996 2.074331,-0.296333 3.301997,0.846666 3.72533,3.386664 0.211667,1.142999 0.973666,1.608665 2.285998,1.439332 1.735666,-0.211666 2.709332,-0.338666 3.005665,-0.465666 1.100666,-0.381 1.566332,-1.142999 1.439332,-2.201332 -0.381,-3.217331 -2.158998,-5.757329 -5.291663,-7.577661 -2.582331,-1.523999 -5.503329,-2.285998 -8.678326,-2.285998 -4.529664,0 -8.043328,1.269999 -10.583326,3.767664 -2.539998,2.497665 -3.809997,5.968995 -3.809997,10.456325 0,4.656663 1.354666,8.212661 4.021664,10.667992 2.582331,2.412998 6.222995,3.598331 10.921992,3.598331 6.646328,0 11.091325,-2.963331 13.33499,-8.889993 z M 106.74356,74.266457 c 0.0423,-2.074332 -1.14299,-3.132665 -3.51366,-3.174998 -1.143,-0.04233 -1.82033,-0.04233 -2.032,-0.04233 -2.539996,0 -4.317994,0.465666 -5.29166,1.396999 -0.804333,0.804332 -1.269999,2.116665 -1.312333,3.97933 0.08467,1.947332 0.127,3.97933 0.127,6.095995 v 5.630329 c 0.08467,3.259665 0.338667,5.079997 0.762,5.460996 1.058332,0.973666 2.751664,1.439333 5.079993,1.481666 h 1.10067 c 1.778,-0.08467 3.00566,-0.338667 3.64066,-0.804333 0.80434,-0.634999 1.22767,-1.777999 1.27,-3.428997 z m 15.11293,14.477989 c 0,-0.550333 0.0423,-0.846666 0.127,-0.846666 0.254,0 0.71967,0.846666 1.43933,2.539998 0.635,1.481665 0.97367,2.328331 1.05833,2.539998 0.55034,1.481665 1.86267,2.201331 3.937,2.116665 1.60867,-0.08467 2.667,-0.169333 3.13267,-0.211667 1.56633,-0.169333 2.32833,-0.931332 2.32833,-2.328331 0,-0.338667 -0.0423,-0.719666 -0.127,-1.100666 -0.508,-2.285998 -1.73567,-4.48733 -3.64067,-6.646328 1.22767,-0.635 2.07433,-1.396999 2.54,-2.370665 0.46567,-0.889 0.67733,-2.031999 0.67733,-3.513664 0,-5.24933 -3.85233,-7.873994 -11.51465,-7.873994 h -3.34433 c -1.905,0 -3.937,0.211666 -6.096,0.592666 -1.10067,0.211666 -1.86267,0.677333 -2.24367,1.439332 -0.46566,0.888999 -0.71966,4.275664 -0.71966,10.159992 0,6.095996 0.33867,9.567327 1.016,10.371659 0.508,0.635 1.27,1.058333 2.32833,1.269999 0.46567,0.127 1.397,0.169334 2.70933,0.211667 0.762,0.04233 1.27,0.04233 1.56633,0 2.37067,-0.211667 3.85233,-0.846666 4.40267,-1.904999 0.29633,-0.550333 0.42333,-1.481665 0.42333,-2.793998 z m 5.67266,-9.86366 c 0,1.227666 -0.84666,1.904999 -2.58233,2.031999 -1.82033,0.127 -2.75166,-0.550333 -2.83633,-2.031999 -0.0423,-0.888999 0.29633,-1.439332 1.016,-1.735665 0.46566,-0.211667 1.18533,-0.254 2.159,-0.211667 l 0.635,0.04233 c 1.05833,0.08467 1.60866,0.719666 1.60866,1.904998 z m 32.42731,6.561662 c -0.55033,-0.550333 -1.778,-0.804333 -3.59833,-0.846666 -0.84667,-0.04233 -1.43933,0.296333 -1.73567,1.015999 -0.29633,0.719666 -0.55033,1.396999 -0.84666,2.074332 -0.46567,0.719666 -1.22767,1.100666 -2.32833,1.100666 -1.73567,0 -2.58233,-1.947332 -2.58233,-5.799662 0,-0.296333 0.0423,-0.846666 0.0847,-1.566333 0.21167,-2.582331 0.93133,-3.936997 2.24367,-4.10633 1.778,-0.254 2.87866,0.719666 3.25966,2.963331 0.127,0.846666 0.635,1.269999 1.48167,1.269999 0.0423,0 0.21166,0 0.508,-0.04233 1.31233,-0.127 2.15899,-0.254 2.62466,-0.423333 0.97367,-0.338666 1.397,-0.973666 1.27,-1.904999 -0.33867,-2.836331 -1.86267,-5.037662 -4.61433,-6.646328 -2.20133,-1.312332 -4.74133,-1.947332 -7.61999,-1.947332 -7.78933,0 -12.53066,4.61433 -12.53066,12.403658 0,8.08566 4.91066,12.488324 13.03866,12.488324 5.79966,0 9.69432,-2.582332 11.68399,-7.789328 0.0423,-0.296333 0.0847,-0.592666 0.0847,-0.888999 0,-0.550333 -0.127,-1.015999 -0.42333,-1.354666 z m 21.46298,3.217331 c -0.33867,0 -0.93134,0.04233 -1.82033,0.08467 -0.889,0.04233 -1.43934,0.08467 -1.73567,0.08467 -1.22767,0.04233 -1.98967,-0.127 -2.286,-0.507999 -0.16933,-1.354666 -0.254,-2.201332 -0.254,-2.582332 v -1.354665 c 0,-2.201332 0,-4.36033 0.0423,-6.434662 v -2.666998 c -0.0423,-2.793998 -1.01599,-4.190997 -3.00566,-4.190997 -3.97933,0 -6.39233,0.169333 -7.28133,0.550333 -1.05833,0.465666 -1.82033,1.396999 -2.286,2.878664 -0.381,1.269999 -0.55033,2.709332 -0.508,4.317997 0.0847,3.090331 0.127,4.402663 0.127,4.021664 0,6.476995 0.33867,10.032992 1.05834,10.752658 0.889,0.762 2.286,1.227666 4.14866,1.396999 0.55033,0.04233 2.032,0.08467 4.48733,0.08467 2.96333,0 5.50333,-0.254 7.57766,-0.762 1.143,-0.296333 1.86267,-0.550332 2.24367,-0.761999 0.71966,-0.465666 1.10066,-1.142999 1.10066,-1.989665 0,-1.947332 -0.55033,-2.920998 -1.60866,-2.920998 z m 23.49496,-0.04233 c -1.524,0.211666 -2.70933,0.338666 -3.556,0.338666 -1.27,0.04233 -2.032,-0.04233 -2.286,-0.211666 -0.46567,-0.296333 -0.71967,-0.804333 -0.71967,-1.566333 0,-0.550332 0.127,-0.973665 0.381,-1.269999 0.508,-0.423333 1.43934,-0.634999 2.75167,-0.592666 1.35466,0.04233 2.159,-0.04233 2.45533,-0.254 0.46567,-0.296333 0.71967,-0.931332 0.71967,-1.904998 0,-1.439332 -0.42334,-2.158999 -1.27,-2.201332 -1.73567,-0.08467 -2.75167,-0.169333 -3.09033,-0.211666 -1.31234,-0.254 -1.94734,-0.846666 -1.94734,-1.735666 0,-0.804332 0.21167,-1.312332 0.67734,-1.566332 0.33866,-0.211666 1.10066,-0.296333 2.32833,-0.254 0.381,0 0.97367,0.08467 1.778,0.211667 0.80433,0.127 1.43933,0.211666 1.86266,0.211666 0.55034,0 0.97367,-0.380999 1.27,-1.100666 0.21167,-0.550332 0.33867,-1.185332 0.33867,-1.820331 0,-0.973666 -0.33867,-1.693333 -1.05833,-2.158999 -0.42334,-0.296333 -1.22767,-0.550333 -2.37067,-0.761999 -2.45533,-0.465667 -5.29166,-0.719666 -8.50899,-0.719666 -5.461,0 -8.509,0.677332 -9.22866,2.031998 -0.46567,0.888999 -0.71967,4.275664 -0.71967,10.159992 v 2.963332 c 0,4.021663 0.33867,6.476995 1.016,7.323661 0.84667,1.058332 3.97933,1.566332 9.39799,1.566332 3.302,0 5.969,-0.211667 8.04333,-0.592666 2.286,-0.423333 3.429,-1.396999 3.429,-2.920998 0,-2.158999 -0.55033,-3.132664 -1.69333,-2.963331 z"
       id="text4"
       aria-label="Circle" /></g></svg>
