<?xml version="1.0" encoding="UTF-8" standalone="no"?>
<!-- Created with Inkscape (http://www.inkscape.org/) -->

<svg
   width="270.93332mm"
   height="270.93332mm"
   viewBox="0 0 270.93332 270.93332"
   version="1.1"
   id="svg1"
   inkscape:version="1.3.2 (091e20ef0f, 2023-11-25, custom)"
   sodipodi:docname="Scale.svg"
   xmlns:inkscape="http://www.inkscape.org/namespaces/inkscape"
   xmlns:sodipodi="http://sodipodi.sourceforge.net/DTD/sodipodi-0.dtd"
   xmlns="http://www.w3.org/2000/svg"
   xmlns:svg="http://www.w3.org/2000/svg">
  <sodipodi:namedview
     id="namedview1"
     pagecolor="#4d4d4d"
     bordercolor="#eeeeee"
     borderopacity="1"
     inkscape:showpageshadow="0"
     inkscape:pageopacity="0"
     inkscape:pagecheckerboard="false"
     inkscape:deskcolor="#181825"
     inkscape:document-units="px"
     inkscape:zoom="1.5468751"
     inkscape:cx="422.14139"
     inkscape:cy="515.2323"
     inkscape:window-width="1900"
     inkscape:window-height="1019"
     inkscape:window-x="6"
     inkscape:window-y="47"
     inkscape:window-maximized="1"
     inkscape:current-layer="layer1" />
  <defs
     id="defs1">
    <inkscape:path-effect
       effect="offset"
       id="path-effect2"
       is_visible="true"
       lpeversion="1.2"
       linejoin_type="miter"
       unit="px"
       offset="-25"
       miter_limit="4"
       attempt_force_join="false"
       update_on_knot_move="true" />
  </defs>
  <g
     inkscape:label="Calque 1"
     inkscape:groupmode="layer"
     id="layer1">
    <g
       id="g2"
       inkscape:label="template"
       style="display:none">
      <rect
         style="fill:#ff0000;stroke-width:3.96875;stroke-linecap:round;stroke-linejoin:round;paint-order:stroke fill markers"
         id="rect1"
         width="135.46666"
         height="135.46666"
         x="67.73333"
         y="67.73333" />
      <rect
         style="fill:#00ff00;stroke-width:2.80129;stroke-linecap:round;stroke-linejoin:round;paint-order:stroke fill markers"
         id="rect2"
         width="95.617188"
         height="95.61721"
         x="87.658058"
         y="107.58277" />
      <rect
         style="fill:#00ffff;stroke-width:1.02092;stroke-linecap:round;stroke-linejoin:round;paint-order:stroke fill markers"
         id="rect4"
         width="95.617188"
         height="12.7"
         x="87.658058"
         y="94.882774" />
      <rect
         style="fill:#00ffff;stroke-width:0.589428;stroke-linecap:round;stroke-linejoin:round;paint-order:stroke fill markers"
         id="rect5"
         width="95.617188"
         height="4.2333336"
         x="87.658058"
         y="63.5" />
    </g>
    <g
       id="g4"
       transform="matrix(1.4116711,0,0,1.4116711,-55.767719,-35.842996)"
       style="display:inline">
      <circle
         style="display:inline;fill:#000000;stroke:none;stroke-width:3.96875;stroke-linecap:round;stroke-linejoin:round;paint-order:stroke fill markers"
         id="path2"
         cx="135.46666"
         cy="135.46666"
         r="33.866669" />
      <path
         style="display:inline;fill:#7adbff;fill-opacity:1;stroke:none;stroke-width:3.96875;stroke-linecap:round;stroke-linejoin:round;paint-order:stroke fill markers"
         id="circle2"
         inkscape:path-effect="#path-effect2"
         sodipodi:type="arc"
         sodipodi:cx="135.46666"
         sodipodi:cy="135.46666"
         sodipodi:rx="33.866669"
         sodipodi:ry="33.866669"
         d="m 135.4668,106.28516 c 16.09245,0 29.18164,13.08918 29.18164,29.18164 0,16.09245 -13.08919,29.18164 -29.18164,29.18164 -16.09246,0 -29.18164,-13.08919 -29.18164,-29.18164 0,-16.09246 13.08918,-29.18164 29.18164,-29.18164 z" />
    </g>
    <path
       style="font-size:42.3333px;line-height:1;font-family:Pusab;-inkscape-font-specification:Pusab;text-align:center;letter-spacing:0px;text-orientation:upright;text-anchor:middle;fill:#ffffff;stroke-width:3.96875;stroke-linecap:round;stroke-linejoin:round;paint-order:stroke fill markers"
       d="M 86.19067,95.517774 C 94.784331,95.221441 98.932994,91.87711 98.678994,85.400115 98.551994,82.309784 96.562329,79.769786 92.625332,77.695454 91.313,77.018121 90.678,76.298455 90.678,75.536456 c 0,-0.762 0.381,-1.143 1.185333,-1.143 0.677333,0 1.608665,0.423333 2.836331,1.312333 0.719666,0.507999 1.439332,0.761999 2.074332,0.761999 0.804332,-0.04233 1.566332,-0.931332 2.201331,-2.666998 0.127,-0.465666 0.169334,-0.888999 0.169334,-1.269999 0,-0.719666 -0.211667,-1.312332 -0.677333,-1.693332 -1.185333,-1.058332 -2.582332,-1.862665 -4.190997,-2.455331 -2.666998,-1.016 -5.545663,-1.481666 -8.635994,-1.354666 -8.59366,0.296333 -12.742323,3.640664 -12.488324,10.117659 0.127,3.090331 2.116666,5.630329 6.053663,7.704661 1.312332,0.677333 1.947331,1.396999 1.947331,2.158998 0,0.762 -0.380999,1.142999 -1.185332,1.142999 -0.677333,0 -1.608665,-0.423333 -2.836331,-1.312332 -0.719666,-0.508 -1.439332,-0.761999 -2.074332,-0.761999 -0.804333,0.04233 -1.566332,0.931332 -2.201332,2.666998 -0.127,0.465666 -0.169333,0.888999 -0.169333,1.269999 0,0.719666 0.211667,1.312332 0.677333,1.693332 1.185332,1.058332 2.582331,1.862665 4.190997,2.455331 2.666998,1.015999 5.545662,1.481666 8.635993,1.354666 z m 39.03134,-10.075326 c -0.55033,-0.550333 -1.778,-0.804333 -3.59833,-0.846666 -0.84666,-0.04233 -1.43933,0.296333 -1.73566,1.015999 -0.29634,0.719666 -0.55034,1.396999 -0.84667,2.074332 -0.46567,0.719666 -1.22767,1.100666 -2.32833,1.100666 -1.73567,0 -2.58233,-1.947332 -2.58233,-5.799662 0,-0.296333 0.0423,-0.846666 0.0847,-1.566333 0.21167,-2.582331 0.93134,-3.936997 2.24367,-4.10633 1.778,-0.254 2.87866,0.719666 3.25966,2.963331 0.127,0.846666 0.635,1.269999 1.48167,1.269999 0.0423,0 0.21167,0 0.508,-0.04233 1.31233,-0.127 2.159,-0.254 2.62466,-0.423333 0.97367,-0.338666 1.397,-0.973666 1.27,-1.904999 -0.33866,-2.836331 -1.86266,-5.037662 -4.61433,-6.646328 -2.20133,-1.312332 -4.74133,-1.947332 -7.61999,-1.947332 -7.78933,0 -12.53066,4.61433 -12.53066,12.403658 0,8.08566 4.91066,12.488324 13.03866,12.488324 5.79966,0 9.69432,-2.582332 11.68399,-7.789328 0.0423,-0.296333 0.0847,-0.592666 0.0847,-0.888999 0,-0.550333 -0.127,-1.015999 -0.42334,-1.354666 z m 12.91168,-14.604989 c -1.143,0.04233 -2.159,0.550333 -3.09033,1.481666 -0.635,0.634999 -1.43934,1.862665 -2.413,3.682997 -1.43934,2.666998 -2.83633,5.841995 -4.23333,9.482659 -1.43934,3.725331 -2.159,6.307662 -2.11667,7.746995 0.0423,1.227665 1.31233,1.735665 3.85233,1.608665 0.84667,-0.04233 1.43933,-0.254 1.73567,-0.634999 0.254,-0.211667 0.508,-0.762 0.71966,-1.566333 0.29634,-1.100665 0.762,-1.650998 1.43934,-1.693332 0.93133,-0.04233 1.56633,-0.04233 1.94733,0 h 2.45533 c 0.635,0 1.016,0.254 1.22767,0.804333 l 0.59266,1.693332 c 0.381,1.142999 2.413,1.693332 6.01133,1.650999 1.82033,-0.04233 3.175,-0.169333 4.064,-0.465666 1.524,-0.508 1.86266,-0.973666 1.69333,-2.497665 -0.29633,-2.836331 -1.86267,-7.111995 -4.699,-12.826991 -1.905,-3.809997 -3.25966,-6.138328 -4.14866,-6.984994 -1.10067,-1.058333 -2.413,-1.566333 -3.937,-1.523999 z m -2.286,12.107324 c 0.254,0 0.80433,1.142999 1.651,3.428998 0.127,0.296333 -0.127,0.550333 -0.71967,0.677333 -0.33867,0.08467 -0.635,0.126999 -0.889,0.126999 -0.71966,0 -1.18533,-0.08467 -1.48166,-0.296333 -0.21167,-0.127 -0.254,-0.253999 -0.21167,-0.423333 0.71967,-2.328331 1.27,-3.513664 1.651,-3.513664 z m 37.21099,5.714996 c -0.33867,0 -0.93133,0.04233 -1.82033,0.08467 -0.889,0.04233 -1.43933,0.08467 -1.73567,0.08467 -1.22766,0.04233 -1.98966,-0.127 -2.28599,-0.507999 -0.16934,-1.354666 -0.254,-2.201332 -0.254,-2.582332 v -1.354665 c 0,-2.201332 0,-4.36033 0.0423,-6.434662 v -2.666998 c -0.0423,-2.793998 -1.016,-4.190997 -3.00567,-4.190997 -3.97933,0 -6.39232,0.169333 -7.28132,0.550333 -1.05834,0.465666 -1.82034,1.396999 -2.286,2.878664 -0.381,1.269999 -0.55033,2.709332 -0.508,4.317997 0.0847,3.090331 0.127,4.402663 0.127,4.021664 0,6.476995 0.33867,10.032992 1.05833,10.752658 0.889,0.762 2.286,1.227666 4.14866,1.396999 0.55034,0.04233 2.032,0.08467 4.48733,0.08467 2.96334,0 5.50333,-0.254 7.57767,-0.762 1.14299,-0.296333 1.86266,-0.550332 2.24366,-0.761999 0.71967,-0.465666 1.10067,-1.142999 1.10067,-1.989665 0,-1.947332 -0.55034,-2.920998 -1.60867,-2.920998 z m 23.49496,-0.04233 c -1.524,0.211666 -2.70933,0.338666 -3.556,0.338666 -1.27,0.04233 -2.032,-0.04233 -2.28599,-0.211666 -0.46567,-0.296333 -0.71967,-0.804333 -0.71967,-1.566333 0,-0.550332 0.127,-0.973665 0.381,-1.269999 0.508,-0.423333 1.43933,-0.634999 2.75166,-0.592666 1.35467,0.04233 2.159,-0.04233 2.45533,-0.254 0.46567,-0.296333 0.71967,-0.931332 0.71967,-1.904998 0,-1.439332 -0.42333,-2.158999 -1.27,-2.201332 -1.73566,-0.08467 -2.75166,-0.169333 -3.09033,-0.211666 -1.31233,-0.254 -1.94733,-0.846666 -1.94733,-1.735666 0,-0.804332 0.21167,-1.312332 0.67733,-1.566332 0.33867,-0.211666 1.10067,-0.296333 2.32833,-0.254 0.381,0 0.97367,0.08467 1.778,0.211667 0.80433,0.127 1.43933,0.211666 1.86267,0.211666 0.55033,0 0.97366,-0.380999 1.27,-1.100666 0.21166,-0.550332 0.33866,-1.185332 0.33866,-1.820331 0,-0.973666 -0.33866,-1.693333 -1.05833,-2.158999 -0.42333,-0.296333 -1.22767,-0.550333 -2.37066,-0.761999 -2.45534,-0.465667 -5.29167,-0.719666 -8.509,-0.719666 -5.46099,0 -8.50899,0.677332 -9.22866,2.031998 -0.46566,0.888999 -0.71966,4.275664 -0.71966,10.159992 v 2.963332 c 0,4.021663 0.33866,6.476995 1.016,7.323661 0.84666,1.058332 3.97933,1.566332 9.39799,1.566332 3.302,0 5.96899,-0.211667 8.04333,-0.592666 2.28599,-0.423333 3.42899,-1.396999 3.42899,-2.920998 0,-2.158999 -0.55033,-3.132664 -1.69333,-2.963331 z"
       id="text1"
       aria-label="Scale" />
  </g>
</svg>
