<?xml version="1.0" encoding="UTF-8" standalone="no"?>
<!-- Created with Inkscape (http://www.inkscape.org/) -->

<svg
   width="270.93332mm"
   height="270.93332mm"
   viewBox="0 0 270.93332 270.93332"
   version="1.1"
   id="svg1"
   inkscape:version="1.3.2 (091e20ef0f, 2023-11-25, custom)"
   sodipodi:docname="Song.svg"
   xml:space="preserve"
   xmlns:inkscape="http://www.inkscape.org/namespaces/inkscape"
   xmlns:sodipodi="http://sodipodi.sourceforge.net/DTD/sodipodi-0.dtd"
   xmlns="http://www.w3.org/2000/svg"
   xmlns:svg="http://www.w3.org/2000/svg"><sodipodi:namedview
     id="namedview1"
     pagecolor="#4d4d4d"
     bordercolor="#eeeeee"
     borderopacity="1"
     inkscape:showpageshadow="0"
     inkscape:pageopacity="0"
     inkscape:pagecheckerboard="false"
     inkscape:deskcolor="#181825"
     inkscape:document-units="px"
     inkscape:zoom="0.97227188"
     inkscape:cx="467.9761"
     inkscape:cy="521.45908"
     inkscape:window-width="1900"
     inkscape:window-height="1019"
     inkscape:window-x="6"
     inkscape:window-y="47"
     inkscape:window-maximized="1"
     inkscape:current-layer="layer1"
     showguides="true" /><defs
     id="defs1"><inkscape:path-effect
       effect="offset"
       id="path-effect11"
       is_visible="true"
       lpeversion="1.2"
       linejoin_type="round"
       unit="px"
       offset="25"
       miter_limit="4"
       attempt_force_join="false"
       update_on_knot_move="true" /><inkscape:path-effect
       effect="offset"
       id="path-effect2"
       is_visible="true"
       lpeversion="1.2"
       linejoin_type="miter"
       unit="px"
       offset="-25"
       miter_limit="4"
       attempt_force_join="false"
       update_on_knot_move="true" /></defs><g
     inkscape:label="Calque 1"
     inkscape:groupmode="layer"
     id="layer1"><g
       id="g2"
       inkscape:label="template"
       style="display:none"><rect
         style="fill:#ff0000;stroke-width:3.96875;stroke-linecap:round;stroke-linejoin:round;paint-order:stroke fill markers"
         id="rect1"
         width="135.46666"
         height="135.46666"
         x="67.73333"
         y="67.73333" /><rect
         style="fill:#00ff00;stroke-width:2.80129;stroke-linecap:round;stroke-linejoin:round;paint-order:stroke fill markers"
         id="rect2"
         width="95.617188"
         height="95.61721"
         x="87.658058"
         y="107.58277" /><rect
         style="fill:#00ffff;stroke-width:1.02092;stroke-linecap:round;stroke-linejoin:round;paint-order:stroke fill markers"
         id="rect4"
         width="95.617188"
         height="12.7"
         x="87.658058"
         y="94.882774" /><rect
         style="fill:#00ffff;stroke-width:0.589428;stroke-linecap:round;stroke-linejoin:round;paint-order:stroke fill markers"
         id="rect5"
         width="95.617188"
         height="4.2333336"
         x="87.658058"
         y="63.5" /></g><path
       style="font-size:42.3333px;line-height:1;font-family:Pusab;-inkscape-font-specification:Pusab;font-variant-ligatures:no-common-ligatures;text-align:center;letter-spacing:0px;text-orientation:upright;text-anchor:middle;fill:#ffffff;stroke-width:13.2292;stroke-linecap:round;stroke-linejoin:round;paint-order:stroke fill markers"
       d="m 96.646985,95.517774 c 8.593665,-0.296333 12.742325,-3.640664 12.488325,-10.117659 -0.127,-3.090331 -2.11667,-5.630329 -6.05366,-7.704661 -1.31234,-0.677333 -1.94734,-1.396999 -1.94734,-2.158998 0,-0.762 0.381,-1.143 1.18534,-1.143 0.67733,0 1.60866,0.423333 2.83633,1.312333 0.71966,0.507999 1.43933,0.761999 2.07433,0.761999 0.80433,-0.04233 1.56633,-0.931332 2.20133,-2.666998 0.127,-0.465666 0.16934,-0.888999 0.16934,-1.269999 0,-0.719666 -0.21167,-1.312332 -0.67734,-1.693332 -1.18533,-1.058332 -2.58233,-1.862665 -4.19099,-2.455331 -2.667,-1.016 -5.545667,-1.481666 -8.635998,-1.354666 -8.59366,0.296333 -12.742324,3.640664 -12.488324,10.117659 0.127,3.090331 2.116665,5.630329 6.053662,7.704661 1.312332,0.677333 1.947332,1.396999 1.947332,2.158998 0,0.762 -0.381,1.142999 -1.185333,1.142999 -0.677332,0 -1.608665,-0.423333 -2.836331,-1.312332 -0.719666,-0.508 -1.439332,-0.761999 -2.074331,-0.761999 -0.804333,0.04233 -1.566333,0.931332 -2.201332,2.666998 -0.127,0.465666 -0.169333,0.888999 -0.169333,1.269999 0,0.719666 0.211666,1.312332 0.677332,1.693332 1.185333,1.058332 2.582332,1.862665 4.190997,2.455331 2.666998,1.015999 5.545663,1.481666 8.635994,1.354666 z M 136.77899,83.071783 c 0,-1.439332 -0.254,-3.005664 -0.71966,-4.656663 -2.07433,-5.206996 -6.13833,-7.789327 -12.23433,-7.789327 -7.83166,0 -12.53065,4.614329 -12.53065,12.44599 0,7.789328 4.74133,12.403658 12.53065,12.403658 3.937,0 7.06966,-1.100666 9.398,-3.301998 2.37066,-2.201332 3.55599,-5.249329 3.55599,-9.10166 z m -12.02265,5.503329 c -0.55034,0.127 -1.016,0 -1.48167,-0.465666 C 122.047,86.88178 121.412,84.976782 121.412,82.39445 c 0,-0.380999 0,-0.804332 0.0423,-1.269999 0.16933,-2.539998 0.93133,-3.767663 2.24366,-3.682997 1.22767,0.08467 2.11667,1.100666 2.58233,3.047998 0.29634,1.312332 0.42334,2.751664 0.33867,4.317997 -0.127,2.243665 -0.762,3.47133 -1.86266,3.767663 z M 161.03599,73.67379 c -0.127,-1.735665 -0.84667,-2.582331 -2.20134,-2.582331 h -1.31233 c -1.778,0 -2.62466,0.804333 -2.58233,2.370665 0.127,2.836331 0.16933,4.36033 0.16933,4.529663 -0.0423,0.211667 -0.0847,0.338666 -0.21166,0.338666 -0.0847,0 -0.254,-0.126999 -0.508,-0.380999 -0.93134,-0.973666 -2.37067,-2.539998 -4.36033,-4.783663 -1.22767,-1.354666 -2.49767,-2.031999 -3.89467,-2.074332 l -2.70933,-0.04233 c -1.60866,-0.04233 -2.794,0.338666 -3.556,1.142999 -0.84666,0.888999 -1.31233,4.36033 -1.35466,10.498659 -0.0423,2.751664 0.0423,5.926662 0.254,9.440326 0.127,1.904998 0.80433,2.878664 2.11666,2.920998 l 1.43934,0.04233 c 1.73566,0.04233 2.75166,-0.719666 2.58233,-2.455332 -0.0847,-0.804332 -0.127,-1.439332 -0.127,-1.862665 v -1.566332 c 0,-0.973666 0.127,-1.439332 0.381,-1.439332 0.0847,0 0.16933,0.04233 0.29633,0.127 1.05833,0.846666 3.048,2.666998 5.969,5.503329 1.14299,1.100666 2.58233,1.650999 4.23333,1.650999 h 2.53999 c 0.84667,0 1.56634,-0.296334 2.20134,-0.846666 0.29633,-0.254 0.46566,-0.635 0.59266,-1.185333 0.21167,-0.888999 0.29633,-3.174998 0.29633,-6.815661 0,-5.50333 -0.0847,-9.694327 -0.25399,-12.530658 z m 24.638,10.625659 c -1.43934,-0.04233 -2.37067,0 -2.75167,0.127 -0.80433,0.211666 -1.27,0.888999 -1.31233,1.989665 -0.0847,1.481666 -0.762,2.285998 -2.032,2.412998 -2.159,0.211667 -3.25966,-1.735665 -3.25966,-5.841995 0,-0.296333 0.0423,-0.846666 0.127,-1.608666 0.29633,-2.539998 1.016,-3.894664 2.20133,-4.063997 1.56633,-0.211666 2.62466,0.762 3.175,2.920998 0.254,0.973666 0.889,1.439332 1.94733,1.312332 1.31233,-0.127 2.159,-0.296333 2.62466,-0.465666 0.889,-0.338666 1.31234,-0.931333 1.31234,-1.777999 0,-0.296333 -0.0423,-0.592666 -0.16934,-0.973666 -1.60866,-5.164662 -5.63033,-7.746994 -12.02266,-7.746994 -3.85233,0 -6.94266,1.100666 -9.18632,3.301998 -2.24367,2.201331 -3.34433,5.249329 -3.34433,9.10166 0,3.72533 1.05833,6.730995 3.21733,9.016993 2.159,2.285998 5.07999,3.428997 8.76299,3.428997 3.25967,0 5.588,-0.846666 7.02733,-2.497665 l 0.16933,0.677333 c 0.127,1.058333 1.18534,1.566332 3.09033,1.566332 1.56634,0 2.37067,-0.634999 2.49767,-1.904998 v -1.354666 c 0.0423,-0.211666 0.0423,-0.465666 0.0423,-0.719666 v -1.566332 c -0.0423,-1.904999 -0.0423,-2.920998 -0.0423,-3.047998 -0.0423,-1.481665 -0.762,-2.243665 -2.07433,-2.285998 z"
       id="text1"
       aria-label="Song" /><path
       d="m 168.9375,104.59766 a 7.8299287,7.8299287 0 0 0 -2.84375,0.22461 l -53.14648,14.24023 a 7.8299287,7.8299287 0 0 0 -5.80274,7.5625 v 35.16602 c -8.450418,0.68329 -22.900391,5.70138 -22.900389,22.92382 0,3.63857 2.440212,21.6975 19.933589,21.69727 l -0.39453,-0.01 c 2.95159,0.14861 2.3786,0.0506 4.63672,-0.23437 2.52013,-0.31806 6.02087,-1.05808 9.58594,-2.75977 5.46713,-2.60959 10.6356,-7.35213 13.27148,-14.86328 2.90696,4.46473 7.73941,8.27165 15.76172,8.27149 l -0.39453,-0.01 c 2.95181,0.14862 2.37844,0.0506 4.63672,-0.23437 2.52027,-0.31804 6.02261,-1.05815 9.58789,-2.75977 7.75963,-3.70349 14.94062,-11.67487 15.0918,-25.80664 0.21142,-18.5694 0.004,-37.14349 -0.01,-55.62695 a 7.8299287,7.8299287 0 0 0 -7.01367,-7.78125 z m -18.93164,38.98632 v 8.61133 c -4.91725,0.39795 -11.84994,2.26403 -16.80469,7.15039 0.005,-4.72588 -0.012,-7.95931 -0.0312,-11.25 z"
       style="fill:#000000;stroke-width:15.6599;stroke-linecap:round;stroke-linejoin:round;paint-order:stroke fill markers"
       id="path10"
       sodipodi:nodetypes="cccsscscccsscsc"
       inkscape:path-effect="#path-effect11"
       inkscape:original-d="m 168.12049,112.38384 -53.14611,14.24047 v 44.3482 c -1.3624,-1.44655 -3.12287,-1.44694 -5.7981,-1.44694 -4.99912,0 -17.10128,2.3364 -17.101279,15.18874 10e-7,13.86736 12.102099,13.86737 12.102099,13.86737 0,0 20.85458,1.0502 21.09122,-21.07003 0.17868,-16.70134 0.0988,-28.99382 0.0434,-35.41541 l 32.52515,-8.71523 v 27.9957 c -1.36241,-1.44655 -3.12285,-1.44694 -5.7981,-1.44694 -4.99915,0 -17.10128,2.33633 -17.10128,15.18874 0,13.86745 12.10211,13.86737 12.10211,13.86737 0,0 20.85457,1.05033 21.09121,-21.07003 0.21075,-18.51052 0.003,-37.02117 -0.0103,-55.53201 z"
       transform="matrix(0.84478207,0,0,0.84478207,20.201447,24.134909)" /><path
       d="m 162.22662,119.07476 -44.89688,12.0301 v 37.46456 c -1.15093,-1.22202 -2.63814,-1.22235 -4.89813,-1.22235 -4.22317,0 -14.446854,1.97375 -14.446853,12.83118 10e-7,11.71489 10.223633,11.7149 10.223633,11.7149 0,0 17.61758,0.88719 17.81749,-17.79958 0.15094,-14.10899 0.0835,-24.49346 0.0367,-29.91831 l 27.47666,-7.36247 v 23.65027 c -1.15093,-1.22202 -2.63812,-1.22235 -4.89813,-1.22235 -4.22319,0 -14.44685,1.97369 -14.44685,12.83118 0,11.71497 10.22364,11.7149 10.22364,11.7149 0,0 17.61757,0.8873 17.81748,-17.79958 0.17804,-15.63736 0.003,-31.27482 -0.009,-46.91245 z"
       style="fill:#ffffff;stroke-width:13.2292;stroke-linecap:round;stroke-linejoin:round;paint-order:stroke fill markers"
       id="path11"
       sodipodi:nodetypes="cccsscscccsscsc" /></g></svg>
