<?xml version="1.0" encoding="UTF-8" standalone="no"?>
<!-- Created with Inkscape (http://www.inkscape.org/) -->

<svg
   width="270.93332mm"
   height="270.93332mm"
   viewBox="0 0 270.93332 270.93332"
   version="1.1"
   id="svg1"
   inkscape:version="1.3.2 (091e20ef0f, 2023-11-25, custom)"
   sodipodi:docname="Spawn.svg"
   xmlns:inkscape="http://www.inkscape.org/namespaces/inkscape"
   xmlns:sodipodi="http://sodipodi.sourceforge.net/DTD/sodipodi-0.dtd"
   xmlns="http://www.w3.org/2000/svg"
   xmlns:svg="http://www.w3.org/2000/svg">
  <sodipodi:namedview
     id="namedview1"
     pagecolor="#4d4d4d"
     bordercolor="#eeeeee"
     borderopacity="1"
     inkscape:showpageshadow="0"
     inkscape:pageopacity="0"
     inkscape:pagecheckerboard="false"
     inkscape:deskcolor="#181825"
     inkscape:document-units="px"
     inkscape:zoom="0.77343755"
     inkscape:cx="458.98987"
     inkscape:cy="632.24238"
     inkscape:window-width="1900"
     inkscape:window-height="1019"
     inkscape:window-x="6"
     inkscape:window-y="47"
     inkscape:window-maximized="1"
     inkscape:current-layer="layer1" />
  <defs
     id="defs1">
    <inkscape:path-effect
       effect="offset"
       id="path-effect2"
       is_visible="true"
       lpeversion="1.2"
       linejoin_type="miter"
       unit="px"
       offset="-25"
       miter_limit="4"
       attempt_force_join="false"
       update_on_knot_move="true" />
  </defs>
  <g
     inkscape:label="Calque 1"
     inkscape:groupmode="layer"
     id="layer1">
    <g
       id="g2"
       inkscape:label="template"
       style="display:none">
      <rect
         style="fill:#ff0000;stroke-width:3.96875;stroke-linecap:round;stroke-linejoin:round;paint-order:stroke fill markers"
         id="rect1"
         width="135.46666"
         height="135.46666"
         x="67.73333"
         y="67.73333" />
      <rect
         style="fill:#00ff00;stroke-width:2.80129;stroke-linecap:round;stroke-linejoin:round;paint-order:stroke fill markers"
         id="rect2"
         width="95.617188"
         height="95.61721"
         x="87.658058"
         y="107.58277" />
      <rect
         style="fill:#00ffff;stroke-width:1.02092;stroke-linecap:round;stroke-linejoin:round;paint-order:stroke fill markers"
         id="rect4"
         width="95.617188"
         height="12.7"
         x="87.658058"
         y="94.882774" />
      <rect
         style="fill:#00ffff;stroke-width:0.589428;stroke-linecap:round;stroke-linejoin:round;paint-order:stroke fill markers"
         id="rect5"
         width="95.617188"
         height="4.2333336"
         x="87.658058"
         y="63.5" />
    </g>
    <g
       id="g4"
       transform="matrix(1.4116711,0,0,1.4116711,-55.767719,-35.842996)"
       style="display:inline">
      <circle
         style="display:inline;fill:#000000;stroke:none;stroke-width:3.96875;stroke-linecap:round;stroke-linejoin:round;paint-order:stroke fill markers"
         id="path2"
         cx="135.46666"
         cy="135.46666"
         r="33.866669" />
      <path
         style="display:inline;fill:#23cc7f;fill-opacity:1;stroke:none;stroke-width:3.96875;stroke-linecap:round;stroke-linejoin:round;paint-order:stroke fill markers"
         id="circle2"
         inkscape:path-effect="#path-effect2"
         sodipodi:type="arc"
         sodipodi:cx="135.46666"
         sodipodi:cy="135.46666"
         sodipodi:rx="33.866669"
         sodipodi:ry="33.866669"
         d="m 135.4668,106.28516 c 16.09245,0 29.18164,13.08918 29.18164,29.18164 0,16.09245 -13.08919,29.18164 -29.18164,29.18164 -16.09246,0 -29.18164,-13.08919 -29.18164,-29.18164 0,-16.09246 13.08918,-29.18164 29.18164,-29.18164 z" />
    </g>
    <path
       d="m 84.984107,95.517774 c 8.59366,-0.296333 12.742324,-3.640664 12.488324,-10.117659 -0.127,-3.090331 -2.116665,-5.630329 -6.053662,-7.704661 -1.312332,-0.677333 -1.947332,-1.396999 -1.947332,-2.158998 0,-0.762 0.381,-1.143 1.185333,-1.143 0.677332,0 1.608665,0.423333 2.836331,1.312333 0.719666,0.507999 1.439332,0.761999 2.074332,0.761999 0.804332,-0.04233 1.566332,-0.931332 2.201331,-2.666998 0.127,-0.465666 0.169334,-0.888999 0.169334,-1.269999 0,-0.719666 -0.211667,-1.312332 -0.677333,-1.693332 -1.185333,-1.058332 -2.582332,-1.862665 -4.190997,-2.455331 -2.666998,-1.016 -5.545663,-1.481666 -8.635994,-1.354666 -8.59366,0.296333 -12.742323,3.640664 -12.488324,10.117659 0.127,3.090331 2.116665,5.630329 6.053663,7.704661 1.312332,0.677333 1.947331,1.396999 1.947331,2.158998 0,0.762 -0.380999,1.142999 -1.185332,1.142999 -0.677333,0 -1.608666,-0.423333 -2.836331,-1.312332 -0.719666,-0.508 -1.439333,-0.761999 -2.074332,-0.761999 -0.804333,0.04233 -1.566332,0.931332 -2.201332,2.666998 -0.127,0.465666 -0.169333,0.888999 -0.169333,1.269999 0,0.719666 0.211667,1.312332 0.677333,1.693332 1.185332,1.058332 2.582331,1.862665 4.190997,2.455331 2.666998,1.015999 5.545662,1.481666 8.635993,1.354666 z M 118.34279,78.880786 c 0,1.227666 -0.84667,1.904999 -2.58233,2.031999 -1.905,0.127 -2.83634,-0.550333 -2.83634,-2.031999 -0.0847,-0.888999 0.254,-1.439332 0.97367,-1.735665 0.508,-0.211667 1.22767,-0.296333 2.20133,-0.211667 l 0.55034,0.04233 c 1.14299,0.08467 1.69333,0.719666 1.69333,1.904998 z m -5.41867,9.313327 c 0,-0.635 0.16934,-1.100666 0.46567,-1.439333 0.127,-0.169333 0.46567,-0.296333 0.97367,-0.423333 0.16933,-0.04233 0.508,-0.08467 1.05833,-0.169333 l 1.56633,-0.211666 c 2.413,-0.338667 4.14867,-1.016 5.24933,-1.989665 1.22767,-1.100666 1.86267,-2.793998 1.86267,-5.037663 0,-5.24933 -3.85233,-7.873994 -11.557,-7.873994 h -3.30199 c -5.207,0 -8.17033,0.677332 -8.89,2.031998 -0.465662,0.888999 -0.719662,4.275664 -0.719662,10.159992 0,6.095996 0.338666,9.567327 1.016002,10.371659 0.508,0.635 1.27,1.058333 2.32833,1.269999 1.18533,0.127 2.07433,0.211667 2.70933,0.211667 1.22767,0.04233 2.032,0.04233 2.413,0 2.37066,-0.169333 3.85233,-0.804333 4.40266,-1.904999 0.29633,-0.550333 0.42333,-1.481665 0.42333,-2.793998 z m 21.1667,-17.356654 c -1.143,0.04233 -2.159,0.550333 -3.09034,1.481666 -0.63499,0.634999 -1.43933,1.862665 -2.41299,3.682997 -1.43934,2.666998 -2.83633,5.841995 -4.23333,9.482659 -1.43934,3.725331 -2.159,6.307662 -2.11667,7.746995 0.0423,1.227665 1.31233,1.735665 3.85233,1.608665 0.84667,-0.04233 1.43933,-0.254 1.73567,-0.634999 0.254,-0.211667 0.508,-0.762 0.71966,-1.566333 0.29634,-1.100665 0.762,-1.650998 1.43934,-1.693332 0.93133,-0.04233 1.56633,-0.04233 1.94733,0 h 2.45533 c 0.635,0 1.016,0.254 1.22766,0.804333 l 0.59267,1.693332 c 0.381,1.142999 2.413,1.693332 6.01133,1.650999 1.82033,-0.04233 3.175,-0.169333 4.064,-0.465666 1.524,-0.508 1.86266,-0.973666 1.69333,-2.497665 -0.29633,-2.836331 -1.86267,-7.111995 -4.699,-12.826991 -1.905,-3.809997 -3.25966,-6.138328 -4.14866,-6.984994 -1.10067,-1.058333 -2.413,-1.566333 -3.937,-1.523999 z m -2.286,12.107324 c 0.254,0 0.80433,1.142999 1.651,3.428998 0.127,0.296333 -0.127,0.550333 -0.71967,0.677333 -0.33867,0.08467 -0.635,0.126999 -0.889,0.126999 -0.71967,0 -1.18533,-0.08467 -1.48166,-0.296333 -0.21167,-0.127 -0.254,-0.253999 -0.21167,-0.423333 0.71966,-2.328331 1.27,-3.513664 1.651,-3.513664 z m 41.275,6.222996 c 1.05833,-5.164663 1.69333,-9.86366 1.82033,-14.139323 0.0423,-1.269999 -0.0847,-2.158998 -0.33867,-2.666998 -0.381,-0.677333 -1.143,-1.015999 -2.32833,-1.058333 -1.143,-0.04233 -1.94733,0.127 -2.45533,0.423333 -0.635,0.381 -0.97367,1.058333 -1.10067,2.116665 -0.0847,1.016 -0.127,1.777999 -0.16933,2.285999 -0.21167,2.285998 -0.42333,3.428997 -0.67733,3.47133 -0.0847,0 -0.16934,-0.08467 -0.254,-0.211666 l -2.159,-2.793998 c -0.55033,-0.719666 -1.05833,-1.058332 -1.60867,-1.058332 -0.55033,0 -1.14299,0.380999 -1.73566,1.100665 -1.651,2.074332 -2.49767,3.132665 -2.54,3.132665 -0.21167,0 -0.381,-0.550333 -0.46567,-1.608666 -0.29633,-3.682997 -0.88899,-5.884329 -1.82033,-6.519328 -0.80433,-0.550333 -1.82033,-0.762 -3.048,-0.719666 l -2.32833,0.127 c -2.96333,0.169333 -4.36033,1.227665 -4.14866,3.174997 0.381,4.021664 1.143,8.97466 2.286,14.943656 0.762,4.021663 2.32833,6.011328 4.65666,6.011328 h 0.93133 c 1.60867,0 2.96333,-0.634999 4.02167,-1.947331 1.56633,-1.904999 2.413,-2.836332 2.58233,-2.878665 0.16933,0 0.381,0.127 0.59267,0.423333 l 2.15899,2.793998 c 0.80434,1.058333 1.905,1.608665 3.21733,1.608665 h 0.46567 c 2.11667,0 3.59833,-1.989665 4.445,-6.011328 z M 199.19949,73.67379 c -0.127,-1.735665 -0.84667,-2.582331 -2.20134,-2.582331 h -1.31233 c -1.778,0 -2.62466,0.804333 -2.58233,2.370665 0.127,2.836331 0.16933,4.36033 0.16933,4.529663 -0.0423,0.211667 -0.0847,0.338666 -0.21166,0.338666 -0.0847,0 -0.254,-0.126999 -0.508,-0.380999 -0.93134,-0.973666 -2.37067,-2.539998 -4.36033,-4.783663 -1.22767,-1.354666 -2.49767,-2.031999 -3.89467,-2.074332 l -2.70933,-0.04233 c -1.60866,-0.04233 -2.794,0.338666 -3.556,1.142999 -0.84666,0.888999 -1.31233,4.36033 -1.35466,10.498659 -0.0423,2.751664 0.0423,5.926662 0.254,9.440326 0.127,1.904998 0.80433,2.878664 2.11666,2.920998 l 1.43934,0.04233 c 1.73566,0.04233 2.75166,-0.719666 2.58233,-2.455332 -0.0847,-0.804332 -0.127,-1.439332 -0.127,-1.862665 v -1.566332 c 0,-0.973666 0.127,-1.439332 0.381,-1.439332 0.0847,0 0.16933,0.04233 0.29633,0.127 1.05833,0.846666 3.048,2.666998 5.969,5.503329 1.143,1.100666 2.58233,1.650999 4.23333,1.650999 h 2.53999 c 0.84667,0 1.56634,-0.296334 2.20134,-0.846666 0.29633,-0.254 0.46566,-0.635 0.59266,-1.185333 0.21167,-0.888999 0.29634,-3.174998 0.29634,-6.815661 0,-5.50333 -0.0847,-9.694327 -0.254,-12.530658 z"
       id="text1"
       style="font-size:42.3333px;line-height:1;font-family:Pusab;-inkscape-font-specification:Pusab;text-align:center;letter-spacing:0px;text-orientation:upright;text-anchor:middle;fill:#ffffff;stroke-width:3.96875;stroke-linecap:round;stroke-linejoin:round;paint-order:stroke fill markers"
       aria-label="Spawn" />
  </g>
</svg>
