<?xml version="1.0" encoding="UTF-8" standalone="no"?>
<!-- Created with Inkscape (http://www.inkscape.org/) -->

<svg
   width="270.93332mm"
   height="270.93332mm"
   viewBox="0 0 270.93332 270.93332"
   version="1.1"
   id="svg1"
   inkscape:version="1.3.2 (091e20ef0f, 2023-11-25, custom)"
   sodipodi:docname="Timewarp.svg"
   xmlns:inkscape="http://www.inkscape.org/namespaces/inkscape"
   xmlns:sodipodi="http://sodipodi.sourceforge.net/DTD/sodipodi-0.dtd"
   xmlns="http://www.w3.org/2000/svg"
   xmlns:svg="http://www.w3.org/2000/svg">
  <sodipodi:namedview
     id="namedview1"
     pagecolor="#4d4d4d"
     bordercolor="#eeeeee"
     borderopacity="1"
     inkscape:showpageshadow="0"
     inkscape:pageopacity="0"
     inkscape:pagecheckerboard="false"
     inkscape:deskcolor="#181825"
     inkscape:document-units="px"
     inkscape:zoom="3.2695314"
     inkscape:cx="492.11945"
     inkscape:cy="449.75864"
     inkscape:window-width="1920"
     inkscape:window-height="1080"
     inkscape:window-x="0"
     inkscape:window-y="0"
     inkscape:window-maximized="1"
     inkscape:current-layer="g4" />
  <defs
     id="defs1">
    <inkscape:path-effect
       effect="offset"
       id="path-effect2"
       is_visible="true"
       lpeversion="1.2"
       linejoin_type="miter"
       unit="px"
       offset="-25"
       miter_limit="4"
       attempt_force_join="false"
       update_on_knot_move="true" />
  </defs>
  <g
     inkscape:label="Calque 1"
     inkscape:groupmode="layer"
     id="layer1">
    <g
       id="g2"
       inkscape:label="template"
       style="display:none">
      <rect
         style="fill:#ff0000;stroke-width:3.96875;stroke-linecap:round;stroke-linejoin:round;paint-order:stroke fill markers"
         id="rect1"
         width="135.46666"
         height="135.46666"
         x="67.73333"
         y="67.73333" />
      <rect
         style="fill:#00ff00;stroke-width:2.80129;stroke-linecap:round;stroke-linejoin:round;paint-order:stroke fill markers"
         id="rect2"
         width="95.617188"
         height="95.61721"
         x="87.658058"
         y="107.58277" />
      <rect
         style="fill:#00ffff;stroke-width:1.02092;stroke-linecap:round;stroke-linejoin:round;paint-order:stroke fill markers"
         id="rect4"
         width="95.617188"
         height="12.7"
         x="87.658058"
         y="94.882774" />
      <rect
         style="fill:#00ffff;stroke-width:0.589428;stroke-linecap:round;stroke-linejoin:round;paint-order:stroke fill markers"
         id="rect5"
         width="95.617188"
         height="4.2333336"
         x="87.658058"
         y="63.5" />
    </g>
    <g
       id="g4"
       transform="matrix(1.4116711,0,0,1.4116711,-55.767719,-35.842996)"
       style="display:inline">
      <circle
         style="display:inline;fill:#000000;stroke:none;stroke-width:3.96875;stroke-linecap:round;stroke-linejoin:round;paint-order:stroke fill markers"
         id="path2"
         cx="135.46666"
         cy="135.46666"
         r="33.866669" />
      <path
         style="display:inline;fill:#997f99;fill-opacity:1;stroke:none;stroke-width:3.96875;stroke-linecap:round;stroke-linejoin:round;paint-order:stroke fill markers"
         id="circle2"
         inkscape:path-effect="#path-effect2"
         sodipodi:type="arc"
         sodipodi:cx="135.46666"
         sodipodi:cy="135.46666"
         sodipodi:rx="33.866669"
         sodipodi:ry="33.866669"
         d="m 135.4668,106.28516 c 16.09245,0 29.18164,13.08918 29.18164,29.18164 0,16.09245 -13.08919,29.18164 -29.18164,29.18164 -16.09246,0 -29.18164,-13.08919 -29.18164,-29.18164 0,-16.09246 13.08918,-29.18164 29.18164,-29.18164 z" />
    </g>
    <path
       style="font-size:42.3333px;line-height:1;font-family:Pusab;-inkscape-font-specification:Pusab;font-variant-ligatures:no-common-ligatures;text-align:center;letter-spacing:0px;text-orientation:upright;text-anchor:middle;fill:#ffffff;stroke-width:5.29167;stroke-linecap:round;stroke-linejoin:round;paint-order:stroke fill markers"
       d="m 41.23273,76.256122 c -0.254,7.535327 -0.338667,12.234324 -0.211667,14.139322 0.127,1.650999 0.338667,2.624665 0.719667,3.005665 1.142999,1.058332 3.047997,1.650999 5.799662,1.735665 0.507999,0.04233 0.931332,0.04233 1.227666,0 2.074331,-0.127 3.47133,-0.423333 4.190996,-0.931332 0.973666,-0.677333 1.439333,-1.989666 1.481666,-3.936998 l 0.127,-13.165656 c 0,-1.439333 0.677333,-2.158999 2.031998,-2.116665 0.381,0 1.523999,0.08467 1.989666,0.08467 0.888999,0 1.566332,-0.08467 1.989665,-0.296333 0.973666,-0.465666 1.481665,-1.777999 1.481665,-3.894664 0,-1.142999 -0.465666,-1.862665 -1.396999,-2.243665 -1.566332,-0.592666 -4.063997,-0.931332 -7.535327,-0.973666 -4.698997,-0.08467 -9.35566,0.04233 -13.927657,0.381 -2.793997,0.211667 -4.190996,1.269999 -4.190996,3.259664 0,2.539998 0.846666,3.767664 2.497664,3.640664 l 2.116665,-0.127 c 1.058333,-0.04233 1.650999,0.423333 1.608666,1.439333 z m 34.671011,-1.989665 c 0.04233,-2.074332 -1.142999,-3.132665 -3.513664,-3.174998 -1.143,-0.04233 -1.820332,-0.04233 -2.031999,-0.04233 -2.539998,0 -4.317997,0.465666 -5.291663,1.396999 -0.804332,0.804332 -1.269999,2.116665 -1.312332,3.97933 0.08467,1.947332 0.127,3.97933 0.127,6.095995 v 5.630329 c 0.08467,3.259665 0.338666,5.079997 0.761999,5.460996 1.058333,0.973666 2.751665,1.439333 5.079997,1.481666 h 1.100665 c 1.777999,-0.08467 3.005665,-0.338667 3.640664,-0.804333 0.804333,-0.634999 1.227666,-1.777999 1.269999,-3.428997 z m 3.217294,2.793997 c -0.846666,4.48733 -1.312332,9.22866 -1.439332,14.22399 -0.04233,1.227665 0.08467,2.116665 0.380999,2.624664 0.381,0.677333 1.143,1.016 2.328332,1.058333 2.201332,0.04233 3.344331,-0.761999 3.471331,-2.455332 0.296333,-3.894663 0.592666,-5.841995 0.888999,-5.841995 0.08467,0 0.169333,0.04233 0.254,0.169333 l 2.158998,2.793998 c 0.550333,0.719666 1.058333,1.058333 1.608666,1.058333 0.550333,0 1.142999,-0.381 1.735665,-1.100666 1.650999,-2.074332 2.497665,-3.090331 2.539998,-3.090331 0.211667,0 0.381,0.507999 0.465667,1.566332 0.126999,1.862665 0.253999,3.005664 0.338666,3.386664 0.508,2.709331 1.693332,3.640664 4.444997,3.640664 h 2.412999 c 2.921,0 4.27566,-1.015999 4.14866,-3.047998 -0.33866,-4.952996 -0.97366,-9.948326 -1.905,-14.985989 -0.71966,-4.021663 -2.28599,-6.011328 -4.656659,-6.011328 h -1.312333 c -1.608665,0 -2.963331,0.677332 -4.021663,1.989665 -0.338667,0.550333 -0.677333,1.142999 -1.058333,1.735665 -0.550333,0.719666 -1.015999,1.100666 -1.481665,1.100666 -0.254,0 -1.185333,-1.058333 -2.836332,-3.174998 -0.846666,-1.100665 -1.904998,-1.650998 -3.174997,-1.650998 h -0.846666 c -2.201332,0 -3.682998,1.989665 -4.444997,6.011328 z m 47.836625,11.556992 c -1.524,0.211666 -2.70934,0.338666 -3.556,0.338666 -1.27,0.04233 -2.032,-0.04233 -2.286,-0.211666 -0.46567,-0.296333 -0.71967,-0.804333 -0.71967,-1.566333 0,-0.550332 0.127,-0.973665 0.381,-1.269999 0.508,-0.423333 1.43934,-0.634999 2.75167,-0.592666 1.35466,0.04233 2.159,-0.04233 2.45533,-0.254 0.46567,-0.296333 0.71967,-0.931332 0.71967,-1.904998 0,-1.439332 -0.42334,-2.158999 -1.27,-2.201332 -1.73567,-0.08467 -2.75167,-0.169333 -3.09033,-0.211666 -1.31234,-0.254 -1.94734,-0.846666 -1.94734,-1.735666 0,-0.804332 0.21167,-1.312332 0.67734,-1.566332 0.33866,-0.211666 1.10066,-0.296333 2.32833,-0.254 0.381,0 0.97366,0.08467 1.778,0.211667 0.80433,0.127 1.43933,0.211666 1.86266,0.211666 0.55034,0 0.97367,-0.380999 1.27,-1.100666 0.21167,-0.550332 0.33867,-1.185332 0.33867,-1.820331 0,-0.973666 -0.33867,-1.693333 -1.05833,-2.158999 -0.42334,-0.296333 -1.22767,-0.550333 -2.37067,-0.761999 -2.45533,-0.465667 -5.29166,-0.719666 -8.50899,-0.719666 -5.461,0 -8.509,0.677332 -9.22866,2.031998 -0.46567,0.888999 -0.71967,4.275664 -0.71967,10.159992 v 2.963332 c 0,4.021663 0.33867,6.476995 1.016,7.323661 0.84667,1.058332 3.97933,1.566332 9.39799,1.566332 3.302,0 5.969,-0.211667 8.04333,-0.592666 2.286,-0.423333 3.429,-1.396999 3.429,-2.920998 0,-2.158999 -0.55034,-3.132664 -1.69333,-2.963331 z m 29.0406,0.550333 c 1.05834,-5.164663 1.69334,-9.86366 1.82034,-14.139323 0.0423,-1.269999 -0.0847,-2.158998 -0.33867,-2.666998 -0.381,-0.677333 -1.143,-1.015999 -2.32833,-1.058333 -1.143,-0.04233 -1.94733,0.127 -2.45533,0.423333 -0.635,0.381 -0.97367,1.058333 -1.10067,2.116665 -0.0847,1.016 -0.127,1.777999 -0.16933,2.285999 -0.21167,2.285998 -0.42334,3.428997 -0.67734,3.47133 -0.0847,0 -0.16933,-0.08467 -0.25399,-0.211666 l -2.159,-2.793998 c -0.55034,-0.719666 -1.05834,-1.058332 -1.60867,-1.058332 -0.55033,0 -1.143,0.380999 -1.73566,1.100665 -1.651,2.074332 -2.49767,3.132665 -2.54,3.132665 -0.21167,0 -0.381,-0.550333 -0.46567,-1.608666 -0.29633,-3.682997 -0.889,-5.884329 -1.82033,-6.519328 -0.80433,-0.550333 -1.82033,-0.762 -3.048,-0.719666 l -2.32833,0.127 c -2.96333,0.169333 -4.36033,1.227665 -4.14866,3.174997 0.381,4.021664 1.143,8.97466 2.28599,14.943656 0.762,4.021663 2.32834,6.011328 4.65667,6.011328 h 0.93133 c 1.60867,0 2.96333,-0.634999 4.02166,-1.947331 1.56634,-1.904999 2.413,-2.836332 2.58234,-2.878665 0.16933,0 0.381,0.127 0.59266,0.423333 l 2.159,2.793998 c 0.80433,1.058333 1.905,1.608665 3.21733,1.608665 h 0.46567 c 2.11666,0 3.59833,-1.989665 4.44499,-6.011328 z m 13.58899,-18.33032 c -1.143,0.04233 -2.159,0.550333 -3.09033,1.481666 -0.635,0.634999 -1.43934,1.862665 -2.413,3.682997 -1.43933,2.666998 -2.83633,5.841995 -4.23333,9.482659 -1.43934,3.725331 -2.159,6.307662 -2.11667,7.746995 0.0423,1.227665 1.31233,1.735665 3.85233,1.608665 0.84667,-0.04233 1.43933,-0.254 1.73567,-0.634999 0.254,-0.211667 0.508,-0.762 0.71966,-1.566333 0.29634,-1.100665 0.762,-1.650998 1.43934,-1.693332 0.93133,-0.04233 1.56633,-0.04233 1.94733,0 h 2.45533 c 0.635,0 1.016,0.254 1.22767,0.804333 l 0.59266,1.693332 c 0.381,1.142999 2.413,1.693332 6.01133,1.650999 1.82033,-0.04233 3.175,-0.169333 4.064,-0.465666 1.524,-0.508 1.86266,-0.973666 1.69333,-2.497665 -0.29633,-2.836331 -1.86267,-7.111995 -4.699,-12.826991 -1.905,-3.809997 -3.25966,-6.138328 -4.14866,-6.984994 -1.10067,-1.058333 -2.413,-1.566333 -3.937,-1.523999 z m -2.286,12.107324 c 0.254,0 0.80433,1.142999 1.651,3.428998 0.127,0.296333 -0.127,0.550333 -0.71967,0.677333 -0.33867,0.08467 -0.635,0.126999 -0.889,0.126999 -0.71966,0 -1.18533,-0.08467 -1.48166,-0.296333 -0.21167,-0.127 -0.254,-0.253999 -0.21167,-0.423333 0.71967,-2.328331 1.27,-3.513664 1.651,-3.513664 z m 30.43766,5.799663 c 0,-0.550333 0.0423,-0.846666 0.127,-0.846666 0.254,0 0.71967,0.846666 1.43934,2.539998 0.63499,1.481665 0.97366,2.328331 1.05833,2.539998 0.55033,1.481665 1.86266,2.201331 3.93699,2.116665 1.60867,-0.08467 2.667,-0.169333 3.13267,-0.211667 1.56633,-0.169333 2.32833,-0.931332 2.32833,-2.328331 0,-0.338667 -0.0423,-0.719666 -0.127,-1.100666 -0.508,-2.285998 -1.73566,-4.48733 -3.64066,-6.646328 1.22766,-0.635 2.07433,-1.396999 2.53999,-2.370665 0.46567,-0.889 0.67734,-2.031999 0.67734,-3.513664 0,-5.24933 -3.85233,-7.873994 -11.51466,-7.873994 h -3.34433 c -1.905,0 -3.937,0.211666 -6.096,0.592666 -1.10066,0.211666 -1.86266,0.677333 -2.24366,1.439332 -0.46567,0.888999 -0.71967,4.275664 -0.71967,10.159992 0,6.095996 0.33867,9.567327 1.016,10.371659 0.508,0.635 1.27,1.058333 2.32833,1.269999 0.46567,0.127 1.397,0.169334 2.70933,0.211667 0.762,0.04233 1.27,0.04233 1.56634,0 2.37066,-0.211667 3.85233,-0.846666 4.40266,-1.904999 0.29633,-0.550333 0.42333,-1.481665 0.42333,-2.793998 z m 5.67267,-9.86366 c 0,1.227666 -0.84667,1.904999 -2.58234,2.031999 -1.82033,0.127 -2.75166,-0.550333 -2.83633,-2.031999 -0.0423,-0.888999 0.29634,-1.439332 1.016,-1.735665 0.46567,-0.211667 1.18533,-0.254 2.159,-0.211667 l 0.635,0.04233 c 1.05833,0.08467 1.60867,0.719666 1.60867,1.904998 z m 26.75465,0 c 0,1.227666 -0.84667,1.904999 -2.58233,2.031999 -1.905,0.127 -2.83633,-0.550333 -2.83633,-2.031999 -0.0847,-0.888999 0.254,-1.439332 0.97366,-1.735665 0.508,-0.211667 1.22767,-0.296333 2.20133,-0.211667 l 0.55034,0.04233 c 1.143,0.08467 1.69333,0.719666 1.69333,1.904998 z m -5.41866,9.313327 c 0,-0.635 0.16933,-1.100666 0.46566,-1.439333 0.127,-0.169333 0.46567,-0.296333 0.97367,-0.423333 0.16933,-0.04233 0.508,-0.08467 1.05833,-0.169333 l 1.56633,-0.211666 c 2.413,-0.338667 4.14867,-1.016 5.24933,-1.989665 1.22767,-1.100666 1.86267,-2.793998 1.86267,-5.037663 0,-5.24933 -3.85233,-7.873994 -11.55699,-7.873994 h -3.302 c -5.207,0 -8.17033,0.677332 -8.88999,2.031998 -0.46567,0.888999 -0.71967,4.275664 -0.71967,10.159992 0,6.095996 0.33867,9.567327 1.016,10.371659 0.508,0.635 1.27,1.058333 2.32833,1.269999 1.18533,0.127 2.07433,0.211667 2.70933,0.211667 1.22767,0.04233 2.032,0.04233 2.413,0 2.37066,-0.169333 3.85233,-0.804333 4.40266,-1.904999 0.29634,-0.550333 0.42334,-1.481665 0.42334,-2.793998 z"
       id="text1"
       aria-label="Timewarp" />
  </g>
</svg>
