<?xml version="1.0" encoding="UTF-8" standalone="no"?>
<!-- Created with Inkscape (http://www.inkscape.org/) -->

<svg
   width="270.93332mm"
   height="270.93332mm"
   viewBox="0 0 270.93332 270.93332"
   version="1.1"
   id="svg1"
   inkscape:version="1.3.2 (091e20ef0f, 2023-11-25, custom)"
   sodipodi:docname="ToggleFlip.svg"
   xmlns:inkscape="http://www.inkscape.org/namespaces/inkscape"
   xmlns:sodipodi="http://sodipodi.sourceforge.net/DTD/sodipodi-0.dtd"
   xmlns="http://www.w3.org/2000/svg"
   xmlns:svg="http://www.w3.org/2000/svg">
  <sodipodi:namedview
     id="namedview1"
     pagecolor="#4d4d4d"
     bordercolor="#eeeeee"
     borderopacity="1"
     inkscape:showpageshadow="0"
     inkscape:pageopacity="0"
     inkscape:pagecheckerboard="false"
     inkscape:deskcolor="#181825"
     inkscape:document-units="px"
     inkscape:zoom="0.38671878"
     inkscape:cx="354.26259"
     inkscape:cy="305.13129"
     inkscape:window-width="944"
     inkscape:window-height="1019"
     inkscape:window-x="962"
     inkscape:window-y="47"
     inkscape:window-maximized="1"
     inkscape:current-layer="g4" />
  <defs
     id="defs1">
    <inkscape:path-effect
       effect="offset"
       id="path-effect2"
       is_visible="true"
       lpeversion="1.2"
       linejoin_type="miter"
       unit="px"
       offset="-25"
       miter_limit="4"
       attempt_force_join="false"
       update_on_knot_move="true" />
  </defs>
  <g
     inkscape:label="Calque 1"
     inkscape:groupmode="layer"
     id="layer1">
    <g
       id="g2"
       inkscape:label="template"
       style="display:none">
      <rect
         style="fill:#ff0000;stroke-width:3.96875;stroke-linecap:round;stroke-linejoin:round;paint-order:stroke fill markers"
         id="rect1"
         width="135.46666"
         height="135.46666"
         x="67.73333"
         y="67.73333" />
      <rect
         style="fill:#00ff00;stroke-width:2.80129;stroke-linecap:round;stroke-linejoin:round;paint-order:stroke fill markers"
         id="rect2"
         width="95.617188"
         height="95.61721"
         x="87.658058"
         y="107.58277" />
      <rect
         style="fill:#00ffff;stroke-width:1.02092;stroke-linecap:round;stroke-linejoin:round;paint-order:stroke fill markers"
         id="rect4"
         width="95.617188"
         height="12.7"
         x="87.658058"
         y="94.882774" />
      <rect
         style="fill:#00ffff;stroke-width:0.589428;stroke-linecap:round;stroke-linejoin:round;paint-order:stroke fill markers"
         id="rect5"
         width="95.617188"
         height="4.2333336"
         x="87.658058"
         y="63.5" />
    </g>
    <g
       id="g4"
       transform="matrix(1.4116711,0,0,1.4116711,-55.767719,-35.842996)"
       style="display:inline">
      <circle
         style="display:inline;fill:#000000;stroke:none;stroke-width:3.96875;stroke-linecap:round;stroke-linejoin:round;paint-order:stroke fill markers"
         id="path2"
         cx="135.46666"
         cy="135.46666"
         r="33.866669" />
      <path
         style="display:inline;fill:#2a2aff;fill-opacity:1;stroke:none;stroke-width:3.96875;stroke-linecap:round;stroke-linejoin:round;paint-order:stroke fill markers"
         id="circle2"
         inkscape:path-effect="#path-effect2"
         sodipodi:type="arc"
         sodipodi:cx="135.46666"
         sodipodi:cy="135.46666"
         sodipodi:rx="33.866669"
         sodipodi:ry="33.866669"
         d="m 135.4668,106.28516 c 16.09245,0 29.18164,13.08918 29.18164,29.18164 0,16.09245 -13.08919,29.18164 -29.18164,29.18164 -16.09246,0 -29.18164,-13.08919 -29.18164,-29.18164 0,-16.09246 13.08918,-29.18164 29.18164,-29.18164 z" />
    </g>
    <path
       style="font-size:42.3333px;line-height:1;font-family:Pusab;-inkscape-font-specification:Pusab;text-align:center;letter-spacing:0px;text-orientation:upright;text-anchor:middle;fill:#ffffff;stroke-width:3.96875;stroke-linecap:round;stroke-linejoin:round;paint-order:stroke fill markers"
       d="m 66.548067,76.256122 c -0.254,7.535327 -0.338667,12.234324 -0.211667,14.139322 0.127,1.650999 0.338666,2.624665 0.719666,3.005665 1.142999,1.058332 3.047998,1.650999 5.799662,1.735665 0.508,0.04233 0.931333,0.04233 1.227666,0 2.074332,-0.127 3.471331,-0.423333 4.190997,-0.931332 0.973666,-0.677333 1.439332,-1.989666 1.481666,-3.936998 l 0.127,-13.165656 c 0,-1.439333 0.677332,-2.158999 2.031998,-2.116665 0.381,0 1.523999,0.08467 1.989665,0.08467 0.888999,0 1.566332,-0.08467 1.989665,-0.296333 0.973666,-0.465666 1.481666,-1.777999 1.481666,-3.894664 0,-1.142999 -0.465666,-1.862665 -1.396999,-2.243665 -1.566332,-0.592666 -4.063997,-0.931332 -7.535328,-0.973666 -4.698996,-0.08467 -9.355659,0.04233 -13.927656,0.381 -2.793998,0.211667 -4.190997,1.269999 -4.190997,3.259664 0,2.539998 0.846666,3.767664 2.497665,3.640664 l 2.116665,-0.127 c 1.058333,-0.04233 1.650999,0.423333 1.608666,1.439333 z m 44.957983,6.815661 c 0,-1.439332 -0.254,-3.005664 -0.71967,-4.656663 -2.07433,-5.206996 -6.13833,-7.789327 -12.234322,-7.789327 -7.831661,0 -12.530658,4.614329 -12.530658,12.44599 0,7.789328 4.74133,12.403658 12.530658,12.403658 3.936992,0 7.069662,-1.100666 9.397992,-3.301998 2.37067,-2.201332 3.556,-5.249329 3.556,-9.10166 z m -12.02266,5.503329 c -0.550333,0.127 -1.015999,0 -1.481665,-0.465666 -1.227666,-1.227666 -1.862666,-3.132664 -1.862666,-5.714996 0,-0.380999 0,-0.804332 0.04233,-1.269999 0.169333,-2.539998 0.931332,-3.767663 2.243665,-3.682997 1.227665,0.08467 2.116662,1.100666 2.582332,3.047998 0.29633,1.312332 0.42333,2.751664 0.33867,4.317997 -0.127,2.243665 -0.762,3.47133 -1.86267,3.767663 z m 36.40665,-4.275663 c -1.43933,-0.04233 -2.37067,0 -2.75167,0.127 -0.80433,0.211666 -1.27,0.888999 -1.31233,1.989665 -0.0847,1.481666 -0.762,2.285998 -2.032,2.412998 -2.159,0.211667 -3.25966,-1.735665 -3.25966,-5.841995 0,-0.296333 0.0423,-0.846666 0.127,-1.608666 0.29633,-2.539998 1.016,-3.894664 2.20133,-4.063997 1.56633,-0.211666 2.62466,0.762 3.175,2.920998 0.254,0.973666 0.889,1.439332 1.94733,1.312332 1.31233,-0.127 2.159,-0.296333 2.62466,-0.465666 0.889,-0.338666 1.31234,-0.931333 1.31234,-1.777999 0,-0.296333 -0.0423,-0.592666 -0.16934,-0.973666 -1.60866,-5.164662 -5.63033,-7.746994 -12.02265,-7.746994 -3.85233,0 -6.94267,1.100666 -9.18633,3.301998 -2.24367,2.201331 -3.34433,5.249329 -3.34433,9.10166 0,3.72533 1.05833,6.730995 3.21733,9.016993 2.159,2.285998 5.08,3.428997 8.76299,3.428997 3.25967,0 5.588,-0.846666 7.02733,-2.497665 l 0.16933,0.677333 c 0.127,1.058333 1.18534,1.566332 3.09033,1.566332 1.56634,0 2.37067,-0.634999 2.49767,-1.904998 v -1.354666 c 0.0423,-0.211666 0.0423,-0.465666 0.0423,-0.719666 v -1.566332 c -0.0423,-1.904999 -0.0423,-2.920998 -0.0423,-3.047998 -0.0423,-1.481665 -0.762,-2.243665 -2.07433,-2.285998 z m 26.50062,0 c -1.43933,-0.04233 -2.37067,0 -2.75166,0.127 -0.80434,0.211666 -1.27,0.888999 -1.31234,1.989665 -0.0847,1.481666 -0.762,2.285998 -2.032,2.412998 -2.15899,0.211667 -3.25966,-1.735665 -3.25966,-5.841995 0,-0.296333 0.0423,-0.846666 0.127,-1.608666 0.29633,-2.539998 1.016,-3.894664 2.20133,-4.063997 1.56633,-0.211666 2.62467,0.762 3.175,2.920998 0.254,0.973666 0.889,1.439332 1.94733,1.312332 1.31233,-0.127 2.159,-0.296333 2.62467,-0.465666 0.889,-0.338666 1.31233,-0.931333 1.31233,-1.777999 0,-0.296333 -0.0423,-0.592666 -0.16933,-0.973666 -1.60867,-5.164662 -5.63033,-7.746994 -12.02266,-7.746994 -3.85233,0 -6.94266,1.100666 -9.18633,3.301998 -2.24366,2.201331 -3.34433,5.249329 -3.34433,9.10166 0,3.72533 1.05833,6.730995 3.21733,9.016993 2.159,2.285998 5.08,3.428997 8.76299,3.428997 3.25967,0 5.588,-0.846666 7.02733,-2.497665 l 0.16934,0.677333 c 0.127,1.058333 1.18533,1.566332 3.09033,1.566332 1.56633,0 2.37066,-0.634999 2.49766,-1.904998 v -1.354666 c 0.0423,-0.211666 0.0423,-0.465666 0.0423,-0.719666 v -1.566332 c -0.0423,-1.904999 -0.0423,-2.920998 -0.0423,-3.047998 -0.0423,-1.481665 -0.762,-2.243665 -2.07433,-2.285998 z m 23.02929,4.36033 c -0.33866,0 -0.93133,0.04233 -1.82033,0.08467 -0.889,0.04233 -1.43933,0.08467 -1.73566,0.08467 -1.22767,0.04233 -1.98967,-0.127 -2.286,-0.507999 -0.16933,-1.354666 -0.254,-2.201332 -0.254,-2.582332 v -1.354665 c 0,-2.201332 0,-4.36033 0.0423,-6.434662 v -2.666998 c -0.0423,-2.793998 -1.016,-4.190997 -3.00566,-4.190997 -3.97933,0 -6.39233,0.169333 -7.28133,0.550333 -1.05833,0.465666 -1.82033,1.396999 -2.286,2.878664 -0.381,1.269999 -0.55033,2.709332 -0.508,4.317997 0.0847,3.090331 0.127,4.402663 0.127,4.021664 0,6.476995 0.33867,10.032992 1.05833,10.752658 0.889,0.762 2.286,1.227666 4.14867,1.396999 0.55033,0.04233 2.032,0.08467 4.48733,0.08467 2.96333,0 5.50333,-0.254 7.57766,-0.762 1.143,-0.296333 1.86266,-0.550332 2.24366,-0.761999 0.71967,-0.465666 1.10067,-1.142999 1.10067,-1.989665 0,-1.947332 -0.55033,-2.920998 -1.60867,-2.920998 z m 23.49497,-0.04233 c -1.524,0.211666 -2.70933,0.338666 -3.556,0.338666 -1.26999,0.04233 -2.03199,-0.04233 -2.28599,-0.211666 -0.46567,-0.296333 -0.71967,-0.804333 -0.71967,-1.566333 0,-0.550332 0.127,-0.973665 0.381,-1.269999 0.508,-0.423333 1.43933,-0.634999 2.75166,-0.592666 1.35467,0.04233 2.159,-0.04233 2.45534,-0.254 0.46566,-0.296333 0.71966,-0.931332 0.71966,-1.904998 0,-1.439332 -0.42333,-2.158999 -1.27,-2.201332 -1.73566,-0.08467 -2.75166,-0.169333 -3.09033,-0.211666 -1.31233,-0.254 -1.94733,-0.846666 -1.94733,-1.735666 0,-0.804332 0.21167,-1.312332 0.67733,-1.566332 0.33867,-0.211666 1.10067,-0.296333 2.32833,-0.254 0.381,0 0.97367,0.08467 1.778,0.211667 0.80434,0.127 1.43934,0.211666 1.86267,0.211666 0.55033,0 0.97366,-0.380999 1.27,-1.100666 0.21166,-0.550332 0.33866,-1.185332 0.33866,-1.820331 0,-0.973666 -0.33866,-1.693333 -1.05833,-2.158999 -0.42333,-0.296333 -1.22766,-0.550333 -2.37066,-0.761999 -2.45533,-0.465667 -5.29167,-0.719666 -8.509,-0.719666 -5.46099,0 -8.50899,0.677332 -9.22866,2.031998 -0.46566,0.888999 -0.71966,4.275664 -0.71966,10.159992 v 2.963332 c 0,4.021663 0.33866,6.476995 1.016,7.323661 0.84666,1.058332 3.97933,1.566332 9.39799,1.566332 3.302,0 5.96899,-0.211667 8.04333,-0.592666 2.28599,-0.423333 3.42899,-1.396999 3.42899,-2.920998 0,-2.158999 -0.55033,-3.132664 -1.69333,-2.963331 z"
       id="text1"
       aria-label="Toggle" />
  </g>
</svg>
