<?xml version="1.0" encoding="UTF-8" standalone="no"?>
<!-- Created with Inkscape (http://www.inkscape.org/) -->

<svg
   width="65"
   height="65"
   viewBox="0 0 17.197917 17.197917"
   version="1.1"
   id="svg135"
   inkscape:version="1.3 (0e150ed6c4, 2023-07-21)"
   sodipodi:docname="EditorBlockPaletteTab.svg"
   xmlns:inkscape="http://www.inkscape.org/namespaces/inkscape"
   xmlns:sodipodi="http://sodipodi.sourceforge.net/DTD/sodipodi-0.dtd"
   xmlns="http://www.w3.org/2000/svg"
   xmlns:svg="http://www.w3.org/2000/svg">
  <sodipodi:namedview
     id="namedview137"
     pagecolor="#2d2d2d"
     bordercolor="#000000"
     borderopacity="0.25098039"
     inkscape:showpageshadow="true"
     inkscape:pageopacity="0"
     inkscape:pagecheckerboard="false"
     inkscape:deskcolor="#1e1e2e"
     inkscape:document-units="px"
     showgrid="false"
     inkscape:zoom="6.394497"
     inkscape:cx="56.923946"
     inkscape:cy="48.010031"
     inkscape:window-width="1894"
     inkscape:window-height="1011"
     inkscape:window-x="0"
     inkscape:window-y="0"
     inkscape:window-maximized="1"
     inkscape:current-layer="g1" />
  <defs
     id="defs132">
    <inkscape:path-effect
       effect="fillet_chamfer"
       id="path-effect13"
       is_visible="true"
       lpeversion="1"
       nodesatellites_param="F,0,0,1,0,1.25,0,1 @ F,0,0,1,0,1.25,0,1 @ F,0,0,1,0,1.25,0,1 @ F,0,0,1,0,1.25,0,1"
       radius="1.25"
       unit="px"
       method="auto"
       mode="F"
       chamfer_steps="1"
       flexible="false"
       use_knot_distance="true"
       apply_no_radius="true"
       apply_with_radius="true"
       only_selected="false"
       hide_knots="false" />
    <inkscape:path-effect
       effect="fillet_chamfer"
       id="path-effect9"
       is_visible="true"
       lpeversion="1"
       nodesatellites_param="F,0,0,1,0,1.25,0,1 @ F,0,0,1,0,1.25,0,1 @ F,0,0,1,0,1.25,0,1 @ F,0,0,1,0,1.25,0,1"
       radius="1.25"
       unit="px"
       method="auto"
       mode="F"
       chamfer_steps="1"
       flexible="false"
       use_knot_distance="true"
       apply_no_radius="true"
       apply_with_radius="true"
       only_selected="false"
       hide_knots="false" />
    <inkscape:path-effect
       effect="fillet_chamfer"
       id="path-effect7"
       is_visible="true"
       lpeversion="1"
       nodesatellites_param="F,0,0,1,0,1.25,0,1 @ F,0,0,1,0,1.25,0,1 @ F,0,0,1,0,1.25,0,1 @ F,0,0,1,0,1.25,0,1"
       radius="1.25"
       unit="px"
       method="auto"
       mode="F"
       chamfer_steps="1"
       flexible="false"
       use_knot_distance="true"
       apply_no_radius="true"
       apply_with_radius="true"
       only_selected="false"
       hide_knots="false" />
    <inkscape:path-effect
       effect="fillet_chamfer"
       id="path-effect5"
       is_visible="true"
       lpeversion="1"
       nodesatellites_param="F,0,0,1,0,1.25,0,1 @ F,0,0,1,0,1.25,0,1 @ F,0,0,1,0,1.25,0,1 @ F,0,0,1,0,1.25,0,1"
       radius="1.25"
       unit="px"
       method="auto"
       mode="F"
       chamfer_steps="1"
       flexible="false"
       use_knot_distance="true"
       apply_no_radius="true"
       apply_with_radius="true"
       only_selected="false"
       hide_knots="false" />
    <inkscape:path-effect
       effect="fillet_chamfer"
       id="path-effect3"
       is_visible="true"
       lpeversion="1"
       nodesatellites_param="F,0,0,1,0,5.5,0,1 @ F,0,0,1,0,5.5,0,1 @ F,0,0,1,0,5.5,0,1 @ F,0,0,1,0,5.5,0,1"
       radius="5.5"
       unit="px"
       method="auto"
       mode="F"
       chamfer_steps="1"
       flexible="false"
       use_knot_distance="true"
       apply_no_radius="true"
       apply_with_radius="true"
       only_selected="false"
       hide_knots="false" />
    <inkscape:path-effect
       effect="fillet_chamfer"
       id="path-effect2"
       is_visible="true"
       lpeversion="1"
       nodesatellites_param="F,0,0,1,0,0,0,1 @ F,0,0,1,0,0,0,1 @ F,0,0,1,0,0,0,1 @ F,0,0,1,0,0,0,1"
       radius="0"
       unit="px"
       method="auto"
       mode="F"
       chamfer_steps="1"
       flexible="false"
       use_knot_distance="true"
       apply_no_radius="true"
       apply_with_radius="true"
       only_selected="false"
       hide_knots="false" />
    <inkscape:path-effect
       effect="fillet_chamfer"
       id="path-effect1"
       is_visible="true"
       lpeversion="1"
       nodesatellites_param="F,0,0,1,0,4.5,0,1 @ F,0,0,1,0,4.5,0,1 @ F,0,0,1,0,4.5,0,1 @ F,0,0,1,0,4.5,0,1"
       radius="4.5"
       unit="px"
       method="auto"
       mode="F"
       chamfer_steps="1"
       flexible="false"
       use_knot_distance="true"
       apply_no_radius="true"
       apply_with_radius="true"
       only_selected="false"
       hide_knots="false" />
    <inkscape:path-effect
       effect="fillet_chamfer"
       id="path-effect14"
       is_visible="true"
       lpeversion="1"
       nodesatellites_param="F,0,0,1,0,0,0,1 @ F,0,0,1,0,0,0,1 @ F,0,0,1,0,1.25,0,1 @ F,0,1,1,0,1.25,0,1"
       radius="0"
       unit="px"
       method="auto"
       mode="F"
       chamfer_steps="1"
       flexible="false"
       use_knot_distance="true"
       apply_no_radius="true"
       apply_with_radius="true"
       only_selected="false"
       hide_knots="false" />
    <inkscape:path-effect
       effect="fillet_chamfer"
       id="path-effect12"
       is_visible="true"
       lpeversion="1"
       nodesatellites_param="F,0,0,1,0,0,0,1 @ F,0,0,1,0,0,0,1 @ F,0,0,1,0,1.25,0,1 @ F,0,0,1,0,1.25,0,1"
       radius="0"
       unit="px"
       method="auto"
       mode="F"
       chamfer_steps="1"
       flexible="false"
       use_knot_distance="true"
       apply_no_radius="true"
       apply_with_radius="true"
       only_selected="false"
       hide_knots="false" />
    <inkscape:path-effect
       effect="fillet_chamfer"
       id="path-effect11"
       is_visible="true"
       lpeversion="1"
       nodesatellites_param="F,0,0,1,0,1.25,0,1 @ F,0,0,1,0,1.25,0,1 @ F,0,0,1,0,1.25,0,1 @ F,0,0,1,0,1.25,0,1"
       radius="1.25"
       unit="px"
       method="auto"
       mode="F"
       chamfer_steps="1"
       flexible="false"
       use_knot_distance="true"
       apply_no_radius="true"
       apply_with_radius="true"
       only_selected="false"
       hide_knots="false" />
  </defs>
  <g
     inkscape:label="Calque 1"
     inkscape:groupmode="layer"
     id="layer1">
    <g
       id="g1"
       transform="translate(-3.2640254e-8,8.5989581)">
      <path
         id="rect1"
         style="fill:#ffffff;stroke-width:19.8585;stroke-linecap:round;stroke-linejoin:round;paint-order:markers stroke fill"
         d="m 5.5,0 h 23.395836 a 5.5,5.5 45 0 1 5.5,5.5 v 23.395836 a 5.5,5.5 135 0 1 -5.5,5.5 H 5.5 a 5.5,5.5 45 0 1 -5.5,-5.5 V 5.5 A 5.5,5.5 135 0 1 5.5,0 Z"
         inkscape:path-effect="#path-effect3"
         inkscape:original-d="M 0,0 H 34.395836 V 34.395836 H 0 Z"
         transform="scale(0.49999997)" />
      <path
         id="rect2"
         style="stroke-width:18.5931;stroke-linecap:round;stroke-linejoin:round;paint-order:markers stroke fill"
         d="M 5.5958854,1.0958842 H 28.799949 a 4.5,4.5 45 0 1 4.5,4.5 V 28.799948 a 4.5,4.5 135 0 1 -4.5,4.5 H 5.5958854 a 4.5,4.5 45 0 1 -4.5,-4.5 V 5.5958842 a 4.5,4.5 135 0 1 4.5,-4.5 z"
         inkscape:path-effect="#path-effect1"
         inkscape:original-d="M 1.0958854,1.0958842 H 33.299949 V 33.299948 H 1.0958854 Z"
         transform="scale(0.49999997)" />
      <path
         id="path5"
         style="fill:#b2b2b2;fill-opacity:1;stroke-width:11.4313;stroke-linecap:round;stroke-linejoin:round;paint-order:markers stroke fill"
         d="m 2.572916,1.322917 h 8.083333 a 1.25,1.25 45 0 1 1.25,1.25 v 8.083333 a 1.25,1.25 135 0 1 -1.25,1.25 H 2.572916 a 1.25,1.25 45 0 1 -1.25,-1.25 l 0,-8.083333 a 1.25,1.25 135 0 1 1.25,-1.25 z"
         inkscape:path-effect="#path-effect7"
         inkscape:original-d="M 1.322916,1.322917 H 11.906249 V 11.90625 H 1.322916 Z"
         sodipodi:nodetypes="ccccc"
         transform="matrix(1.3989782,0,0,1.3989782,-0.65470035,-0.65470049)" />
      <path
         d="M 2.9445232,1.1957931 A 1.7487227,1.7487227 0 0 0 2.4045045,1.2815759 1.7487227,1.7487227 0 0 0 1.9166789,1.5301396 1.7487227,1.7487227 0 0 0 1.5301392,1.9166793 1.7487227,1.7487227 0 0 0 1.2815756,2.4045048 1.7487227,1.7487227 0 0 0 1.1957927,2.9445236 V 14.253394 a 1.7487228,1.7487228 0 0 0 0.085783,0.540019 1.7487228,1.7487228 0 0 0 0.2485636,0.487825 1.7487228,1.7487228 0 0 0 0.3865397,0.38654 1.7487228,1.7487228 0 0 0 0.094568,0.04806 A 1.7487228,1.7487228 0 0 1 1.8107423,15.32258 1.7487228,1.7487228 0 0 1 1.7249594,14.782561 V 3.4736902 A 1.7487227,1.7487227 0 0 1 1.8107423,2.9336715 1.7487227,1.7487227 0 0 1 2.0593059,2.445846 1.7487227,1.7487227 0 0 1 2.4458456,2.0593063 1.7487227,1.7487227 0 0 1 2.9336712,1.8107426 1.7487227,1.7487227 0 0 1 3.4736899,1.7249597 H 14.782561 a 1.7487228,1.7487228 0 0 1 0.182417,0.00982 1.7487228,1.7487228 0 0 1 0.180868,0.028422 1.7487228,1.7487228 0 0 1 0.176733,0.047542 1.7487228,1.7487228 0 0 1 0.171049,0.065629 1.7487228,1.7487228 0 0 1 0.163298,0.083199 1.7487228,1.7487228 0 0 1 0.06718,0.043408 1.7487228,1.7487228 0 0 0 -0.05633,-0.0863 A 1.7487228,1.7487228 0 0 0 15.552539,1.7745691 1.7487228,1.7487228 0 0 0 15.423348,1.645378 1.7487228,1.7487228 0 0 0 15.281238,1.5301396 1.7487228,1.7487228 0 0 0 15.127759,1.4304041 1.7487228,1.7487228 0 0 0 14.964462,1.347205 1.7487228,1.7487228 0 0 0 14.793413,1.2815759 1.7487228,1.7487228 0 0 0 14.616679,1.2340336 1.7487228,1.7487228 0 0 0 14.435812,1.2056116 1.7487228,1.7487228 0 0 0 14.253394,1.1957931 Z"
         style="fill:#ececec;stroke-width:11.4313;stroke-linecap:round;stroke-linejoin:round;paint-order:markers stroke fill"
         id="path13" />
      <path
         d="m 15.194938,1.4738123 a 1.7487228,1.7487228 0 0 1 0.04341,0.067179 1.7487228,1.7487228 0 0 1 0.0832,0.1632976 1.7487228,1.7487228 0 0 1 0.06563,0.171049 1.7487228,1.7487228 0 0 1 0.04754,0.1767334 1.7487228,1.7487228 0 0 1 0.02842,0.1808675 1.7487228,1.7487228 0 0 1 0.0098,0.1824178 V 13.724228 a 1.7487228,1.7487228 0 0 1 -0.08578,0.540018 1.7487228,1.7487228 0 0 1 -0.248564,0.487826 1.7487228,1.7487228 0 0 1 -0.38654,0.38654 1.7487228,1.7487228 0 0 1 -0.487825,0.248563 1.7487228,1.7487228 0 0 1 -0.540019,0.08578 H 2.4153565 a 1.7487228,1.7487228 0 0 1 -0.5400187,-0.08578 1.7487228,1.7487228 0 0 1 -0.3932577,-0.200504 1.7487228,1.7487228 0 0 0 0.048059,0.09457 1.7487228,1.7487228 0 0 0 0.3865397,0.38654 1.7487228,1.7487228 0 0 0 0.4878256,0.248564 1.7487228,1.7487228 0 0 0 0.5400187,0.08578 H 14.253394 a 1.7487228,1.7487228 0 0 0 0.540019,-0.08578 1.7487228,1.7487228 0 0 0 0.487825,-0.248564 1.7487228,1.7487228 0 0 0 0.38654,-0.38654 1.7487228,1.7487228 0 0 0 0.248563,-0.487825 1.7487228,1.7487228 0 0 0 0.08578,-0.540019 V 2.9445236 a 1.7487228,1.7487228 0 0 0 -0.0098,-0.1824178 1.7487228,1.7487228 0 0 0 -0.02842,-0.1808676 1.7487228,1.7487228 0 0 0 -0.04754,-0.1767334 1.7487228,1.7487228 0 0 0 -0.06563,-0.171049 1.7487228,1.7487228 0 0 0 -0.0832,-0.1632975 1.7487228,1.7487228 0 0 0 -0.09973,-0.153479 1.7487228,1.7487228 0 0 0 -0.115239,-0.1421102 1.7487228,1.7487228 0 0 0 -0.129191,-0.1291911 1.7487228,1.7487228 0 0 0 -0.14211,-0.1152384 1.7487228,1.7487228 0 0 0 -0.0863,-0.056327 z"
         style="fill:#4d4d4d;stroke-width:11.4313;stroke-linecap:round;stroke-linejoin:round;paint-order:markers stroke fill"
         id="path7" />
    </g>
  </g>
</svg>
