<?xml version="1.0" encoding="UTF-8" standalone="no"?>
<!-- Created with Inkscape (http://www.inkscape.org/) -->

<svg
   width="150"
   height="50"
   viewBox="0 0 39.6875 13.229167"
   version="1.1"
   id="svg135"
   inkscape:version="1.3 (0e150ed6c4, 2023-07-21)"
   sodipodi:docname="EditorEditButton.svg"
   xmlns:inkscape="http://www.inkscape.org/namespaces/inkscape"
   xmlns:sodipodi="http://sodipodi.sourceforge.net/DTD/sodipodi-0.dtd"
   xmlns:xlink="http://www.w3.org/1999/xlink"
   xmlns="http://www.w3.org/2000/svg"
   xmlns:svg="http://www.w3.org/2000/svg">
  <sodipodi:namedview
     id="namedview137"
     pagecolor="#ffffff"
     bordercolor="#000000"
     borderopacity="0.25098039"
     inkscape:showpageshadow="true"
     inkscape:pageopacity="0"
     inkscape:pagecheckerboard="true"
     inkscape:deskcolor="#1e1e2e"
     inkscape:document-units="px"
     showgrid="false"
     inkscape:zoom="5.36"
     inkscape:cx="74.906716"
     inkscape:cy="25"
     inkscape:window-width="1894"
     inkscape:window-height="497"
     inkscape:window-x="0"
     inkscape:window-y="0"
     inkscape:window-maximized="1"
     inkscape:current-layer="layer1" />
  <defs
     id="defs132">
    <inkscape:path-effect
       effect="fillet_chamfer"
       id="path-effect14"
       is_visible="true"
       lpeversion="1"
       nodesatellites_param="F,0,0,1,0,0,0,1 @ F,0,0,1,0,0,0,1 @ F,0,0,1,0,2.282143,0,1 @ F,0,1,1,0,2.282143,0,1"
       radius="0"
       unit="px"
       method="auto"
       mode="F"
       chamfer_steps="1"
       flexible="false"
       use_knot_distance="true"
       apply_no_radius="true"
       apply_with_radius="true"
       only_selected="false"
       hide_knots="false" />
    <inkscape:path-effect
       effect="fillet_chamfer"
       id="path-effect12"
       is_visible="true"
       lpeversion="1"
       nodesatellites_param="F,0,0,1,0,0,0,1 @ F,0,0,1,0,0,0,1 @ F,0,0,1,0,2.282143,0,1 @ F,0,1,1,0,2.282143,0,1"
       radius="0"
       unit="px"
       method="auto"
       mode="F"
       chamfer_steps="1"
       flexible="false"
       use_knot_distance="true"
       apply_no_radius="true"
       apply_with_radius="true"
       only_selected="false"
       hide_knots="false" />
    <inkscape:path-effect
       effect="fillet_chamfer"
       id="path-effect11"
       is_visible="true"
       lpeversion="1"
       nodesatellites_param="F,0,0,1,0,2.25,0,1 @ F,0,0,1,0,2.25,0,1 @ F,0,0,1,0,2.25,0,1 @ F,0,0,1,0,2.25,0,1"
       radius="2.25"
       unit="px"
       method="auto"
       mode="F"
       chamfer_steps="1"
       flexible="false"
       use_knot_distance="true"
       apply_no_radius="true"
       apply_with_radius="true"
       only_selected="false"
       hide_knots="false" />
    <linearGradient
       id="linearGradient9"
       inkscape:collect="always">
      <stop
         style="stop-color:#90e227;stop-opacity:1;"
         offset="0"
         id="stop8" />
      <stop
         style="stop-color:#168a16;stop-opacity:1;"
         offset="1"
         id="stop9" />
    </linearGradient>
    <linearGradient
       id="linearGradient5"
       inkscape:collect="always">
      <stop
         style="stop-color:#abe242;stop-opacity:1;"
         offset="0"
         id="stop5" />
      <stop
         style="stop-color:#23c81d;stop-opacity:1;"
         offset="1"
         id="stop6" />
    </linearGradient>
    <linearGradient
       inkscape:collect="always"
       xlink:href="#linearGradient5"
       id="linearGradient6"
       x1="1.0583324"
       y1="6.6145835"
       x2="38.629166"
       y2="6.6145835"
       gradientUnits="userSpaceOnUse"
       gradientTransform="matrix(0.98591546,0,0,0.95238095,0.27948972,0.31498042)" />
    <linearGradient
       inkscape:collect="always"
       xlink:href="#linearGradient9"
       id="linearGradient14"
       gradientUnits="userSpaceOnUse"
       gradientTransform="matrix(1,0,0,0.5,0,6.0854168)"
       x1="1.0583324"
       y1="6.6145835"
       x2="38.629166"
       y2="6.6145835" />
  </defs>
  <g
     inkscape:label="Calque 1"
     inkscape:groupmode="layer"
     id="layer1">
    <rect
       style="fill:#ffffff;stroke-width:13.2292;stroke-linecap:round;stroke-linejoin:round;paint-order:markers stroke fill;fill-opacity:1"
       id="rect1"
       width="39.6875"
       height="13.229167"
       x="0"
       y="0"
       ry="2.9271793" />
    <rect
       style="fill:#000000;fill-opacity:1;stroke-width:12.3394;stroke-linecap:round;stroke-linejoin:round;paint-order:markers stroke fill"
       id="rect2"
       width="38.364582"
       height="11.90625"
       x="0.66145897"
       y="0.66145849"
       ry="2.6344614" />
    <path
       id="rect3"
       style="fill:url(#linearGradient6);stroke-width:11.4313;stroke-linecap:round;stroke-linejoin:round;paint-order:markers stroke fill"
       d="m 3.572916,1.322917 32.541668,0 a 2.25,2.25 45 0 1 2.25,2.25 V 9.65625 a 2.25,2.25 135 0 1 -2.25,2.25 H 3.572916 a 2.25,2.25 45 0 1 -2.25,-2.25 l 0,-6.083333 a 2.25,2.25 135 0 1 2.25,-2.25 z"
       inkscape:path-effect="#path-effect11"
       inkscape:original-d="M 1.322916,1.322917 H 38.364584 V 11.90625 H 1.322916 Z" />
    <path
       id="path12"
       clip-path="none"
       style="fill:#000000;stroke-width:8.34174;stroke-linecap:round;stroke-linejoin:round;paint-order:markers stroke fill;opacity:0.5"
       transform="matrix(0.98591546,0,0,0.95238095,0.27949009,0.31497995)"
       d="M 1.0583324,6.6145835 H 38.629168 V 9.888691 a 2.282143,2.282143 135 0 1 -2.282143,2.282143 H 3.3404754 A 2.282143,2.282143 45 0 1 1.0583324,9.888691 Z"
       inkscape:path-effect="#path-effect14"
       inkscape:original-d="M 1.0583324,6.6145835 H 38.629168 V 12.170834 H 1.0583324 Z"
       inkscape:label="shadow" />
    <path
       id="rect8"
       clip-path="none"
       style="fill:url(#linearGradient14);stroke-width:8.34174;stroke-linecap:round;stroke-linejoin:round;paint-order:markers stroke fill"
       transform="matrix(0.98591546,0,0,0.95238095,0.27949009,-0.21418672)"
       d="M 1.0583324,6.6145835 H 38.629168 V 9.888691 a 2.282143,2.282143 135 0 1 -2.282143,2.282143 H 3.3404754 A 2.282143,2.282143 45 0 1 1.0583324,9.888691 Z"
       inkscape:path-effect="#path-effect12"
       inkscape:original-d="M 1.0583324,6.6145835 H 38.629168 V 12.170834 H 1.0583324 Z" />
    <path
       style="font-size:10.5833px;line-height:1.2;font-family:Pusab;-inkscape-font-specification:Pusab;text-align:center;letter-spacing:0px;text-anchor:middle;display:none;fill:#ffffff;stroke:#000000;stroke-width:0.661458;stroke-linecap:round;stroke-linejoin:round;paint-order:markers stroke fill"
       d="m 11.66815,7.9163289 c 0,-0.5079983 -0.243416,-0.9313303 -0.740831,-1.2699959 0.423332,-0.2857491 0.634998,-0.6667479 0.634998,-1.1429964 0,-0.529165 -0.148166,-0.9313303 -0.455082,-1.2170794 C 10.620404,3.8311753 9.6573234,3.608926 8.2179947,3.608926 7.7205796,3.608926 7.2125812,3.651259 6.6939995,3.7253423 6.3553339,3.7782588 6.1330847,3.8629252 6.0166684,3.9793415 5.8579189,4.1486743 5.7732525,5.0270881 5.7732525,6.6251664 c 0,1.5980782 0.084666,2.4764921 0.2434159,2.6352416 0.1164163,0.1375829 0.5079983,0.2434159 1.1641629,0.2963324 0.4868318,0.042333 0.8360807,0.0635 1.0371634,0.0635 1.132413,0 1.9367443,-0.09525 2.4129923,-0.2963324 C 11.318901,9.0381587 11.66815,8.5619102 11.66815,7.9163289 Z M 8.7259931,7.7469961 c 0,-0.2434158 0.074083,-0.4127486 0.2328326,-0.4868317 0.1164163,-0.052917 0.3069156,-0.074083 0.5714981,-0.0635 0.4550819,0.021167 0.6879142,0.1904994 0.6879142,0.497415 0,0.105833 -0.02117,0.1904994 -0.05292,0.2539992 C 10.059485,8.1491613 9.8584021,8.244411 9.5514864,8.244411 9.255154,8.244411 9.0646547,8.223244 8.9799883,8.191494 8.8106595,8.1174116 8.7259931,7.9692454 8.7259931,7.7469961 Z M 9.3927409,5.0800046 c 0.4762485,0 0.7196641,0.1587495 0.7196641,0.4762485 0,0.105833 -0.02117,0.1904994 -0.0635,0.2539992 -0.1375834,0.1587495 -0.3598327,0.2434159 -0.6667484,0.2434159 -0.3069156,0 -0.4868317,-0.03175 -0.5609148,-0.084666 -0.105833,-0.084666 -0.1587495,-0.2222493 -0.1587495,-0.4127487 0,-0.2010827 0.074083,-0.3386656 0.2222493,-0.4127487 0.09525,-0.042333 0.2645825,-0.0635 0.5079983,-0.0635 z M 18.113381,5.376337 C 18.092214,4.8154221 18.081631,4.3920902 18.071048,4.0851745 18.060465,3.820592 17.806465,3.6830091 17.298467,3.6830091 c -0.518582,0 -0.772581,0.1481662 -0.772581,0.4339153 l 0.01058,2.719908 c 0,0.5820815 -0.190499,0.8889971 -0.582081,0.9313303 h -0.169333 c -0.433915,0 -0.645581,-0.4021653 -0.656164,-1.2170794 0,-0.2751658 0.01058,-0.6455813 0.03175,-1.1006632 0.03175,-0.4974151 0.04233,-0.8678305 0.04233,-1.0900798 0.01058,-0.2751658 -0.02117,-0.4550819 -0.07408,-0.529165 -0.116417,-0.1587495 -0.518582,-0.2222493 -1.206497,-0.211666 -0.455081,0.010583 -0.761997,0.03175 -0.941913,0.042333 -0.571498,0.03175 -0.867831,0.4868318 -0.878414,1.3864122 -0.01058,0.4974151 -0.01058,0.7831642 -0.01058,0.8572473 v 0.3915821 c 0.01058,0.9948302 0.275165,1.7991609 0.77258,2.4129923 0.539749,0.6667479 1.301746,1.0054135 2.264827,1.0054135 0.550331,0 1.047746,-0.105833 1.481662,-0.317499 0.497415,-0.2434159 0.857247,-0.5820815 1.079496,-1.0371634 0.275166,-0.5397483 0.412749,-1.1535796 0.423332,-1.8309108 0.01058,-0.6032481 0.01058,-0.9948302 0,-1.1535795 z M 21.817535,4.4132568 C 21.828119,3.8946751 21.531786,3.6300926 20.939122,3.6195093 20.653372,3.608926 20.48404,3.608926 20.431123,3.608926 c -0.634998,0 -1.079496,0.1164163 -1.322912,0.3492489 -0.201083,0.2010827 -0.317499,0.529165 -0.328083,0.9948301 0.02117,0.4868318 0.03175,0.9948302 0.03175,1.5239952 V 7.884579 c 0.02117,0.8149141 0.08467,1.269996 0.1905,1.3652457 0.264582,0.2434159 0.687914,0.3598322 1.269996,0.3704155 h 0.275165 c 0.444499,-0.021167 0.751415,-0.084666 0.910164,-0.2010827 0.201083,-0.1587495 0.306916,-0.4444986 0.317499,-0.8572473 z m 5.492725,3.5983218 c -0.08467,0 -0.232833,0.010583 -0.455082,0.021167 -0.222249,0.010583 -0.359832,0.021167 -0.433915,0.021167 -0.306916,0.010583 -0.497416,-0.03175 -0.571499,-0.1269996 -0.04233,-0.3386655 -0.0635,-0.5503315 -0.0635,-0.6455812 V 6.9426654 c 0,-0.5503316 0,-1.0900799 0.01058,-1.6086616 V 4.667256 C 25.786264,3.9687582 25.542845,3.6195093 25.04543,3.6195093 c -0.994831,0 -1.598079,0.042333 -1.820328,0.1375829 -0.264582,0.1164163 -0.455082,0.3492489 -0.571498,0.7196644 -0.09525,0.3174989 -0.137583,0.6773311 -0.127,1.0794965 0.02117,0.7725809 0.03175,1.1006632 0.03175,1.0054135 0,1.6192448 0.08467,2.508242 0.264583,2.6881581 0.222249,0.1904994 0.571498,0.3069157 1.037163,0.3492489 0.137583,0.010583 0.507998,0.021167 1.12183,0.021167 0.740831,0 1.375829,-0.0635 1.89441,-0.1904994 0.285749,-0.074083 0.465666,-0.1375829 0.560915,-0.1904994 0.179916,-0.1164163 0.275166,-0.2857491 0.275166,-0.4974151 0,-0.4868318 -0.137583,-0.7302477 -0.402165,-0.7302477 z M 30.46408,3.608926 c -1.31233,0 -2.031994,0.1164163 -2.169577,0.3598322 -0.105833,0.1904994 -0.158749,1.0794965 -0.158749,2.6775748 0,1.5769116 0.05292,2.4447422 0.158749,2.6034917 0.169333,0.2434159 0.888997,0.3704155 2.14841,0.3704155 0.761998,0 1.418162,-0.1481662 1.968494,-0.4339153 1.005413,-0.529165 1.502828,-1.3864123 1.502828,-2.5823251 0,-0.5185817 -0.116416,-0.9842469 -0.349249,-1.4181622 C 32.993488,4.138091 31.956325,3.608926 30.46408,3.608926 Z m 1.005413,4.3709027 c -0.116416,-0.010583 -0.190499,-0.105833 -0.211666,-0.2857491 -0.03175,-0.2434158 -0.04233,-0.6138313 -0.04233,-1.0900798 0,-0.4339153 0.02117,-0.7937475 0.05292,-1.0794966 0.02117,-0.1799161 0.08467,-0.2751658 0.201083,-0.2857491 0.05292,-0.010583 0.127,0 0.222249,0.03175 0.518582,0.1481662 0.783164,0.5926648 0.783164,1.3334958 0,0.2222493 -0.02117,0.4127487 -0.07408,0.5714982 -0.169332,0.5609148 -0.476248,0.8254973 -0.93133,0.8043307 z"
       id="text9"
       aria-label="build" />
    <path
       style="font-size:10.5833px;line-height:1.2;font-family:Pusab;-inkscape-font-specification:Pusab;text-align:center;letter-spacing:0px;text-anchor:middle;display:inline;fill:#ffffff;stroke:#000000;stroke-width:0.661458;stroke-linecap:round;stroke-linejoin:round;paint-order:markers stroke fill"
       d="M 14.155231,8.0009953 C 13.774233,8.0539118 13.4779,8.0856617 13.266234,8.0856617 12.948735,8.096245 12.758236,8.0750784 12.694736,8.0327452 12.57832,7.9586621 12.51482,7.8316625 12.51482,7.6411632 c 0,-0.1375829 0.03175,-0.2434159 0.09525,-0.317499 0.126999,-0.105833 0.359832,-0.1587495 0.687914,-0.1481662 0.338666,0.010583 0.539748,-0.010583 0.613832,-0.0635 0.116416,-0.074083 0.179916,-0.2328326 0.179916,-0.4762485 0,-0.3598322 -0.105833,-0.5397483 -0.317499,-0.5503316 -0.433916,-0.021167 -0.687915,-0.042333 -0.772581,-0.052917 -0.328083,-0.0635 -0.486832,-0.211666 -0.486832,-0.4339153 0,-0.2010827 0.05292,-0.3280823 0.169333,-0.3915821 0.08467,-0.052917 0.275166,-0.074083 0.582081,-0.0635 0.09525,0 0.243416,0.021167 0.444499,0.052916 0.201083,0.03175 0.359832,0.052917 0.465665,0.052917 0.137583,0 0.243416,-0.09525 0.317499,-0.2751658 0.05292,-0.1375829 0.08467,-0.2963323 0.08467,-0.4550818 0,-0.2434159 -0.08467,-0.423332 -0.264582,-0.5397483 C 14.208148,3.9052584 14.007065,3.8417586 13.721316,3.7888421 13.107485,3.6724258 12.398404,3.608926 11.594073,3.608926 c -1.365246,0 -2.1272433,0.1693328 -2.3071594,0.5079984 C 9.1704973,4.3391737 9.1069975,5.1858376 9.1069975,6.6569163 v 0.740831 c 0,1.0054134 0.084666,1.6192448 0.2539992,1.8309108 0.211666,0.2645825 0.9948303,0.3915821 2.3494923,0.3915821 0.825498,0 1.492245,-0.052917 2.010827,-0.1481662 0.571498,-0.105833 0.857247,-0.3492489 0.857247,-0.7302477 0,-0.5397483 -0.137582,-0.7831642 -0.423332,-0.740831 z M 17.330213,3.608926 c -1.312329,0 -2.031994,0.1164163 -2.169577,0.3598322 -0.105833,0.1904994 -0.158749,1.0794965 -0.158749,2.6775748 0,1.5769116 0.05292,2.4447422 0.158749,2.6034917 0.169333,0.2434159 0.888998,0.3704155 2.14841,0.3704155 0.761998,0 1.418162,-0.1481662 1.968494,-0.4339153 1.005413,-0.529165 1.502828,-1.3864123 1.502828,-2.5823251 0,-0.5185817 -0.116416,-0.9842469 -0.349248,-1.4181622 C 19.859621,4.138091 18.822458,3.608926 17.330213,3.608926 Z m 1.005413,4.3709027 C 18.21921,7.9692454 18.145127,7.8739957 18.12396,7.6940796 18.09221,7.4506638 18.081627,7.0802483 18.081627,6.6039998 c 0,-0.4339153 0.02117,-0.7937475 0.05292,-1.0794966 0.02117,-0.1799161 0.08467,-0.2751658 0.201082,-0.2857491 0.05292,-0.010583 0.127,0 0.22225,0.03175 0.518581,0.1481662 0.783164,0.5926648 0.783164,1.3334958 0,0.2222493 -0.02117,0.4127487 -0.07408,0.5714982 -0.169333,0.5609148 -0.476249,0.8254973 -0.931331,0.8043307 z M 24.241113,4.4132568 C 24.251696,3.8946751 23.955364,3.6300926 23.362699,3.6195093 23.07695,3.608926 22.907617,3.608926 22.854701,3.608926 c -0.634998,0 -1.079497,0.1164163 -1.322913,0.3492489 -0.201083,0.2010827 -0.317499,0.529165 -0.328082,0.9948301 0.02117,0.4868318 0.03175,0.9948302 0.03175,1.5239952 V 7.884579 c 0.02117,0.8149141 0.08467,1.269996 0.190499,1.3652457 0.264583,0.2434159 0.687915,0.3598322 1.269996,0.3704155 h 0.275166 c 0.444498,-0.021167 0.751414,-0.084666 0.910164,-0.2010827 0.201082,-0.1587495 0.306915,-0.4444986 0.317499,-0.8572473 z m 1.799151,1.0900798 c -0.0635,1.6298282 -0.08467,2.6564082 -0.05292,3.0903235 0.02117,0.3492489 0.07408,0.5714982 0.15875,0.6561646 0.243416,0.2434159 0.666748,0.3598322 1.269996,0.3704155 h 0.264582 c 0.433916,-0.021167 0.740831,-0.084666 0.910164,-0.2010827 0.222249,-0.1481662 0.328082,-0.4339153 0.328082,-0.8572473 l 0.02117,-2.8786575 c 0,-0.3069157 0.148166,-0.4656652 0.444499,-0.4550819 0.08467,0 0.328082,0.021167 0.444498,0.021167 0.201083,0 0.338666,-0.021167 0.423332,-0.0635 0.22225,-0.1164163 0.328083,-0.4021654 0.328083,-0.8572472 0,-0.2434159 -0.105833,-0.4127487 -0.306916,-0.4868318 -0.349249,-0.1375829 -0.899581,-0.211666 -1.640412,-0.2222493 -1.05833,-0.021167 -2.074326,0.010583 -3.037407,0.084666 -0.613831,0.052917 -0.920747,0.2857491 -0.920747,0.7196644 0,0.5609148 0.179916,0.8254973 0.550332,0.7937474 l 0.465665,-0.03175 c 0.243416,-0.010583 0.359832,0.09525 0.349249,0.3174993 z"
       id="text10"
       aria-label="edit" />
    <path
       style="font-size:10.5833px;line-height:1.2;font-family:Pusab;-inkscape-font-specification:Pusab;text-align:center;letter-spacing:0px;text-anchor:middle;display:none;fill:#ffffff;stroke:#000000;stroke-width:0.661458;stroke-linecap:round;stroke-linejoin:round;paint-order:markers stroke fill"
       d="m 4.4609349,3.608926 c -1.3123292,0 -2.0319936,0.1164163 -2.1695765,0.3598322 -0.105833,0.1904994 -0.1587495,1.0794965 -0.1587495,2.6775748 0,1.5769116 0.052916,2.4447422 0.1587495,2.6034917 0.1693328,0.2434159 0.8889972,0.3704155 2.1484099,0.3704155 0.7619975,0 1.4181621,-0.1481662 1.9684937,-0.4339153 1.0054135,-0.529165 1.5028285,-1.3864123 1.5028285,-2.5823251 0,-0.5185817 -0.1164163,-0.9842469 -0.3492488,-1.4181622 C 6.9903435,4.138091 5.9531801,3.608926 4.4609349,3.608926 Z M 5.4663483,7.9798287 C 5.349932,7.9692454 5.2758489,7.8739957 5.2546823,7.6940796 5.2229324,7.4506638 5.2123491,7.0802483 5.2123491,6.6039998 c 0,-0.4339153 0.021167,-0.7937475 0.052917,-1.0794966 0.021167,-0.1799161 0.084666,-0.2751658 0.2010827,-0.2857491 0.052917,-0.010583 0.1269996,0 0.2222493,0.03175 0.5185817,0.1481662 0.7831642,0.5926648 0.7831642,1.3334958 0,0.2222493 -0.021167,0.4127487 -0.074083,0.5714982 -0.1693334,0.5609147 -0.4762491,0.8254972 -0.931331,0.8043306 z m 7.9163127,0.021167 c -0.380998,0.052917 -0.677331,0.084666 -0.888997,0.084666 -0.317499,0.010583 -0.507998,-0.010583 -0.571498,-0.052916 C 11.80575,7.9586627 11.74225,7.831663 11.74225,7.6411637 c 0,-0.1375829 0.03175,-0.2434159 0.09525,-0.317499 0.126999,-0.105833 0.359832,-0.1587495 0.687914,-0.1481662 0.338666,0.010583 0.539748,-0.010583 0.613831,-0.0635 0.116417,-0.074083 0.179917,-0.2328326 0.179917,-0.4762485 0,-0.3598322 -0.105833,-0.5397483 -0.317499,-0.5503316 -0.433916,-0.021167 -0.687915,-0.042333 -0.772581,-0.052917 -0.328083,-0.0635 -0.486832,-0.211666 -0.486832,-0.4339153 0,-0.2010827 0.05292,-0.3280823 0.169333,-0.3915821 0.08467,-0.052917 0.275165,-0.074083 0.582081,-0.0635 0.09525,0 0.243416,0.021167 0.444499,0.052916 0.201082,0.03175 0.359832,0.052917 0.465665,0.052917 0.137583,0 0.243416,-0.09525 0.317499,-0.2751658 0.05292,-0.1375829 0.08467,-0.2963323 0.08467,-0.4550818 0,-0.2434159 -0.08467,-0.423332 -0.264582,-0.5397483 C 13.435578,3.9052584 13.234495,3.8417586 12.948746,3.7888421 12.334915,3.6724258 11.625834,3.608926 10.821503,3.608926 9.4562572,3.608926 8.6942596,3.7782588 8.5143435,4.1169244 8.3979272,4.3391737 8.3344274,5.1858376 8.3344274,6.6569163 v 0.740831 c 0,1.0054134 0.084666,1.6192448 0.2539992,1.8309108 0.211666,0.2645825 0.9948302,0.3915821 2.3494924,0.3915821 0.825497,0 1.492245,-0.052917 2.010827,-0.1481662 0.571498,-0.105833 0.857247,-0.3492489 0.857247,-0.7302477 0,-0.5397483 -0.137583,-0.7831642 -0.423332,-0.7408306 z m 5.651474,0.010583 c -0.08467,0 -0.232832,0.010583 -0.455082,0.021167 -0.222249,0.010583 -0.359832,0.021167 -0.433915,0.021167 -0.306916,0.010583 -0.497415,-0.03175 -0.571498,-0.1269996 -0.04233,-0.3386655 -0.0635,-0.5503315 -0.0635,-0.6455812 V 6.9426654 c 0,-0.5503316 0,-1.0900799 0.01058,-1.6086616 V 4.667256 C 17.51014,3.9687582 17.266724,3.6195093 16.769309,3.6195093 c -0.99483,0 -1.598078,0.042333 -1.820327,0.1375829 -0.264583,0.1164163 -0.455082,0.3492489 -0.571499,0.7196644 -0.09525,0.3174989 -0.137582,0.6773311 -0.126999,1.0794965 0.02117,0.7725809 0.03175,1.1006632 0.03175,1.0054135 0,1.6192448 0.08467,2.508242 0.264582,2.6881581 0.22225,0.1904994 0.571498,0.3069157 1.037164,0.3492489 0.137582,0.010583 0.507998,0.021167 1.121829,0.021167 0.740831,0 1.375829,-0.0635 1.894411,-0.1904994 0.285749,-0.074083 0.465665,-0.1375829 0.560915,-0.1904994 0.179916,-0.1164163 0.275166,-0.2857491 0.275166,-0.4974151 0,-0.4868318 -0.137583,-0.7302477 -0.402166,-0.730248 z m 5.873726,-0.010583 c -0.380999,0.052917 -0.677331,0.084666 -0.888997,0.084666 -0.317499,0.010583 -0.507998,-0.010583 -0.571498,-0.052916 C 23.33095,7.9586627 23.26745,7.831663 23.26745,7.6411637 c 0,-0.1375829 0.03175,-0.2434159 0.09525,-0.317499 0.127,-0.105833 0.359833,-0.1587495 0.687915,-0.1481662 0.338666,0.010583 0.539748,-0.010583 0.613831,-0.0635 0.116417,-0.074083 0.179916,-0.2328326 0.179916,-0.4762485 0,-0.3598322 -0.105833,-0.5397483 -0.317499,-0.5503316 -0.433915,-0.021167 -0.687914,-0.042333 -0.77258,-0.052917 -0.328083,-0.0635 -0.486832,-0.211666 -0.486832,-0.4339153 0,-0.2010827 0.05292,-0.3280823 0.169333,-0.3915821 0.08467,-0.052917 0.275165,-0.074083 0.582081,-0.0635 0.09525,0 0.243416,0.021167 0.444499,0.052916 0.201082,0.03175 0.359832,0.052917 0.465665,0.052917 0.137583,0 0.243416,-0.09525 0.317499,-0.2751658 0.05292,-0.1375829 0.08467,-0.2963323 0.08467,-0.4550818 0,-0.2434159 -0.08467,-0.423332 -0.264582,-0.5397483 C 24.960778,3.9052584 24.759695,3.8417586 24.473946,3.7888421 23.860115,3.6724258 23.151033,3.608926 22.346703,3.608926 c -1.365246,0 -2.127244,0.1693328 -2.30716,0.5079984 -0.116416,0.2222493 -0.179916,1.0689132 -0.179916,2.5399919 v 0.740831 c 0,1.0054134 0.08467,1.6192448 0.253999,1.8309108 0.211666,0.2645825 0.994831,0.3915821 2.349493,0.3915821 0.825497,0 1.492245,-0.052917 2.010827,-0.1481662 0.571498,-0.105833 0.857247,-0.3492489 0.857247,-0.7302477 0,-0.5397483 -0.137583,-0.7831642 -0.423332,-0.7408306 z M 27.119763,5.503337 c -0.0635,1.6298282 -0.08467,2.6564082 -0.05292,3.0903235 0.02117,0.3492489 0.07408,0.5714982 0.15875,0.6561646 0.243416,0.2434159 0.666748,0.3598322 1.269996,0.3704155 h 0.264582 C 29.19409,9.5990736 29.501005,9.5355738 29.670338,9.4191575 29.892587,9.2709913 29.99842,8.9852422 29.99842,8.5619102 l 0.02117,-2.8786575 c 0,-0.3069157 0.148166,-0.4656652 0.444498,-0.4550819 0.08467,0 0.328083,0.021167 0.444499,0.021167 0.201083,0 0.338666,-0.021167 0.423332,-0.0635 0.222249,-0.1164163 0.328082,-0.4021654 0.328082,-0.8572472 0,-0.2434159 -0.105833,-0.4127487 -0.306915,-0.4868318 -0.349249,-0.1375829 -0.899581,-0.211666 -1.640412,-0.2222493 -1.05833,-0.021167 -2.074327,0.010583 -3.037407,0.084666 -0.613831,0.052917 -0.920747,0.2857491 -0.920747,0.7196644 0,0.5609148 0.179916,0.8254973 0.550332,0.7937474 l 0.465665,-0.03175 c 0.243416,-0.010583 0.359832,0.09525 0.349249,0.317499 z m 10.011798,2.4976587 c -0.380999,0.052917 -0.677331,0.084666 -0.888997,0.084666 -0.317499,0.010583 -0.507999,-0.010583 -0.571499,-0.052916 -0.116416,-0.074083 -0.179916,-0.2010827 -0.179916,-0.391582 0,-0.1375829 0.03175,-0.2434159 0.09525,-0.317499 0.127,-0.105833 0.359832,-0.1587495 0.687915,-0.1481662 0.338665,0.010583 0.539748,-0.010583 0.613831,-0.0635 0.116416,-0.074083 0.179916,-0.2328326 0.179916,-0.4762485 0,-0.3598322 -0.105833,-0.5397483 -0.317499,-0.5503316 -0.433915,-0.021167 -0.687914,-0.042333 -0.772581,-0.052917 -0.328082,-0.0635 -0.486832,-0.211666 -0.486832,-0.4339153 0,-0.2010827 0.05292,-0.3280823 0.169333,-0.3915821 0.08467,-0.052917 0.275166,-0.074083 0.582082,-0.0635 0.09525,0 0.243416,0.021167 0.444498,0.052916 0.201083,0.03175 0.359832,0.052917 0.465665,0.052917 0.137583,0 0.243416,-0.09525 0.317499,-0.2751658 0.05292,-0.1375829 0.08467,-0.2963323 0.08467,-0.4550818 0,-0.2434159 -0.08467,-0.423332 -0.264583,-0.5397483 C 37.184477,3.9052584 36.983395,3.8417586 36.697646,3.7888421 36.083814,3.6724258 35.374733,3.608926 34.570402,3.608926 c -1.365245,0 -2.127243,0.1693328 -2.307159,0.5079984 -0.116416,0.2222493 -0.179916,1.0689132 -0.179916,2.5399919 v 0.740831 c 0,1.0054134 0.08467,1.6192448 0.253999,1.8309108 0.211666,0.2645825 0.99483,0.3915821 2.349493,0.3915821 0.825497,0 1.492245,-0.052917 2.010827,-0.1481662 0.571498,-0.105833 0.857247,-0.3492489 0.857247,-0.7302477 0,-0.5397483 -0.137583,-0.7831642 -0.423332,-0.7408306 z"
       id="text11"
       aria-label="delete" />
  </g>
</svg>
