<?xml version="1.0" encoding="UTF-8" standalone="no"?>
<!-- Created with Inkscape (http://www.inkscape.org/) -->

<svg
   width="149.22501mm"
   height="149.22501mm"
   viewBox="0 0 149.22502 149.22502"
   version="1.1"
   id="svg1"
   inkscape:version="1.3.2 (091e20ef0f, 2023-11-25, custom)"
   sodipodi:docname="Ball.svg"
   inkscape:export-filename="cube.png"
   inkscape:export-xdpi="96"
   inkscape:export-ydpi="96"
   xml:space="preserve"
   xmlns:inkscape="http://www.inkscape.org/namespaces/inkscape"
   xmlns:sodipodi="http://sodipodi.sourceforge.net/DTD/sodipodi-0.dtd"
   xmlns:xlink="http://www.w3.org/1999/xlink"
   xmlns="http://www.w3.org/2000/svg"
   xmlns:svg="http://www.w3.org/2000/svg"><sodipodi:namedview
     id="namedview1"
     pagecolor="#4c4c4c"
     bordercolor="#eeeeee"
     borderopacity="1"
     inkscape:showpageshadow="0"
     inkscape:pageopacity="0"
     inkscape:pagecheckerboard="false"
     inkscape:deskcolor="#181825"
     inkscape:document-units="px"
     inkscape:zoom="15.405901"
     inkscape:cx="275.47886"
     inkscape:cy="563.71258"
     inkscape:window-width="1920"
     inkscape:window-height="1080"
     inkscape:window-x="0"
     inkscape:window-y="0"
     inkscape:window-maximized="1"
     inkscape:current-layer="layer1"
     showgrid="false"><inkscape:page
       x="0"
       y="0"
       width="149.22502"
       height="149.22502"
       id="page1"
       margin="0"
       bleed="0"
       inkscape:export-filename="../../../../../Téléchargements/ball.png"
       inkscape:export-xdpi="96"
       inkscape:export-ydpi="96" /></sodipodi:namedview><defs
     id="defs1"><inkscape:path-effect
       effect="offset"
       id="path-effect126"
       is_visible="true"
       lpeversion="1.2"
       linejoin_type="round"
       unit="px"
       offset="50"
       miter_limit="4"
       attempt_force_join="false"
       update_on_knot_move="true" /><inkscape:path-effect
       effect="fillet_chamfer"
       id="path-effect124"
       is_visible="true"
       lpeversion="1"
       nodesatellites_param="F,0,0,1,0,0,0,1 @ F,0,0,1,0,25,0,1 @ F,0,0,1,0,0,0,1 @ F,0,0,1,0,25,0,1 @ F,0,0,1,0,0,0,1 @ F,0,0,1,0,25,0,1 @ F,0,0,1,0,0,0,1 @ F,0,0,1,0,25,0,1 @ F,0,0,1,0,0,0,1 @ F,0,0,1,0,25,0,1"
       radius="0"
       unit="px"
       method="auto"
       mode="F"
       chamfer_steps="1"
       flexible="false"
       use_knot_distance="true"
       apply_no_radius="true"
       apply_with_radius="true"
       only_selected="false"
       hide_knots="false" /><inkscape:path-effect
       effect="offset"
       id="path-effect122"
       is_visible="true"
       lpeversion="1.2"
       linejoin_type="round"
       unit="px"
       offset="25"
       miter_limit="4"
       attempt_force_join="false"
       update_on_knot_move="true" /><inkscape:path-effect
       effect="fillet_chamfer"
       id="path-effect121"
       is_visible="true"
       lpeversion="1"
       nodesatellites_param="F,0,0,1,0,0,0,1 @ F,0,0,1,0,25,0,1 @ F,0,0,1,0,0,0,1 @ F,0,0,1,0,25,0,1 @ F,0,0,1,0,0,0,1 @ F,0,0,1,0,25,0,1 @ F,0,0,1,0,0,0,1 @ F,0,0,1,0,25,0,1 @ F,0,0,1,0,0,0,1 @ F,0,0,1,0,25,0,1"
       radius="0"
       unit="px"
       method="auto"
       mode="F"
       chamfer_steps="1"
       flexible="false"
       use_knot_distance="true"
       apply_no_radius="true"
       apply_with_radius="true"
       only_selected="false"
       hide_knots="false" /><inkscape:path-effect
       effect="fillet_chamfer"
       id="path-effect119"
       is_visible="true"
       lpeversion="1"
       nodesatellites_param="F,0,0,1,0,0,0,1 @ F,0,0,1,0,25,0,1 @ F,0,0,1,0,0,0,1 @ F,0,0,1,0,25,0,1 @ F,0,0,1,0,0,0,1 @ F,0,0,1,0,25,0,1 @ F,0,0,1,0,0,0,1 @ F,0,0,1,0,25,0,1 @ F,0,0,1,0,0,0,1 @ F,0,0,1,0,25,0,1"
       radius="0"
       unit="px"
       method="auto"
       mode="F"
       chamfer_steps="1"
       flexible="false"
       use_knot_distance="true"
       apply_no_radius="true"
       apply_with_radius="true"
       only_selected="false"
       hide_knots="false" /><inkscape:path-effect
       effect="fillet_chamfer"
       id="path-effect118"
       is_visible="true"
       lpeversion="1"
       nodesatellites_param="F,0,0,1,0,0,0,1 @ F,0,0,1,0,23.561784,0,1 @ F,0,0,1,0,0,0,1 @ F,0,0,1,0,0,0,1 @ F,0,0,1,0,0,0,1 @ F,0,0,1,0,0,0,1 @ F,0,0,1,0,0,0,1 @ F,0,0,1,0,0,0,1 @ F,0,0,1,0,0,0,1 @ F,0,0,1,0,0,0,1"
       radius="0"
       unit="px"
       method="auto"
       mode="F"
       chamfer_steps="1"
       flexible="false"
       use_knot_distance="true"
       apply_no_radius="true"
       apply_with_radius="true"
       only_selected="false"
       hide_knots="false" /><inkscape:path-effect
       effect="knot"
       id="path-effect117"
       is_visible="true"
       lpeversion="1"
       switcher_size="15"
       interruption_width="3"
       prop_to_stroke_width="true"
       add_stroke_width="inkscape_1.0_and_up"
       both="false"
       inverse_width="false"
       add_other_stroke_width="inkscape_1.0_and_up"
       crossing_points_vector="" /><inkscape:path-effect
       effect="offset"
       id="path-effect116"
       is_visible="true"
       lpeversion="1.2"
       linejoin_type="round"
       unit="px"
       offset="50"
       miter_limit="4"
       attempt_force_join="false"
       update_on_knot_move="true" /><inkscape:path-effect
       effect="offset"
       id="path-effect112"
       is_visible="true"
       lpeversion="1.2"
       linejoin_type="miter"
       unit="px"
       offset="25"
       miter_limit="4"
       attempt_force_join="false"
       update_on_knot_move="true" /><inkscape:path-effect
       effect="slice"
       start_point="74.612293,72.341782"
       end_point="74.612293,143.51692"
       center_point="74.612293,107.92935"
       id="path-effect110"
       is_visible="true"
       lpeversion="1.2"
       lpesatellites="#g116"
       allow_transforms="true" /><inkscape:path-effect
       effect="offset"
       id="path-effect81"
       is_visible="true"
       lpeversion="1.2"
       linejoin_type="miter"
       unit="px"
       offset="25"
       miter_limit="4"
       attempt_force_join="false"
       update_on_knot_move="true" /><inkscape:path-effect
       effect="slice"
       start_point="74.612293,72.341786"
       end_point="74.612293,143.51692"
       center_point="74.612293,107.92935"
       id="path-effect73"
       is_visible="true"
       lpeversion="1.2"
       lpesatellites="#g77"
       allow_transforms="true" /><inkscape:path-effect
       effect="copy_rotate"
       starting_point="97.213109,74.612511"
       origin="74.612511,74.612511"
       id="path-effect62"
       is_visible="true"
       lpeversion="1.2"
       lpesatellites=""
       method="normal"
       num_copies="5"
       starting_angle="0"
       rotation_angle="72"
       gap="-0.01"
       copies_to_360="true"
       mirror_copies="false"
       split_items="true"
       link_styles="true" /><inkscape:path-effect
       effect="offset"
       id="path-effect26"
       is_visible="true"
       lpeversion="1.2"
       linejoin_type="round"
       unit="px"
       offset="25"
       miter_limit="4"
       attempt_force_join="false"
       update_on_knot_move="true" /><inkscape:path-effect
       origin="74.612511,74.612511"
       starting_point="90.598617,74.612511"
       effect="copy_rotate"
       id="path-effect14"
       is_visible="true"
       lpeversion="1.2"
       lpesatellites=""
       method="normal"
       num_copies="5"
       starting_angle="0"
       rotation_angle="72"
       gap="-0.01"
       copies_to_360="true"
       mirror_copies="false"
       split_items="true"
       link_styles="true" /><inkscape:path-effect
       effect="copy_rotate"
       starting_point="90.598628,74.612528"
       origin="74.612522,74.612528"
       id="path-effect12"
       is_visible="true"
       lpeversion="1.2"
       lpesatellites=""
       method="normal"
       num_copies="5"
       starting_angle="0"
       rotation_angle="72"
       gap="-0.01"
       copies_to_360="true"
       mirror_copies="false"
       split_items="false"
       link_styles="true" /><linearGradient
       id="linearGradient26"
       inkscape:collect="always"><stop
         style="stop-color:#6600ff;stop-opacity:1"
         offset="0"
         id="stop26" /><stop
         style="stop-color:#00ffff;stop-opacity:1"
         offset="1"
         id="stop27" /></linearGradient><inkscape:path-effect
       effect="fillet_chamfer"
       id="path-effect16"
       is_visible="true"
       lpeversion="1"
       nodesatellites_param="F,0,0,1,0,3,0,1 @ F,0,0,1,0,3,0,1 @ F,0,0,1,0,3,0,1 @ F,0,0,1,0,3,0,1"
       radius="3"
       unit="px"
       method="auto"
       mode="F"
       chamfer_steps="1"
       flexible="false"
       use_knot_distance="true"
       apply_no_radius="true"
       apply_with_radius="true"
       only_selected="false"
       hide_knots="false" /><inkscape:path-effect
       effect="mirror_symmetry"
       start_point="67.73333,15.949046"
       end_point="67.73333,78.449112"
       center_point="67.73333,47.199079"
       id="path-effect15"
       is_visible="true"
       lpeversion="1.2"
       lpesatellites=""
       mode="free"
       discard_orig_path="false"
       fuse_paths="false"
       oposite_fuse="false"
       split_items="false"
       split_open="false"
       link_styles="false" /><inkscape:path-effect
       effect="mirror_symmetry"
       start_point="53.493657,16.004937"
       end_point="53.493657,88.608874"
       center_point="53.493657,52.306905"
       id="path-effect13"
       is_visible="true"
       lpeversion="1.2"
       lpesatellites=""
       mode="free"
       discard_orig_path="false"
       fuse_paths="false"
       oposite_fuse="false"
       split_items="false"
       split_open="false"
       link_styles="false" /><inkscape:path-effect
       effect="fillet_chamfer"
       id="path-effect5"
       is_visible="true"
       lpeversion="1"
       nodesatellites_param="F,0,0,1,0,0,0,1 @ F,0,0,1,0,16.938008,0,1 @ F,0,0,1,0,7.0382784,0,1 @ F,0,0,1,0,7.0382784,0,1 @ F,0,0,1,0,0,0,1"
       radius="0"
       unit="px"
       method="auto"
       mode="F"
       chamfer_steps="1"
       flexible="false"
       use_knot_distance="true"
       apply_no_radius="true"
       apply_with_radius="true"
       only_selected="false"
       hide_knots="false" /><inkscape:path-effect
       effect="mirror_symmetry"
       start_point="67.733331,0"
       end_point="67.733329,137.19875"
       center_point="67.73333,68.599375"
       id="path-effect4"
       is_visible="true"
       lpeversion="1.2"
       lpesatellites=""
       mode="free"
       discard_orig_path="false"
       fuse_paths="false"
       oposite_fuse="false"
       split_items="false"
       split_open="false"
       link_styles="false" /><linearGradient
       inkscape:collect="always"
       xlink:href="#linearGradient26"
       id="linearGradient8"
       x1="74.612511"
       y1="136.90227"
       x2="74.670906"
       y2="78.956429"
       gradientUnits="userSpaceOnUse" /><clipPath
       clipPathUnits="userSpaceOnUse"
       id="clipPath81"><path
         d="m 74.61251,83.898249 c -0.895369,-2.018385 -1.657191,-4.114044 -2.23914,-6.291089 -0.331647,-1.238705 -0.296132,-2.546803 0.10232,-3.765662 0.174506,-0.53295 0.425886,-1.032068 0.725019,-1.49965 H 52.01182 v 30.618802 h 22.60069 z"
         style="fill:#ff0000;fill-opacity:0.25;stroke-width:3.30729;stroke-linecap:round;stroke-linejoin:round;paint-order:stroke fill markers"
         id="path81" /></clipPath><linearGradient
       inkscape:collect="always"
       xlink:href="#linearGradient26"
       id="linearGradient136"
       gradientUnits="userSpaceOnUse"
       x1="74.612511"
       y1="136.90227"
       x2="74.670906"
       y2="78.956429" /><linearGradient
       inkscape:collect="always"
       xlink:href="#linearGradient26"
       id="linearGradient137"
       gradientUnits="userSpaceOnUse"
       x1="74.612511"
       y1="136.90227"
       x2="74.670906"
       y2="78.956429" /><linearGradient
       inkscape:collect="always"
       xlink:href="#linearGradient26"
       id="linearGradient138"
       gradientUnits="userSpaceOnUse"
       x1="74.612511"
       y1="136.90227"
       x2="74.670906"
       y2="78.956429" /><linearGradient
       inkscape:collect="always"
       xlink:href="#linearGradient26"
       id="linearGradient139"
       gradientUnits="userSpaceOnUse"
       x1="74.612511"
       y1="136.90227"
       x2="74.670906"
       y2="78.956429" /><linearGradient
       inkscape:collect="always"
       xlink:href="#linearGradient26"
       id="linearGradient140"
       gradientUnits="userSpaceOnUse"
       x1="74.612511"
       y1="136.90227"
       x2="74.670906"
       y2="78.956429" /><linearGradient
       inkscape:collect="always"
       xlink:href="#linearGradient26"
       id="linearGradient141"
       gradientUnits="userSpaceOnUse"
       x1="74.612511"
       y1="136.90227"
       x2="74.670906"
       y2="78.956429" /></defs><g
     inkscape:label="Calque 1"
     inkscape:groupmode="layer"
     id="layer1"><g
       id="g126"
       transform="matrix(0.98528372,0,0,0.98528372,1.0946685,1.0930977)"
       style="stroke-width:1.01493"><path
         sodipodi:type="star"
         style="fill:#00ff7d;fill-opacity:1;stroke:none;stroke-width:3.02172;stroke-linecap:round;stroke-linejoin:round;paint-order:stroke fill markers"
         id="path122"
         inkscape:flatsided="false"
         sodipodi:sides="5"
         sodipodi:cx="74.612511"
         sodipodi:cy="69.888306"
         sodipodi:r1="44.748348"
         sodipodi:r2="30.60207"
         sodipodi:arg1="-1.5707963"
         sodipodi:arg2="-0.94247777"
         inkscape:rounded="0"
         inkscape:randomized="0"
         inkscape:transform-center-y="-4.7467741"
         transform="matrix(1.1108537,0,0,1.1108537,-8.2710735,-2.7868574)"
         d="m 74.613281,13.054688 a 12.086885,12.086885 0 0 0 -8.984375,3.999999 l -1.265625,1.408204 C 54.474144,29.453406 42.379961,38.237279 28.867187,44.248047 l -1.728515,0.769531 a 12.086885,12.086885 0 0 0 -5.552735,17.082031 l 0.949219,1.646485 c 7.397213,12.802289 12.016093,27.019152 13.556641,41.724606 l 0.197265,1.88086 a 12.086885,12.086885 0 0 0 14.53125,10.5625 l 1.857422,-0.39453 c 14.461109,-3.07894 29.408347,-3.07859 43.876953,0.002 l 1.84961,0.39258 a 12.086885,12.086885 0 0 0 14.531253,-10.5625 l 0.19726,-1.88281 c 1.5404,-14.704028 6.15914,-28.920905 13.56055,-41.730469 l 0.94531,-1.638672 a 12.086885,12.086885 0 0 0 -5.55273,-17.082031 l -1.73242,-0.769531 C 106.84457,38.238981 94.753838,29.453032 84.863281,18.460937 l -1.265625,-1.40625 a 12.086885,12.086885 0 0 0 -8.984375,-3.999999 z"
         inkscape:path-effect="#path-effect124;#path-effect126" /><path
         id="path6"
         style="display:inline;fill:#00ff7d;fill-opacity:1;stroke-width:3.35669;stroke-linecap:round;stroke-linejoin:round;paint-order:stroke fill markers"
         d="m 40.353516,10.748047 c -1.001206,-0.01006 -2.014548,0.0082 -3.039063,0.06055 a 13.42676,13.42676 0 0 0 -11.855469,8.615234 c -5.053771,13.2177 -4.188289,27.74488 2.322266,39.972656 C 15.327479,65.462166 6.0869169,76.70495 2.40625,90.369141 a 13.42676,13.42676 0 0 0 4.5292969,13.937499 c 11.0096411,8.89137 25.0932741,12.55631 38.7343751,10.14258 1.920005,13.71911 9.757433,25.98027 21.615234,33.70312 a 13.42676,13.42676 0 0 0 14.65625,0 c 11.858392,-7.72323 19.693794,-19.98477 21.613284,-33.70312 13.6411,2.41373 27.72473,-1.25121 38.73437,-10.14258 a 13.42676,13.42676 0 0 0 4.5293,-13.937499 c -3.68067,-13.664179 -12.92123,-24.906973 -25.375,-30.972657 6.51056,-12.227779 7.37603,-26.75496 2.32227,-39.972656 a 13.42676,13.42676 0 0 0 -11.85547,-8.615234 c -1.02298,-0.05226 -2.03815,-0.07069 -3.04102,-0.06055 C 95.830439,10.879901 83.532388,16.128035 74.611328,25.380859 65.692253,16.143778 53.361792,10.879594 40.353516,10.748047 Z"
         inkscape:path-effect="#path-effect116"
         inkscape:original-d="m 40.218222,24.173722 c -0.736412,-0.0074 -1.476001,0.0075 -2.218469,0.04547 -4.248101,11.110538 -2.717421,23.405245 4.086573,32.821773 6.83386,9.396646 18.044442,14.675679 29.925826,14.091649 C 76.290148,60.007854 74.768679,47.684033 67.952451,38.248316 61.527668,29.45377 51.264406,24.285427 40.218222,24.173722 Z m 68.788578,0 c -11.046186,0.111705 -21.309448,5.280048 -27.734231,14.074594 -6.824961,9.403111 -8.380747,21.696181 -4.153752,32.815573 11.902254,0.630875 23.152313,-4.624503 30.019873,-14.022919 6.804,-9.416528 8.33468,-21.711235 4.08658,-32.821773 -0.74247,-0.03793 -1.48206,-0.05292 -2.21847,-0.04547 z m -8.31836,43.881048 c -7.80941,0.02057 -15.554421,2.718351 -21.926829,7.844483 3.078001,11.514667 11.552474,20.590471 22.613089,24.217647 11.0582,3.56111 23.22463,1.21758 32.47865,-6.25595 C 130.75952,82.375365 122.29417,73.328294 111.25472,69.709449 107.801,68.589073 104.23817,68.04542 100.68844,68.05477 Z M 48.559833,68.07854 C 45.00377,68.05923 41.432869,68.594817 37.970297,69.709448 26.930854,73.328293 18.465499,82.375364 15.371674,93.860949 24.625688,101.33448 36.792116,103.67801 47.850316,100.1169 58.898836,96.521235 67.382962,87.490701 70.499065,76.010358 64.13398,70.849737 56.383173,68.121014 48.559833,68.07854 Z m 26.111071,10.87789 c -9.999944,6.485581 -16.012771,17.349833 -16.0445,28.98997 0.03035,11.61742 6.01871,22.46421 15.986106,28.95586 9.967396,-6.49165 15.955757,-17.33844 15.986106,-28.95586 C 90.593116,96.327509 84.62643,85.467643 74.670904,78.95643 Z" /><path
         sodipodi:type="star"
         style="fill:#000000;fill-opacity:1;stroke:none;stroke-width:3.02172;stroke-linecap:round;stroke-linejoin:round;paint-order:stroke fill markers"
         id="path119"
         inkscape:flatsided="false"
         sodipodi:sides="5"
         sodipodi:cx="74.612511"
         sodipodi:cy="69.888306"
         sodipodi:r1="44.748348"
         sodipodi:r2="30.60207"
         sodipodi:arg1="-1.5707963"
         sodipodi:arg2="-0.94247777"
         inkscape:rounded="0"
         inkscape:randomized="0"
         inkscape:transform-center-y="-4.7467741"
         transform="matrix(1.1108537,0,0,1.1108537,-8.2710735,-2.7868574)"
         d="m 74.613281,19.097656 a 6.0434423,6.0434423 0 0 0 -4.492187,2 l -1.265625,1.40625 C 58.398707,34.125265 45.612188,43.414809 31.326172,49.769531 l -1.728516,0.769531 a 6.0434423,6.0434423 0 0 0 -2.777344,8.541016 l 0.947266,1.642578 c 7.821513,13.536622 12.707037,28.568354 14.335938,44.117184 l 0.197265,1.88086 a 6.0434423,6.0434423 0 0 0 7.263672,5.28125 l 1.853516,-0.39453 c 15.290844,-3.2556 31.097985,-3.25445 46.392578,0.002 l 1.849609,0.39257 a 6.0434423,6.0434423 0 0 0 7.263674,-5.28125 l 0.19726,-1.88281 c 1.62883,-15.548119 6.51428,-30.578882 14.33789,-44.11914 l 0.94532,-1.638672 a 6.0434423,6.0434423 0 0 0 -2.77735,-8.541016 l -1.72851,-0.769531 C 103.61433,43.41566 90.828565,34.126054 80.371094,22.503906 l -1.265625,-1.40625 a 6.0434423,6.0434423 0 0 0 -4.492188,-2 z"
         inkscape:path-effect="#path-effect121;#path-effect122" /><path
         sodipodi:type="star"
         style="fill:#006464;fill-opacity:1;stroke:none;stroke-width:3.02172;stroke-linecap:round;stroke-linejoin:round;paint-order:stroke fill markers"
         id="path117"
         inkscape:flatsided="false"
         sodipodi:sides="5"
         sodipodi:cx="74.612511"
         sodipodi:cy="69.888306"
         sodipodi:r1="44.748348"
         sodipodi:r2="30.60207"
         sodipodi:arg1="-1.5707963"
         sodipodi:arg2="-0.94247777"
         inkscape:rounded="0"
         inkscape:randomized="0"
         inkscape:transform-center-y="-4.7467741"
         transform="matrix(1.1108537,0,0,1.1108537,-8.2710735,-2.7868574)"
         d="m 74.612512,25.139957 1.265501,1.406444 a 117.41933,117.41933 36.000002 0 0 39.564037,28.744957 l 1.72867,0.768949 -0.94655,1.638178 A 117.41933,117.41933 108 0 0 101.11205,104.2088 l -0.19712,1.88168 -1.8505,-0.39399 a 117.41933,117.41933 1.5449827e-6 0 0 -48.903841,0 l -1.850498,0.39399 -0.197126,-1.88168 A 117.41933,117.41933 72.000002 0 0 33.000849,57.698483 l -0.946546,-1.638179 1.728668,-0.768948 a 117.41933,117.41933 144 0 0 39.56404,-28.744955 z"
         inkscape:path-effect="#path-effect119" /><g
         id="g109"
         style="display:inline;stroke-width:1.01493"><g
           id="g107"
           inkscape:label="petals"
           style="display:inline;stroke-width:1.01493"><g
             id="g86"
             style="stroke-width:1.01493"><path
               d="m 74.685547,72.341797 c -1.282334,-0.0023 -2.537686,0.368208 -3.613281,1.066406 -11.842054,7.680302 -19.022542,20.579145 -19.060547,34.521487 -3.1e-5,0.0117 -3.1e-5,0.0234 0,0.0352 0.03635,13.91512 7.188539,26.7929 18.992187,34.48047 2.194166,1.42875 5.024584,1.42875 7.21875,0 11.803985,-7.68779 18.953884,-20.56611 18.990235,-34.48047 v -0.002 -0.002 -0.002 -0.002 -0.002 -0.002 -0.002 -0.002 -0.002 -0.002 -0.002 C 97.206303,94.027289 90.08353,81.133254 78.292969,73.421875 c -1.072432,-0.701932 -2.3257,-1.077166 -3.607422,-1.080078 z"
               style="display:inline;fill:#000000;fill-opacity:1;stroke-width:3.35669;stroke-linecap:round;stroke-linejoin:round;paint-order:stroke fill markers"
               id="path82" /><g
               id="g85"
               inkscape:label="petal"
               style="display:inline;stroke-width:1.01493"><path
                 d="m 74.670904,78.956432 c -9.999954,6.485587 -16.01277,17.349833 -16.0445,28.989978 0.03035,11.61743 6.0187,22.46421 15.986106,28.95586 9.967406,-6.49165 15.955756,-17.33843 15.986106,-28.95586 -0.0055,-11.6189 -5.972176,-22.47876 -15.927712,-28.989978 z"
                 style="display:inline;fill:url(#linearGradient136);fill-opacity:1;stroke-width:3.35669;stroke-linecap:round;stroke-linejoin:round;paint-order:stroke fill markers"
                 id="path83" /><path
                 d="m 74.694676,89.476204 c -1.069053,4.469398 -1.64011,9.043397 -1.702739,13.638446 0.05809,4.48908 0.601441,8.95872 1.620573,13.33097 1.019132,-4.37225 1.562481,-8.84189 1.620573,-13.33097 -0.0087,-4.588944 -0.524673,-9.162864 -1.538407,-13.638446 z"
                 style="display:inline;mix-blend-mode:normal;fill:#000000;fill-opacity:0.5;stroke-width:3.35669;stroke-linecap:round;stroke-linejoin:round;paint-order:stroke fill markers"
                 id="path84" /><path
                 d="m 90.427567,105.25819 c -0.835913,10.65643 -6.659842,20.36076 -15.815057,26.3524 -9.141281,-5.98224 -14.962373,-15.66643 -15.811957,-26.30538 -0.09246,0.87796 -0.150547,1.75899 -0.174149,2.64119 0.03035,11.61743 6.0187,22.46421 15.986106,28.95586 9.967406,-6.49165 15.955756,-17.33843 15.986106,-28.95586 -0.02134,-0.89786 -0.0784,-1.79459 -0.171049,-2.68821 z"
                 style="display:inline;fill:#ffffff;fill-opacity:0.25;stroke-width:3.35669;stroke-linecap:round;stroke-linejoin:round;paint-order:stroke fill markers"
                 id="path85" /></g></g><g
             id="g90"
             style="stroke-width:1.01493"><path
               style="display:inline;fill:#000000;fill-opacity:1;stroke-width:3.35669;stroke-linecap:round;stroke-linejoin:round;paint-order:stroke fill markers"
               id="path86"
               d="m 74.685547,72.341797 c -1.282334,-0.0023 -2.537686,0.368208 -3.613281,1.066406 -11.842054,7.680302 -19.022542,20.579145 -19.060547,34.521487 -3.1e-5,0.0117 -3.1e-5,0.0234 0,0.0352 0.03635,13.91512 7.188539,26.7929 18.992187,34.48047 2.194166,1.42875 5.024584,1.42875 7.21875,0 11.803985,-7.68779 18.953884,-20.56611 18.990235,-34.48047 v -0.002 -0.002 -0.002 -0.002 -0.002 -0.002 -0.002 -0.002 -0.002 -0.002 -0.002 C 97.206303,94.027289 90.08353,81.133254 78.292969,73.421875 c -1.072432,-0.701932 -2.3257,-1.077166 -3.607422,-1.080078 z"
               transform="rotate(-72,74.612511,74.612512)" /><g
               id="g89"
               transform="rotate(-72,74.612511,74.612512)"
               style="display:inline;stroke-width:1.01493"><path
                 style="display:inline;fill:url(#linearGradient137);fill-opacity:1;stroke-width:3.35669;stroke-linecap:round;stroke-linejoin:round;paint-order:stroke fill markers"
                 id="path87"
                 d="m 74.670904,78.956432 c -9.999954,6.485587 -16.01277,17.349833 -16.0445,28.989978 0.03035,11.61743 6.0187,22.46421 15.986106,28.95586 9.967406,-6.49165 15.955756,-17.33843 15.986106,-28.95586 -0.0055,-11.6189 -5.972176,-22.47876 -15.927712,-28.989978 z" /><path
                 style="display:inline;mix-blend-mode:normal;fill:#000000;fill-opacity:0.5;stroke-width:3.35669;stroke-linecap:round;stroke-linejoin:round;paint-order:stroke fill markers"
                 id="path88"
                 d="m 74.694676,89.476204 c -1.069053,4.469398 -1.64011,9.043397 -1.702739,13.638446 0.05809,4.48908 0.601441,8.95872 1.620573,13.33097 1.019132,-4.37225 1.562481,-8.84189 1.620573,-13.33097 -0.0087,-4.588944 -0.524673,-9.162864 -1.538407,-13.638446 z" /><path
                 style="display:inline;fill:#ffffff;fill-opacity:0.25;stroke-width:3.35669;stroke-linecap:round;stroke-linejoin:round;paint-order:stroke fill markers"
                 id="path89"
                 d="m 90.427567,105.25819 c -0.835913,10.65643 -6.659842,20.36076 -15.815057,26.3524 -9.141281,-5.98224 -14.962373,-15.66643 -15.811957,-26.30538 -0.09246,0.87796 -0.150547,1.75899 -0.174149,2.64119 0.03035,11.61743 6.0187,22.46421 15.986106,28.95586 9.967406,-6.49165 15.955756,-17.33843 15.986106,-28.95586 -0.02134,-0.89786 -0.0784,-1.79459 -0.171049,-2.68821 z" /></g></g><g
             id="g94"
             style="stroke-width:1.01493"><path
               style="display:inline;fill:#000000;fill-opacity:1;stroke-width:3.35669;stroke-linecap:round;stroke-linejoin:round;paint-order:stroke fill markers"
               id="path90"
               d="m 74.685547,72.341797 c -1.282334,-0.0023 -2.537686,0.368208 -3.613281,1.066406 -11.842054,7.680302 -19.022542,20.579145 -19.060547,34.521487 -3.1e-5,0.0117 -3.1e-5,0.0234 0,0.0352 0.03635,13.91512 7.188539,26.7929 18.992187,34.48047 2.194166,1.42875 5.024584,1.42875 7.21875,0 11.803985,-7.68779 18.953884,-20.56611 18.990235,-34.48047 v -0.002 -0.002 -0.002 -0.002 -0.002 -0.002 -0.002 -0.002 -0.002 -0.002 -0.002 C 97.206303,94.027289 90.08353,81.133254 78.292969,73.421875 c -1.072432,-0.701932 -2.3257,-1.077166 -3.607422,-1.080078 z"
               transform="rotate(-144,74.612511,74.612511)" /><g
               id="g93"
               transform="rotate(-144,74.612512,74.61251)"
               style="display:inline;stroke-width:1.01493"><path
                 style="display:inline;fill:url(#linearGradient138);fill-opacity:1;stroke-width:3.35669;stroke-linecap:round;stroke-linejoin:round;paint-order:stroke fill markers"
                 id="path91"
                 d="m 74.670904,78.956432 c -9.999954,6.485587 -16.01277,17.349833 -16.0445,28.989978 0.03035,11.61743 6.0187,22.46421 15.986106,28.95586 9.967406,-6.49165 15.955756,-17.33843 15.986106,-28.95586 -0.0055,-11.6189 -5.972176,-22.47876 -15.927712,-28.989978 z" /><path
                 style="display:inline;mix-blend-mode:normal;fill:#000000;fill-opacity:0.5;stroke-width:3.35669;stroke-linecap:round;stroke-linejoin:round;paint-order:stroke fill markers"
                 id="path92"
                 d="m 74.694676,89.476204 c -1.069053,4.469398 -1.64011,9.043397 -1.702739,13.638446 0.05809,4.48908 0.601441,8.95872 1.620573,13.33097 1.019132,-4.37225 1.562481,-8.84189 1.620573,-13.33097 -0.0087,-4.588944 -0.524673,-9.162864 -1.538407,-13.638446 z" /><path
                 style="display:inline;fill:#ffffff;fill-opacity:0.25;stroke-width:3.35669;stroke-linecap:round;stroke-linejoin:round;paint-order:stroke fill markers"
                 id="path93"
                 d="m 90.427567,105.25819 c -0.835913,10.65643 -6.659842,20.36076 -15.815057,26.3524 -9.141281,-5.98224 -14.962373,-15.66643 -15.811957,-26.30538 -0.09246,0.87796 -0.150547,1.75899 -0.174149,2.64119 0.03035,11.61743 6.0187,22.46421 15.986106,28.95586 9.967406,-6.49165 15.955756,-17.33843 15.986106,-28.95586 -0.02134,-0.89786 -0.0784,-1.79459 -0.171049,-2.68821 z" /></g></g><g
             id="g98"
             style="stroke-width:1.01493"><path
               style="display:inline;fill:#000000;fill-opacity:1;stroke-width:3.35669;stroke-linecap:round;stroke-linejoin:round;paint-order:stroke fill markers"
               id="path94"
               d="m 74.685547,72.341797 c -1.282334,-0.0023 -2.537686,0.368208 -3.613281,1.066406 -11.842054,7.680302 -19.022542,20.579145 -19.060547,34.521487 -3.1e-5,0.0117 -3.1e-5,0.0234 0,0.0352 0.03635,13.91512 7.188539,26.7929 18.992187,34.48047 2.194166,1.42875 5.024584,1.42875 7.21875,0 11.803985,-7.68779 18.953884,-20.56611 18.990235,-34.48047 v -0.002 -0.002 -0.002 -0.002 -0.002 -0.002 -0.002 -0.002 -0.002 -0.002 -0.002 C 97.206303,94.027289 90.08353,81.133254 78.292969,73.421875 c -1.072432,-0.701932 -2.3257,-1.077166 -3.607422,-1.080078 z"
               transform="rotate(144,74.612511,74.612511)" /><g
               id="g97"
               transform="rotate(144,74.61251,74.612512)"
               style="display:inline;stroke-width:1.01493"><path
                 style="display:inline;fill:url(#linearGradient139);fill-opacity:1;stroke-width:3.35669;stroke-linecap:round;stroke-linejoin:round;paint-order:stroke fill markers"
                 id="path95"
                 d="m 74.670904,78.956432 c -9.999954,6.485587 -16.01277,17.349833 -16.0445,28.989978 0.03035,11.61743 6.0187,22.46421 15.986106,28.95586 9.967406,-6.49165 15.955756,-17.33843 15.986106,-28.95586 -0.0055,-11.6189 -5.972176,-22.47876 -15.927712,-28.989978 z" /><path
                 style="display:inline;mix-blend-mode:normal;fill:#000000;fill-opacity:0.5;stroke-width:3.35669;stroke-linecap:round;stroke-linejoin:round;paint-order:stroke fill markers"
                 id="path96"
                 d="m 74.694676,89.476204 c -1.069053,4.469398 -1.64011,9.043397 -1.702739,13.638446 0.05809,4.48908 0.601441,8.95872 1.620573,13.33097 1.019132,-4.37225 1.562481,-8.84189 1.620573,-13.33097 -0.0087,-4.588944 -0.524673,-9.162864 -1.538407,-13.638446 z" /><path
                 style="display:inline;fill:#ffffff;fill-opacity:0.25;stroke-width:3.35669;stroke-linecap:round;stroke-linejoin:round;paint-order:stroke fill markers"
                 id="path97"
                 d="m 90.427567,105.25819 c -0.835913,10.65643 -6.659842,20.36076 -15.815057,26.3524 -9.141281,-5.98224 -14.962373,-15.66643 -15.811957,-26.30538 -0.09246,0.87796 -0.150547,1.75899 -0.174149,2.64119 0.03035,11.61743 6.0187,22.46421 15.986106,28.95586 9.967406,-6.49165 15.955756,-17.33843 15.986106,-28.95586 -0.02134,-0.89786 -0.0784,-1.79459 -0.171049,-2.68821 z" /></g></g><g
             id="g102"
             style="display:inline;stroke-width:1.01493"><path
               style="display:inline;fill:#000000;fill-opacity:1;stroke-width:3.35669;stroke-linecap:round;stroke-linejoin:round;paint-order:stroke fill markers"
               id="path98"
               d="m 74.685547,72.341797 c -1.282334,-0.0023 -2.537686,0.368208 -3.613281,1.066406 -11.842054,7.680302 -19.022542,20.579145 -19.060547,34.521487 -3.1e-5,0.0117 -3.1e-5,0.0234 0,0.0352 0.03635,13.91512 7.188539,26.7929 18.992187,34.48047 2.194166,1.42875 5.024584,1.42875 7.21875,0 11.803985,-7.68779 18.953884,-20.56611 18.990235,-34.48047 v -0.002 -0.002 -0.002 -0.002 -0.002 -0.002 -0.002 -0.002 -0.002 -0.002 -0.002 C 97.206303,94.027289 90.08353,81.133254 78.292969,73.421875 c -1.072432,-0.701932 -2.3257,-1.077166 -3.607422,-1.080078 z"
               transform="rotate(72,74.612511,74.612511)" /><g
               id="g101"
               transform="rotate(72,74.612512,74.612511)"
               style="display:inline;stroke-width:1.01493"><path
                 style="display:inline;fill:url(#linearGradient140);fill-opacity:1;stroke-width:3.35669;stroke-linecap:round;stroke-linejoin:round;paint-order:stroke fill markers"
                 id="path99"
                 d="m 74.670904,78.956432 c -9.999954,6.485587 -16.01277,17.349833 -16.0445,28.989978 0.03035,11.61743 6.0187,22.46421 15.986106,28.95586 9.967406,-6.49165 15.955756,-17.33843 15.986106,-28.95586 -0.0055,-11.6189 -5.972176,-22.47876 -15.927712,-28.989978 z" /><path
                 style="display:inline;mix-blend-mode:normal;fill:#000000;fill-opacity:0.5;stroke-width:3.35669;stroke-linecap:round;stroke-linejoin:round;paint-order:stroke fill markers"
                 id="path100"
                 d="m 74.694676,89.476204 c -1.069053,4.469398 -1.64011,9.043397 -1.702739,13.638446 0.05809,4.48908 0.601441,8.95872 1.620573,13.33097 1.019132,-4.37225 1.562481,-8.84189 1.620573,-13.33097 -0.0087,-4.588944 -0.524673,-9.162864 -1.538407,-13.638446 z" /><path
                 style="display:inline;fill:#ffffff;fill-opacity:0.25;stroke-width:3.35669;stroke-linecap:round;stroke-linejoin:round;paint-order:stroke fill markers"
                 id="path101"
                 d="m 90.427567,105.25819 c -0.835913,10.65643 -6.659842,20.36076 -15.815057,26.3524 -9.141281,-5.98224 -14.962373,-15.66643 -15.811957,-26.30538 -0.09246,0.87796 -0.150547,1.75899 -0.174149,2.64119 0.03035,11.61743 6.0187,22.46421 15.986106,28.95586 9.967406,-6.49165 15.955756,-17.33843 15.986106,-28.95586 -0.02134,-0.89786 -0.0784,-1.79459 -0.171049,-2.68821 z" /></g></g><g
             id="g106"
             style="display:inline;stroke-width:1.01493"
             inkscape:path-effect="#path-effect110"
             clip-path="url(#clipPath81)"><path
               d="m 74.612293,72.342071 c -1.256842,0.01166 -2.484923,0.381235 -3.540027,1.066132 -11.842043,7.680294 -19.022542,20.579156 -19.060547,34.521487 -3.1e-5,0.0117 -3.1e-5,0.0234 0,0.0352 0.03635,13.91511 7.188551,26.79291 18.992187,34.48047 1.096794,0.71419 2.35257,1.07138 3.608387,1.07156 z"
               style="display:inline;fill:#000000;fill-opacity:1;stroke-width:3.35669;stroke-linecap:round;stroke-linejoin:round;paint-order:stroke fill markers"
               id="path102"
               inkscape:original-d="m 74.685547,72.341797 c -1.282334,-0.0023 -2.537686,0.368208 -3.613281,1.066406 -11.842054,7.680302 -19.022542,20.579145 -19.060547,34.521487 -3.1e-5,0.0117 -3.1e-5,0.0234 0,0.0352 0.03635,13.91512 7.188539,26.7929 18.992187,34.48047 2.194166,1.42875 5.024584,1.42875 7.21875,0 11.803985,-7.68779 18.953884,-20.56611 18.990235,-34.48047 v -0.002 -0.002 -0.002 -0.002 -0.002 -0.002 -0.002 -0.002 -0.002 -0.002 -0.002 C 97.206303,94.027289 90.08353,81.133254 78.292969,73.421875 c -1.072432,-0.701932 -2.3257,-1.077166 -3.607422,-1.080078 z" /><g
               id="g105"
               inkscape:label="petal"
               style="display:inline;stroke-width:1.01493"><path
                 d="m 74.612293,78.995756 c -9.964243,6.490049 -15.953673,17.334513 -15.98534,28.951514 0.03035,11.61703 6.018536,22.46271 15.98534,28.95443 z"
                 style="display:inline;fill:url(#linearGradient141);fill-opacity:1;stroke-width:3.35669;stroke-linecap:round;stroke-linejoin:round;paint-order:stroke fill markers"
                 id="path103"
                 inkscape:original-d="m 74.670904,78.956432 c -9.999954,6.485587 -16.01277,17.349833 -16.0445,28.989978 0.03035,11.61743 6.0187,22.46421 15.986106,28.95586 9.967406,-6.49165 15.955756,-17.33843 15.986106,-28.95586 -0.0055,-11.6189 -5.972176,-22.47876 -15.927712,-28.989978 z" /><path
                 d="m 74.612293,89.828144 c -1.015633,4.357566 -1.559118,8.812461 -1.620106,13.287086 0.05807,4.48763 0.601612,8.95495 1.620106,13.32584 z"
                 style="display:inline;mix-blend-mode:normal;fill:#000000;fill-opacity:0.5;stroke-width:3.35669;stroke-linecap:round;stroke-linejoin:round;paint-order:stroke fill markers"
                 id="path104"
                 inkscape:original-d="m 74.694676,89.476204 c -1.069053,4.469398 -1.64011,9.043397 -1.702739,13.638446 0.05809,4.48908 0.601441,8.95872 1.620573,13.33097 1.019132,-4.37225 1.562481,-8.84189 1.620573,-13.33097 -0.0087,-4.588944 -0.524673,-9.162864 -1.538407,-13.638446 z" /><path
                 d="M 74.612293,131.61068 C 65.47159,125.6284 59.650334,115.94324 58.800781,105.30469 c -0.09246,0.87796 -0.150226,1.76038 -0.173828,2.64258 0.03035,11.61703 6.018536,22.46271 15.98534,28.95443 z"
                 style="display:inline;fill:#ffffff;fill-opacity:0.25;stroke-width:3.35669;stroke-linecap:round;stroke-linejoin:round;paint-order:stroke fill markers"
                 id="path105"
                 inkscape:original-d="m 90.427567,105.25819 c -0.835913,10.65643 -6.659842,20.36076 -15.815057,26.3524 -9.141281,-5.98224 -14.962373,-15.66643 -15.811957,-26.30538 -0.09246,0.87796 -0.150547,1.75899 -0.174149,2.64119 0.03035,11.61743 6.0187,22.46421 15.986106,28.95586 9.967406,-6.49165 15.955756,-17.33843 15.986106,-28.95586 -0.02134,-0.89786 -0.0784,-1.79459 -0.171049,-2.68821 z" /></g></g><g
             clip-path="url(#clipPath81)"
             id="g116"
             style="display:inline;stroke-width:1.01493"><path
               id="path112"
               d="m 74.612293,143.51687 c 1.256476,1.9e-4 2.512994,-0.357 3.610363,-1.07156 11.803973,-7.68778 18.953884,-20.56612 18.990235,-34.48047 v -0.002 -0.002 -0.002 -0.002 -0.002 -0.002 -0.002 -0.002 -0.002 -0.002 -0.002 c -0.0066,-13.915588 -7.129373,-26.810114 -18.919922,-34.521485 -1.072431,-0.701931 -2.325701,-1.077166 -3.607422,-1.080078 -0.02443,-4.4e-5 -0.04885,4.8e-5 -0.07325,2.74e-4 z"
               style="display:inline;fill:#000000;fill-opacity:1;stroke-width:3.35669;stroke-linecap:round;stroke-linejoin:round;paint-order:stroke fill markers" /><g
               id="g115"
               style="display:inline;stroke-width:1.01493"><path
                 id="path113"
                 d="m 74.612293,136.9017 c 3.29e-4,2.1e-4 6.59e-4,4.3e-4 9.88e-4,6.4e-4 9.967396,-6.49164 15.954025,-17.33766 15.984375,-28.95507 -0.0055,-11.618893 -5.970255,-22.479027 -15.925781,-28.990239 -0.01988,0.01289 -0.03974,0.0258 -0.05958,0.03872 z"
                 style="display:inline;fill:url(#linearGradient8);fill-opacity:1;stroke-width:3.35669;stroke-linecap:round;stroke-linejoin:round;paint-order:stroke fill markers" /><path
                 id="path114"
                 d="m 74.612293,116.44107 c 3.29e-4,0.001 6.59e-4,0.003 9.88e-4,0.004 1.019131,-4.37224 1.561049,-8.841 1.619141,-13.33008 -0.0087,-4.588935 -0.523377,-9.16309 -1.53711,-13.638668 -0.02801,0.117123 -0.05569,0.234317 -0.08302,0.351582 z"
                 style="display:inline;mix-blend-mode:normal;fill:#000000;fill-opacity:0.5;stroke-width:3.35669;stroke-linecap:round;stroke-linejoin:round;paint-order:stroke fill markers" /><path
                 id="path115"
                 d="m 74.612293,136.9017 c 3.29e-4,2.1e-4 6.59e-4,4.3e-4 9.88e-4,6.4e-4 9.967396,-6.49164 15.954025,-17.33766 15.984375,-28.95507 -0.02134,-0.89786 -0.07727,-1.79584 -0.169922,-2.68946 -0.835912,10.65642 -6.659247,20.36188 -15.814453,26.35352 -3.29e-4,-2.2e-4 -6.59e-4,-4.3e-4 -9.88e-4,-6.5e-4 z"
                 style="display:inline;fill:#ffffff;fill-opacity:0.25;stroke-width:3.35669;stroke-linecap:round;stroke-linejoin:round;paint-order:stroke fill markers" /></g></g></g><g
           id="g108"
           style="display:inline;stroke-width:1.01493"><path
             style="display:inline;fill:#000000;fill-opacity:1;stroke-width:3.35669;stroke-linecap:round;stroke-linejoin:round;paint-order:stroke fill markers"
             id="path107"
             inkscape:path-effect="#path-effect112"
             sodipodi:type="arc"
             sodipodi:cx="74.612511"
             sodipodi:cy="74.612511"
             sodipodi:rx="3.3354487"
             sodipodi:ry="3.3354487"
             d="m 74.613281,64.564453 c -5.584903,0 -10.048828,4.463925 -10.048828,10.048828 0,5.584904 4.468818,10.046875 10.048828,10.046875 5.58001,0 10.046875,-4.466865 10.046875,-10.046875 0,-5.58001 -4.461971,-10.048828 -10.046875,-10.048828 z" /><circle
             style="display:inline;fill:#00ffff;fill-opacity:1;stroke-width:3.35669;stroke-linecap:round;stroke-linejoin:round;paint-order:stroke fill markers"
             id="circle107"
             cx="74.612511"
             cy="74.612511"
             r="3.3354487" /></g></g></g></g></svg>
